<?xml version="1.0" encoding="utf-8"?>
<!-- Generator: Adobe Illustrator 23.0.3, SVG Export Plug-In . SVG Version: 6.00 Build 0)  -->
<svg version="1.1" xmlns="http://www.w3.org/2000/svg" xmlns:xlink="http://www.w3.org/1999/xlink" x="0px" y="0px"
	 viewBox="0 0 1686.4 275.9" style="enable-background:new 0 0 1686.4 275.9;" xml:space="preserve">
<style type="text/css">
	.st0{fill:none;stroke:#000000;stroke-width:5;stroke-miterlimit:10;}
	.st1{fill:none;stroke:#000000;stroke-width:4;stroke-miterlimit:10;}
	.st2{fill:none;stroke:#000000;stroke-width:6;stroke-miterlimit:10;}
	.st3{stroke:#000000;stroke-miterlimit:10;}
	.st4{fill:#FCFCFC;}
	.st5{fill:none;stroke:#000000;stroke-width:2;stroke-miterlimit:10;}
</style>
<g id="Layer_1">
	<g>
		<g>
			<path d="M1.9,275.9c106.2-24.2,214.5-37,322.9-45.7c52.8-4.2,105.6-7.5,158.4-10.7c55-3.3,110.1-6.9,165.2-7.2
				c109.1-0.7,216.6,18.9,325.5,22.6c53.9,1.8,107.9,1.1,161.8,1c55.5-0.1,111,0.7,166.5,2.2c123.4,3.4,246.6,10.2,369.8,16.9
				c1.9,0.1,1.9-2.9,0-3c-111-6.1-222-12.2-333.1-15.8c-55.5-1.8-111.1-3-166.7-3.3c-54-0.3-108,0.7-162-0.2
				c-55-0.9-109.7-4.7-164.4-10.4c-54.6-5.7-109.3-11.8-164.2-12.8c-54.1-1.1-108.2,1.6-162.2,4.8c-54.1,3.2-108.2,6.4-162.3,10.4
				C237.6,233.5,118.1,246.3,1.1,273C-0.8,273.4,0,276.3,1.9,275.9L1.9,275.9z"/>
		</g>
	</g>
	<g>
		<g>
			<path d="M1.9,275.9c106.2-24.2,214.5-37,322.9-45.7c52.8-4.2,105.6-7.5,158.4-10.7c55-3.3,110.1-6.9,165.2-7.2
				c109.1-0.7,216.6,18.9,325.5,22.6c53.9,1.8,107.9,1.1,161.8,1c55.5-0.1,111,0.7,166.5,2.2c123.4,3.4,246.6,10.2,369.8,16.9
				c1.9,0.1,1.9-2.9,0-3c-111-6.1-222-12.2-333.1-15.8c-55.5-1.8-111.1-3-166.7-3.3c-54-0.3-108,0.7-162-0.2
				c-55-0.9-109.7-4.7-164.4-10.4c-54.6-5.7-109.3-11.8-164.2-12.8c-54.1-1.1-108.2,1.6-162.2,4.8c-54.1,3.2-108.2,6.4-162.3,10.4
				C237.6,233.5,118.1,246.3,1.1,273C-0.8,273.4,0,276.3,1.9,275.9L1.9,275.9z"/>
		</g>
	</g>
	<g>
		<g>
			<path d="M14.6,271.2C121,248,229.5,236.4,338,228.8c52.8-3.7,105.7-6.4,158.5-9c55.1-2.8,110.2-5.7,165.3-5.5
				c109.1,0.5,216.4,21.2,325.2,26c55,2.4,110,2.2,165.1,2.7c54.1,0.5,108.2,1.9,162.2,3.9c123.6,4.7,247.1,12.7,370.5,20.8
				c1.9,0.1,1.9-2.9,0-3c-110.2-7.2-220.5-14.4-330.8-19.2c-55.2-2.4-110.4-4.2-165.6-5.1c-55.1-0.9-110.1-0.5-165.2-1.9
				c-55-1.4-109.7-5.9-164.3-12.1c-53.5-6.1-106.9-12.7-160.8-14.4c-55.2-1.8-110.4,0.3-165.5,3c-54.1,2.6-108.3,5.3-162.4,8.7
				c-119.6,7.5-239.3,19.1-356.5,44.6C11.9,268.7,12.7,271.6,14.6,271.2L14.6,271.2z"/>
		</g>
	</g>
	
		<image style="display:none;overflow:visible;" width="1080" height="1080" xlink:href="../../../../../../Desktop/My Post.png"  transform="matrix(0.3213 0 0 0.3213 459.6371 -73)">
	</image>
	<line class="st0" x1="327.3" y1="154.5" x2="417.2" y2="151"/>
	<line class="st0" x1="340.1" y1="153.4" x2="314.9" y2="230.9"/>
	<line class="st0" x1="344.2" y1="155.9" x2="314.9" y2="230.9"/>
	<line class="st0" x1="395.1" y1="153.8" x2="415.4" y2="224.2"/>
	<line class="st0" x1="400.4" y1="151" x2="415.4" y2="225.6"/>
	<g>
		<g>
			<path d="M340.5,180.6c16.3-2.2,32.7-0.4,49-1.5c7.1-0.5,14-2.4,21.1-2.8c1.9-0.1,4-0.1,5.9,0.4c3.3,0.8,3,1.7,3.5,4.3
				c0.8,4.4,0.8,9.3,1.2,13.8c0.2,1.9,3.2,1.9,3,0c-0.4-5.2-0.9-10.5-1.3-15.7c-0.3-3-0.7-3.5-3.7-4.7c-7.1-2.7-15.1,0-22.2,1
				c-19,2.5-38.2-0.3-57.1,2.3C337.8,177.9,338.6,180.8,340.5,180.6L340.5,180.6z"/>
		</g>
	</g>
	<g>
		<g>
			<path d="M339.3,181.8c1.9,0,1.9-3,0-3C337.4,178.8,337.4,181.8,339.3,181.8L339.3,181.8z"/>
		</g>
	</g>
</g>
<g id="Layer_2">
	<g>
		<g>
			<path d="M297.6,111.3c3.6-0.6,7.5-1.8,11.2-1.9c2.2-0.7,4.2-0.2,6,1.5c0.2,0.6,0.3,1.3,0.5,1.9c0.9,1.9,1.1,4.6,1.6,6.7
				c1.8,7.7,3.6,15.3,5.5,23c1.9,7.9,3.8,15.9,5.7,23.8c1.7,7.6,3.4,16.3-0.8,23.5c-0.9,1.5-2,2.9-3.3,4.1c-0.9,1.3-2.1,1.7-3.5,1.3
				c-1.5,0.4-2.2-0.3-2-2c-1.7-3.3-2.1-7.7-3.1-11.3c-2-7.6-3.9-15.1-5.7-22.8c-3.7-15.9-7-31.8-9.8-47.9c-0.3-1.9-3.2-1.1-2.9,0.8
				c2.9,16.4,6.2,32.7,10,48.8c1.9,7.9,3.9,15.8,6,23.7c1,3.8,1.7,8.2,3.3,11.8c0.6,1.3,1.2,2.3,2.7,2.7c3.6,0.8,7.8-3.3,9.7-5.9
				c3.6-4.9,4.6-11.1,4.1-17.1c-0.6-7.4-2.8-14.6-4.5-21.8c-2-8.3-3.9-16.6-5.9-24.9c-1.1-4.5-2.1-8.9-3.2-13.4
				c-0.6-2.6-0.8-6.7-2.7-8.8c-1.6-1.7-3.6-1.4-5.6-1c-4.7,0.7-9.3,1.6-14,2.3C294.9,108.8,295.7,111.6,297.6,111.3L297.6,111.3z"/>
		</g>
	</g>
	<line class="st1" x1="316.4" y1="201.3" x2="425.1" y2="197"/>
	<g>
		<g>
			<path d="M1282.8,23.9c-3.9-4.4-10.1-7.2-15.3-3.2c-1.5,1.2,0,3.8,1.5,2.6c4.2-3.2,8.6-0.8,11.6,2.7
				C1281.9,27.4,1284.1,25.3,1282.8,23.9L1282.8,23.9z"/>
		</g>
	</g>
	<g>
		<g>
			<path d="M1273.3,117c0.1-6.5,3.3-13,4.3-19.4c1.2-7,2.4-14.1,3.7-21.1c2.3-13.3,4.5-26.7,5.9-40.1c0.2-1.9-2.8-1.9-3,0
				c-1.5,14.5-4,28.8-6.5,43.2c-1.2,7-2.3,14.2-3.6,21.2c-1.1,5.6-3.7,10.6-3.8,16.3C1270.3,119,1273.3,119,1273.3,117L1273.3,117z"
				/>
		</g>
	</g>
	<g>
		<g>
			<path d="M1264.8,26.4c-4.8,33.2-13,65.8-24.9,97.1c-3.1,8.2-6.5,16.4-10.1,24.4c-3.4,7.6-7.8,15-10.9,22.7
				c-4.4,10.9,10,13.6,16.4,7.3c-0.8-0.5-1.7-1-2.5-1.5c-0.7,0.9-0.6,1.6,0.2,2.1c0.6,1.1,1.2,1,2-0.4c-0.7-0.6-1.5-1.1-2.2-1.7
				c-1.1,5.3,2,10.7,6.8,13.1c5,2.5,10.5-0.2,14.2-3.8c9.7-9.5,6.5-25.5,11.6-37.1c0.8-1.8-1.8-3.3-2.6-1.5
				c-3.7,8.5-3.5,17.9-6,26.7c-1.4,5-3.7,9.6-8.4,12.2c-3,1.6-5.7,2.1-8.6,0.2c-2.9-2-4.9-5.4-4.1-9c0.3-1.2-1-2.4-2.2-1.7
				c-1.5,0.9-4.5,3.9-2.4,5.8c2.5,2.3,4.2-2.6,4.6-4.1c0.4-1.5-1.5-2.5-2.5-1.5c-1.4,1.4-6.5,3-8.9,2.2c-6.5-2.1-0.2-11,1.2-13.9
				c2.9-5.9,5.7-11.9,8.3-17.9c5.4-12.4,10.3-25,14.6-37.8c8.9-26.4,15.2-53.6,19.2-81.2C1268,25.3,1265.1,24.4,1264.8,26.4
				L1264.8,26.4z"/>
		</g>
	</g>
	<path class="st0" d="M1382.1,154.9c0.1-4.6,0.6-9.1,1-13.6c0-0.2,0-0.4,0.1-0.5c-0.2-0.5-0.3-1.1-0.2-1.8c0.8-21-0.3-42,1-63
		c-0.2-0.6-0.3-1.2-0.2-1.9c0.7-9,1.6-17.9,2.7-26.9c-0.1-0.9-0.3-1.8-0.4-2.7c0-0.2-0.1-0.4-0.1-0.6c-1.1-2-0.8-4.9,0.9-6.5
		c0-2.6,1.8-5.2,5.2-5c0.4,0,0.8,0.1,1.1,0.2l0.3-3.7l-118.7-8.5l-0.2,2.4c1.7,0.2,3.4,1.1,4.2,2.8c2.5,0.4,3.7,2.3,3.9,4.3
		c2.1,1.7,2.3,5,0.7,7.1c-0.6,8.3-1.2,16.5-3.4,24.6c-0.3,1.3-0.7,2.5-1.1,3.8c0,0,0,0.1,0,0.1c0.6,9.1-1.7,17.6-4.3,26.1
		c-0.9,5.1-1.9,10.3-3.1,15.3c-0.8,9.1-2.5,18-4.9,26.8l-2,27.3l118.7,8.5l0.8-10.6C1382.9,158.1,1382.1,156.7,1382.1,154.9z"/>
	<g>
		<g>
			<path d="M1380.6,160c-0.4,8.9-0.2,17.8,0,26.7c0.1,6.3-1,14,0.9,20.1c2.5,8.1,16.2,8.1,15.3-1.4c-0.9,0.4-1.7,0.7-2.6,1.1
				c0.9,0.7,1.5,1.5,2,2.5c0.8-0.6,1.6-1.2,2.4-1.8c-0.9-0.7-1.5-1.5-2-2.5c-0.8,0.6-1.6,1.2-2.4,1.8c6,7.3,18.2,11.4,22.3,0
				c2.2-6.1,0.8-12.8,0-19c-1.1-8.6-2.1-17.3-3.2-25.9c-4.1-33.4-8.3-66.8-13.4-100.1c-0.3-1.9-3.2-1.1-2.9,0.8
				c4.3,28,8,56.1,11.5,84.3c1.7,14,3.4,28,5.1,42c0.7,5.4,1.9,11.3,0.1,16.6c-3.2,9.5-12.9,4.8-17.5-0.8c-1.1-1.3-3.2,0.4-2.4,1.8
				c0.7,1.3,1.3,2.2,2.4,3.1c1.3,1.1,3.1-0.2,2.4-1.8c-0.6-1.3-1.4-2.1-2.4-3.1c-0.9-0.8-2.7-0.3-2.6,1.1c0.3,3.2-2.9,5.3-5.9,4.3
				c-3.2-1-3.8-4.1-4-7c-0.3-4.1-0.1-8.2-0.2-12.3c-0.2-10.2-0.5-20.3-0.1-30.5C1383.7,158.1,1380.7,158.1,1380.6,160L1380.6,160z"
				/>
		</g>
	</g>
	<g>
		<g>
			<path d="M1382.6,40.7c-4.6,32.5-3.5,65.3-2.5,98c0.1,1.9,3.1,1.9,3,0c-1-32.4-2.1-65,2.4-97.2
				C1385.7,39.7,1382.8,38.8,1382.6,40.7L1382.6,40.7z"/>
		</g>
	</g>
	<g>
		<g>
			<path d="M1384,32c-0.3,1.6-0.6,3.1-0.8,4.7c-0.1,0.8,0.2,1.6,1,1.8c0.7,0.2,1.7-0.2,1.8-1c0.3-1.6,0.5-3.2,0.8-4.7
				C1387.2,30.9,1384.3,30.1,1384,32L1384,32z"/>
		</g>
	</g>
	<path class="st2" d="M1280.4,68.9c34.2,3,68.1,5.4,101.9,7.4"/>
	<line class="st2" x1="1333.9" y1="27.1" x2="1324" y2="164.7"/>
	<g>
		<g>
			<path d="M1394.9,39.3c-0.2,4-0.4,8,0,12c0.5,4.2,2.1,8.1,2.1,12.3c0,1.9,3,1.9,3,0c0-3.8-1.3-7.3-1.9-11
				c-0.7-4.4-0.4-8.9-0.2-13.3C1398,37.4,1395,37.4,1394.9,39.3L1394.9,39.3z"/>
		</g>
	</g>
	<g>
		<g>
			<path d="M1393.8,33.3c0.4,3.3,0.8,6.6,1.1,9.9c0.2,1.9,3.2,1.9,3,0c-0.4-3.3-0.8-6.6-1.1-9.9
				C1396.6,31.4,1393.6,31.4,1393.8,33.3L1393.8,33.3z"/>
		</g>
	</g>
	<path d="M1403.8,209.4c-0.1-0.8-0.7-1-0.9-1.6c-0.5-1.6-0.4-3.7-0.5-5.5c-0.2-5.4-0.5-10.8-1.1-16.2c-1.2-10.1-4.5-19.3-6.9-29.1
		c-0.4-1.7-2.9-1.2-2.9,0.4c-0.8-0.2-1.7,0.1-1.8,1c-1.5,9.5,0.9,18.8,2.7,28c0.2,6.2,0.5,12.4,1.5,18.5c0,0.4-0.1,0.8-0.1,1.3
		c-0.1,0.6,0.2,1,0.6,1.3c0.2,0.8,0.3,1.6,0.5,2.4c0.4,1.9,3.3,1.1,2.9-0.8c-0.3-1.4-0.6-2.8-0.8-4.2c0.6-6.2-0.4-12.2-1.6-18.2
		c-0.2-6.3-0.4-12.6-1.1-18.8c1.9,6.9,3.7,13.8,4.4,21.2c0.5,5.1,0.7,10.2,0.9,15.3c0,1.3-0.3,3.4,0.3,4.6c0.1,0.1,0.3,0.4,0.5,0.6
		c0,0.1,0,0.3,0,0.5c0,0.1,0,0.2,0.1,0.3c0.2,0.8,1.1,1.2,1.8,1c0.1,0,0.3,0,0.4-0.1C1403.6,211.1,1403.9,210.1,1403.8,209.4z"/>
	<path d="M1245.9,142.4c-0.2-1.3-2.2-1.4-2.7-0.4c-6.1,11.3-11.6,23-16.5,34.9c-0.7,1.8,2.2,2.6,2.9,0.8c4.1-9.8,8.6-19.4,13.4-28.8
		c-1.6,10.6-11.3,19.4-11.9,30.6c-0.1,1.9,2.9,1.9,3,0C1234.8,165.9,1248,156.6,1245.9,142.4z"/>
	<path d="M1287.2,38.6c-3.3-5.7-7.9-12.2-14.2-13.8c1-0.3,2-0.5,3-0.8c1.9-0.5,1.1-3.4-0.8-2.9c-0.7,0.2-1.4,0.4-2.1,0.6
		c0.1-0.7-0.3-1.5-1.1-1.6c-1.1-0.2-2.1,0-2.9,0.8c-0.6,0.6-0.9,1.3-1,2.1c-0.9,0.2-1.9,0.5-2.8,0.7c-1.5,0.4-1.3,2.4-0.1,2.9
		c0.1,0.9,0.8,1.7,1.8,1.3c8.6-2.6,13.9,5.9,17.5,12.2C1285.5,41.8,1288.1,40.3,1287.2,38.6z"/>
	<g>
		<g>
			<path d="M523.7,217.2c0.9-9.1-1.6-17.8-2.1-26.8c-0.2-4.8-0.3-11.5,2.1-15.8c2.8-5,11.9-4.1,17-4.3c4.8-0.1,9.7,0,14.5,0.5
				c2.9,0.3,6.5,0.1,9.2,1.2c1.8-0.1,3,0.7,3.7,2.5c0.2,1.5,0.4,2.9,0.6,4.4c1.3,9.9,2,19.9,2.4,29.9c0.1,1.9,3.1,1.9,3,0
				c-0.2-6.8-0.7-13.5-1.3-20.3c-0.3-3.2-0.7-6.4-1.1-9.6c-0.3-2.1-0.2-5.1-1.1-6.9c-1.7-3.3-6.4-3.1-9.6-3.5
				c-6.7-0.9-13.5-1.3-20.3-1.1c-4.8,0.1-12-0.4-16.4,1.7c-3.9,1.8-4.6,8.1-5.2,11.9c-1.9,12.2,2.7,24.1,1.6,36.3
				C520.5,219.1,523.5,219.1,523.7,217.2L523.7,217.2z"/>
		</g>
	</g>
	<g>
		<g>
			<path d="M525.1,168c-1,0.1-1.9,0.2-2.9,0.3c-0.5-1.7-1.1-3.3-1.6-5c0.4-0.8,3.7-1.4,4.8-1.6c2.9-0.5,5.8-0.8,8.7-1.1
				c5.1-0.6,10.3-1,15.4-1c5.2,0,10.4,0.3,15.5,1.6c2.2,0.5,6.7,1.3,8.4,2.8c2.4,2.2,1.1,3-1.3,3.5c-2,0.4-4,0.6-6.1,0.7
				c-1.9,0-1.9,3,0,3c4.3-0.1,18.4-2.2,10.3-8.9c-3.3-2.7-8.9-3.8-13-4.6c-5.4-1-10.9-1.3-16.4-1.1c-5.7,0.2-11.4,0.8-17.1,1.5
				c-4,0.5-8.9,0.7-12,3.6c-1.9,1.8-2.9,4.4-1.4,6.8c2.1,3.3,6.2,2.9,9.5,2.4C527.8,170.6,527,167.7,525.1,168L525.1,168z"/>
		</g>
	</g>
	<g>
		<g>
			<path d="M573.3,212c0-1.5,0-3,0-4.6c0-1.9-3-1.9-3,0c0,1.5,0,3,0,4.6C570.3,214,573.3,214,573.3,212L573.3,212z"/>
		</g>
	</g>
	<g>
		<g>
			<path d="M529.8,214c-0.1-8.2-0.3-16.3-0.4-24.5c0-2-0.7-5-0.1-6.9c0-0.7,0-1.3,0-2c1.3-0.3,2.6-0.4,4-0.4
				c3.9-0.2,7.8-0.2,11.6-0.4c3.8-0.1,7.8-0.6,11.6-0.4c3.4,0.2,4.5,0.6,4.9,4.3c0.2,1.9,0.4,3.8,0.6,5.6c0.8,8.2,1.5,16.3,2,24.5
				c0.1,1.9,3.1,1.9,3,0c-0.7-10.6-1.1-21.5-2.8-32c-0.4-2.4-0.8-4.1-3.2-5.1c-4-1.6-10.9-0.1-15.2,0c-5.3,0.2-11.3-0.4-16.5,0.5
				c-2,0.4-2.7,0.9-3.1,2.9c-0.9,5,0.2,11,0.2,16.1c0.1,5.9,0.2,11.8,0.3,17.6C526.9,215.9,529.9,215.9,529.8,214L529.8,214z"/>
		</g>
	</g>
	<g>
		<g>
			<path d="M556.1,183c-2.1-1-4.5,0.1-5.4,2.2c-0.9,2.1,0.5,4.3,2.6,5c1,0.3,2.1,0.3,3-0.1c1.2-0.5,1.8-1.3,2-2.6
				c0.3-2.4-0.7-4.7-2.7-6.1c-1.6-1.1-3.1,1.5-1.5,2.6c0.7,0.5,1.2,1.4,1.3,2.2c0.1,0.5-0.1,0.9-0.1,1.4c0.1-0.6,0.3-0.2-0.1-0.2
				c-0.1,0-0.3,0-0.5,0c-0.5,0-1.1-0.3-1.2-0.9c0-0.4,0.7-1.2,1.2-1C556.3,186.5,557.9,183.9,556.1,183L556.1,183z"/>
		</g>
	</g>
	<g>
		<g>
			<path d="M553.6,202.8c-0.8,1.5-1.1,3.1-0.8,4.8c0.1,0.5,0.6,0.9,1,1c2.2,0.5,4.5,0.5,6.7-0.2c0.6-0.2,1.2-0.8,1.1-1.4
				c-0.3-3.4-3.8-6-7.1-4.7c-1.8,0.7-1,3.6,0.8,2.9c1.3-0.5,3.2,0.2,3.3,1.8c0.4-0.5,0.7-1,1.1-1.4c-1.7,0.6-3.4,0.7-5.1,0.2
				c0.3,0.3,0.7,0.7,1,1c-0.1-0.9,0.1-1.7,0.5-2.5C557.2,202.6,554.6,201.1,553.6,202.8L553.6,202.8z"/>
		</g>
	</g>
	<g>
		<g>
			<path d="M530.8,202.2c11.5-0.8,23-1.6,34.5-2.4c1.9-0.1,1.9-3.1,0-3c-11.5,0.8-23,1.6-34.5,2.4
				C528.9,199.3,528.9,202.3,530.8,202.2L530.8,202.2z"/>
		</g>
	</g>
	<rect x="531.1" y="138.5" class="st3" width="34" height="17"/>
	<g>
		<g>
			<path class="st4" d="M539.2,147c0.6,0,0.6-0.9,0-0.9C538.6,146.1,538.6,147,539.2,147L539.2,147z"/>
		</g>
	</g>
	<g>
		<g>
			<path class="st4" d="M538.3,143.3c0.6,0,1.8-0.3,2.3,0c1.3,0.8,0.7,2.3,0.4,3.4c-0.5,1.7-1,3.4-1.4,5.1c-0.2,0.6,0.7,0.8,0.9,0.2
				c0.7-2.6,2-5.5,2.1-8.2c0-1.9-2.9-1.5-4.3-1.4C537.8,142.4,537.8,143.3,538.3,143.3L538.3,143.3z"/>
		</g>
	</g>
	<g>
		<g>
			<path class="st4" d="M539.2,146.9c1.3,0,2.7,0,4,0c0.6,0,0.6-0.9,0-0.9c-1.3,0-2.7,0-4,0C538.7,146,538.7,146.9,539.2,146.9
				L539.2,146.9z"/>
		</g>
	</g>
	<g>
		<g>
			<path class="st4" d="M534.4,143.8c0.5-0.3,1.1-0.6,1.6-0.9c-0.2-0.1-0.5-0.3-0.7-0.4c0.2,3.1,0.1,6.3-0.3,9.4
				c-0.1,0.6,0.8,0.6,0.9,0c0.4-3.1,0.5-6.3,0.3-9.4c0-0.3-0.4-0.6-0.7-0.4c-0.5,0.3-1.1,0.6-1.6,0.9
				C533.4,143.3,533.9,144.1,534.4,143.8L534.4,143.8z"/>
		</g>
	</g>
	<g>
		<g>
			<path class="st4" d="M534.3,152.5c1,0,2,0,3,0c0.6,0,0.6-0.9,0-0.9c-1,0-2,0-3,0C533.7,151.6,533.7,152.5,534.3,152.5
				L534.3,152.5z"/>
		</g>
	</g>
	<g>
		<g>
			<path class="st4" d="M546.4,145.1c0,0.2,0,0.3,0,0.5c0,0.5,0.6,0.6,0.8,0.2c0.1-0.2,0.3-0.4,0.4-0.6c0.2-0.3-0.1-0.8-0.5-0.7
				c-0.1,0-0.2,0-0.3,0.1c-0.6,0.1-0.3,1,0.2,0.9c0.1,0,0.2,0,0.3-0.1c-0.2-0.2-0.3-0.4-0.5-0.7c-0.1,0.2-0.2,0.4-0.4,0.6
				c0.3,0.1,0.6,0.2,0.8,0.2c0-0.2,0-0.3,0-0.5C547.3,144.5,546.4,144.5,546.4,145.1L546.4,145.1z"/>
		</g>
	</g>
	<g>
		<g>
			<path class="st4" d="M546.8,149c0,0.1,0,0.2,0,0.3c0,0.2,0.2,0.5,0.5,0.4c0.6,0,0.9-0.5,0.8-1c0-0.1-0.2-0.3-0.3-0.3
				c-0.5-0.1-0.9,0-1.2,0.3c-0.4,0.4,0.2,1,0.6,0.6c0.1-0.1,0.2-0.1,0.4-0.1c-0.1-0.1-0.2-0.2-0.3-0.3c0,0,0-0.1,0-0.1
				c0.1,0.1,0.3,0.3,0.5,0.4c0-0.1,0-0.2,0-0.3C547.7,148.4,546.8,148.4,546.8,149L546.8,149z"/>
		</g>
	</g>
	<g>
		<g>
			<path class="st4" d="M552.1,141.9c-1.4,2.1-1.8,4.8-1.6,7.3c0.1,1.5,1,3.1,2.7,2.4c3.3-1.2,3-9.1-0.5-9.9
				c-0.6-0.1-0.8,0.7-0.2,0.9c1.5,0.3,1.9,2.8,2,4c0,0.7-0.1,1.5-0.3,2.2c-0.1,0.3-0.2,0.6-0.4,1c-1.7,0.4-2.6,0.1-2.5-0.9
				c-0.4-2,0.4-4.9,1.5-6.6C553.2,141.9,552.5,141.4,552.1,141.9L552.1,141.9z"/>
		</g>
	</g>
	<g>
		<g>
			<path class="st4" d="M551.5,148.9c1.2-0.7,2.3-1.5,3.5-2.3c0.5-0.3,0-1.1-0.5-0.8c-1.1,0.8-2.3,1.6-3.5,2.3
				C550.5,148.5,551,149.3,551.5,148.9L551.5,148.9z"/>
		</g>
	</g>
	<g>
		<g>
			<path class="st4" d="M558.9,142.8c-0.7,1.2-1,2.5-1.3,3.8c-0.2,1-0.6,2.4-0.2,3.4c0.5,1.5,3.2,1.8,4.2,0.6
				c0.5-0.6,0.5-1.8,0.5-2.5c0.1-1.4,0.1-3-0.2-4.4C561.7,142,560,141.3,558.9,142.8c-0.4,0.4,0.4,0.8,0.7,0.4
				c1.3-1.7,1.6,1.9,1.6,2c0,0.6,0,1.2,0,1.7c0,1.1,0.2,3.2-1.3,3.4c-3.2,0.5-0.8-6-0.2-7.1C560,142.8,559.2,142.3,558.9,142.8
				L558.9,142.8z"/>
		</g>
	</g>
	<g>
		<g>
			<path class="st4" d="M558.3,148.6c1.3-0.5,2.5-1.1,3.5-2c0.5-0.4-0.2-1-0.6-0.6c-1,0.7-2,1.3-3.1,1.8
				C557.6,148,557.8,148.8,558.3,148.6L558.3,148.6z"/>
		</g>
	</g>
	<rect x="527.6" y="136" class="st5" width="41" height="22"/>
	<g>
		<g>
			<path d="M704.4,110.9c2.2,0.6,3.2,9.3,4.1,11.5c1.3,3.2,3.8,5.9,4.8,9.2c0.5,1.6,1.1,4.5,0.7,6.1c-1.2,4.7-6.6,3.9-9.8,2
				c-3.2-1.9-6-6.9-8.4-9.7c-0.3-0.4-1-0.1-1,0.4c0,3.5,0.4,7.5-0.2,10.9c-1.4,8-8,8.7-14.5,7c-6.1-1.6-7-5.8-6.7-11.4
				c0.1-1.8,0.2-3.5,0.3-5.3c0.2-2.6,1-2.7-0.9-1c0.3,0.2,0.6,0.5,0.9,0.7c1.5-2.6,2.5-5.2,3.2-8.1c0.1-0.3-0.1-0.7-0.4-0.7
				c-1.1-0.2-1.9,0-3-0.4c-0.4-0.2-1.1,0.1-0.9,0.7c0.4,1.3,0.8,2.5,1.3,3.8c0.2,0.6,1,0.6,1.2,0c0.7-2.4,1.7-4.5,3.2-6.5
				c0.2-0.3,0-0.8-0.4-0.9c-0.9-0.8-1.8-1.7-2.7-2.5c-0.2-0.7-1.1-0.5-1.2,0.2c-0.2,1.9-0.1,3.5,0.2,5.3c0.1,0.5,0.8,0.5,1.1,0.1
				c1.4-2.1,2.6-4.3,3.8-6.4c0.2-0.4-0.2-1.1-0.7-0.9c-1.3-2.1-1.6-2.9-0.8-2.2c0.4,0.6,0.3,1.2-0.3,1.7c-0.4,0.7,0.6,1.2,1,0.6
				c0.6-0.8,2-1.5,2.2-2.5c0.5-2.8-4.2-3.2-0.1-7.2c-0.3-0.1-0.7-0.3-1-0.4c0.3,1.6,0.2,3.1-0.3,4.6c-0.1,0.4,0.3,0.9,0.7,0.7
				c1.7-0.6,2.8-1.4,4.1-2.6c0.3-0.3,0.2-0.9-0.3-1c-1.9-0.1-2-1.3-0.3-3.8c-0.4-0.1-0.7-0.2-1.1-0.3c0,1.1,0,2.2,0,3.4
				c0,0.7,1,0.8,1.2,0.2c0.8-0.4,1.7-0.8,2.5-1.2c0.4-0.2,0.7-0.3,1.1-0.5c-1.2-2.1-2.1-4.3-2.2-6.8c-0.1-1.8-1.1-5.1,1.5-3.5
				c2.8,1.7,3.2,6,3.8,8.9c0.1,0.7,1.3,0.5,1.2-0.2c-0.2-2.1-0.6-4.8,1.8-6.2c-0.3-0.2-0.6-0.5-0.9-0.7c-0.2,0.6-0.4,1.3-0.6,1.9
				c-0.2,0.5,0.3,0.8,0.7,0.7c2.1-0.4,4-0.6,6.1-0.6c-0.1-0.4-0.1-0.8-0.2-1.2c-0.5,0.2-1.1,0.3-1.6,0.5c-0.6,0.2-0.6,1,0,1.2
				c2.5,0.6,4.2,2,5.3,4.2c0.2-0.3,0.5-0.6,0.7-0.9c-1.1-0.3-2.3-0.5-3.4-0.8c-0.5-0.1-1,0.4-0.7,0.9c1,1.5,1.9,2.9,2.9,4.4
				c0.3-0.3,0.5-0.5,0.8-0.8c-0.8-0.7-1.7-1.3-2.7-1.7c-0.4-0.2-1,0.2-0.9,0.7c0.1,0.5,0.3,0.9,0.4,1.4c0.4-0.2,0.7-0.3,1.1-0.5
				c-1.3-2.4-2.3-3.1-4.7-4.3c-0.4-0.2-0.9,0.1-0.9,0.5c-0.2,1.8-0.1,3.3,0.1,5.1c0.4-0.1,0.7-0.2,1.1-0.3c-0.8-1-1.7-3.1-2.4-4.2
				c0.1,0.1-0.9-0.5-0.9-0.3c-0.4-1.5,1.2-1.8,1.7-2.5c0.8-1.2,1.1-2,1.1-3.5c0-0.7-0.8-3-0.3-3.7c1.6-2.3,3.5,7.3,3.5,7.5
				c0.4,0,0.8,0,1.2,0c0.2-0.7,0.4-1.4,0.5-2c0.3-0.5-0.3-1.2-0.8-0.8c-1.3,0.9-1.7,1.7-1.6,3.3c0.1,1.2,1.1,2.1,1.7,3.1
				c1.5,2.5,2.8,4.6,3.8,7.4c0.3,0.7,1.4,0.4,1.2-0.3c-0.8-2.2-6.8-10.8-4.5-12.4c-0.3-0.3-0.5-0.5-0.8-0.8c-0.9,1.4-0.8,1-0.7,2.6
				c0.1,0.8,1.2,0.8,1.2,0c-0.2-4-1.5-7.2-4.3-10.1c-0.2-0.3-0.8-0.2-0.9,0.1c-1,2.2,0,3.9-0.4,6.2c-0.5,3.3-3.5,2.9-3.8,5.3
				c-0.2,1.6,0.3,1,1.1,1.9c0.8,1.1,2.3,2.6,3.3,4c0.3,0.4,1.2,0.4,1.1-0.3c-0.1-0.8-0.8-3.2,0-3.7c0.8-0.6,2.8,2.1,3.3,3
				c0.3,0.6,1.3,0.2,1.1-0.5c-0.1-0.5-0.3-0.9-0.4-1.4c-0.3,0.2-0.6,0.5-0.9,0.7c1,0.5,1.9,1,2.7,1.7c0.5,0.4,1.1-0.3,0.8-0.8
				c-1-1.5-1.9-2.9-2.9-4.4c-0.2,0.3-0.5,0.6-0.7,0.9c1.1,0.3,2.3,0.5,3.4,0.8c0.5,0.1,1-0.4,0.7-0.9c-1.5-2.5-3.3-3.9-6-4.7
				c0,0.4,0,0.8,0,1.2c0.5-0.2,1.1-0.3,1.6-0.5c0.6-0.2,0.5-1.2-0.2-1.2c-1.6,0-5.7,1.3-5.1-0.5c0.2-0.5-0.4-0.9-0.9-0.7
				c-2.7,1.5-2.7,4.4-2.4,7.2c0.4-0.1,0.8-0.1,1.2-0.2c-0.9-4.5-2.1-8.7-5.9-11.5c-0.3-0.2-0.8,0-0.9,0.4c-1.4,4.8-0.8,9.2,1.6,13.5
				c0.4,0.6,1.2,0.2,1.1-0.5c-0.6-3.9-4-0.9-4.8,1.2c0.4,0.1,0.8,0.1,1.2,0.2c0-1.1,0-2.2,0-3.4c0-0.6-0.8-0.8-1.1-0.3
				c-1.2,1.5-1.5,2.6-1.4,4.5c0,0.3,0.2,0.5,0.4,0.6c2.3,0.5-0.9,0.6-0.6,0.8c0,0-0.1-3.5-0.1-3.3c-0.1-0.5-0.6-0.8-1-0.4
				c-1.2,1.2-2,2.7-1.7,4.5c0-0.1,1,2.4,1,2.2c0.2,1.9-0.6,2-1.6,3.3c0.3,0.2,0.7,0.4,1,0.6c0.4-0.6,0.7-1.3,1.1-1.9
				c0.2-0.3,0.1-0.7-0.2-0.8c-0.6-0.5-1.1-0.9-1.7-1.4c-0.3-0.3-0.9-0.2-1,0.3c-0.3,1.8-0.2,3.2,0.2,5.1c0.1,0.3,0.4,0.5,0.7,0.4
				c0.4-0.2,0.8-0.3,1.3-0.5c-0.2-0.3-0.5-0.6-0.7-0.9c-1.2,2.2-2.5,4.3-3.8,6.4c0.4,0,0.7,0.1,1.1,0.1c-0.4-1.7-0.4-3.3-0.1-5
				c-0.4,0.1-0.8,0.1-1.2,0.2c0.3,1.1,2.2,2.4,2.4,3c0.2,0.8-2.2,5.1-2.5,6.2c0.4,0,0.8,0,1.2,0c-0.4-1.3-0.8-2.5-1.3-3.8
				c-0.3,0.2-0.6,0.5-0.9,0.7c0.4,0.3,0.9,0.5,1.3,0.8c0.2,0.2,0.5,0.3,0.7,0.1c0.6,0.6,0.6,1.4-0.1,2.2c-0.6,1.6-1.3,3.1-2.1,4.5
				c-0.3,0.6,0.4,1.2,0.9,0.7c1-0.9,1.7-1.7,2.5-2.9c0.1-0.2,0.1-0.5-0.1-0.7c-1.1-1.2-1-1.1-2.6-1.2c-0.3,0-0.6,0.3-0.6,0.6
				c-0.2,3.5-0.4,7-0.6,10.6c-0.1,2.1-0.5,4.5,0.3,6.5c1.6,3.8,6.2,5.2,9.9,5.7c3.4,0.5,9.5,0.8,12.1-2.3c1.3-1.5,1.2-3.6,1.4-5.5
				c0.2-3.9,0.3-7.9,0.3-11.9c-0.3,0.1-0.7,0.3-1,0.4c3.2,3.8,7.2,10.9,12.6,11.7c3.5,0.5,7.4-0.4,7.7-4.1
				c0.5-7.1-3.6-10.9-5.8-17.2c-1.3-3.6-0.1-10.3-4.7-11.6C704,109.6,703.7,110.7,704.4,110.9L704.4,110.9z"/>
		</g>
	</g>
	<g>
		<g>
			<path d="M692.9,114.2c-3.2,2.5,1.4,7.3,4.1,4.6c0.5-0.6-0.3-1.4-0.8-0.8c-0.8,0.8-1.9,0.5-2.6-0.2c-0.8-0.9-0.8-1.9,0.2-2.6
				C694.4,114.6,693.5,113.8,692.9,114.2L692.9,114.2z"/>
		</g>
	</g>
	<g>
		<g>
			<path d="M705.6,111.3c-1.2,0.2-2.1,1.3-2.1,2.5c0,1.2,1,2.3,2.3,2.5c1.3,0.2,1.8-1.1,1.7-2.2c-0.1-1.2-0.8-2.4-1.9-3
				c-0.7-0.4-1.3,0.7-0.6,1c0.6,0.3,1,0.8,1.2,1.4c0.1,0.4,0.3,1.3-0.1,1.5c-0.5,0.3-1.3-0.7-1.4-1.1c-0.1-0.8,0.5-1.4,1.2-1.6
				C706.6,112.3,706.3,111.2,705.6,111.3L705.6,111.3z"/>
		</g>
	</g>
	<g>
		<g>
			<path d="M705.5,114.3c0.8,0,0.8-1.2,0-1.2C704.7,113.1,704.7,114.3,705.5,114.3L705.5,114.3z"/>
		</g>
	</g>
	<g>
		<g>
			<path d="M692,114.6c1.2-1.2,2.9-1.6,4.5-0.9c0.7,0.3,1-0.9,0.3-1.2c-2-0.8-4.2-0.3-5.7,1.2C690.6,114.3,691.5,115.2,692,114.6
				L692,114.6z"/>
		</g>
	</g>
	<g>
		<g>
			<path d="M691.3,119.8c2.3,1.4,6.3,2.9,7.8-0.4c0.3-0.7-0.7-1.3-1-0.6c-1.2,2.7-4.4,1-6.1,0C691.2,118.3,690.6,119.4,691.3,119.8
				L691.3,119.8z"/>
		</g>
	</g>
	<g>
		<g>
			<path d="M697,106.3c0,1.2,0,2.3,0,3.5c0,0.8-0.2,1.9,0.2,2.6c0.2,0.5,0.6,0.7,1.1,0.9c1.1,0.7,2.1,1.4,2.9,2.4
				c0.3,0.4,1,0.1,1-0.4c0-1,0-2-0.1-3c0-0.6,0.1-1.4-0.1-2c-0.3-0.6-1-1.2-1.4-1.7c-0.7-0.9-1.5-1.7-2.3-2.6
				c-0.5-0.6-1.4,0.3-0.8,0.8c1,1.1,2.4,2.3,3.2,3.6c0.7,1.3,0.3,3.4,0.4,4.8c0.3-0.1,0.7-0.3,1-0.4c-0.5-0.6-1-1.1-1.6-1.6
				c-0.6-0.5-1.5-0.8-1.9-1.4c-0.8-1.2-0.3-4-0.3-5.5C698.2,105.5,697,105.5,697,106.3L697,106.3z"/>
		</g>
	</g>
	<g>
		<g>
			<path d="M710.1,123.4c-1.9-1.3-3.4-2.8-4.7-4.8c-0.4-0.7-1.4-0.1-1,0.6c2,4.2,1.2,9,3.1,13.2c0.1-0.3,0.2-0.6,0.4-0.9
				c-0.2,0.1-0.5,0.2-0.7,0.3c-0.3,0.1-0.4,0.3-0.4,0.6c-0.2,1.8,0,3.3,1.9,3.9c0.3,0.1,0.7-0.1,0.7-0.4c0.5-1.8-0.2-3.1-1.9-3.7
				c-0.5-0.2-0.9,0.5-0.7,0.9c0.6,0.7,0.9,1.5,1,2.4c0.2,0.8,1.3,0.4,1.2-0.3c-0.2-1.1-0.6-1.8-1.1-2.7c-0.2,0.3-0.5,0.6-0.7,0.9
				c0.7,0.3,1,0.1,1.2-0.7c0.4-0.1,0.5-0.5,0.4-0.9c-1.9-4.2-1.1-9-3.1-13.2c-0.3,0.2-0.7,0.4-1,0.6c1.4,2.1,3,3.8,5.1,5.2
				C710.1,124.8,710.7,123.8,710.1,123.4L710.1,123.4z"/>
		</g>
	</g>
	<g>
		<g>
			<path d="M705.5,133.8c-0.3-1.1,0.5-2.4,1.7-2.5c0.8-0.1,0.8-1.3,0-1.2c-2,0.2-3.4,2.1-2.9,4C704.5,134.8,705.7,134.5,705.5,133.8
				L705.5,133.8z"/>
		</g>
	</g>
	<g>
		<g>
			<path d="M709.9,131.9c1.1,1.6,1.6,3.3,1.6,5.3c0,0.8,1.2,0.8,1.2,0c0-2.1-0.5-4.1-1.7-5.9C710.5,130.7,709.4,131.3,709.9,131.9
				L709.9,131.9z"/>
		</g>
	</g>
	<g>
		<g>
			<path d="M702.5,136.5c2.9-0.8,4.4,3.3,6.6,4.3c1.6,0.8,3.3,0.7,5,0.2c0.7-0.3,0.4-1.4-0.3-1.2c-1.5,0.5-3.2,0.5-4.6-0.4
				c-1.2-0.8-1.9-2.1-2.9-3c-1.1-1-2.5-1.5-4-1.1C701.4,135.5,701.7,136.7,702.5,136.5L702.5,136.5z"/>
		</g>
	</g>
	<g>
		<g>
			<path d="M709.2,136.8c0.2,1,0,2.1-0.4,3c-0.2,0.4,0.4,0.7,0.5,0.3c0.5-1.1,0.6-2.3,0.5-3.5C709.7,136.3,709.1,136.4,709.2,136.8
				L709.2,136.8z"/>
		</g>
	</g>
	<g>
		<g>
			<path d="M704.7,139.1c1.5,1.2,3.1,2.2,4.8,3.1c0.7,0.4,1.3-0.7,0.6-1c-1.6-0.8-3.2-1.8-4.6-2.9
				C705,137.8,704.1,138.7,704.7,139.1L704.7,139.1z"/>
		</g>
	</g>
	<g>
		<g>
			<path d="M702.3,133.1c-0.8,0-1.6,0-2.3,0.2c-0.6,0.1-1.2,0.4-1.3,1c-0.1,0.6,0.3,1.1,0.7,1.4c0.5,0.3,1.1,0.3,1.5,0.7
				c0.5,0.6,1.3-0.3,0.8-0.8c-0.2-0.3-0.5-0.4-0.8-0.5c-0.2-0.1-0.8-0.2-0.9-0.4c-0.2-0.2-0.1,0,0.1-0.2c0.1-0.1,0.5-0.1,0.6-0.1
				c0.5-0.1,1-0.1,1.6-0.1C703,134.3,703,133.1,702.3,133.1L702.3,133.1z"/>
		</g>
	</g>
	<g>
		<g>
			<path d="M702.3,136.6c0.4,0,0.4-0.6,0-0.6C701.9,136,701.9,136.6,702.3,136.6L702.3,136.6z"/>
		</g>
	</g>
	<g>
		<g>
			<path d="M694.6,130.2c1.3,1.3,2.7,2.5,4.3,3.4c0.3,0.2,0.6-0.3,0.3-0.5c-1.5-1-2.9-2.1-4.2-3.4
				C694.7,129.5,694.3,129.9,694.6,130.2L694.6,130.2z"/>
		</g>
	</g>
	<g>
		<g>
			<path d="M697.2,125.6c-1.6,1.9-3.1,3.7-5.7,3.4c-2.2-0.3-3.5-1.9-4.4-3.8c-1.6-3.5-1.3-7.4-1-11.1c0.1-0.8-1.1-0.8-1.2,0
				c-0.4,5-0.7,10.9,3.3,14.8c3.6,3.4,7.3,0.8,9.9-2.3C698.5,125.8,697.7,125,697.2,125.6L697.2,125.6z"/>
		</g>
	</g>
	<g>
		<g>
			<path d="M682.8,123.9c1.4,4.1,5.3,6.7,9.5,6.8c0.8,0,0.8-1.2,0-1.2c-3.7-0.1-7.1-2.4-8.4-5.9
				C683.7,122.9,682.5,123.2,682.8,123.9L682.8,123.9z"/>
		</g>
	</g>
	<g>
		<g>
			<path d="M697.6,118.4c0.6-1,0.5-2.3-0.1-3.3c-0.9-1.3-2.4-1.3-3.8-1.1c-0.8,0.1-0.8,1.3,0,1.2c0.9-0.1,2.1-0.3,2.7,0.5
				c0.5,0.6,0.6,1.4,0.2,2.1C696.1,118.5,697.2,119.1,697.6,118.4L697.6,118.4z"/>
		</g>
	</g>
	<g>
		<g>
			<path d="M696.9,119c0.8,0,0.8-1.2,0-1.2C696.1,117.8,696.1,119,696.9,119L696.9,119z"/>
		</g>
	</g>
	<g>
		<g>
			<path d="M695.5,116.1c0,0.1,0,0.2,0,0.3c0.3-0.7-0.7-1.3-1-0.6c-0.2,0.4-0.2,0.6,0,0.9C694.8,117.4,695.8,116.8,695.5,116.1
				L695.5,116.1z"/>
		</g>
	</g>
	<path class="st0" d="M656.6,75v95H699c0.4-0.1,0.7-0.1,1.2-0.1c0.4,0,0.8,0,1.2,0.1h24.3V75H656.6z"/>
	<g>
		<g>
			<path d="M671.5,138.8c0.8,9.1,1.6,18.2,2.5,27.3c0.2,1.9,3.2,1.9,3,0c-0.8-9.1-1.6-18.2-2.5-27.3
				C674.4,136.8,671.4,136.8,671.5,138.8L671.5,138.8z"/>
		</g>
	</g>
	<g>
		<g>
			<path d="M671.9,131c-4.2,0.1-4.4,5-4.9,8.2c-0.6,3.7-1.1,7.4-1.7,11.2c-0.2,1.6-0.8,3.7,0.1,5.2c0.6,1.1,1.8,1.7,3,1.6
				c1.9-0.1,1.1-1.1,0.6-0.5c-0.6,0.7-1.1,1.5-1.5,2.4c-1.8,3.8-1.3,8.1,1.2,11.3c1.2,1.5,3.8,0,2.6-1.5c-2.8-3.7-2.4-8.3,1.2-11.3
				c0.4-0.3,0.5-1,0.4-1.5c-1.1-3.7-4.4,0.2-4.6-4.9c-0.1-1.9,1.6-17.1,3.6-17.2C673.8,133.9,673.8,130.9,671.9,131L671.9,131z"/>
		</g>
	</g>
	<g>
		<g>
			<path d="M697.4,138.6c4.2,2.6,6.5,6.2,7.2,11c0.5-0.6,1-1.3,1.4-1.9c-3.2,0.3-5.5,1.3-7.8,3.5c-0.8,0.7-0.4,1.8,0.3,2.4
				c5.2,3.8,7.2,10.2,5.4,16.4c-0.6,1.9,2.3,2.6,2.9,0.8c2.3-7.5-0.4-15.2-6.8-19.8c0.1,0.8,0.2,1.6,0.3,2.4
				c1.5-1.7,3.4-2.5,5.7-2.6c1.1-0.1,1.6-0.9,1.4-1.9c-0.8-5.5-3.8-9.9-8.6-12.8C697.3,135,695.8,137.5,697.4,138.6L697.4,138.6z"/>
		</g>
	</g>
	<g>
		<g>
			<path d="M694.2,147c1.4,7.1,2.7,14.2,4.1,21.3c0.4,1.9,3.3,1.1,2.9-0.8c-1.4-7.1-2.7-14.2-4.1-21.3
				C696.7,144.3,693.8,145.1,694.2,147L694.2,147z"/>
		</g>
	</g>
	<g>
		<g>
			<path d="M672.8,144c3.6,13.6,29.5,9,23-4.8c-0.8-1.7-3.4-0.2-2.6,1.5c4.4,9.4-15,12.1-17.6,2.5
				C675.2,141.3,672.3,142.1,672.8,144L672.8,144z"/>
		</g>
	</g>
	<g>
		<g>
			<path d="M664.3,140.2c-2.7,0.9-5.3,1.8-8,2.8c-1.8,0.6-1,3.5,0.8,2.9c4.9-1.7,9-4.9,11.6-9.4c1-1.7-1.6-3.2-2.6-1.5
				c-2.2,3.8-5.7,6.6-9.9,8.1c0.3,1,0.5,1.9,0.8,2.9c2.7-0.9,5.3-1.8,8-2.8C666.9,142.5,666.1,139.6,664.3,140.2L664.3,140.2z"/>
		</g>
	</g>
	<g>
		<g>
			<path d="M705.9,146.2c4.4,2,4.5,7,5,11.2c0.5,3.8,1,7.5,1.5,11.3c0.2,1.9,3.2,1.9,3,0c-0.7-5.5-1.2-11.1-2.2-16.5
				c-0.7-3.7-2.2-7-5.8-8.5C705.7,142.9,704.1,145.4,705.9,146.2L705.9,146.2z"/>
		</g>
	</g>
</g>
</svg>
