<?xml version="1.0" encoding="utf-8"?>
<!-- Generator: Adobe Illustrator 23.0.3, SVG Export Plug-In . SVG Version: 6.00 Build 0)  -->
<svg version="1.1" xmlns="http://www.w3.org/2000/svg" xmlns:xlink="http://www.w3.org/1999/xlink" x="0px" y="0px"
	 viewBox="0 0 320.4 161.8" style="enable-background:new 0 0 320.4 161.8;" xml:space="preserve">
<g id="Layer_1">
</g>
<g id="painting">
	<g>
		<g>
			<path d="M1.7,79.7c0.3,0,0.6-0.5,0.9-0.5C2.3,79.2,2,79.7,1.7,79.7L1.7,79.7z"/>
		</g>
	</g>
	<g>
		<g>
			<path d="M0,78.7c21-2,42.1-3.4,63.1-4.1c20.1-0.7,39.9-1.1,59.8,2.7c20.3,3.9,40.8,5.8,61.4,6.8c21,1.1,42.2,1.1,63.1-1.2
				c23.5-2.6,46.3-6.1,70-3.9c0.9,0.1,2-0.9,2.9-0.8c-21-1.9-41.5,0.4-62.4,3c-20.6,2.6-41.2,3.3-61.9,2.5
				c-20.6-0.7-41.5-2-61.9-5.6c-10-1.8-19.8-4-29.9-4.6c-10.1-0.6-20.3-0.2-30.4,0c-23.7,0.6-47.4,2.1-71,4.3
				C1.9,78.1,1,78.6,0,78.7L0,78.7z"/>
		</g>
	</g>
	<path d="M180,78c-22.3,0.1-44.9,2.3-67-1.5c-20.5-3.5-41-10.4-62-6.8C32.6,72.8,14.8,80.2-2.9,86c0.7-0.2,1.9-0.5,2.8-0.7
		c20.7-6.8,42.4-16.7,64.5-15.7c19.2,0.8,37.5,7.5,56.5,9.3c20.2,1.9,40.9,0,61.1,0c21,0,41.9,0.5,62.8,1.2
		c23.9,0.8,47.9,2,71.8,3.2c1,0,2-0.8,2.9-0.8C273.1,80.2,226.6,77.9,180,78z"/>
</g>
</svg>
