<?xml version="1.0" encoding="utf-8"?>
<!-- Generator: Adobe Illustrator 23.0.3, SVG Export Plug-In . SVG Version: 6.00 Build 0)  -->
<svg version="1.1" id="Layer_1" xmlns="http://www.w3.org/2000/svg" xmlns:xlink="http://www.w3.org/1999/xlink" x="0px" y="0px"
	 viewBox="0 0 59.7 52.6" style="enable-background:new 0 0 59.7 52.6;" xml:space="preserve">
<g>
	<path d="M32.4,11.3c-6.5-1.2-12.8,3.1-14,9.6c-1,5.2,1.6,10.3,6,12.7c0.6,0.2,0.9-0.1,0.9-0.4c0.1-0.3,0.2-1,0.4-2
		c-3.4,0.1-3.7-2.3-3.7-2.3c-0.3-1.5-1-2-1-2c-0.9-0.9,0.2-0.7,0.2-0.7c1.2,0.3,1.6,1.5,1.6,1.5c0.7,2,2.5,1.8,3.3,1.6
		c0.2-0.7,0.6-1.2,1-1.4c-2.6-0.8-5.1-2.3-4.3-6.8c0.2-1.3,0.9-2.3,1.8-2.9c-0.1-0.3-0.3-1.6,0.7-3.1c0,0,1-0.1,3,1.8
		c1-0.1,2,0,3,0.1c1,0.2,2,0.5,2.9,0.9c2.5-1.1,3.5-0.6,3.5-0.6c0.3,1.7-0.3,2.9-0.5,3.1c0.6,1,0.9,2.1,0.6,3.4
		c-0.8,4.5-3.8,5-6.5,4.8c0.3,0.4,0.6,1.2,0.4,2.3c-0.3,1.6-0.5,2.8-0.6,3.2c-0.1,0.3,0.1,0.7,0.7,0.7c5-0.7,9.2-4.5,10.1-9.7
		C43.3,18.7,39,12.5,32.4,11.3"/>
	<g>
		<path d="M32.4,10.2C24,9.1,16.4,15.7,17.2,24.4c0.4,4,8.1,15.7,9.6,7.1c0.1-0.8-0.3-1.4-1.1-1.4c-2.4-0.2-3-2.6-4.1-4.3
			c-0.1,0.5-0.3,1-0.4,1.5c-0.6,0.2,2.6,3.1,3.3,3.2c2.1,0.4,2.1-0.6,3.4-1.8c0.7-0.6,0.3-1.6-0.5-1.9c-1-0.3-1.9-0.7-2.6-1.4
			c-1.5-2.3-1.3-4.4,0.6-6.5c0-0.3,0.3-0.5,0.3-0.8c0.2-3-1.2-1.3,2-0.3c1.1,0.3,2.3,0.2,3.4,0.4c1.2,0.2,2.2,0.8,3.3,0.8
			c2.3,0.1,3.1-2.4,1.7,1c-0.2,0.4,0.1,0.7,0.1,1c1.1,3.1,0.3,5.3-2.5,6.4c-0.8,0.2-1.6,0.2-2.4,0.1c-0.9,0-1.3,1-1,1.7
			c1,2.3-2.2,6.3,1.6,6.8c3.7,0.5,8.1-3.8,9.7-6.6c4.4-7.9-0.6-17.2-9-19.2c-1.4-0.3-2,1.8-0.6,2.2c7.8,1.9,12.1,11.1,6.4,17.7
			c-1.1,1.4-2.8,2.7-4.5,3.2c-1.7,0.5-1.1,1-1.4-0.5c-0.3-1.7,0.5-2.9-0.2-4.7c-0.3,0.6-0.6,1.1-1,1.7c7.8,0.3,7.7-6.8,7.4-12.5
			c0-0.5-0.3-0.9-0.8-1.1c-1.9-0.7-4.6,0-6.6-0.4c-2-0.3-4.1-1.9-6-1.9c-0.4,0-0.8,0.2-1,0.6c-2.4,5.5-5,12,2.5,14.5
			c-0.2-0.6-0.3-1.3-0.5-1.9c-2.3,2.1-3.4-3-6.2-1.8c-0.6,0.2-0.7,1.1-0.4,1.5c1.8,3,2,5.1,6,5.4c-0.4-0.5-0.7-0.9-1.1-1.4
			c-0.3,1.6-0.3,1.2-1.6,0.4c-0.9-0.6-1.8-2-2.3-2.9c-1.6-2.9-1.8-6.4-0.5-9.4c2.1-4.9,6.9-7.2,12.1-6.5
			C33.9,12.6,33.9,10.3,32.4,10.2L32.4,10.2z"/>
	</g>
</g>
<path d="M58.9,7c-0.1,0-0.2,0-0.3,0c0,0-0.1,0-0.1,0c-0.3,0-0.6,0-0.9,0.1c0,0,0,0,0,0c-0.1,0-0.2,0.1-0.3,0.1c0,0-0.1,0-0.1,0
	c-0.1,0-0.2,0-0.2,0.1c-0.3,0-0.5,0-0.8,0c-0.6,0-1.2,0-1.8,0c-0.4,0-0.8,0.1-1.2,0.2c-0.1-0.1-0.3-0.1-0.7-0.1
	c-0.2,0-0.6,0.1-0.9,0.2c-3.1,0.2-6.1-1.7-8.9-2.6c-0.1,0-0.2-0.1-0.4-0.1c0.1-0.2-0.1-0.4-0.5-0.6c-2.2-0.7-2.5-3.4-4.4-4.1
	c-2.1-0.8-4.5,0.8-6.5,1.2c-0.2,0-0.4,0.1-0.5,0.2c-1.1-0.4-2.3-0.8-3.5-0.9c-1.8-0.1-3.6,0.3-5.3,0.7c-0.2-0.1-0.5-0.2-0.8-0.2
	c-2.7,0.1-4.7-0.2-7.3-1c-0.9-0.3-2.1,0.1-2.3,1.1c-0.9,4.5-1.8,8.9-2.6,13.4c-0.7,3.7-0.6,7.2-1,10.9c-0.4,4.4-2.5,8-4.3,11.9
	c-1.4,3-1.5,6.4-3,9.2c-0.3,0.6,0.3,1.2,0.9,1.3c4,0.1,7.8-1.4,11.8-1.6c5.1-0.3,11,0.5,15.7,2.6c6.2,2.8,13.4,4.9,20.1,2.6
	c0.6-0.2,0.9-0.5,1-0.9c0.1-0.1,0.2-0.3,0.2-0.4c-0.1-9.1,1.7-17.3,4.8-25.8c1.2-3.3,1.3-6.2,2.1-9.5c0.7-2.8,2.6-4.9,2.8-7.8
	C59.8,7,59,7,58.9,7z M53.7,17.3c-0.7,3.9-1.6,6.9-2.9,10.6C48.2,35,47,42.4,47,49.9c-8,2-14.6-2.9-22.2-4.6
	c-3.3-0.7-6.7-1.1-10-1.1c-3.8,0-7.6,1.4-11.3,1.7c1-2.6,1.2-5.3,2.4-7.9c1.6-3.5,3.5-6.7,4.2-10.6c0.7-3.9,0.3-7.9,1-11.9
	c0.8-4.3,1.7-8.5,2.5-12.7c2.2,0.5,4.4,0.7,6.7,0.6c0.5,0,0.9-0.2,1.2-0.5c2.2-0.4,4.8-0.1,7.4,0.4c0.2,0.2,0.5,0.4,0.8,0.4h0.9
	c0.1,0,0.2,0,0.3,0.1c0,0,0,0,0-0.1c0.7,0,1.5-0.2,1.9-0.8c0.1-0.2,0.1-0.3,0.1-0.5c0.1,0,0.2,0,0.2-0.1c1.5-0.5,2-0.9,2.9,0.3
	c0.9,1.2,1.7,2.3,3,2.9c0.1,0.2,0.2,0.4,0.4,0.5c0,0,0,0,0,0.1c0.1,0,0.1,0,0.2,0.1c0.2,0.1,0.5,0.2,0.8,0.3
	c3.8,1.2,7.2,3.3,11.2,2.6C52,9,52.5,8.7,52.7,8.5c1.2,0,2.5,0.1,3.7,0C56.2,9.4,53.9,16.5,53.7,17.3z"/>
<path d="M35.3,3.1c-0.4-0.2-1,0-1.4,0.1c-0.1,0-0.9,0.4-0.7,0.6c-0.1,0-0.2,0.1-0.3,0.1c-0.1,0-0.2,0-0.2,0c-0.4,0.1-1,0.2-1.3,0.6
	C31,5.2,31,6.2,31.6,6.8c0.6,0.6,1.6,0.6,2.4,0.5c1-0.2,1.8-0.7,2.1-1.8C36.4,4.6,36.2,3.6,35.3,3.1z M34,6c0,0.1-0.1,0.2-0.1,0.3
	c0,0-0.1,0-0.1-0.1c-0.2-0.2-0.4-0.4-0.4-0.7c-0.1-0.5,0-1,0.3-1.4C33.9,4.4,34,4.7,34.1,5C34.1,5.4,34.1,5.7,34,6z"/>
<path d="M13.2,39.8c-1.1,1-5.1,1.8-4.4-0.9c0.5-1.8,2.9-3.4,4.7-3c1.4,0.3,2-1.9,0.6-2.2c-3.4-0.6-8.1,2.3-7.6,6.1
	c0.5,4.1,6,3.6,8.3,1.5C15.8,40.4,14.2,38.8,13.2,39.8z"/>
<path d="M20.6,35.4c-0.1-0.1-0.3-0.1-0.4-0.2c-0.2-0.2-0.5-0.4-0.8-0.3c-2.3,0.1-3,2.5-3.7,4.3c-0.8,2.1,0.2,3.8,2.5,4
	c1.9,0.2,4-1.7,5-3.3C24.6,37.5,22.3,36.5,20.6,35.4z M21.2,38.7c-0.6,0.7-1.3,1.6-2.1,2c-0.2,0.1-1.2,0.4-1.4,0
	c-0.2-0.3,0.1-0.8,0.2-1c0.2-0.6,0.7-2.4,1.4-2.6c0.1,0.1,0.1,0.1,0.2,0.1c0.5,0.3,1,0.7,1.5,1C21.5,38.5,21.5,38.4,21.2,38.7z"/>
<path d="M27.8,36.8c-0.3-0.2-0.5-0.2-0.8-0.1c-0.6-0.5-1.9-0.2-1.9,0.8c-0.1,1.8-0.9,3.3-1.7,4.8c-0.3,0.6-0.1,1.5,0.7,1.7
	c2.4,0.6,6.5,1.3,8.1-1.3C34,39.8,29.6,37.9,27.8,36.8z M29.8,41.9c-1,0.6-2.4,0.5-3.7,0.3c0.5-1,0.9-2,1.1-3
	c0.6,0.4,1.2,0.7,1.8,1.1C29.6,40.6,30.8,41.2,29.8,41.9z"/>
<path d="M40.5,45c-1.5,0.8-2.9,0.1-4.4-0.2c0.1-0.3,0.1-0.7,0.2-1h2.4c1.4,0,1.5-2.2,0-2.2h-2.1c0-0.3,0-0.7,0.1-1h4.4
	c1.4,0,1.5-2.2,0-2.2h-5c-0.5,0-0.9,0.3-1,0.7c-0.3,0.2-0.6,0.5-0.6,1c0,1.9-0.3,3.7-0.8,5.4c-0.2,0.7,0.4,1.4,1.1,1.4
	c1.3,0,2.4,0.7,3.6,0.9c1.2,0.1,2.3-0.2,3.3-0.7C42.9,46.2,41.8,44.3,40.5,45z"/>
</svg>
