<?xml version="1.0" encoding="utf-8"?>
<!-- Generator: Adobe Illustrator 23.0.3, SVG Export Plug-In . SVG Version: 6.00 Build 0)  -->
<svg version="1.1" id="Layer_1" xmlns="http://www.w3.org/2000/svg" xmlns:xlink="http://www.w3.org/1999/xlink" x="0px" y="0px"
	 viewBox="0 0 198.8 194.4" style="enable-background:new 0 0 198.8 194.4;" xml:space="preserve">
<style type="text/css">
	.st0{fill:#FFFFFF;}
	.st1{fill:#0C0C0C;}
</style>
<g>
	<g>
		<path d="M48.1,67.4c-7.7,2.7-13.4,9.5-14.5,17.7c-1.1,8.3,2.9,16.2,12.2,15.3c7.5-0.8,16.2-5.8,16.5-14.1
			c0.4-11.9-12.5-6.7-18.7-3.6c-1.7,0.9-0.2,3.5,1.5,2.6c2.5-1.3,5.5-2.9,8.4-3.2c6.6-0.7,6.9,4.7,4.3,8.7C55,95.3,46,99.5,41,97
			c-5.7-2.8-5.2-11.1-3.1-16.1c2.1-5,6-8.7,11-10.5C50.7,69.7,50,66.8,48.1,67.4L48.1,67.4z"/>
	</g>
</g>
<g>
	<g>
		<path d="M63,72.2c2.4,5.5,4.7,11.1,7.1,16.6c0.8,1.8,3.3,0.2,2.6-1.5c-2.4-5.5-4.7-11.1-7.1-16.6C64.8,68.9,62.2,70.4,63,72.2
			L63,72.2z"/>
	</g>
</g>
<g>
	<g>
		<path d="M62,62.6c-0.5,0.2-0.9,0.4-1.4,0.6c-0.7,0.3-0.9,1.4-0.5,2.1c0.5,0.8,1.3,0.9,2.1,0.5c0.5-0.2,0.9-0.4,1.4-0.6
			c0.7-0.3,0.9-1.4,0.5-2.1C63.6,62.4,62.7,62.3,62,62.6L62,62.6z"/>
	</g>
</g>
<g>
	<g>
		<path d="M76.2,72c3.5-1.5,6.9-3,10.4-4.4c1.8-0.8,0.2-3.3-1.5-2.6c-3.5,1.5-6.9,3-10.4,4.4C72.9,70.2,74.4,72.8,76.2,72L76.2,72z"
			/>
	</g>
</g>
<g>
	<g>
		<path d="M76.1,58c1.4,4,2.9,8,4.3,12.1c0.9,2.6,1.6,5.8,3.3,8.1c2.1,2.9,6.8,4,8.5,0.2c0.8-1.7-1.8-3.3-2.6-1.5
			c-2,4.3-5.1-4-5.2-4.5c-0.6-1.5-1.1-3-1.6-4.5c-1.3-3.5-2.5-7-3.8-10.6C78.4,55.4,75.5,56.2,76.1,58L76.1,58z"/>
	</g>
</g>
<g>
	<g>
		<path d="M87.4,52.8c3.7,7.8,6.9,15.9,9.5,24.1c0.6,1.8,3.5,1.1,2.9-0.8c-2.7-8.5-6-16.8-9.8-24.8C89.1,49.5,86.5,51,87.4,52.8
			L87.4,52.8z"/>
	</g>
</g>
<g>
	<g>
		<path d="M94.5,65c3.7-1.6,7.4-3.1,11.1-4.7c1.8-0.8,0.2-3.3-1.5-2.6c-3.7,1.6-7.4,3.1-11.1,4.7C91.2,63.2,92.7,65.8,94.5,65
			L94.5,65z"/>
	</g>
</g>
<g>
	<g>
		<path d="M99.3,48.1c3.3,8.3,7,16.4,11.3,24.2c0.9,1.7,3.5,0.2,2.6-1.5c-4.1-7.6-7.8-15.4-11-23.5C101.5,45.5,98.6,46.2,99.3,48.1
			L99.3,48.1z"/>
	</g>
</g>
<g>
	<g>
		<path d="M112.3,52.5c1.2,8.3,7.6,17.4,17.2,14.4c3.1-1,6.2-3.7,6.1-7.2c-0.1-4.7-4.9-9.7-8.1-12.7c-1.4-1.3-3.5,0.8-2.1,2.1
			c2.3,2.1,4.3,4.4,5.8,7.1c2.4,4.3,0.2,7.9-4.6,8.2c-7.1,0.4-10.5-6.8-11.3-12.7C114.9,49.8,112,50.6,112.3,52.5L112.3,52.5z"/>
	</g>
</g>
<g>
	<g>
		<path d="M126,34.2c3.5,8.3,7.9,16.1,13.4,23.2c1.2,1.5,3.8,0,2.6-1.5c-5.3-7-9.7-14.5-13.1-22.5C128.2,31.7,125.3,32.4,126,34.2
			L126,34.2z"/>
	</g>
</g>
<g>
	<g>
		<path d="M138.3,47.5c2.7-2.8,7.3-3.2,10.5-0.8c0.3,0.2,0.6,0.5,0.9,0.8c0.6,0.6,0.5,1-0.1,1.3c-0.4,0.7-1.9,1.5-2.5,2
			c-2,1.6-4,3.2-5.9,4.7c-1.5,1.2,0.6,3.3,2.1,2.1c1.7-1.4,3.4-2.7,5.1-4.1c1.3-1.1,3.2-2.2,4.3-3.6c1.5-2.1-0.2-4.4-2-5.8
			c-4.3-3.3-10.7-2.8-14.4,1C134.9,46.8,137,48.9,138.3,47.5L138.3,47.5z"/>
	</g>
</g>
<g>
	<path d="M99,89.4c-17.5,5.5-27.1,24.2-21.6,41.7c4.4,14,17.3,22.9,31.1,23.1c1.7-0.2,1.9-1.4,1.7-2.2c-0.2-0.8-0.9-2.7-1.7-5.4
		c-8.2,4.7-12-0.9-12-0.9c-2.6-3.2-5-3.5-5-3.5c-3.5-1.1-0.4-2-0.4-2c3.2-0.8,5.9,1.7,5.9,1.7c4.4,3.9,8.5,1.1,10-0.3
		c-0.4-2.1,0-3.8,0.7-4.9c-7.3,1.4-15.5,1.1-19.4-11.1c-1.1-3.5-0.8-6.7,0.6-9.5c-0.6-0.7-2.7-3.6-2.4-8.5c0,0,2.4-1.7,9.7,0.5
		c2.3-1.5,4.9-2.7,7.6-3.6c2.7-0.8,5.5-1.3,8.2-1.4c4.7-6,7.6-6,7.6-6c3.1,3.8,3,7.4,3,8.3c2.7,1.6,4.8,4,5.9,7.5
		c3.9,12.1-2.7,17.2-9.5,20.2c1.4,0.6,3.1,2.2,4,5.2c1.3,4.2,2.4,7.6,2.7,8.7c0.3,0.8,1.1,1.6,2.7,0.8c11.3-8.2,16.6-22.9,12.2-36.8
		C135.1,93.5,116.4,83.8,99,89.4"/>
	<g>
		<path d="M98.4,88.9c-19.3,6.6-29.9,28.3-20.6,47.2c4.5,9,12.9,15.6,22.7,17.9c2.7,0.6,7.3,1.9,9.9,0.2c2.7-1.9,0.3-5.5-0.5-7.9
			c-0.2-0.7-1.9-0.1-2.3,0.1c-8.2,4.2-7.8-0.9-12.8-3.8c-0.2-0.1-2.2-0.8-2.2-0.9c-0.5-1.4,4.7,2.1,4.6,2c2.5,1.4,5.5,1.2,8.1,0.1
			c4.4-2,2-3.1,3.9-7.1c0.3-0.5-1-0.4-1.2-0.4c-4.7,0.9-9.6,0.8-13.4-2.6c-4.7-4.3-6.5-11.6-4.2-17.5c0-0.1,0-0.2-0.1-0.3
			c-0.9-1.1-1.5-2.4-1.8-3.7c-0.2-0.8-0.6-2-0.5-2.9c0.2-1.6-0.8-0.7,0.9-1.3c2.5-0.9,5.3,1.7,7.9,0.9c2-0.6,3.9-2.3,6-3
			c2.9-1.1,6.3-0.7,9.1-1.8c2.6-1,3.3-3.9,5.8-5c1.7-0.8,1-1.4,2,0.3c0.4,0.7,0.8,2.3,1.1,3.1c0.3,0.9,0.1,2.6,0.5,3.4
			c0.5,0.9,1.9,1.6,2.7,2.4c1.7,1.7,2.8,3.8,3.4,6.1c2.6,8.8-1.1,15-9.1,18.7c-0.1,0.1-0.9,0.6-0.5,0.8c2.9,1.6,3.8,4.6,4.7,7.6
			c0.5,1.6,1,5.6,2.4,6.9c1.8,1.6,4.4,0.1,6-1.1c8.8-6.6,13.6-18,12.8-28.9c-1.8-22.2-24.1-35.3-44.7-29.3c-1.7,0.5-1.4,1.6,0.3,1.1
			c21.9-6.5,43.8,12,41.5,34.7c-0.5,5.3-2.4,10.4-5.3,14.8c-1.4,2-2.9,3.9-4.7,5.6c-2.5,2.3-3.2,2-4.1-0.9c-0.8-2.5-1.3-5.2-2.5-7.5
			c-0.2-0.5-2.9-3.4-2.8-3.6c0.1-0.5,6-4,7-5.3c5-6.1,3.3-15.8-2-21.2c-2-2-1.8-1.9-2.4-4.5c-0.3-1.3-1.4-4.8-2.8-5.4
			c-0.9-0.4-1.9,0-2.8,0.3c-2.7,1-4.1,3.3-6.4,4.9c-3,2.2-8.4,2.1-12.1,3.7c-2.3,1-3.2,1.5-5.8,1.2c-1.3-0.1-2.6-0.4-4-0.3
			c-1.2,0-3.7,0.1-4.6,1.1c-1.9,2.2,0.9,6,1.4,8.2c0.5,2-0.8,4.6-0.6,6.9c0.2,3.1,1.5,6.3,3.1,8.9c4.2,6.4,11.1,7.1,18.1,5.8
			c-0.4-0.1-0.8-0.3-1.2-0.4c-2,4.3,1.6,8.4-8.1,4.3c-1.5-0.6-2.5-1.6-4.2-1.8c-1.7-0.2-4.9,0.1-5.6,2c0,0.1,0,0.2,0.1,0.3
			c1.3,1.5,4,1.8,5.5,3.3c1.2,1.1,1.9,2.2,3.3,3c3.9,2.2,8.4,0.7,12-1.2c-0.8,0-1.5,0.1-2.3,0.1c0.4,1.3,1.6,3.4,1.6,4.8
			c-0.1,2.1-1.4,1.7-3.2,1.4c-4.6-0.7-9-2.3-12.9-4.8c-6.9-4.4-11.9-11.2-14-19.1c-4.5-16.6,4.8-34,21.1-39.5
			C101.4,89.2,99.6,88.5,98.4,88.9L98.4,88.9z"/>
	</g>
</g>
<g>
	<g>
		<path d="M11.3,75.1c10.6,19.8,19.9,40.3,27.9,61.3c3.8,10,7.2,20.2,10.5,30.4c3.1,9.5,6.4,18.8,12.2,27.1c0.7,1,2.7,0.4,3.4-0.1
			c16-10.3,33.1-18.9,51.1-25.4c17.7-6.4,35.8-9.4,54.1-13.4c7.5-1.7,14.9-4,21.5-8c2.4-1.5,5.9-3.4,6.7-6.3c1-3.3-1.6-7.4-2.7-10.3
			c-7.5-19.5-15-39-22.4-58.5c-8.4-22-16.9-43.9-25.3-65.9c-0.7-1.7-5-0.4-4.3,1.2c14.1,36.8,28.3,73.7,42.4,110.5
			c1.8,4.6,3.6,9.3,5.3,13.9c0.7,1.9,2.1,4.2,2.4,6.2c0.6,4-1.8,5.8-4.8,7.7c-7.7,4.7-16.8,6.6-25.5,8.3
			c-16.4,3.1-32.5,6.6-48.2,12.3c-18.6,6.7-36.3,15.5-52.9,26.2c1.1,0,2.3-0.1,3.4-0.1c-6.1-8.8-9.4-18.8-12.6-29
			c-3.4-10.6-7-21-11-31.3c-7.8-20-16.8-39.5-26.9-58.5C14.5,71.9,10.3,73.3,11.3,75.1L11.3,75.1z"/>
	</g>
</g>
<g>
	<g>
		<path d="M18.5,74.7c-5.2-7-9.4-14.5-12.6-22.6c-1.4,0.7-2.8,1.3-4.1,2c24.8-2.3,47.5-12.5,69.5-23.6c23.8-11.9,47.9-25.2,74.7-28
			c1.6-0.2,6.3-2.8,2.5-2.4C123.6,2.6,101,13,79,24C55.2,35.9,31.1,49.1,4.2,51.6c-0.6,0.1-4.6,0.8-4.1,2
			c3.3,8.1,7.4,15.6,12.6,22.6C13.7,77.7,19,75.4,18.5,74.7L18.5,74.7z"/>
	</g>
</g>
<g>
	<g>
		<path d="M68.5,33.9c-1.4,3.1,0,6.9,3,8.5c3.1,1.6,7.1,0.3,9.1-2.5c4.9-6.8-4.9-12.8-10.4-8.1c-1.5,1.3,0.8,2,1.9,1.2
			c1.6-1.3,3.8-1.1,5.4,0.2c1.8,1.5,2,3.9,0.9,5.8c-3,5.2-9-0.5-7.1-4.9C71.9,32.7,69,32.8,68.5,33.9L68.5,33.9z"/>
	</g>
</g>
<g>
	<g>
		<path d="M24.2,30.3c-0.1,5.9,0,13.2,4.6,17.5c4.2,3.9,10.9,3.3,15.1-0.4c11.5-9.9-0.6-28-14-26c-14,2.1-11.9,25.4,0.9,27.9
			c5.2,1,10.4-1.5,12.1-6.7c1.8-5.3,0.7-14.9-3.7-18.6c-4-3.4-11.1-2-14.2,2.1C21,31.6,24.9,38.8,30.6,41c1.1,0.4,3.4-1.2,1.7-1.8
			c-4.8-1.9-8.4-8.8-4.1-13.1c3.1-3.2,8.1-1.9,10.1,1.6c1.3,2.1,1.8,4.8,2.1,7.2c0.3,2.6,0.5,5.3-0.3,7.8c-1.5,4.5-6.8,6.2-10.9,3.8
			c-5.1-3.1-6.3-9.6-5.6-15c0.6-4.5,3.6-7.9,8.3-8c2.8-0.1,5.8,1.5,7.9,3.2c4.1,3.3,6.3,8.5,5.3,13.7c-1.6,8.1-11.7,11.2-15.9,3.4
			c-2.2-4.1-2.3-9.1-2.2-13.6C27.2,28.6,24.2,29.1,24.2,30.3L24.2,30.3z"/>
	</g>
</g>
<g>
	<g>
		<path d="M29.6,32.5c-0.5,3.3-0.3,7.5,3.8,7.9c2.5,0.2,4.4-1.3,4.7-3.8c0.3-2.8-0.5-6.4-3.6-7.1c-2.6-0.6-5.7,0.8-7.2,2.9
			c-2.8,3.7-0.1,17.1,6.1,14.1c3.1-1.5,2.5-6.1,2.4-8.9c-0.2-4.2-1.2-8.4-4.6-11.1c-0.9-0.7-3.6,0.5-2.7,1.2
			c2.6,2.1,3.7,4.9,4.2,8.1c0.3,1.9,0.3,3.7,0.2,5.6c-0.1,1.6-0.1,4.8-1.7,2.1c-0.9-1.5-1.7-3.4-2-5.2c-0.3-1.3-0.5-2.9,0-4.2
			c0.4-0.6,0.7-1.2,1.1-1.7c1.4,0,2.7-0.1,4.1-0.1c0.7,0.5,1.4,4.6,0.9,5.3c-1.8,2.5-2.7-1.3-2.8-2.1c-0.1-1.1,0-2.1,0.2-3.2
			C32.7,30.9,29.8,31.4,29.6,32.5L29.6,32.5z"/>
	</g>
</g>
<g>
	<g>
		<path d="M45.6,33.7c9.5-2.1,19.1-0.6,27.6,4.1c1.1,0.6,3.6-0.9,2.2-1.6c-9.4-5.2-19.9-6.7-30.4-4.4C43.2,32.2,43.8,34.1,45.6,33.7
			L45.6,33.7z"/>
	</g>
</g>
<g>
	<g>
		<path d="M48.6,39.4c7.9-1.9,15.9-3,24-3.6c1.5-0.1,2.4-1.9,0.4-1.8c-8.4,0.6-16.6,1.8-24.8,3.7C46.4,38.2,46.9,39.8,48.6,39.4
			L48.6,39.4z"/>
	</g>
</g>
<g>
	<g>
		<path d="M47.6,30.2c1.4-1.5,2.8-3,4.1-4.5c-0.8,0.1-1.5,0.3-2.3,0.4c5.4,4.4,10.6,16.6,0.4,19.5c0.6,0.2,1.1,0.3,1.7,0.5
			c-0.9-4.8-2.9-8.9-5.9-12.7c-0.5,0.5-1,1-1.5,1.5c4.2-0.5,7.2,2.7,7.5,6.6c0.9-0.3,1.9-0.7,2.8-1c-1.1-1.3-2.1-2.7-3.2-4
			c-0.7-0.9-3.5,0.2-2.7,1.2c1.1,1.3,2.1,2.7,3.2,4c0.7,0.9,2.9,0.1,2.8-1c-0.4-5.2-5.1-8.4-10-7.7c-0.6,0.1-2.2,0.7-1.5,1.5
			c2.9,3.7,4.8,7.7,5.6,12.3c0.1,0.7,1.2,0.6,1.7,0.5c4.4-1.3,7.6-4.7,8.2-9.4c0.7-5.5-2.8-10.1-6.8-13.4c-0.6-0.5-1.9,0-2.3,0.4
			c-1.4,1.5-2.8,3-4.1,4.5C44,30.8,46.8,31.1,47.6,30.2L47.6,30.2z"/>
	</g>
</g>
<g>
	<g>
		<path d="M52.3,42.4C52,41.3,49,31.9,49.4,31.7c0.4-0.2,3.1,5.1,2.9,4.7c0.7,2.1,1.2,6-2.2,6.3c0.4,0.4,0.8,0.8,1.3,1.2
			c2.4-4.7,2.6-9.5,0.6-14.3c-0.4-1-1.7-0.7-2.4-0.3c-2.7,1.8-5.7,4.4-8.6,5.6c-4.9,2-7.6-0.4-10-4.2c-0.9,0.4-1.8,0.8-2.7,1.3
			c2.9,4.2,5.5,8.5,7.9,13c0.6-0.6,1.2-1.1,1.8-1.7c-2.6-0.3-5-1-7.5-2.1c-0.6,0.6-1.1,1.3-1.7,1.9c3.8,1.4,8.4,1.6,11.7-1.2
			c2.9-2.5,3.2-6.3,0.1-8.8c-0.6-0.5-1.9-0.2-2.3,0.4c-1.4,2-2.4,3.9-3.2,6.2c-0.4,1.2,1.2,1.4,2,1c2.5-1.1,4.9-1.9,7.5-2.4
			c0.6-0.1,2.2-0.8,1.5-1.7c-4.5-5.4-5.1-15.4-13.7-16c-0.9-0.1-2.4,0.6-1.8,1.7c2,3.6,4,7.3,6,10.9c0.5,0.9,2.8,0.3,2.8-0.7
			c0.1-7.1-10.2-9.8-12.9-2.8c-1.1,2.9,0.8,4.6,3.6,4.4c3-0.3,4.5-3.1,7.4-0.5c1.3,1.1,1.4,2.2,3.3,2.7c0.7,0.2,1.9,0,2.2-0.8
			c0.7-1.7,0.6-1.3,0.8-3.1c-0.9,0.2-1.9,0.5-2.8,0.7c2.5,3.2,2.3,8.1-1.6,10.3c-1.7,1-0.2,2.5,1.3,1.7c4.8-2.7,6.6-8.7,3-13.3
			c-0.7-0.8-2.7-0.4-2.8,0.7c-0.2,0.9-0.4,1.7-0.6,2.6c0.7-0.3,1.5-0.5,2.2-0.8c-2.4-0.6-2.8-3.7-5.2-4.4c-1-0.3-1.8-0.1-2.7,0.1
			c-1.1,0.3-2,0.8-3,1.4c3.4-3.1,5-2.7,4.8,1.2c0.9-0.2,1.9-0.5,2.8-0.7c-2-3.6-4-7.2-6-10.9c-0.6,0.6-1.2,1.1-1.8,1.7
			c7.3,0.5,8.1,10.5,12.1,15.2c0.5-0.6,1-1.1,1.5-1.7c-3.2,0.5-6.1,1.4-9.1,2.8c0.7,0.3,1.3,0.7,2,1c0.7-2.2,1.5-3.8,2.9-5.7
			c-0.8,0.1-1.6,0.3-2.3,0.4c2.5,3.5,1.9,5.4-1.9,5.8c-1.9,1.6-3.9,1.8-5.9,0.5c-1.2-0.4-3.4,1.2-1.7,1.9c2.7,1.2,5.3,1.8,8.1,2.2
			c0.9,0.1,2.4-0.6,1.8-1.7c-2.4-4.5-5-8.8-7.9-13c-0.7-1.1-3.5,0-2.7,1.3c1.8,2.8,4.8,7.4,8.6,7.2c2-0.1,3.6-1.5,5.2-2.5
			c3.1-2,6.3-4.1,9.4-6.2c-0.8-0.1-1.6-0.2-2.4-0.3c1.9,4.5,1.8,8.8-0.4,13.2c-0.4,0.8,0.6,1.3,1.3,1.2c7.6-0.6,7.1-10.6,2-14.5
			c-1.3-1-3.5-1.6-4.9-0.1c-0.9,1.1-0.6,1.9-0.3,3.2c0.7,3.3,1.7,6.5,2.6,9.8C49.7,44.5,52.6,43.7,52.3,42.4L52.3,42.4z"/>
	</g>
</g>
<g>
	<g>
		<path d="M47.6,30.5c0.7,2.4,2.1,3.8,4.4,4.7c0.8,0.3,2.6-0.2,2.3-1.3c-0.6-2.6-1.6-4.8-3-7c-0.8,0.5-1.6,1-2.4,1.5
			c2.3,1.3,6.6,4.4,2.3,6.7c-1.6,0.9-6.6-0.2-8.3-0.6c-4.5-1.3-5.7-4.9-9-7.6c-2.8-2.3-7.3-2.4-9.2,1.1c0.9,0.1,1.8,0.2,2.8,0.3
			c3.5-7.3,11.2-0.8,14.7,2.2c0.4-0.6,0.8-1.2,1.3-1.9c-0.9,0-1.9,0.1-2.8,0.1c-0.5,0-1.9,0.6-1.6,1.4c0.9,2.2,1.8,4.3,2.7,6.5
			c0.9-0.3,1.9-0.7,2.8-1c-2.9-3.3-5-6.7-6.6-10.8c-1,0.3-1.9,0.5-2.9,0.8c1.9,4.2,5.3,6.6,9.9,7.3c-0.2-0.5-0.5-1-0.7-1.4
			c-3.6,3.8-6.2,8.1-7.8,13.2c-0.3,1.1,0.8,1.3,1.6,1.1c3.2-0.6,6-1.7,8.8-3.5c1.5-0.9-0.5-2.1-1.6-1.5c-2.4,1.3-4,2.8-5.3,5.2
			c-0.8,1.4,2,1.3,2.6,0.6c3-3.4,5.6-7.1,7.7-11.1c0.5-0.9-0.6-1.2-1.2-1.2c-2.5,0-3.8,1.1-5.4,2.9c-3.6,4.1-7.1,7.1-12.4,8.7
			c0.6,0.2,1.1,0.4,1.7,0.6c-1.8-4.9-3.5-9.7-5.3-14.6c-0.9,0.3-1.9,0.7-2.8,1c3.5,4.3,6.6,8.9,9.3,13.7c0.6-0.6,1.2-1.1,1.8-1.7
			c-1.3-0.1-2.7-0.2-4-0.3c-0.3,0.7-0.7,1.4-1,2.1c3.3,0.2,5.9-0.5,8.5-2.6c0.5-0.4,0.7-1,0.2-1.5c-5.5-5.1-8.9-11.7-9.8-19.1
			c-0.9,0.3-1.9,0.7-2.8,1c0.4,0.4-3.6,8-3.9,8.8c-0.7,2.2-1.7,4.9-0.6,7.2c2.1,4.2,11,5.3,14.9,6.6c1.2,0.4,3.4-1.3,1.7-1.9
			c-2.8-0.9-5.5-1.8-8.3-2.8c-2.5-0.8-5.4-1.4-5.8-5c-0.1-1.3,0.6-2.9,1-4.1c0.9-2.7,2.6-4.7,3.7-7.2c0.6-1.3,0.9-1.9-0.1-2.9
			c-0.8-0.9-2.9-0.3-2.8,1c1,7.9,4.6,14.6,10.5,20c0.1-0.5,0.1-1,0.2-1.5c-1.9,0.6-3.7,1.2-5.6,1.8c-1.4-0.1-3,1.9-1,2.1
			c1.3,0.1,2.7,0.2,4,0.3c0.9,0.1,2.4-0.6,1.8-1.7c-2.7-4.9-5.8-9.4-9.3-13.7c-0.7-0.8-3.2-0.2-2.8,1c1.8,4.9,3.5,9.7,5.3,14.6
			c0.2,0.7,1.1,0.8,1.7,0.6c3.1-0.9,5.9-2.2,8.5-4.1c2.3-1.7,5.8-7.5,8.6-7.4c-0.4-0.4-0.8-0.8-1.2-1.2c-2.1,3.8-4.5,7.3-7.4,10.6
			c0.9,0.2,1.7,0.4,2.6,0.6c0.8-1.7,2.1-3,3.8-3.8c-0.5-0.5-1.1-1-1.6-1.5c-2.4,1.5-4.7,2.3-7.4,2.8c0.5,0.4,1.1,0.7,1.6,1.1
			c1.5-4.8,4-9,7.5-12.7c0.6-0.7,0-1.3-0.7-1.4c-3.7-0.5-6.4-2.7-8-6c-0.6-1.2-3.4-0.5-2.9,0.8c1.6,4.2,3.8,7.9,6.8,11.2
			c0.7,0.8,3.3,0.2,2.8-1c-0.9-2.2-1.8-4.3-2.7-6.5c-0.5,0.5-1.1,0.9-1.6,1.4c0.9,0,1.9-0.1,2.8-0.1c0.9,0,2.2-1,1.3-1.9
			c-5.3-4.6-15.4-9.8-19.7-0.9c-0.7,1.5,2.2,1.4,2.8,0.3c2.1-4,7.1,4,8.2,5c1.2,1.2,2.6,2,4.1,2.6c3.5,1.4,7.9,1.6,11.6,1.2
			c7.5-0.7,4.6-7.8-0.3-10.4c-0.8-0.4-3.3,0.2-2.4,1.5c1.3,2.1,2.2,4.2,2.8,6.6c0.8-0.4,1.5-0.9,2.3-1.3c-1.8-0.6-2.9-1.7-3.2-3.5
			C50.2,28.4,47.3,29.2,47.6,30.5L47.6,30.5z"/>
	</g>
</g>
<g>
	<g>
		<path d="M22.7,30.8c0.5,1.9,1,3.7,1.4,5.6c0.2,0.9,1.7,0.5,1.4-0.4c-0.5-1.9-1-3.7-1.4-5.6C23.9,29.5,22.5,29.9,22.7,30.8
			L22.7,30.8z"/>
	</g>
</g>
<g>
	<g>
		<path d="M23.8,32.5c0-0.4,0.1-0.7,0.1-1.1c-0.5-0.1-0.9-0.1-1.4-0.2c0.5,2.2,0.5,4.1,0.5,6.3c0,1,1.4,0.9,1.5,0
			c0.3-3.1,1.3-7.9,4-9.8c4.5-3.1,4.1-0.2,5.8,1.6c1,1,2.3,1.4,3.4,2.1c1.2,0.7,2.6,2.8,3.8,3.2c3.1,1.1,8.2-3.1,8.9-6.1
			c0.1-0.6-0.5-1.2-1.1-0.8c-1.2,0.8-2,1.6-2.8,2.7c-0.3,0.4,0,1,0.4,1.1c1.2,0.3,2.3,0.7,3.4,1.3c1.1,1.1,2,2.3,2.6,3.7
			c0.3,0.2,0.5,0.8,0.9,0.9c1.3,0.2,1.9-0.1,2.5-1.4c-0.5-0.1-0.9-0.3-1.4-0.4c0.3,3.4-0.6,6.2-3.3,8.6c-0.7,0.6,0.3,1.7,1.1,1.1
			c2.9-2.6,4.1-5.7,3.7-9.6c-0.1-0.7-1-1.1-1.4-0.4c-0.2,0.5-2.7-2.9-2.8-3c-1.5-1.4-5.1-1.3-2.1-3.3c-0.4-0.3-0.7-0.6-1.1-0.8
			c-0.5,2.3-5.3,4.8-7.3,4.3c-0.8-0.2-3-2.1-3.8-2.7c-2.1-1.4-3.7-5.2-6.4-5.4c-5.6-0.4-8.3,9.1-8.6,13.1c0.5,0,1,0,1.5,0
			c0-2.3,0-4.4-0.5-6.7c-0.1-0.6-1.1-0.7-1.4-0.2c-0.6,1.1-0.7,1.1-0.2,2.3C22.7,33.8,24.1,33.4,23.8,32.5L23.8,32.5z"/>
	</g>
</g>
<g>
	<g>
		<path d="M44.8,39.7c1.2-0.2,1.9-0.7,2.9-1.5c2.5-2,4.5-2.9,7.8-2.6c-0.2-0.4-0.4-0.9-0.5-1.3c-3,2.9-7.8,0.9-10.6,3.5
			c-0.7,0.6-0.9,1.4-1.2,2.2c-1.6,4-4.2,9.9-9.8,6.4c-0.1,0.5-0.3,0.9-0.4,1.4c1.4-0.1,2.8,0.1,4.2,0.6c0.9,0.3,1.3-1.2,0.4-1.4
			c-1.6-0.5-2.9-0.7-4.6-0.7c-0.8,0-1,1-0.4,1.4c3.5,2.2,7.6,1.2,10-2.3c0.7-1,0.9-1.9,1.4-2.9c0.3-1.6,1.1-3,2.5-4.1
			c1.6-0.3,3.1-0.5,4.7-0.7c2-0.5,3.4-1,4.9-2.4c0.5-0.5,0.1-1.2-0.5-1.3c-1.7-0.1-3.6-0.3-5.3,0.3c-2.2,0.9-3.4,3.4-5.9,3.8
			C43.5,38.4,43.9,39.9,44.8,39.7L44.8,39.7z"/>
	</g>
</g>
<g>
	<g>
		<path d="M27.8,24.7c-1.2,0.4-2.4,0.9-3.3,1.9c-0.3,0.4-0.6,0.8-0.7,1.3c-0.2,0.7-0.1,1.5-0.4,2.2c-0.5,0.8,0.8,1.6,1.3,0.8
			c0.5-0.9,0.3-2,0.7-2.9c0.5-1,1.8-1.4,2.8-1.8C29.1,25.9,28.7,24.4,27.8,24.7L27.8,24.7z"/>
	</g>
</g>
<g>
	<g>
		<path d="M23.7,30.2c1-0.4,1.8-0.9,2.6-1.5c0.3-0.3,0.3-0.8,0-1.1c-0.3-0.3-0.7-0.3-1.1,0c-0.6,0.5-1.2,0.9-1.9,1.1
			c-0.4,0.1-0.6,0.5-0.5,0.9C22.9,30,23.4,30.3,23.7,30.2L23.7,30.2z"/>
	</g>
</g>
<g>
	<g>
		<path d="M27.4,25.3c-0.9,0.5-1.9,0.8-2.5,1.7c-0.5,0.8-0.6,1.8-0.7,2.8c-0.1,1,1.4,1,1.5,0c0.1-0.7,0.1-1.4,0.5-2
			c0.4-0.7,1.3-0.8,2-1.2C29,26.2,28.2,24.9,27.4,25.3L27.4,25.3z"/>
	</g>
</g>
<g>
	<g>
		<path class="st0" d="M29.7,23.2c-6.7,3.8-7.9,15.2-3.1,20.7c0.6,0.7,1.7-0.3,1.1-1.1c-4.1-4.7-3-15.1,2.8-18.3
			C31.3,24,30.6,22.7,29.7,23.2L29.7,23.2z"/>
	</g>
</g>
<g>
	<g>
		<path class="st0" d="M59.5,35.1c0.7-0.3,1.5-0.1,2.2,0c0.7,0.1,1.3,0.1,1.9,0c0.9-0.2,0.5-1.7-0.4-1.4c-0.8,0.2-1.7-0.1-2.5-0.2
			c-0.7-0.1-1.3,0-2,0.3C57.8,34.3,58.6,35.5,59.5,35.1L59.5,35.1z"/>
	</g>
</g>
<g>
	<g>
		<path class="st0" d="M58.8,33.8c1-0.5,2.8,0.2,3.9,0.3c1.3,0.2,2.9,0.2,4.1,0.8c0.1-0.5,0.1-0.9,0.2-1.4c-2.6,0.7-5.2,0.9-7.9,0.6
			c-1-0.1-1,1.4,0,1.5c2.8,0.3,5.6,0.1,8.3-0.6c0.6-0.2,0.8-1.1,0.2-1.4c-1.6-0.8-3.6-0.8-5.4-1.1c-1.4-0.2-2.9-0.7-4.2,0
			C57.2,33,58,34.2,58.8,33.8L58.8,33.8z"/>
	</g>
</g>
<g>
	<g>
		<path class="st1" d="M58,31.5c4.1-0.1,8.1,0.6,11.9,2c0.4,0.1,0.5-0.4,0.2-0.6c-3.9-1.5-7.9-2.1-12.1-2
			C57.6,30.9,57.6,31.5,58,31.5L58,31.5z"/>
	</g>
</g>
<g>
	<g>
		<path class="st1" d="M56.1,30.1c5.2,0.7,10.1,2.3,14.7,4.9c0.3,0.2,0.6-0.3,0.3-0.5c-4.6-2.6-9.6-4.3-14.9-5
			C55.9,29.4,55.8,30,56.1,30.1L56.1,30.1z"/>
	</g>
</g>
</svg>
