<?xml version="1.0" encoding="utf-8"?>
<!-- Generator: Adobe Illustrator 23.0.3, SVG Export Plug-In . SVG Version: 6.00 Build 0)  -->
<svg version="1.1" id="Layer_1" xmlns="http://www.w3.org/2000/svg" xmlns:xlink="http://www.w3.org/1999/xlink" x="0px" y="0px"
	 viewBox="0 0 1773.6 198.9" style="enable-background:new 0 0 1773.6 198.9;" xml:space="preserve">
<style type="text/css">
	.st0{display:none;fill:#FFFFFF;stroke:#000000;stroke-width:3;stroke-miterlimit:10;}
</style>
<path class="st0" d="M7.1,194.9c285.3-13.7,570.7-20.7,856-21c297.7-0.3,595.4,6.7,893,21"/>
<g>
	<g>
		<path d="M1581.2,82.9c-2.7,22-0.8,44.1,5.4,65.3c0.4,1.3,2.4,0.7,2-0.6c-6.2-21.1-8-43-5.4-64.7
			C1583.4,81.6,1581.3,81.6,1581.2,82.9L1581.2,82.9z"/>
	</g>
</g>
<g>
	<g>
		<path d="M1587.8,149.8c2.1,0,4.2-0.1,6.3-0.1c0.6,0,1.1-0.5,1.1-1.1c-0.6-15.1-1.8-30.2-3.7-45.2c-0.8-6.6-1.2-13.6-3-20
			c-0.9-3.3-3.1-5.9-6.7-4.9c-1.3,0.4-0.7,2.4,0.6,2c1.6-0.4,4,3.8,4.5,5.1c0.4,1.2,0.4,2.6,0.6,3.8c0.4,2.9,0.9,5.7,1.3,8.6
			c0.8,6,1.5,11.9,2.2,17.9c1.1,10.9,1.9,21.8,2.3,32.7c0.3-0.3,0.7-0.7,1-1.1c-2.1,0-4.2,0.1-6.3,0.1
			C1586.4,147.7,1586.4,149.8,1587.8,149.8L1587.8,149.8z"/>
	</g>
</g>
<g>
	<g>
		<path d="M1619.7,158.4c-8.8,3.8-18.1,4.5-27.3,2c-1.3-0.4-1.9,1.7-0.6,2c9.8,2.7,19.6,1.8,28.9-2.2
			C1622,159.7,1620.9,157.9,1619.7,158.4L1619.7,158.4z"/>
	</g>
</g>
<g>
	<g>
		<path d="M1583.7,77.9c4-9.6,17.6-2.1,23.7,0.6c7.9,3.5,15.6,7.7,21.9,13.7c8,7.7,6.3,18.1,6.5,28.4c0.1,4.6,0.2,9.1,0.1,13.7
			c-0.1,6.6-0.8,11.5-5.2,16.7c-0.9,1,0.6,2.5,1.5,1.5c3.2-3.7,5.3-7.4,5.6-12.3c0.5-7.2,0.3-14.4,0.1-21.6
			c-0.1-5.9,0.7-12.7-0.9-18.5c-1.4-4.9-4.9-8.5-8.7-11.7c-8.4-7.1-18.8-11.7-29-15.7c-6.2-2.4-14.6-2.6-17.5,4.5
			C1581.1,78.6,1583.2,79.1,1583.7,77.9L1583.7,77.9z"/>
	</g>
</g>
<g>
	<g>
		<path d="M1588.5,150.5c-0.3,3.6,0.7,7.1,2.7,10.1c0.8,1.1,2.6,0.1,1.8-1.1c-1.9-2.7-2.7-5.7-2.4-9
			C1590.7,149.1,1588.6,149.1,1588.5,150.5L1588.5,150.5z"/>
	</g>
</g>
<g>
	<g>
		<path d="M1595.5,152.8c-0.4,2.4-0.2,4.8,0.6,7.1c0.3,0.8,1.1,1,1.8,0.5c2.6-2.1,3.1-6,1.2-8.7c-0.8-1.1-2.6-0.1-1.8,1.1
			c1.4,2,1,4.6-0.9,6.1c0.6,0.2,1.2,0.3,1.8,0.5c-0.7-1.9-1-3.9-0.6-6C1597.8,152,1595.7,151.5,1595.5,152.8L1595.5,152.8z"/>
	</g>
</g>
<g>
	<g>
		<path d="M1597.3,154.1c1.4,0,1.4-2.1,0-2.1C1596,152,1596,154.1,1597.3,154.1L1597.3,154.1z"/>
	</g>
</g>
<g>
	<g>
		<path d="M1623.2,167.3c-3.3,0.7-24.9,4.9-23-3.6c0.3-1.3-1.7-1.9-2-0.6c-2.8,12.1,19.8,7.4,25.6,6.2
			C1625,169,1624.5,167,1623.2,167.3L1623.2,167.3z"/>
	</g>
</g>
<g>
	<g>
		<path d="M1629.4,168.9c3.3,0,13.6-2,15.2,1.5c0.7,1.6,0.6,3.8,1,5.6c0.6,2.6,0.8,5.2,0.9,7.8c0,1.3,2.1,1.4,2.1,0
			c-0.1-3.1-0.6-5.9-1.1-8.9c-0.4-2.4-0.1-4.9-1.8-6.9c-1.3-1.6-2.8-1.5-4.8-1.4c-3.8,0.1-7.6,0.4-11.5,0.4
			C1628.1,166.8,1628.1,168.9,1629.4,168.9L1629.4,168.9z"/>
	</g>
</g>
<g>
	<g>
		<path d="M1599,166.9c-5.1-0.4-10-0.1-15,0.8c-0.7,0.1-1,1-0.6,1.5c1,1.5,1.5,2.9,1.7,4.6c0.1,0.7,0.6,1.2,1.3,1
			c3.6-1,8.2,1.4,7.5,5.6c-0.3,1.9-1.1,1.7-2.9,1.8c-1.4,0.1-2.9,0.2-4.3,0.2c-1.3,0.1-1.4,2.2,0,2.1c2.5-0.1,5-0.3,7.6-0.4
			c0.3,0,0.8-0.2,0.9-0.5c2.8-6.3-2.5-12.8-9.3-10.9c0.4,0.3,0.9,0.7,1.3,1c-0.3-2.1-0.9-3.9-2-5.7c-0.2,0.5-0.4,1-0.6,1.5
			c4.8-0.9,9.6-1.2,14.5-0.8C1600.4,169.1,1600.4,167,1599,166.9L1599,166.9z"/>
	</g>
</g>
<g>
	<g>
		<path d="M1587.4,187.8c0-1.7,0-3.5,0-5.2c0-0.6-0.9-0.6-0.9,0c0,1.7,0,3.5,0,5.2C1586.5,188.3,1587.4,188.3,1587.4,187.8
			L1587.4,187.8z"/>
	</g>
</g>
<g>
	<g>
		<path d="M1585,172.2c-0.4,3.7,0.2,7.3,1.6,10.7c0.5,1.2,2.5,0.7,2-0.6c-1.4-3.3-1.9-6.6-1.6-10.2
			C1587.3,170.8,1585.2,170.8,1585,172.2L1585,172.2z"/>
	</g>
</g>
<g>
	<g>
		<path d="M1619.2,160.7c6.9-1.3,10.2-8.8,16.9-10.4c1.3-0.3,0.8-2.3-0.6-2c-6.8,1.6-10.1,9.2-16.9,10.4
			C1617.3,158.9,1617.9,161,1619.2,160.7L1619.2,160.7z"/>
	</g>
</g>
<g>
	<g>
		<path d="M1624.7,156.6c0.4,4,0.7,8.1,1.1,12.1c0.1,1.3,2.2,1.3,2.1,0c-0.4-4-0.7-8.1-1.1-12.1
			C1626.7,155.2,1624.6,155.2,1624.7,156.6L1624.7,156.6z"/>
	</g>
</g>
<g>
	<g>
		<path d="M1640.4,126.4c11.5-5.9,21.8,9.7,29.3,16.3c7.5,6.5,15.7,12.2,24.4,16.8c17.2,9.1,36.4,13.8,55.8,12.4
			c1.3-0.1,1.4-2.2,0-2.1c-22.4,1.7-44.3-5.1-63.2-17c-9.5-6-17.7-13.3-25.6-21.2c-5.8-5.8-13.5-11.2-21.8-7
			C1638.1,125.2,1639.2,127,1640.4,126.4L1640.4,126.4z"/>
	</g>
</g>
<g>
	<g>
		<path d="M1638.5,126.8c1.8-0.8,3.5-1.6,5.3-2.4c1.2-0.5,0.2-2.4-1.1-1.8c-1.8,0.8-3.5,1.6-5.3,2.4
			C1636.2,125.5,1637.3,127.4,1638.5,126.8L1638.5,126.8z"/>
	</g>
</g>
<g>
	<g>
		<path d="M1637.7,133.4c11.3,2.2,17.7,12,23.9,20.8c5.4,7.7,11.3,14.2,20.3,17.7c10,3.9,21.5,4.7,32.1,5.4
			c12.5,0.8,25.1,0.3,37.6-1.2c1.3-0.2,1.3-2.3,0-2.1c-11.8,1.5-23.7,2-35.6,1.4c-11.9-0.6-25.4-1.3-36.3-6.6
			c-17.3-8.4-21.2-33.4-41.5-37.3C1636.9,131.1,1636.4,133.2,1637.7,133.4L1637.7,133.4z"/>
	</g>
</g>
<g>
	<g>
		<path d="M1636.9,122.9c1.7,4.4,3.8,11.2-1.8,13.6c-1.2,0.5-0.2,2.3,1.1,1.8c6.6-2.8,4.8-10.7,2.8-16
			C1638.4,121.1,1636.4,121.6,1636.9,122.9L1636.9,122.9z"/>
	</g>
</g>
<g>
	<g>
		<path d="M1637.9,125.6c0.4,2.8,0.2,5.5-0.7,8.1c-0.4,1.3,1.6,1.8,2,0.6c0.9-3,1.1-6.1,0.7-9.3
			C1639.7,123.7,1637.7,124.3,1637.9,125.6L1637.9,125.6z"/>
	</g>
</g>
<g>
	<g>
		<path d="M1749,167.5c-0.9,2.1,0.8,4.7,3,4.8c2.3,0.1,4-2.4,3.4-4.6c-0.1-0.3-0.4-0.7-0.7-0.7c-1.8-0.4-3.5-0.7-5.3-1.1
			c-1.3-0.3-1.9,1.8-0.6,2c1.8,0.4,3.5,0.7,5.3,1.1c-0.2-0.2-0.5-0.5-0.7-0.7c0.3,0.8-0.4,2-1.3,1.9c-1-0.1-1.4-1.3-1-2.1
			C1751.5,166.9,1749.5,166.3,1749,167.5L1749,167.5z"/>
	</g>
</g>
<g>
	<g>
		<path d="M1753.6,172.9c-0.9,0-1.9-0.1-2.8-0.1c-1.4,0-1.4,2.1,0,2.1c0.9,0,1.9,0.1,2.8,0.1C1755,175,1755,172.9,1753.6,172.9
			L1753.6,172.9z"/>
	</g>
</g>
<g>
	<g>
		<path d="M1750.5,174.4c-0.5,2.2,0.9,4.3,3,4.8c1.3,0.3,1.9-1.7,0.6-2c-1-0.3-1.8-1.2-1.5-2.3
			C1752.8,173.7,1750.8,173.1,1750.5,174.4L1750.5,174.4z"/>
	</g>
</g>
<g>
	<g>
		<path d="M1754.3,171.5c0.9,0,1.7,0,2.6,0c1.4,0,1.4-2.1,0-2.1c-0.9,0-1.7,0-2.6,0C1752.9,169.4,1752.9,171.5,1754.3,171.5
			L1754.3,171.5z"/>
	</g>
</g>
<g>
	<g>
		<path d="M1753.7,166.7c-2.1,0-4.3,0-6.4,0.1c-1.4,0-1.4,2.1,0,2.1c2.1,0,4.3,0,6.4-0.1C1755.1,168.8,1755.1,166.7,1753.7,166.7
			L1753.7,166.7z"/>
	</g>
</g>
<g>
	<g>
		<path d="M1306.8,152.4c6.8-0.5,14-1.1,20.3,1.8c2.5,1.2,7.9,4.6,7.9,7.9c-1,2.1-1.9,4.3-2.9,6.4c-1.1,0.6-2.3,1-3.5,1.4
			c-1.8,0.6-3.7,0.9-5.6,1.1c-5.6,0.5-12.4-0.3-17.6-2.6c-9.3-4.2-0.4-14.7,5.5-17.3c1.1-0.5,0.1-2-0.9-1.6c-4,1.8-7.1,4.7-9,8.6
			c-1.2,2.5-2.8,7-1,9.6c1.9,2.7,7.8,3.4,10.7,4.1c4.9,1.1,10,1.5,14.9,0.7c7.4-1.3,14.9-6.1,9.3-14.1c-6.3-9-18.7-8.5-28.3-7.8
			C1305.7,150.7,1305.7,152.5,1306.8,152.4L1306.8,152.4z"/>
	</g>
</g>
<g>
	<g>
		<path d="M1309.5,151.3c2.4-6.3,1.2-13.5-4-18.1c-4.1-3.6-11.3-5.9-16.4-2.8c-5.7,3.5-4.9,14.7-5.1,20.4
			c-0.4,10.2,0.6,20.3,2.6,30.3c0.2,1.1,2,0.7,1.7-0.5c-2.6-12.3-3.3-24.9-2-37.4c0.4-4,0.6-9.8,4.7-11.7c3.1-1.5,7.3-0.7,10.2,0.9
			c6.8,3.6,9.1,11.3,6.5,18.4C1307.4,151.9,1309.1,152.3,1309.5,151.3L1309.5,151.3z"/>
	</g>
</g>
<g>
	<g>
		<path d="M1331,171.3c0,4,0,8.1,0,12.1c0,1.2,1.8,1.2,1.8,0c0-4,0-8.1,0-12.1C1332.8,170.1,1331,170.1,1331,171.3L1331,171.3z"/>
	</g>
</g>
<g>
	<g>
		<path d="M725.9,173.7c1.9,0,1.9-3,0-3C724,170.7,724,173.7,725.9,173.7L725.9,173.7z"/>
	</g>
</g>
<g>
	<g>
		<path d="M1362.3,184.1c-0.9-3.3-1.9-6.4,1.2-8.3c2.5-1.5,6.5-2.3,9.4-2.7c7-0.9,15.7,2.9,14.8,11.3c-0.1,1.1,1.7,1.1,1.8,0
			c0.6-5.6-3.1-10.3-8.2-12.3c-6.9-2.7-14.4,0.4-20.8,3c-0.4,0.2-0.6,0.4-0.7,0.9c-0.3,3-0.1,5.7,0.7,8.6
			C1360.9,185.7,1362.6,185.2,1362.3,184.1L1362.3,184.1z"/>
	</g>
</g>
<g>
	<g>
		<path d="M1362.1,174.4c-3.8-5,2.8-8.8,7.2-8.8c2.6,0,5.1,0.7,7.6,1c2.1,0.3,5.7-0.2,7.5,0.8c2.5,1.4,4,4.9,3.6,7.6
			c-0.2,1.3-0.5,2.6-0.9,3.9c-0.3,1.1,1.4,1.6,1.7,0.5c1-3.5,2.1-7.9-0.2-11.1c-3-4.1-10.5-3.4-15-4c-4.2-0.6-9.2-1.1-12.5,2.2
			c-2.5,2.4-2.8,6.1-0.7,8.9C1361.2,176.2,1362.8,175.3,1362.1,174.4L1362.1,174.4z"/>
	</g>
</g>
<g>
	<g>
		<path d="M1294.2,183.1c-2.4-10.9-3.6-22-3.2-33.1c0.1-2.9,0-6.2,0.8-9c0.2-1.2,0.8-2.2,1.8-3c0.9-2.6,2.5-2.9,4.8-1.1
			c3,0.9,3.7,1,4.4,3.8c1.1,4.3-0.2,9,0.6,13.4c0.2,1.1,1.9,0.7,1.7-0.5c-1-5.8,1.6-12.9-2.9-17.8c-3-3.3-7.6-2.9-10.4,0.7
			c-4,5.2-2.9,15.1-2.7,21.1c0.2,8.7,1.4,17.4,3.3,25.9C1292.7,184.7,1294.5,184.2,1294.2,183.1L1294.2,183.1z"/>
	</g>
</g>
<g>
	<g>
		<path d="M1289,184.3c0-0.6,0-1.2,0-1.7c0-0.6-0.9-0.6-0.9,0c0,0.6,0,1.2,0,1.7C1288.1,184.9,1289,184.9,1289,184.3L1289,184.3z"/>
	</g>
</g>
<g>
	<g>
		<path d="M1326.7,172.2c0,4.6,0,9.3,0,13.9c0,1.2,1.8,1.2,1.8,0c0-4.6,0-9.3,0-13.9C1328.5,171,1326.7,171,1326.7,172.2
			L1326.7,172.2z"/>
	</g>
</g>
<g>
	<g>
		<path d="M1305.8,161.8c0.1,0.7,0.1,1.5,0.2,2.2c0,0.4,0.3,0.8,0.7,0.9c1.3,0.3,2.6,0.6,3.9,0.9c0-0.6,0-1.2,0-1.7
			c-2.2,0.3-4.2-2.1-3.7-4.2c0.2-0.7-0.4-1.2-1.1-1.1c-2.1,0.4-2.7,3-2,4.8c1,2.5,4.2,2.9,6.6,3c1.2,0.1,1.2-1.7,0-1.8
			c-1.5-0.1-3.6-0.1-4.6-1.4c-0.6-0.8-0.7-2.5,0.6-2.8c-0.4-0.4-0.7-0.7-1.1-1.1c-0.9,3.6,2.4,6.9,5.9,6.4c0.9-0.1,0.8-1.5,0-1.7
			c-1.3-0.3-2.6-0.6-3.9-0.9c0.2,0.3,0.4,0.6,0.7,0.9c-0.1-0.7-0.1-1.5-0.2-2.2C1307.5,160.6,1305.7,160.6,1305.8,161.8
			L1305.8,161.8z"/>
	</g>
</g>
<g>
	<g>
		<path d="M877.2,157.7c-0.6,8.9-1.2,17.7-1.8,26.6c-0.1,1.2,1.7,1.2,1.8,0c0.6-8.9,1.2-17.7,1.8-26.6
			C879.1,156.5,877.3,156.6,877.2,157.7L877.2,157.7z"/>
	</g>
</g>
<g>
	<g>
		<path d="M1011.5,161.1c-0.4,9.4-1.3,18.8-1.7,28.3c0,1.2,1.8,1.2,1.8,0c0.4-9.4,1.3-18.8,1.7-28.3
			C1013.3,159.9,1011.5,159.9,1011.5,161.1L1011.5,161.1z"/>
	</g>
</g>
<g>
	<g>
		<path d="M878.1,158.6c39.3,2.3,78.6,4.7,118,7c5.6,0.3,11.3,0.7,16.9,1c1.2,0.1,1.2-1.7,0-1.8c-39.3-2.3-78.6-4.7-118-7
			c-5.6-0.3-11.3-0.7-16.9-1C877,156.7,877,158.5,878.1,158.6L878.1,158.6z"/>
	</g>
</g>
<g>
	
		<rect x="938.2" y="81.7" transform="matrix(5.935133e-02 -0.9982 0.9982 5.935133e-02 733.8454 1088.7358)" width="12.9" height="146.6"/>
	<g>
		<path d="M1017.4,164.9c-45.7-2.7-91.3-5.4-137-8.1c-2.2-0.1-6.4-1.2-8.5-0.5c-1.6,0.5,0.4-0.7,0,0.5c0.9-2.8,0.4-6.8,0.6-9.7
			c0.1-0.9,0.7-2.9-0.3-2.3c-0.8,0.5-0.5,0.4-0.1,0.4c0.8,0.1,1.7,0.1,2.5,0.1c3.5,0.2,7.1,0.4,10.6,0.6c27.8,1.7,55.6,3.3,83.4,5
			c13.4,0.8,26.8,1.6,40.2,2.4c3,0.2,5.9,0.4,8.9,0.5c0.1,0,0.4,0,0.5,0c-2.2-0.8-0.3-1.2-0.9-0.1c-0.3,0.5-0.1,1.8-0.1,2.4
			c-0.2,3.2-0.4,6.4-0.6,9.7c-0.1,1.2,1.7,1.2,1.8,0c0.3-4.3,0.5-8.6,0.8-12.8c0-0.5-0.4-0.9-0.9-0.9c-42.7-2.5-85.4-5.1-128.2-7.6
			c-6.1-0.4-12.1-0.7-18.2-1.1c-0.5,0-0.9,0.4-0.9,0.9c-0.3,4.3-0.5,8.6-0.8,12.8c0,0.5,0.4,0.9,0.9,0.9
			c42.7,2.5,85.4,5.1,128.2,7.6c6.1,0.4,12.1,0.7,18.2,1.1C1018.6,166.7,1018.6,164.9,1017.4,164.9z"/>
	</g>
</g>
<g>
	<g>
		<path d="M879.4,184.5c3.7-10.1,7.4-20.1,11.1-30.2c0.4-1.1-1.3-1.6-1.7-0.5c-3.7,10.1-7.4,20.1-11.1,30.2
			C877.3,185.1,879,185.6,879.4,184.5L879.4,184.5z"/>
	</g>
</g>
<g>
	<g>
		<path d="M999.3,162.2c2.7,9.2,5.8,18.3,8.5,27.5c0.3,1.1,2.1,0.6,1.7-0.5c-2.7-9.2-5.9-18.2-8.5-27.5
			C1000.7,160.6,999,161.1,999.3,162.2L999.3,162.2z"/>
	</g>
</g>
<g>
	<g>
		<path d="M445.3,179.2c-14.6,0.6-29.1,1.3-43.7,1.9c-2,0.1-6.3-0.6-8.1,0.3c-1.4,0.7,0-1.5,0.1,0.9c0-0.2-0.1-0.6,0-0.7
			c0.4-0.9-0.1-3.2-0.2-4.2c-0.1-2.3-0.2-4.7-0.3-7c-1.5-34.9-3-69.8-4.5-104.7c-0.3-6.9-0.6-13.9-0.9-20.8c-0.1-3,0.6-7.7-0.5-10.5
			c-0.1-0.4,0.3-1-0.5-0.1c-0.7,0.9,0.2,0.3,1,0.4c2.9,0.3,6.2-0.3,9.1-0.4c9.1-0.4,18.2-0.8,27.3-1.2c3.7-0.2,7.4-0.3,11.1-0.5
			c0.6,0,2.3,0.2,2.9-0.1c1.3-0.8-0.2,0.7-0.1-0.9c-0.2,2.6,0.2,5.5,0.4,8.2c0.6,15.1,1.3,30.3,1.9,45.4c1.3,31.1,2.5,62.1,4,93.2
			c0,0.6,0.1,1.2,0.1,1.8c0,1.2,1.8,1.2,1.8,0c-1.9-43.5-3.7-86.9-5.6-130.4c-0.3-6.1-0.5-12.1-0.8-18.2c0-0.5-0.4-0.9-0.9-0.9
			c-17.6,0.8-35.1,1.5-52.7,2.3c-0.5,0-0.9,0.4-0.9,0.9c1.9,43.5,3.7,86.9,5.6,130.4c0.3,6.1,0.5,12.1,0.8,18.2
			c0,0.5,0.4,0.9,0.9,0.9c17.6-0.8,35.1-1.5,52.7-2.3C446.5,181,446.5,179.2,445.3,179.2z"/>
	</g>
</g>
<g>
	<g>
		<path d="M438.7,175.5c-5.2,0.3-10.4,0.5-15.5,0.8c-7.1,0.3-14.7-0.1-21.7,1.1c-0.5,0.1-1.1,0-1.7,0.1c0.8-0.1,0.5,1.5,0.8,0.5
			c0.2-0.8-0.1-2.1-0.1-2.9c-0.2-4.5-0.4-9-0.7-13.4c-1.5-31-3-62.1-4.6-93.1c-0.3-5.9-0.6-11.8-0.9-17.7c-0.1-2.5,0.4-6.3-0.4-8.7
			c-0.1-0.3,0.3-0.9-0.5,0c-0.7,0.9,0.3,0.3,1,0.4c2.9,0.2,6-0.3,8.9-0.4c7.8-0.4,15.6-0.8,23.4-1.1c1.1-0.1,2.3,0,3.5-0.2
			c0.6-0.1,2.3,0.3,1.3-0.5c-0.9-0.7-0.3,0.3-0.4,1.1c-0.2,3.7,0.4,7.6,0.6,11.3c0.7,14.4,1.4,28.7,2.1,43.1
			c1.3,26.3,1.9,52.8,3.9,79.1c0,0.5,0.1,1,0.1,1.6c0.1,1.2,1.9,1.2,1.8,0c-2-40-3.9-79.9-5.9-119.9c-0.3-5.6-0.5-11.1-0.8-16.7
			c0-0.5-0.4-0.9-0.9-0.9c-13,0.6-26,1.3-39,1.9c-0.5,0-0.9,0.4-0.9,0.9c2,40,3.9,79.9,5.9,119.9c0.3,5.6,0.5,11.1,0.8,16.7
			c0,0.5,0.4,0.9,0.9,0.9c13-0.6,26-1.3,39-1.9C439.8,177.3,439.8,175.5,438.7,175.5z"/>
	</g>
</g>
<g>
	<circle cx="433.6" cy="104.2" r="6"/>
	<g>
		<path d="M438.7,104.2c-0.4,6.5-10.2,6.6-10.2,0C428.5,97.6,438.4,97.6,438.7,104.2c0.1,1.2,1.9,1.2,1.8,0c-0.2-3.7-3-6.9-6.9-6.9
			c-3.7,0-6.9,3.1-6.9,6.9c0,3.6,2.9,6.7,6.6,6.9c4,0.2,7-3,7.2-6.9C440.6,103,438.8,103,438.7,104.2z"/>
	</g>
</g>
<g>
	<g>
		<path d="M414.8,56.1c-2.1-1-4.9-0.3-6.1,1.8c-1.3,2.2-0.2,5,2.1,6.1c2.3,1.1,4.8,0.1,5.8-2.2c0.4-1,0.6-2.2,0.2-3.3
			c-0.5-1.6-2.1-2.1-3.4-2.8c-1-0.6-1.9,1-0.9,1.6c0.7,0.4,1.7,0.7,2.3,1.3c0.5,0.5,0.5,1.3,0.4,1.9c-0.3,1.5-1.7,2.6-3.2,2.1
			c-1.5-0.5-2.6-2.3-1.7-3.8c0.7-1.2,2.4-1.8,3.7-1.1C415,58.1,415.9,56.6,414.8,56.1L414.8,56.1z"/>
	</g>
</g>
<g>
	<g>
		<path d="M412.8,64.7c0,0.7,0,1.4-0.1,2.1c0,1.1,1.4,1.1,1.8,0.2c0.7-1.8,1-3.6,0.9-5.5c-0.1-1.2-1.9-1.2-1.8,0
			c0.1,1.8-0.2,3.4-0.8,5.1c0.6,0.1,1.2,0.2,1.8,0.2c0-0.7,0-1.4,0.1-2.1C414.6,63.6,412.8,63.6,412.8,64.7L412.8,64.7z"/>
	</g>
</g>
<g>
	<g>
		<path d="M411.9,60.5c0.7-0.8,1.1-1.7,1-2.7c0-0.4-0.3-0.7-0.7-0.9c-1.5-0.5-2.9-0.5-4.5-0.2c-0.3,0.1-0.6,0.3-0.6,0.6
			c-0.5,2.8,2.3,5.7,5.2,5c3.2-0.8,1.3-7.1-1.8-5.2c-2.2,1.4-1.1,5.3,1.5,5.3c2.8,0,3.5-4,1.3-5.4c-0.5-0.3-1.2,0-1.3,0.5
			c-0.3,1.3,0,2.5,0.8,3.5c0.7,0.8,1.8-0.2,1.4-1.1c-0.6-1.2-1.2-2.4-1.8-3.6c-0.4-0.9-1.6-0.3-1.7,0.5c-0.2,1.8,0.8,3.6,2.4,4.4
			c0.4,0.2,0.8,0.1,1.1-0.1c0.9-0.9,1.2-2.1,1-3.3c-0.2-1-1.8-0.8-1.8,0.2c0,1.2,0,2.4,0,3.6c0.6,0,1.2,0,1.8,0c0-0.9,0-1.8,0-2.6
			c0-1.2-1.8-1.2-1.8,0c0,0.9,0,1.8,0,2.6c0,1.2,1.8,1.2,1.8,0c0-1.2,0-2.4,0-3.6c-0.6,0.1-1.2,0.2-1.8,0.2c0.1,0.6-0.1,1.1-0.5,1.6
			c0.4,0,0.7-0.1,1.1-0.1c-1.1-0.6-1.7-1.6-1.5-2.9c-0.6,0.2-1.1,0.3-1.7,0.5c0.6,1.2,1.2,2.4,1.8,3.6c0.5-0.4,0.9-0.7,1.4-1.1
			c-0.4-0.5-0.5-1.1-0.4-1.8c-0.4,0.2-0.9,0.4-1.3,0.5c0.7,0.4,0.5,2-0.4,2c-0.7,0-1.4-1.7-0.6-2c0.7-0.2,0.8,1.2,0.5,1.7
			c-0.2,0.4-0.8,0.3-1.2,0.2c-1.1-0.3-2.1-1.5-1.9-2.7c-0.2,0.2-0.4,0.4-0.6,0.6c1.2-0.2,2.3-0.1,3.5,0.2c-0.2-0.3-0.4-0.6-0.7-0.9
			c0,0.6-0.1,1-0.5,1.5C409.8,60.1,411.1,61.3,411.9,60.5L411.9,60.5z"/>
	</g>
</g>
<g>
	<g>
		<path d="M412,62.1c-0.4,1.6-0.1,3.3,0.8,4.8c0.6,1,2.2,0.1,1.6-0.9c-0.7-1-0.9-2.2-0.6-3.4C414.1,61.4,412.3,60.9,412,62.1
			L412,62.1z"/>
	</g>
</g>
<g>
	<g>
		<path d="M407.9,159.3c0,3.6-1,8.6,0.1,12.1c0.5,1.9,1.6,2.6,3.5,3c4.2,0.8,9.1,0.4,13.3,0.4c2.6,0,5.1,0.1,6.6-2.3
			c2.2-3.3,1.9-10.4-0.6-13.5c-1.7-2.1-4.2-2.4-6.7-2.5c-5.1-0.1-10.2,0.2-15.3,0.5c-1.2,0.1-1.2,1.9,0,1.8
			c4.8-0.2,9.8-0.8,14.6-0.5c4.4,0.3,7,1.4,7.4,6c0.1,1.6,0.3,4.3-0.3,5.8c-1.7,4.1-12.5,3.3-16,2.6c-4.2-0.8-4.8-2.7-4.8-6.5
			c0-2.3,0-4.7,0-7C409.7,158.2,407.9,158.2,407.9,159.3L407.9,159.3z"/>
	</g>
</g>
<g>
	<g>
		<path d="M386.2,27.5c16.1,0.5,32.2,0,48.3-1.7c3.8-0.4,4.8-1.1,3.5-5.1c-1.5-5-4.4-9.7-8.5-13c-15.7-12.6-51.4-5.1-46,19.9
			c0.2,1.1,2,0.7,1.7-0.5c-5.3-24.5,32.5-30.4,45.6-15.7c1.7,1.9,3.1,4.1,4.1,6.4c1.3,2.9,2.2,5-1.5,6.2c-4.4,1.5-10.8,1-15.4,1.2
			c-10.6,0.6-21.3,0.7-31.9,0.4C385,25.7,385,27.5,386.2,27.5L386.2,27.5z"/>
	</g>
</g>
<g>
	<g>
		<path d="M407.1,4.1c0,7,0,14,0,21c0,1.2,1.8,1.2,1.8,0c0-7,0-14,0-21C408.9,2.9,407.1,2.9,407.1,4.1L407.1,4.1z"/>
	</g>
</g>
<g>
	<g>
		<path d="M385.4,17.4c16.7-0.3,33.4-0.6,50.1-0.8c1.2,0,1.2-1.8,0-1.8c-16.7,0.3-33.4,0.6-50.1,0.8
			C384.2,15.6,384.2,17.4,385.4,17.4L385.4,17.4z"/>
	</g>
</g>
<g>
	<g>
		<path d="M404.7,2.4c-0.1,8.8,0.5,17.4,1.8,26.1c0.2,1.1,1.9,0.7,1.7-0.5c-1.3-8.5-1.9-17-1.8-25.6C406.5,1.3,404.7,1.3,404.7,2.4
			L404.7,2.4z"/>
	</g>
</g>
<g>
	<g>
		<path d="M388.6,18.7c15.4,0,30.7,0,46.1,0c1.2,0,1.2-1.8,0-1.8c-15.4,0-30.7,0-46.1,0C387.4,16.9,387.4,18.7,388.6,18.7
			L388.6,18.7z"/>
	</g>
</g>
<g>
	<g>
		<path d="M946.6,45.1c-15.1,3.5-16.3,20.8-16,33.4c0,1.2,1.8,1.2,1.8,0c-0.3-11.8,0.4-28.4,14.7-31.7
			C948.2,46.6,947.7,44.9,946.6,45.1L946.6,45.1z"/>
	</g>
</g>
<g>
	<g>
		<path d="M930.7,80.3c13.4,6.6,28.6,7.4,42.6,2.3c1.1-0.4,0.6-2.1-0.5-1.7c-13.6,5-28.2,4.3-41.2-2.1
			C930.6,78.2,929.6,79.7,930.7,80.3L930.7,80.3z"/>
	</g>
</g>
<g>
	<g>
		<path d="M973.5,81.1c1.2-14.6-2.8-35.7-21.5-35.5c-1.2,0-1.2,1.8,0,1.8c17.7-0.2,20.8,20.2,19.7,33.7
			C971.6,82.3,973.4,82.3,973.5,81.1L973.5,81.1z"/>
	</g>
</g>
<g>
	<g>
		<path d="M949.4,46.4c0-6.6,0-13.3,0-19.9c0-1.2-1.8-1.2-1.8,0c0,6.6,0,13.3,0,19.9C947.6,47.6,949.4,47.6,949.4,46.4L949.4,46.4z"
			/>
	</g>
</g>
<g>
	<g>
		<path d="M944.2,85.6c0.5,4.3,4.1,8,8.6,7.8c4.5-0.2,7.7-4.4,7.7-8.7c0-1.2-1.8-1.2-1.8,0c0,3.4-2.4,6.6-5.9,6.9
			c-3.5,0.3-6.4-2.6-6.8-6C945.8,84.4,944,84.4,944.2,85.6L944.2,85.6z"/>
	</g>
</g>
<g>
	<path d="M1331.8,184.6c-0.3,0-0.6,0.1-0.9,0.1c0-0.2,0-0.4,0-0.6c0.3-0.1,0.5-0.3,0.5-0.6l0.5-4.6c0.1-0.8-1.1-0.9-1.4-0.2
		c-0.2,0.4-0.3,0.9-0.4,1.3c-0.3-1.3-0.5-2.7-0.5-4.1c0-0.4-0.2-0.6-0.5-0.6c-0.3-0.5-1.3-0.4-1.3,0.4c0,2.4,0,4.7-0.1,7.1
		c0,0.1,0,0.2,0.1,0.3v2.1c-0.2,0-0.3,0-0.5,0.1c-11.1-2.3-22.5-2.2-33.5,0.3c-0.2-1.8-0.5-3.5-1.1-5.3c-0.2-0.5-0.6-0.6-1-0.4
		c-0.7-3-1.3-6.1-1.7-9.2c-0.1-0.8-1.4-0.9-1.4,0c0,0.1,0,0.3,0,0.4c-0.2-0.4-0.4-0.8-0.6-1.2c-0.3-0.5-1.1-0.4-1.3,0.2
		c-0.5,2.5-0.4,5,0.2,7.4c-0.1,0.1-0.2,0.4-0.1,0.6c0.5,2.3,1.4,4.3,2.7,6.2c0.2,1.1,0.3,2.3,0.3,3.4c0,0.9,1.3,0.9,1.4,0
		c0-0.5,0-0.9,0-1.3c0.3,0.2,0.7,0.1,0.9-0.2c0.2,0.6,0.4,1.2,0.6,1.8c0.2,0.7,1.4,0.6,1.4-0.2c0-0.3,0-0.6,0-0.9
		c0.5,0.1,1.1,0.1,1.6,0.1c0,0,0,0,0,0c-0.9,0-0.9,1.4,0,1.4c11.4-0.4,22.9-0.9,34.3-1.3c0.3,0,0.5-0.2,0.6-0.5
		c0.3,0,0.5-0.2,0.5-0.6c0.4-0.1,0.8-0.1,1.2-0.2C1333,185.8,1332.6,184.5,1331.8,184.6z M1288.7,178.6c-0.7-1.9-1-3.9-0.9-6
		c0.4,0.9,0.7,1.8,0.9,2.8C1288.7,176.5,1288.7,177.5,1288.7,178.6C1288.7,178.6,1288.7,178.6,1288.7,178.6z M1290.1,181.6
		c0-0.1,0-0.1-0.1-0.2c0.1-0.5,0.2-1.1,0.2-1.6c0.2,1,0.5,2.1,0.8,3.1C1290.7,182.5,1290.4,182,1290.1,181.6z M1291.2,184.4
		c-0.1-0.2-0.3-0.4-0.4-0.5c0.2-0.1,0.4-0.2,0.4-0.4c0,0.1,0.1,0.2,0.1,0.4C1291.3,184,1291.2,184.2,1291.2,184.4z M1329.2,181.9
		C1329.2,181.9,1329.2,181.9,1329.2,181.9c0.1,0.2,0.2,0.5,0.3,0.8c-0.1,0.7-0.1,1.5,0,2.2c-0.1,0-0.2,0-0.3,0V181.9z M1322.3,185.7
		c-7.9,0.7-15.8,0.8-23.7,0.3C1306.4,184.7,1314.4,184.6,1322.3,185.7z"/>
	<g>
		<path d="M1331.5,183.7c-0.3,0-0.6,0.1-0.9,0.1c0.4,0.3,0.8,0.6,1.1,0.9c-0.1-2.2,1.6-4.6,0.6-6.9c-0.1-0.3-0.5-0.4-0.8-0.4
			c-1.6-0.1-1.9,0.9-2.4,2.3c0.6,0,1.2,0,1.7,0c-0.5-2.4,0.2-4.7-2.4-5.6c-0.3-0.1-0.7,0-0.9,0.2c-1.5,1.8-0.8,4.4-0.8,6.6
			c0-0.9,0.1,2.1,0,2.4c-0.4,2.1,0.4,0.7-1.2,0.6c-8-0.6-15.5-1.7-23.6-0.8c-1.6,0.2-3.3,0.7-4.9,0.7c-2.5,0-2.2,0.6-3.2-2.2
			c-0.4-1.2-1.3-2-1.6-2.9c-0.7-1.9,0.1-9.6-3.4-9.7c-0.3,0-0.6,0.2-0.8,0.4c-0.3,0.6-0.5,0.8-0.4,1.5c0.6-0.2,1.1-0.3,1.7-0.5
			c-0.7-1.2-0.5-1.3-1.7-1.8c-0.4-0.2-0.8-0.1-1.1,0.1c-2.1,1.8-1.2,6.7-0.8,9.2c0.3,1.6,1,3,1.6,4.5c0.8,2,0.8,4.4,1.8,6.2
			c0.2,0.3,0.5,0.4,0.8,0.4c1.8,0,1.9-1.2,1.9-2.8c-0.4,0.3-0.8,0.6-1.1,0.9c0.7,0.1,1,0.1,1.6-0.3c-0.4-0.2-0.9-0.4-1.3-0.5
			c0.4,1.2,0.7,3.3,2.5,2.9c1.2-0.3,0.7-1.4,1.9-1.3c0-0.6,0-1.2,0-1.8c-1.2,0.1-1.5,1-1.5,1.9c0,0.3,0.2,0.6,0.4,0.8
			c2.3,1.3,6.1,0.3,8.7,0.2c4.8-0.2,9.5-0.4,14.3-0.6c5-0.2,11.8,1.2,15.8-2.4c0.2-0.2,0.3-0.6,0.2-0.9c-0.3-1.1-0.4-1.1-1.5-1.5
			c-1.1-0.4-1.6,1.3-0.5,1.7c-1.3-0.5-3.1,0.8-4.6,0.9c-3.5,0.3-7,0.3-10.5,0.4c-7,0.3-14,1-21,1.2c1.2,0,1.1-1.7,0-1.8
			c-0.5,0-1.1-0.1-1.6-0.1c-0.5,0-0.9,0.4-0.9,0.9c0-0.3-0.1-0.7-0.1-1c-0.2-0.5-0.8-0.9-1.3-0.5c-0.1,0-0.1,0.1-0.2,0.1
			c-0.6-0.1-1.1,0.2-1.1,0.9c0-2.9-1.2-3.5-2.1-6.9c-0.2-0.8-0.2-1.5-0.3-2.3c-0.1-0.8,0-5.8,0.1-5.7c0.4,0.8,1.7,0.4,1.7-0.5
			c0,3.1,0.6,6,1.3,9c0.1,0.5,0.6,0.7,1.1,0.6c0.2,0,0.9,4.9,1,5.1c0.1,0.5,0.7,0.7,1.1,0.6c6.1-1.3,12.2-2,18.4-1.9
			c2.5,0,5,0.2,7.5,0.5c2.5,0.3,5.4,1.4,7.9,1.1c0.5-0.1,0.9-0.4,0.9-0.9c0-1.4,0-2.8,0-4.2c0-0.5-0.1-3.7,0-3.7
			c-0.1,0,0.5,3,0.5,2.9c0.2,0.9,1.5,0.8,1.7,0c0.6-1.7,0-0.8-0.1,0.1c-0.1,0.8-0.1,1.6-0.2,2.5c-0.2,0.8-0.6,1-0.6,2
			c0,0.6,0.6,0.9,1.1,0.9c0.3,0,0.6-0.1,0.9-0.1C1333.2,185.3,1332.7,183.6,1331.5,183.7z"/>
		<path d="M1289.6,178.3c-0.6-1.9-0.9-3.8-0.9-5.7c-0.6,0.1-1.2,0.2-1.8,0.2c0.3,0.9,0.7,1.8,0.8,2.7c0.1,1,0,2.1,0.1,3.1
			c0.6-0.2,1.1-0.3,1.7-0.5c0,0,0,0,0,0c-0.6-1-2.2-0.1-1.6,0.9c0,0,0,0,0,0c0.5,0.7,1.7,0.5,1.7-0.5c0-1.1,0.1-2.2,0-3.3
			c-0.1-1-0.5-2-0.9-2.9c-0.4-0.9-1.7-0.8-1.8,0.2c-0.1,2.1,0.2,4.2,0.9,6.2C1288.2,179.9,1289.9,179.4,1289.6,178.3z"/>
		<path d="M1291,181.3c0-0.1,0-0.1-0.1-0.2c0,0.2,0,0.3,0,0.5c0.1-0.6,0.2-1.2,0.2-1.9c-0.6,0.1-1.2,0.2-1.8,0.2
			c0.2,1,0.5,2.1,0.8,3.1c0.5-0.2,1.1-0.5,1.6-0.7c-0.3-0.4-0.6-0.9-0.9-1.3c-0.6-1-2.2-0.1-1.6,0.9c0.3,0.5,0.6,0.9,0.9,1.3
			c0.6,0.8,1.9,0.4,1.6-0.7c-0.3-1-0.5-2.1-0.8-3.1c-0.2-1-1.7-0.7-1.8,0.2c-0.1,0.6-0.3,1.4-0.1,2
			C1289.7,182.9,1291.4,182.4,1291,181.3z"/>
		<path d="M1291.9,183.9c-0.1-0.2-0.3-0.4-0.4-0.5c-0.1,0.4-0.2,0.8-0.3,1.2c0.4-0.2,0.7-0.5,0.8-1c-0.6,0-1.2,0-1.7,0
			c0,0.1,0.1,0.2,0.1,0.4c0-0.2,0-0.3,0-0.5c0,0.2-0.1,0.4-0.1,0.6c-0.3,1.1,1.5,1.6,1.7,0.5c0.1-0.5,0.2-0.9,0-1.4
			c-0.2-0.9-1.4-0.8-1.7,0c0.2-0.2,0.2-0.2,0-0.1c-0.4,0.2-0.6,0.8-0.3,1.2c0.1,0.2,0.3,0.4,0.4,0.5c0.3,0.4,0.8,0.6,1.2,0.3
			C1292,184.9,1292.2,184.3,1291.9,183.9z"/>
		<path d="M1330.1,181.9C1330.1,181.9,1330.1,181.9,1330.1,181.9c-0.6,0-1.2,0.1-1.8,0.2c0.2,0.5,0.3,0.8,0.3,1.4c0,0.5,0,1,0,1.5
			c0.3-0.3,0.6-0.6,0.9-0.9c-0.1,0-0.2,0-0.3,0c0.3,0.3,0.6,0.6,0.9,0.9C1330.1,184,1330.1,182.9,1330.1,181.9c0-1.2-1.8-1.2-1.8,0
			c0,1,0,2,0,3.1c0,0.4,0.4,1,0.9,0.9c0.1,0,0.2,0,0.3,0c0.5-0.1,0.9-0.4,0.9-0.9c0-0.6,0-1.2,0-1.7c0-0.2,0.1-0.5,0-0.7
			c-0.1-0.3-0.2-0.6-0.3-0.9c-0.3-0.9-1.7-0.8-1.8,0.2c0,0,0,0.1,0,0.1C1328.2,183.1,1330,183.1,1330.1,181.9z"/>
		<path d="M1322.3,184.8c-7.9,0.6-15.8,0.7-23.7,0.3c0.1,0.6,0.2,1.2,0.2,1.8c7.8-1.2,15.6-1.3,23.5-0.2
			C1323.4,186.8,1323.4,185,1322.3,184.8c-8-1.1-15.9-1-23.9,0.3c-1,0.2-0.7,1.7,0.2,1.8c7.9,0.5,15.8,0.4,23.7-0.3
			C1323.4,186.5,1323.4,184.7,1322.3,184.8z"/>
	</g>
</g>
<g>
	<g>
		<path d="M1749.8,173c-0.2,2.4-0.1,4.7,0.3,7.1c0.1,0.6,0.8,0.9,1.3,0.7c3.8-1,7.5-1,11.3,0c1.3,0.3,1.9-1.7,0.6-2
			c-4.1-1-8.3-1-12.4,0c0.4,0.2,0.9,0.5,1.3,0.7c-0.3-2.2-0.4-4.3-0.2-6.5C1752,171.7,1749.9,171.7,1749.8,173L1749.8,173z"/>
	</g>
</g>
<g>
	<g>
		<path d="M1751.7,174.9c4.5,0.4,8.9,0.2,13.3-0.5c1.3-0.2,0.8-2.2-0.6-2c-4.2,0.7-8.5,0.8-12.8,0.4
			C1750.4,172.6,1750.4,174.7,1751.7,174.9L1751.7,174.9z"/>
	</g>
</g>
<g>
	<g>
		<path d="M1752.9,170.1c-0.6-2.2-1.1-4.4-1.7-6.6c-0.2,0.4-0.3,0.8-0.5,1.2c1.5-1,3.6-0.7,4.7,0.8c1.2,1.5,1,3.6,0.1,5.2
			c0.3-0.2,0.6-0.3,0.9-0.5c-2.2,0.1-4.3,0.1-6.5,0.2c-1.3,0-1.4,2.1,0,2.1c1.5,0,2.9-0.1,4.4-0.1c1,0,2.3,0.3,3-0.6
			c1.1-1.4,1.2-3.7,0.8-5.3c-0.9-3.7-5.3-5.6-8.5-3.5c-0.4,0.3-0.6,0.7-0.5,1.2c0.6,2.2,1.1,4.4,1.7,6.6
			C1751.2,172,1753.2,171.4,1752.9,170.1L1752.9,170.1z"/>
	</g>
</g>
<g>
	<g>
		<path d="M1757.2,168.2c2.9-0.6,5.8-1.1,8.7-1.7c1.3-0.3,0.8-2.3-0.6-2c-2.9,0.6-5.8,1.1-8.7,1.7
			C1755.3,166.4,1755.9,168.5,1757.2,168.2L1757.2,168.2z"/>
	</g>
</g>
<g>
	<g>
		<path d="M1759.2,171.4c1.8,0.3,3.4,0.1,4.9-0.8c0.9-0.5,0.5-1.9-0.5-2c-3.4,0-6.8-0.1-10.2-0.1c-1.4,0-1.4,2.1,0,2.1
			c3.4,0,6.8,0.1,10.2,0.1c-0.2-0.7-0.4-1.3-0.5-2c-1.1,0.6-2.1,0.8-3.3,0.6C1758.5,169.1,1757.9,171.1,1759.2,171.4L1759.2,171.4z"
			/>
	</g>
</g>
<g>
	<g>
		<path d="M1755.2,166.3c2.9-0.4,5.6-0.1,8.4,0.7c1.3,0.4,1.8-1.6,0.6-2c-2.9-0.9-5.9-1.2-9-0.8
			C1753.8,164.4,1753.8,166.5,1755.2,166.3L1755.2,166.3z"/>
	</g>
</g>
<g>
	<g>
		<path d="M1756,170.6c2.9,0,5.8,0,8.7,0c1.4,0,1.4-2.1,0-2.1c-2.9,0-5.8,0-8.7,0C1754.7,168.5,1754.7,170.6,1756,170.6L1756,170.6z
			"/>
	</g>
</g>
<g>
	<g>
		<path d="M1758.6,171.5c1.4,0,1.4-2.1,0-2.1C1757.3,169.4,1757.3,171.5,1758.6,171.5L1758.6,171.5z"/>
	</g>
</g>
<g>
	<g>
		<path d="M1755.1,173.6c-0.6,2.1-0.3,4.2,1,6c0.5,0.7,1.6,0.6,1.9-0.3c0.9-2.7,1.1-5.5,0.7-8.4c-0.2-1.3-2.2-0.8-2,0.6
			c0.4,2.5,0.1,4.9-0.7,7.2c0.6-0.1,1.3-0.2,1.9-0.3c-1-1.3-1.2-2.8-0.8-4.4C1757.5,172.9,1755.5,172.4,1755.1,173.6L1755.1,173.6z"
			/>
	</g>
</g>
<g>
	<g>
		<path d="M1639.8,135.1c7.5-0.8,13.2,4.2,16.2,10.7c1.9,4.1,2,9.7,4.8,13.3c2.5,3.3,7.4,5,11,6.8c4.7,2.2,9.6,4.2,14.5,5.8
			c20.5,6.8,42.5,8.3,63.8,4.4c1.3-0.2,0.8-2.3-0.6-2c-22.6,4.1-46,2-67.5-6.1c-5.5-2.1-11-4.4-16-7.4c-5.5-3.2-5.3-8.8-7.5-14.1
			c-3.2-7.8-9.8-14.4-18.7-13.4C1638.5,133.2,1638.5,135.3,1639.8,135.1L1639.8,135.1z"/>
	</g>
</g>
<g>
	<g>
		<path d="M1749.9,166.2c-11.7,1.3-23.8,2.6-35.5,0c-11.2-2.5-20.9-9-30.4-15.2c-4.7-3.1-9.4-6.3-13.5-10.2c-3.2-3-5.7-6.8-9.2-9.5
			c-7.7-5.9-18.3-3.8-26.4-8.8c-1.2-0.7-2.2,1.1-1.1,1.8c8.7,5.4,20.2,2.8,27.9,10.2c3.8,3.6,7,7.7,11.1,11.1
			c4.1,3.3,8.5,6.2,12.9,9c9,5.7,18.2,11.5,28.8,13.7c11.6,2.4,23.5,1.1,35.2-0.2C1751.2,168.1,1751.2,166,1749.9,166.2
			L1749.9,166.2z"/>
	</g>
</g>
<g>
	<g>
		<path d="M883.6,188.7c49,0.2,97.9,3.1,146.9,3.3c1.9,0,1.9-3,0-3c-49-0.2-97.9-3.1-146.9-3.3C881.6,185.7,881.6,188.7,883.6,188.7
			L883.6,188.7z"/>
	</g>
</g>
<g>
	<g>
		<path d="M1.9,198.9C57.1,189,113,183.9,169,183.1c56-0.9,112.1-1,168.2-1.2c112.5-0.4,225,1.3,337.5,3.3
			c62.9,1.1,125.7,2.4,188.6,3.1c1.9,0,1.9-3,0-3c-112.6-1.3-225.1-4.2-337.7-5.3c-56.5-0.5-113-1.3-169.5-1.2
			c-56.5,0.1-113,0.8-169.5,1.1c-62.2,0.3-124.2,5.1-185.6,16C-0.8,196.3,0,199.2,1.9,198.9L1.9,198.9z"/>
	</g>
</g>
<g>
	<g>
		<path d="M1243.7,186.5c68.7-0.2,137.5,0.2,206.2,0.9c68.5,0.6,136.9,1.4,205.4,1.8c38.9,0.2,77.9,0.3,116.8,0.2c1.9,0,1.9-3,0-3
			c-68.9,0.2-137.7-0.2-206.6-0.9c-68.4-0.6-136.9-1.4-205.3-1.8c-38.8-0.2-77.7-0.3-116.5-0.2
			C1241.7,183.5,1241.7,186.5,1243.7,186.5L1243.7,186.5z"/>
	</g>
</g>
<g>
	<g>
		<path d="M1649.2,185.4c0-0.1,0-0.3,0-0.4c0-0.8-0.7-1.5-1.5-1.5c-0.8,0-1.5,0.7-1.5,1.5c0,0.1,0,0.3,0,0.4c0,0.8,0.7,1.5,1.5,1.5
			C1648.5,186.9,1649.2,186.2,1649.2,185.4L1649.2,185.4z"/>
	</g>
</g>
<path d="M1246.3,183.3c-7.2-0.1-14.4,0-21.7,0c0.2,1,0.1,2-0.3,3c7.3,0,14.6-0.1,21.9,0C1248.3,186.3,1248.3,183.3,1246.3,183.3z"/>
<path d="M889.3,185.6c-8.3-1.1-16.5-1.3-24.8-0.7c-1.9,0.1-1.9,3.1,0,3c8.3-0.6,16.6-0.4,24.8,0.7
	C891.3,188.8,891.2,185.8,889.3,185.6z"/>
<g>
	<g>
		<path d="M1028.4,191.8c34.7,0.1,69.3-0.9,103.9-3.7c1.9-0.2,1.9-3.2,0-3c-34.6,2.7-69.2,3.8-103.9,3.7
			C1026.5,188.8,1026.5,191.8,1028.4,191.8L1028.4,191.8z"/>
	</g>
</g>
<path d="M1241,183.4c-36.3-5.1-72.8-1.4-109,2.5c-1.9,0.2-1.9,3.2,0,3c35.9-3.9,72.2-7.7,108.2-2.6
	C1242.1,186.6,1242.9,183.7,1241,183.4z"/>
</svg>
