<?xml version="1.0" encoding="utf-8"?>
<!-- Generator: Adobe Illustrator 23.0.3, SVG Export Plug-In . SVG Version: 6.00 Build 0)  -->
<svg version="1.1" id="Layer_1" xmlns="http://www.w3.org/2000/svg" xmlns:xlink="http://www.w3.org/1999/xlink" x="0px" y="0px"
	 viewBox="0 0 47.82 68.29" style="enable-background:new 0 0 47.82 68.29;" xml:space="preserve">
<path d="M46.88,51.16c-0.99,0.07-1.98,0.11-2.97,0.15c0.49-0.08,1-0.29,1.02-0.68c0.25-4.45-0.55-8.69-2.4-12.75
	c-0.24-0.53-2.03-0.03-2.02,0.54c0.08,3.2,0.17,6.4,0.25,9.6c-1.97-0.01-3.92,0.15-5.88,0.5c-0.85,0.15-1.75,1.12-0.34,0.87
	c2.2-0.4,4.37-0.54,6.61-0.41c0.4,0.02,1.67-0.14,1.65-0.73l-0.05-2.01c0.16,1.28,0.22,2.57,0.19,3.89
	c-2.19-0.37-4.38-0.56-6.62-0.56c-0.51,0-1.65,0.62-1.3,0.84c-1.75-0.27-4.35-0.58-5.9,0.46c-0.25-0.03-0.5-0.04-0.74-0.07
	c-0.07-0.13-0.19-0.23-0.4-0.3c0.89-2.16,1.66-4.35,2.23-6.62c0.36-1.44,1.28-3.72,0.66-5.19c-0.83-1.96-3.02-1.43-3.98,0.11
	c-1.73,2.76-2.09,7.79-1.33,11.15c-2.49-0.62-4.92-1.45-7.24-2.57c-3.12-1.5-4.73-3.27-5.26-6.37c0.12-0.17,0.23-0.35,0.35-0.51
	c0.44-0.6,0.89-1.21,1.38-1.77c0.69-1.03,1.62-1.72,2.8-2.06c1.1-0.99,2.12-0.87,3.06,0.39c1.78,1.15,2.21,2.07,1.31,4.04
	c-1.22,2.7-7.8,3.58-6.01-0.75c0.44-1.07-1.59-1.07-1.93-0.23c-1.43,3.48,2.01,5.77,5.2,5.02c3.34-0.79,6.7-4.97,4.71-8.42
	c-1.94-3.36-6.6-2.31-9.1-0.3c-0.84,0.67-1.61,1.44-2.33,2.28c-0.45-0.2-1.18,0-1.49,0.35c-2.89,3.2-4.55,6.96-4.93,11.18
	c-0.56,0.53-1.04,1.14-1.41,1.8C4.63,45.26,4.6,38.49,4.57,31.73c0-0.74-0.97-0.78-1.47-0.52c-2.46,1.26-2.68,3.68-2.86,6.23
	c-0.31,4.52-0.34,9.11,0.02,13.63c0.18,2.22,0.55,4.83,2.37,6.3c0.01,2.13,0.02,4.26,0.03,6.39c-0.28,1.04-0.31,2.15,0.03,3.27
	c0.25,0.84,2.03,0.49,2.03-0.35l-0.01-3.12c0.31-0.99,0.96-1.87,1.87-2.58c1.38,0.45,2.91,0.42,4.3-0.04
	c0.54,0.38,0.92,0.86,1.16,1.41l0.04,5.26c0.01,1.09,1.87,0.72,2.04-0.15c0.24-1.23,0.45-2.69,0.36-4.08
	c0.96-1.75,0.43-3.3-0.74-4.32c0.16-0.18,0.31-0.37,0.45-0.58c0.28-0.4,0.2-0.77-0.26-0.98c-0.24-0.11-0.47-0.2-0.71-0.28l0.32-0.04
	c0.86-0.11,1.97-0.38,2.97-0.49c1.15,0.82,2.42,2.56,3.72,3.34c0.09,0.97,0.07,1.97,0.05,2.86c-0.01,0.26-0.02,0.52-0.02,0.76
	c0,1.06,2.02,0.76,2.04-0.15c0.01-0.38,0.02-0.84,0.02-1.33c0.02-0.65,0.05-1.32,0.07-1.98c0.96-0.5,1.39-1.65,1.13-2.74
	c-0.21-0.87-0.73-1.43-1.4-1.8c-0.07-0.29-0.19-0.57-0.43-0.81c-0.52-0.52-1.32-0.72-2.21-0.74c-0.08-0.03-0.16-0.08-0.25-0.11
	c-2-0.61-4.56,0.63-6.43,1.12c-0.38,0.1-0.75,0.2-1.13,0.3c-0.01-0.13-0.02-0.25-0.04-0.38c0.01-1.7,0.25-3.32,0.72-4.95
	c1.13-0.59,1.59-0.3,2.85,0.01c1.57,0.38,3.16,0.72,4.75,1.02c1.29,0.33,2.61,0.55,3.94,0.67c0.44,0.07,0.89,0.14,1.33,0.2
	c0.29,0.04,0.58,0.07,0.88,0.11c0.99,4.65-0.06,9.74,0.55,14.54c0.11,0.9,1.96,0.43,2.03-0.35c0.28-3.09,0.57-6.19,0.85-9.28
	c0.13-1.36-0.08-3.32,0.74-4.47c2.69,0.23,5.39,0.34,8.08,0.36c2.58,1,4.79,2.72,5.56,5.58c0.41,1.53,0.39,3.16,0.22,4.76
	c-0.15,1.02-0.29,2.04-0.44,3.06c-0.15,1.03,1.9,0.75,2.04-0.15c0.14-0.87,0.28-1.77,0.38-2.68l1.67-11.66
	C47.89,51.33,47.26,51.14,46.88,51.16z M2.36,51.52c-0.4-3.34-0.35-6.82-0.26-10.18c0.04-1.62-0.25-4.78,0.44-6.94
	c0.03,6.18,0.05,12.36,0.08,18.54C2.51,52.5,2.43,52.03,2.36,51.52z M9.62,55.97C9,56.13,8.38,56.29,7.77,56.46
	c-0.37,0.06-0.74,0.11-1.11,0.16c0.13-2.1,1.04-3.88,2.3-5.55c-0.13,1.51,0.48,3.21,0.67,4.74C9.62,55.86,9.62,55.92,9.62,55.97z
	 M11.03,46.77c-0.58,0.25-1.14,0.61-1.67,1.03c0.62-1.48,1.33-2.93,2.14-4.32c0.43,1.22,1.12,2.29,2.2,3.22
	C12.86,46.41,12.03,46.33,11.03,46.77z M28.9,40.58c0.32,0.08-0.6,3.12-1.51,5.83C27.48,43.94,27.83,40.32,28.9,40.58z M39.22,51.42
	c-1.23-0.43-2.5-0.73-3.7-0.92c2.57,0,5.06,0.27,7.58,0.83c0.05,0.01,0.1,0.02,0.16,0.02C41.92,51.4,40.57,51.42,39.22,51.42z
	 M45.2,55.97c-0.69-1.29-1.74-2.31-2.97-3.11c1.15-0.03,2.29-0.09,3.44-0.16C45.51,53.79,45.35,54.88,45.2,55.97z"/>
<path d="M16.23,13.56c-8.42,0.89-5.95,12.16-1.07,15.95c0.03,0.02,0.06,0.04,0.09,0.05c0.03,0.6,0.03,1.21,0,1.82
	c-0.01,0.25,0.15,0.33,0.38,0.38c1.04,0.22,2.06,0.26,3.11,0.17c0.03,0.24,0.06,0.49,0.11,0.73c0.16,0.73,2.18,0.22,2.02-0.54
	C19.9,27.5,26.65,12.45,16.23,13.56z M18.68,30.92c-0.47,0-0.94-0.04-1.41-0.12c0.04-1.11-0.01-2.19-0.14-3.28
	c0.17,0.06,0.36,0.08,0.52,0.08h1.43C18.84,28.71,18.67,29.81,18.68,30.92z M19.53,25.72h-2.68c-0.08-0.37-0.15-0.74-0.25-1.1
	c-0.17-0.64-2.19-0.11-2.02,0.54c0.09,0.33,0.15,0.65,0.22,0.98c-0.96-1.61-1.54-3.5-1.88-5.32c-0.27-1.45-0.54-3.1,0.3-4.43
	c2.1-3.32,5.8-1.36,6.75,1.24C20.95,20.3,20.23,23,19.53,25.72z"/>
<path d="M8.59,20.38H5.06c-0.38,0-1.11,0.16-1.35,0.5c-0.25,0.36,0.22,0.38,0.49,0.38h3.53c0.38,0,1.11-0.16,1.35-0.5
	C9.33,20.4,8.86,20.38,8.59,20.38z"/>
<path d="M7.05,16.24H5.03c-0.43,0-1.08,0.15-1.33,0.54c-0.25,0.39,0.22,0.54,0.53,0.54h2.02c0.43,0,1.08-0.15,1.33-0.54
	C7.84,16.4,7.37,16.24,7.05,16.24z"/>
<path d="M10.14,10.98c-0.66-1.61-2-2.81-3.67-3.28C6.01,7.57,5.46,7.68,5.05,7.92c-0.2,0.12-0.68,0.55-0.2,0.69
	c1.5,0.42,2.68,1.48,3.28,2.92C8.38,12.14,10.36,11.52,10.14,10.98z"/>
<path d="M20.76,5.28v4.54c0,0.99,2.03,0.64,2.03-0.19V5.09C22.8,4.1,20.76,4.45,20.76,5.28z"/>
<path d="M29.74,15.73h-3.53c-0.42,0-1.09,0.14-1.33,0.54c-0.24,0.39,0.2,0.56,0.54,0.56h3.53c0.42,0,1.09-0.14,1.33-0.54
	C30.52,15.89,30.08,15.73,29.74,15.73z"/>
<path d="M31.24,10.71c-0.27-0.36-1.01-0.15-1.34-0.03c-1,0.36-2,0.72-3,1.08c-0.3,0.11-0.8,0.48-0.53,0.84
	c0.27,0.36,1.01,0.15,1.34,0.03c1-0.36,2-0.72,3-1.08C31.01,11.43,31.51,11.06,31.24,10.71z"/>
<path d="M12.7,0.75v6.05c0,0.92,2.03,0.53,2.03-0.22V0.54C14.72-0.38,12.7,0.01,12.7,0.75z"/>
</svg>
