<?xml version="1.0" encoding="utf-8"?>
<!-- Generator: Adobe Illustrator 23.0.3, SVG Export Plug-In . SVG Version: 6.00 Build 0)  -->
<svg version="1.1" id="Layer_1" xmlns="http://www.w3.org/2000/svg" xmlns:xlink="http://www.w3.org/1999/xlink" x="0px" y="0px"
	 viewBox="0 0 178.04 168.2" style="enable-background:new 0 0 178.04 168.2;" xml:space="preserve">
<path d="M114.04,19.8c-0.66-0.35-2.58-0.12-2.59,0.92c-0.04,3.23-0.08,6.47-0.11,9.7c-13.17-2.68-27.44-2.38-40.13,2.25
	c-2.12,0.77-4.85,1.97-6.63,3.81c0.29-6.48,0.41-12.96,0.07-19.45c-0.02-0.43-0.54-0.57-1.13-0.51c0.06-0.1,0.11-0.21,0.12-0.33
	c0.57-4.86-5.29-6.84-8.88-8.52C48.38,4.67,41.7,2.39,34.82,0.89c-4.94-1.08-9.39-1.59-13.96,0.92C14.74,5.19,9.14,10.18,3.49,14.28
	C1.9,15.44,4.28,16.3,5.38,15.5c4.27-3.1,8.53-6.21,12.8-9.31c1.61-1.17,3.5-2.78,5.34-3.54c3.62-1.5,7.74-0.35,11.32,0.49
	c3.99,0.94,7.92,2.16,11.75,3.62c3.21,1.23,13.56,4.2,14.11,8.89c-7.59,7.41-18.24,10.94-28.78,9.4c-5.06-0.74-9.26-3.04-13.83-5.13
	c-1.7-0.78-3.42-1.41-5.28-1.68c-2.74-0.4-5.96,0.37-8.28-1.75c-0.85-0.77-3.58,0.37-2.67,1.2c0.02,0.02,0.04,0.04,0.06,0.05
	c-0.36,0.19-0.63,0.46-0.63,0.78c0,6.28,0,12.56,0,18.85c-1.23,0.34-2.1,1.74-0.2,1.44c0.07-0.01,0.13-0.02,0.2-0.03
	c0,7.85,0,15.69,0,23.54c0,5.86-1.39,13.76,0.76,19.38c1.48,3.88,5.08,5.69,8.83,6.88c1.85,0.59,3.74,1.11,5.63,1.61
	c-0.03,0.4-0.05,0.78-0.08,1.13c-0.18,2.86-1.24,9.28,3.15,8.94c3.36-0.26,5.57-3.88,6.31-6.73c0.26-1.01-2.64-0.59-2.89,0.38
	c-0.38,1.46-0.77,3.24-2.43,3.41c-1.83,0.19-1.24-1.73-1.28-3.2c-0.03-1.06,0-2.13,0.06-3.19c2.32,0.58,4.64,1.13,6.96,1.67
	c0.43,1.94,1.18,3.81,2.42,5.58c2.34,3.33,5.44,6.06,7.83,9.37c2.84,3.92,5.23,8.14,8.1,12.04c2.8,3.82,9.28,11.92,15.14,11.96
	c0.78,0.16,1.71,0.01,2.86-0.61c1.53-0.83,2.16-2.29,2.55-3.87c1.63-4.04,1.89-9.74,2-12.39c0.12-3.13-0.51-6.88-2.98-7.89
	c-3.4-2.36-9.48-1.34-13.65-3.43c-3.73-1.87-6.79-4.91-9.48-8.1c1.8,0.1,3.6,0.09,5.41-0.1c8.35-0.9,16.67-6,18.33-14.7
	c0.15-0.76-0.95-0.87-1.84-0.58c-0.4-9.56,0.13-19.1,0.73-28.64c0.46,1.94,1.75,3.37,4.47,2.76c3.16-0.7,3.58-3.93,2.46-6.44
	c4.56-2.93,9.69-7.36,14.88-8.88c5.18-1.51,12.12-1.09,17.4-0.44c2.95,0.37,7.81,0.77,9.28,3.97c0.92,2,0.26,5.43,0.56,7.67
	c0.36,2.63,1.27,4.1,4.12,3.47c5.79-1.27,11.72-9.68,12.26-15.27C130.06,28.85,121.04,23.46,114.04,19.8z M4.21,38.56
	c10.5-0.13,19.7,7.31,29.96,9.51c-4.07,3.25-8.65,5.57-13.76,6.68c-0.24,0.05-0.5,0.15-0.74,0.27c-0.56-0.5-1.15-0.98-1.81-1.41
	c-3.07-2.02-7.08-1.65-10.1-3.52c3.82-0.83,7.35-2.44,10.52-4.83c0.56-0.43,0.2-0.8-0.27-1c-0.6-0.26-1.58,0.19-2.05,0.55
	c-2.89,2.18-6.16,3.54-9.73,4.06c-0.41-0.27-1.37-0.08-2.03,0.26C4.21,45.61,4.21,42.08,4.21,38.56z M35.99,48.41
	c0.64,0.1,1.29,0.18,1.94,0.22c4.66,0.33,9.29-0.37,13.6-1.94c-5.09,6.46-11.08,12.01-17.96,16.53C31.72,63,29.91,62.62,28.2,62
	c-3.58-1.31-5.45-4.02-7.89-6.38C26.04,54.31,31.31,51.95,35.99,48.41z M62.84,108.92c2.17,3.14,0.64,8.62,0.29,11.89
	c-0.07,0.64-0.18,2.52-0.46,4.33c-0.06,0.15-0.11,0.32-0.17,0.46c-0.71,1.75-1.46,2.69-2.32,3.03c-0.03-0.03-0.07-0.06-0.1-0.1
	c-2.07-2.34-0.92-9.64-0.8-12.28c0.06-1.29-0.28-4.65,0.61-5.68C61.26,109,62.19,108.66,62.84,108.92z M51.04,105.88
	c2.65,0.86,6.72,0.27,9.37,1.21c-5.56,2.4-4.21,11.72-4.09,16.65c0.03,1.21,0.18,2.75,0.57,4.14c-0.43-0.26-0.89-0.56-1.38-0.91
	c-1.28-0.91-2.46-1.96-3.57-3.06c-2.69-2.67-4.89-5.76-6.99-8.91c-2.22-3.33-4.27-6.77-6.71-9.94c-2.12-2.76-4.98-5.19-6.94-8.11
	c-2.04-0.8-3.02-2.88-2.93-4.91c-0.88-0.21-1.71-0.63-2.34-1.28c-0.15-0.16-0.3-0.33-0.44-0.49c-1.92-0.49-3.83-0.99-5.75-1.48
	c-0.09-0.02-0.19-0.05-0.29-0.07c0.18-1.48,0.44-2.95,0.8-4.4c0.38-1.54,0.76-2.99,1.45-4.14c0.44-1.74,1.9-3.04,3.62-3.53
	c0.81-0.11,1.6-0.15,2.38-0.1c0.79,0.18,1.51,0.56,2.1,1.1c1.65,0.08,3.32,0.25,4.82,0.33c-0.53,1.65-1.34,3.57-1.88,5.47
	c0.11,0.11,0.21,0.21,0.25,0.25c0.89,0.92,1.31,2.05,1.37,3.21c-0.49,0.23-0.82,0.53-0.69,0.78c1.23,2.32,2.47,4.63,3.7,6.95
	c-0.07,0.14-0.12,0.29-0.2,0.43c0.04,0.05,0.09,0.1,0.13,0.15C41.06,99.68,45.42,104.06,51.04,105.88z M40.02,93.16
	c-1.11-2.09-2.22-4.17-3.33-6.26c-0.18-0.33-0.7-0.39-1.25-0.3c-0.06-0.3-0.1-0.61-0.1-0.91c-0.01-2.6,1.75-6.2,2.46-8.66
	c0.14-0.48-0.57-0.61-0.88-0.61c-1.27-0.02-2.54-0.07-3.81-0.11c0.27-0.38,0.23-0.79-0.46-1.02c-2.36-0.78-4.81-0.99-7.26-0.59
	c-0.59,0.1-1.54,0.4-1.61,1.12c-0.02,0.18,0.03,0.33,0.13,0.46c-1.04,0.09-2.08,0.31-2.93,0.91c-2.82,1.98-3.82,6.88-4.25,10.88
	c-3.82-0.85-8.03-1.89-10.42-4.8c-3.42-4.16-2.08-11.39-2.08-16.39l0-15.57c0-0.25,0-0.5,0-0.75c1.62,1.42,3.41,1.87,5.56,2.38
	c4.93,1.17,6.56,2.93,9.98,6.39c4.05,4.09,9.4,5.12,14.95,5.45c8.6,0.51,18.98,0.61,25.68-5.49c-0.43,8.01-0.66,16.03-0.17,24.06
	c0.02,0.35,0.36,0.5,0.79,0.52C57.7,91.94,48.49,93.81,40.02,93.16z M54.77,61.27c2.22-3,4.25-6.12,6.05-9.39
	c-0.11,1.75-0.22,3.49-0.32,5.24c-0.47,0.11-0.91,0.28-1.08,0.49C58.08,59.23,56.5,60.41,54.77,61.27z M61.08,47.68
	c-0.48,0.13-0.91,0.35-1.04,0.63c-2.44,5.03-5.36,9.75-8.76,14.19c-0.02,0.03-0.03,0.05-0.04,0.07c-2.56,0.67-5.29,0.88-8,0.93
	c-2.52,0.05-5.2,0.09-7.84-0.1c0.14-0.04,0.25-0.09,0.32-0.13c7.35-4.82,13.75-10.72,19.12-17.68c0.04-0.05-0.16-0.08-0.46-0.08
	c2.52-1.18,4.91-2.67,7.1-4.43C61.36,43.28,61.22,45.48,61.08,47.68z M61.59,38.92c-0.31,0.08-0.58,0.19-0.74,0.33
	c-10.02,9.21-22.42,9.33-34.39,4.2c-7.29-3.12-14.31-6.75-22.25-6.39c0-5.95,0-11.9,0-17.85c0.91,0.36,1.89,0.54,3.08,0.66
	c3.98,0.39,6.96,0.82,10.58,2.6c5.11,2.5,10.11,4.4,15.86,4.74c10.3,0.61,20.42-2.9,28.08-9.73c-0.04,0.1-0.07,0.21-0.07,0.32
	C62.11,24.85,61.94,31.88,61.59,38.92z M64.04,46.11c0.04-0.61,0.08-1.22,0.11-1.84c0.2,0.26,0.41,0.51,0.63,0.76
	c0.09,0.11,0.2,0.21,0.3,0.32C64.62,45.51,64.22,45.77,64.04,46.11z M66.25,50.14c-0.07-1.17,0.07-2.3,0.4-3.4
	c0.31,0.3,0.57,0.62,0.74,0.97C68.84,49.27,68.46,50.08,66.25,50.14z M126.02,39.78c-0.39,1.81-1.25,3.48-2.29,4.99
	c-0.6,0.89-2.7,3.7-4.37,5.14c0.88-2.5-1.06-6.3-2.84-8.48c0-0.57,0-1.14,0-1.72c0-0.36-0.86-0.38-1.64-0.17
	c-0.06-0.08-0.13-0.15-0.22-0.2c-7.67-3.59-15.93-3.56-24.23-3.09c-8.09,0.46-14.23,5.35-20.83,9.64
	c-2.55-3.27-6.81-6.19-0.92-10.04c4.13-2.7,10.21-3.62,14.98-4.35c9.45-1.44,18.96-0.95,28.25,1.21c0.65,0.15,2.31-0.08,2.32-1.04
	c0.03-2.98,0.07-5.95,0.1-8.93C120.76,26.34,127.8,31.6,126.02,39.78z"/>
<path d="M176.73,41.57c0.11-2.45,0.22-4.91,0.32-7.36c0.06-0.06,0.11-0.12,0.17-0.19c0.5-0.53,0.32-0.87-0.12-1.05
	c0.01-0.26,0.02-0.53,0.03-0.79c0.55-0.33,0.44-0.65,0.03-0.82c0.14-3.49,0.28-6.97,0.36-10.46c0.15-6.22-0.18-13.48-5.54-17.61
	c-5.24-4.04-12.77-3.47-18.94-2.73c-6.87,0.83-13.7,2.55-18.76,7.52c-0.15,0.15-0.24,0.28-0.27,0.39c-0.44,0.21-0.78,0.51-0.78,0.88
	l-0.01,4.11c-0.14,0.77-0.14,1.47-0.01,2.12c-0.02,7.91-0.05,15.82-0.07,23.73c-0.03,9.6-0.82,19.55,0.07,29.12
	c0.72,7.76,5.62,12.42,11.86,14.31c-0.93,1.21-1.91,2.39-2.94,3.55c-1.63,1.85-3.27,3.87-5.13,5.49c-5.89,5.14-9.15,2.29-13.26-2.17
	c-0.63-0.68-2.78-0.38-2.79,0.75c-0.04,3.29-0.09,6.58-0.14,9.87c-3.19-5.18-9.2-8.21-15.55-10.46c-8.08-2.86-17.19-3.74-24.98,0.49
	c-3.47,1.88-5.81,4.46-7.29,7.44c-0.41,0.19-0.71,0.46-0.71,0.79c0,0.28,0,0.57,0,0.85c-1.59,4.22-1.68,9.11-0.81,14.03
	c0.19,1.07,0.47,2.06,0.83,2.97c0.01,7.62,0.02,15.24,0.03,22.86c0.01,9.27-2.09,21.37,8.26,25.71c8.42,3.53,19.05,4.66,27.64,1.19
	c9.14-3.69,12.79-10.97,13.31-20.5c0.46-8.33,1.12-16.79,1.45-25.2c3.98,6.71,12.51,6.2,19.37,5.12c0.61-0.1,1.8-0.52,1.6-1.38
	c-0.74-3.14-1.77-6.14-3.28-9c-1.95-3.69-4.36-5.98-1.11-9.8c3.81-4.47,8.82-7.78,12.53-12.46c0.69-0.87,1.35-1.76,1.98-2.68
	c0.48-0.11,0.91-0.3,1.05-0.56c0.8-1.56,1.48-3.16,2.08-4.8c0.29-0.61,0.57-1.23,0.83-1.86c0.31-0.07,0.62-0.15,0.93-0.23
	c5.37-1.45,10.72-4.4,13.8-9.17c4.44-6.88,3.29-16.75,3.61-24.57c0.05-1.2,0.1-2.4,0.16-3.6c0.65-0.97,1.17-2.06,1.46-3.32
	C178.14,41.59,177.46,41.46,176.73,41.57z M119.82,121.38c-0.43,9.35-0.34,18.9-1.38,28.21c-1.15,10.32-8.98,16.85-19.38,17.11
	c-8.08,0.2-20.89-1.87-23.16-11.07c-0.98-3.98-0.63-8.31-0.63-12.36c0-1.17,0-2.34,0-3.51c0.61,1.21,1.58,2.26,3.06,3.09
	c-0.56,0.59-1.09,1.23-1.57,1.91c-0.31,0.44,1.06,0.32,1.16,0.3c0.57-0.09,1.34-0.3,1.7-0.8c0.15-0.21,0.32-0.39,0.48-0.59
	c2.56,1.08,5.4,1.92,8.25,2.5c0.23,0.43,1.14,0.7,1.95,0.37c0,0,0,0,0,0c1.45,0.24,2.88,0.42,4.27,0.53
	c4.28,0.32,7.89-0.41,11.07-1.94c0.02,0.15,0.04,0.29,0.08,0.44c0.31,1.2,3.21,0.43,2.9-0.78c-0.12-0.45-0.14-0.9-0.1-1.33
	c3.27-2.24,6.08-5.38,8.73-9.12c0.35-0.5-0.42-0.58-1.23-0.45c0.9-1.04,1.64-2.3,2.14-3.82c0.54-1.63-2.36-1.69-2.79-0.39
	c-2.62,7.94-11.83,6.57-18.37,5.79c-3.48-0.41-15,0.05-15.41-4.49c-0.12-1.39-3.03-0.68-2.9,0.78c0.24,2.73,2.67,3.8,5.08,4.38
	c5.05,1.22,10.71,1.45,15.88,1.96c1.1,0.11,2.24,0.18,3.39,0.19c-4.15,2.41-8.43,4.54-12.86,6.42c-0.1-0.02-0.19-0.04-0.29-0.07
	c-1.57-0.39-3.39-0.77-5.14-1.29c0.66-0.52,0.94-1.23-0.29-1.23c-0.48,0-1.06,0.29-1.46,0.64c-0.52-0.2-1.03-0.41-1.51-0.64
	c1.15-1.09,2.45-2.01,3.92-2.66c0.39-0.17,0.85-0.49,0.35-0.77c-0.49-0.28-1.58,0.17-2.03,0.36c-1.33,0.59-2.56,1.34-3.67,2.22
	c-3.37-2.43-3.06-6.22-2.46-10.01c0.1-0.62-1.51-0.49-2.36-0.05c0-0.83,0-1.65,0-2.48c0-2.65-0.01-5.31-0.01-7.96
	c5.03,5.07,13.9,6.03,21.28,5.49c9.15-0.66,17.74-4.93,22.31-13.1c0.35-0.62-2.42-0.4-2.88,0.43c-5.49,9.81-16.78,12.55-27.29,10.77
	c-4.32-0.73-9.22-1.88-11.95-5.6c-0.63-0.86-1.1-1.81-1.49-2.8c-0.01-5.61-0.02-11.22-0.02-16.83c2.82-7,9.72-11.17,18.72-10.25
	c7.46,0.76,17.33,4.12,22.54,9.8C122.06,104.78,120.16,113.83,119.82,121.38z M93.12,145.3c4.42-1.96,8.7-4.16,12.86-6.64
	c0.33-0.19,0.49-0.37,0.54-0.53c2.54-0.27,4.99-0.92,7.03-2.18c-1.11,1.57-2.26,3.16-3.59,4.55c-0.06-0.26-0.28-0.48-0.58-0.58
	c-0.71-0.24-1.52,0.09-2.05,0.55c-1.02,0.87-1.64,2.1-1.76,3.4C101.72,145.88,97.44,146.01,93.12,145.3z M136.12,13.1
	c0.03-0.21,0.08-0.42,0.14-0.63c0.05-0.17-0.01-0.3-0.13-0.39c0.01-1.1,0.01-2.21,0.02-3.31c0.19-0.07,0.36-0.16,0.46-0.26
	c6-5.89,16.18-7.38,24.34-6.8c8.98,0.63,12.85,6.67,13.59,14.56c-0.65-0.07-1.62,0.08-1.99,0.38c-5.78,4.74-12.97,5.78-20.22,5.03
	c-4.4-0.45-15.35-1.53-16.21-7.03C136.12,14.12,136.12,13.61,136.12,13.1z M135.94,33.39c2.99,2.42,6.4,3.93,10.01,4.89
	c-2.66,3.71-5.32,7.43-7.98,11.14c-0.46-0.26-1.48-0.12-2.11,0.23C135.85,44.23,135.89,38.81,135.94,33.39z M156.01,39.74
	c-2.98,4.16-6.44,7.94-10.38,11.3c-0.67,0.57,2.07,0.33,2.64-0.15c3.86-3.29,7.26-6.97,10.2-11.02c3.58,0.16,7.38,0.32,10.89-0.43
	c-3.2,3.72-6.25,7.58-9.13,11.57c-0.07,0.01-0.15,0.02-0.22,0.03c-1.48,0.19-19.71,2-21.64-0.59c0.7-0.06,1.54-0.26,1.8-0.62
	c2.64-3.68,5.28-7.36,7.91-11.05C150.67,39.3,153.34,39.58,156.01,39.74z M149.05,37.42c0.43-0.59,0.85-1.19,1.28-1.78
	c2.7,0.35,5.42,0.48,8.14,0.41c-0.56,0.91-1.14,1.79-1.73,2.67c-2.08-0.24-3.98-0.55-5.46-0.81
	C150.52,37.76,149.78,37.6,149.05,37.42z M146.98,36.84c-2.74-0.87-5.28-2.12-7.59-3.85c2.85,1.03,5.76,1.79,8.69,2.31L146.98,36.84
	z M151.22,90.1c-0.79,1.11-1.6,2.2-2.48,3.24c-2.36,2.82-4.99,5.4-7.73,7.85c-2.01,1.79-4.92,3.66-5.91,6.28
	c-0.91,2.42,0.06,3.84,1.18,5.93c1.87,3.48,3.49,6.64,4.52,10.4c-7.63,0.89-15.11-0.26-16.71-9.38c-1.17-6.7-0.54-14.05-0.28-20.99
	c4.44,3.72,9.43,5.05,14.46,0.26c3.23-3.07,6.36-6.39,9.11-9.97c0.02-0.36,0.09-0.72,0.18-1.06c0.55-0.08,1.12-0.34,1.42-0.78
	c0.86-1.28,1.87-2.41,3.04-3.41c0.48-0.42,0.27-0.95-0.3-1.11c-0.04-0.01-0.08-0.01-0.12-0.01c1.35-2.42,2.49-4.96,3.3-7.63
	c0.09-0.3-0.01-0.5-0.22-0.63c0.14-0.11,0.22-0.23,0.19-0.33c-1.44-4.55-6.02-6.6-10.52-5.88c-0.26,0.04-0.54,0.14-0.79,0.25
	c-0.01-0.7,0.41-1.34,1.25-2.12c2.16-2.01,4.38-3.92,7.77-3.74c4.38,0.23,9.13,3.19,13.04,6.38c-2.54,0.67-4.87,1.94-6.73,3.85
	c-1.16,1.19,1.67,1.07,2.31,0.42c1.6-1.65,3.5-2.77,5.78-3.12c0.75,0.65,1.46,1.29,2.11,1.91c-3.17,0.7-6.62,1.28-9.43,2.62
	c-1.43,0.68-2.02,1.2-2.48,2.74c-0.51,1.73-0.12,3.95-0.45,5.76c-0.08,0.46-0.19,0.92-0.31,1.38c-0.14,0.09-0.25,0.2-0.31,0.31
	c-1.72,3.43-3.44,6.86-5.15,10.29C150.9,89.95,151.01,90.05,151.22,90.1z M144.73,65.3c-0.48-0.55-0.79-1.01-0.98-1.44
	c0.02,0,0.03,0,0.05-0.01c3.61-0.58,7.07,2.3,8.15,5.57C149.43,68.44,146.34,67.13,144.73,65.3z M171.08,71.66
	c-2.32,5.06-7.11,8.32-12.43,9.7c0.1-0.3,0.21-0.6,0.3-0.91c0.76-2.56,0.18-7.8,2.18-9.63c0.96-0.88,4.1-1.09,5.3-1.41
	c1.77-0.47,3.53-0.94,5.3-1.41c0.17-0.04,0.46-0.18,0.72-0.37C172.11,69.05,171.66,70.39,171.08,71.66z M172.72,66.38
	c-6.16-6.07-17-14.55-25.93-9.57c-1.99,1.11-7.24,4.47-6.97,7.18c0.36,3.61,8.31,6.48,11.54,7.73c-1.25,3.39-3,6.49-5.08,9.4
	c-7.45-2.47-10.14-9.08-10.29-16.9c-0.08-4.11-0.12-8.22-0.13-12.33c3.39,3.62,21.36,0.97,24.64,0.53c0.13-0.02,0.26-0.04,0.39-0.06
	c0.23-0.01,0.47-0.04,0.69-0.1c3.99-0.58,8.61-1.56,11.99-3.88C173.5,54.06,173.87,60.62,172.72,66.38z M173.67,45.67
	c-2.24,3-6.3,4.2-10.2,4.87c3.2-4.39,6.6-8.61,10.21-12.65c0.13-0.07,0.27-0.14,0.4-0.21C173.93,40.34,173.79,43.01,173.67,45.67z
	 M174.29,33.93c-1.31,1.4-2.6,2.81-3.86,4.25c-3.15,1.04-7.38,1.08-11.31,0.76c0.7-0.99,1.37-2,2.01-3.04
	c4.45-0.34,8.88-1.21,13.2-2.66C174.31,33.48,174.3,33.7,174.29,33.93z M174.4,31.79c-4.06,1.45-8.21,2.3-12.38,2.63
	c0.34-0.58,0.67-1.15,0.99-1.73c0.26-0.49-2.45-0.3-2.87,0.48c-0.26,0.47-0.53,0.93-0.8,1.4c-2.65,0.06-5.3-0.09-7.93-0.47
	c-0.03-0.06-0.25-0.09-0.54-0.09c-4.41-0.68-8.76-1.97-12.94-3.85c-0.41-0.18-1.34,0.05-1.96,0.39c0.04-3.71,0.08-7.41,0.11-11.12
	c4.29,2.89,12.11,3.59,15.7,3.89c8.2,0.68,16.33-0.86,22.84-6.08c0.02,0.42,0.05,0.83,0.06,1.25
	C174.76,22.91,174.62,27.35,174.4,31.79z"/>
</svg>
