<?xml version="1.0" encoding="utf-8"?>
<!-- Generator: Adobe Illustrator 23.0.3, SVG Export Plug-In . SVG Version: 6.00 Build 0)  -->
<svg version="1.1" id="Layer_1" xmlns="http://www.w3.org/2000/svg" xmlns:xlink="http://www.w3.org/1999/xlink" x="0px" y="0px"
	 viewBox="0 0 46.51 48.76" style="enable-background:new 0 0 46.51 48.76;" xml:space="preserve">
<style type="text/css">
	.st0{fill:#FCEE21;stroke:#000000;stroke-miterlimit:10;}
</style>
<g>
	<g>
		<path class="st0" d="M29.53,38.4c-0.82,0-3.09,0-6.81-0.01c-3.72-0.01-6.41-0.01-8.08-0.01c-2.25,0-4.78,0-7.59,0.01
			C4.25,38.4,2.53,38.4,1.91,38.4c0-0.26,0-2.21,0.01-5.85c0.01-3.64,0.01-6.4,0.01-8.27c0-1.72,0-3.91-0.01-6.57
			c-0.01-2.66-0.01-4.48-0.01-5.46c1.11,0,2.76,0,4.95,0.01c2.19,0.01,4.65,0.01,7.35,0.01c1.2,0,3.91,0,8.13-0.01
			c4.23-0.01,6.52-0.01,6.88-0.01v7.71c-0.21,0-1.56,0-4.06-0.01c-2.5-0.01-3.99-0.01-4.47-0.01c-1.39,0-2.92,0-4.58,0.01
			c-1.66,0.01-2.92,0.01-3.78,0.01c0,0.43,0,0.84,0,1.24c0,0.4,0,0.82,0,1.26c1.39,0,2.83,0,4.32,0.01
			c1.48,0.01,2.52,0.01,3.11,0.01c0.81,0,2.36,0,4.66-0.01c2.3-0.01,3.78-0.01,4.44-0.01v5.64c-0.36,0-1.69,0-3.96-0.01
			c-2.28-0.01-3.95-0.01-5.02-0.01c-0.57,0-1.82,0-3.74,0.01c-1.92,0.01-3.19,0.01-3.8,0.01c0,0.26,0,0.63,0,1.1
			c0,0.48,0,0.97,0,1.47c0.9-0.01,2.36-0.01,4.39,0c2.03,0.01,3.63,0.02,4.8,0.02c0.61,0,1.98,0,4.1-0.01
			c2.12-0.01,3.42-0.01,3.89-0.01V38.4z"/>
	</g>
</g>
<g>
	<g>
		<path class="st0" d="M44.96,30.99c0,1.35-0.25,2.54-0.76,3.55c-0.51,1.02-1.17,1.83-1.98,2.46c-0.77,0.58-1.62,1.01-2.55,1.29
			c-0.93,0.28-1.98,0.42-3.17,0.42c-0.8,0-1.65-0.02-2.56-0.05c-0.91-0.03-1.49-0.05-1.75-0.05c0-0.52,0.01-1.71,0.02-3.57
			c0.01-1.87,0.02-5.28,0.02-10.24c0-2.95-0.01-5.73-0.02-8.34c-0.01-2.62-0.02-4.1-0.02-4.44c0.26,0,0.76-0.02,1.5-0.07
			c0.74-0.05,1.55-0.07,2.45-0.07c1,0,1.88,0.1,2.63,0.3c0.75,0.2,1.39,0.46,1.93,0.78c0.83,0.5,1.49,1.2,1.96,2.09
			c0.47,0.89,0.7,1.91,0.7,3.07c0,1.37-0.28,2.57-0.84,3.61c-0.56,1.04-1.28,1.81-2.17,2.33v0.18c0.73,0.12,1.43,0.42,2.09,0.92
			s1.16,1.01,1.5,1.57c0.37,0.6,0.63,1.26,0.79,2S44.96,30.21,44.96,30.99z M42.17,30.95c0-0.69-0.08-1.31-0.23-1.87
			c-0.16-0.56-0.38-1.07-0.67-1.55c-0.34-0.56-0.81-0.97-1.41-1.24s-1.26-0.41-1.99-0.41c-0.35,0-0.59,0-0.71,0.01
			c-0.12,0.01-0.26,0.01-0.42,0.01l-0.25-1.95c0.51,0,1.03-0.11,1.56-0.33c0.53-0.22,0.98-0.55,1.35-1
			c0.39-0.49,0.69-1.04,0.91-1.66c0.22-0.62,0.32-1.34,0.32-2.18c0-0.85-0.14-1.58-0.42-2.21s-0.63-1.12-1.05-1.49
			c-0.34-0.31-0.78-0.53-1.31-0.68c-0.53-0.15-1.06-0.22-1.56-0.22c-0.25,0-0.7,0.01-1.35,0.02c0,0.99-0.01,2.36-0.02,4.1
			c-0.01,1.74-0.02,3.89-0.02,6.47c0,2.61,0.01,5.11,0.02,7.5c0.01,2.39,0.02,3.74,0.02,4.06c0.26,0,0.52,0.01,0.78,0.02
			c0.26,0.01,0.46,0.02,0.61,0.02c1.13,0,2.04-0.11,2.72-0.34c0.68-0.23,1.19-0.52,1.54-0.9c0.6-0.61,1.01-1.24,1.24-1.9
			S42.17,31.81,42.17,30.95z"/>
	</g>
</g>
</svg>
