<?xml version="1.0" encoding="utf-8"?>
<!-- Generator: Adobe Illustrator 23.0.3, SVG Export Plug-In . SVG Version: 6.00 Build 0)  -->
<svg version="1.1" id="Layer_1" xmlns="http://www.w3.org/2000/svg" xmlns:xlink="http://www.w3.org/1999/xlink" x="0px" y="0px"
	 viewBox="0 0 105.73 91.11" style="enable-background:new 0 0 105.73 91.11;" xml:space="preserve">
<path d="M87.66,33.2C78.2,14.95,60.12,10.53,41.05,9.34c-1.38-0.09-2.97,1.94-1.02,2.06c15.04,0.93,30.15,3.25,40.18,15.69
	c8.39,10.4,12.08,25.37,8.59,38.39c-4.22,15.76-19.3,22.32-34.4,23.38c-8.1,0.57-17.15,0.21-24.25-4.16
	c-7.39-4.53-9.26-11.24-9.5-19.48C20.16,48.41,22.4,29.11,37.73,19.1c1.64-1.07-0.75-2.03-1.91-1.28
	c-14.75,9.62-18.25,27.53-18.16,44c0.04,8.01,0.19,15.67,6.36,21.53c5.82,5.53,13.95,7.37,21.75,7.68
	c13.99,0.57,30.48-2.37,39.94-13.7C95.8,65.25,94.55,46.51,87.66,33.2z"/>
<path d="M78.72,55.03c-2.35-2.31-5.57,0.25-7.02,2.08c-4.81,6.04-10.26,11.52-17.38,14.98c-9.45,4.59-15.75-4.61-21.2-11.03
	c-0.07-1.34,0.03-2.75,0.34-4.23c0.29-1.42-2.67-1.06-2.94,0.22c-0.24,1.16-0.36,2.29-0.37,3.39c-0.44,0.32-0.66,0.76-0.27,1.2
	c0.11,0.13,0.23,0.26,0.34,0.4c0.28,3.07,1.43,5.84,3.17,8.22c-0.71-0.12-2.27,0.17-2.54,0.76c-1.86,4.06-3.24,12.88,3.31,13.16
	c4.68,0.2,7.37-2.94,9.14-6.69c1.93,0.71,3.96,1.19,6.03,1.39c10.23,0.96,20.64-4.3,26.37-12.75C77.13,64,81.3,57.57,78.72,55.03z
	 M33.3,81.52c-2.2-2.9-0.98-7.84,0.39-10.86c1.9,2.46,4.45,4.47,7.35,5.89C39.79,79.61,36.6,85.87,33.3,81.52z M76.06,59.39
	c0.04,2.21-2.84,6.06-4.04,7.59c-3.38,4.29-8.17,7.56-13.44,9.03c-8.53,2.39-18.76-0.87-23.22-7.88c3.87,4.29,8.39,8.02,14.29,7.47
	c7.88-0.74,16.94-8.09,21.86-13.93c0.61-0.73,1.18-2.01,1.91-2.58c0.28-0.56,0.82-0.75,1.6-0.58
	C76.52,57.74,76.87,58.03,76.06,59.39z"/>
<path d="M34.9,38.3c0.39,0.98,3.25,0.11,2.9-0.78c-2.03-5.1,4.23-7.22,8.19-5.63c2.59,1.04,4.46,2.99,4.73,5.82
	c0.09,0.91,3,0.3,2.9-0.78C52.56,25.92,31.01,28.52,34.9,38.3z"/>
<path d="M80,33.76c-3.31-2.76-7.15-5.67-11.73-4.92c-3.33,0.55-6.61,2.87-6.68,6.48c-0.03,1.39,2.9,0.88,2.92-0.28
	c0.07-3.6,3.55-5.03,6.67-4c2.49,0.82,4.57,2.64,6.55,4.28C78.6,36.04,81.21,34.76,80,33.76z"/>
<path d="M19.27,21.3c-4.8-0.18-5.38-6.16-5.6-9.78c-0.08-1.23-2.98-0.56-2.9,0.78c0.29,4.74,1.63,10.8,7.47,11.01
	C19.58,23.36,21.23,21.37,19.27,21.3z"/>
<path d="M24.48,1.19v5.8c0,1.53,2.94,1.12,2.94-0.21v-5.8C27.42-0.55,24.48-0.14,24.48,1.19z"/>
<path d="M94.22,6.14c-0.98,1.93-1.96,3.85-2.94,5.78c-0.64,1.27,2.25,0.99,2.71,0.1c0.98-1.93,1.96-3.85,2.94-5.78
	C97.58,4.97,94.68,5.25,94.22,6.14z"/>
<path d="M98.88,32.23c-0.61-0.42-1.52-0.21-2.08,0.18c-0.72,0.5-1.43,0.99-2.15,1.49c-0.5,0.35-0.73,1.09-0.16,1.48
	c0.61,0.42,1.52,0.21,2.08-0.18c0.72-0.5,1.43-0.99,2.15-1.49C99.22,33.37,99.45,32.63,98.88,32.23z"/>
<path d="M15.7,34.62C7.74,35.24,1.83,28.21,3.06,20.5c0.15-0.92-2.74-0.41-2.88,0.43c-1.4,8.83,5.6,15.78,14.33,15.1
	C15.42,35.96,17.62,34.47,15.7,34.62z"/>
<path d="M103.04,17.32c-2.33,3.32-5.16,6.12-8.5,8.41c-1.61,1.11,0.72,2.27,1.95,1.43c3.52-2.41,6.55-5.41,9-8.9
	C106.56,16.73,103.85,16.16,103.04,17.32z"/>
</svg>
