<?xml version="1.0" encoding="utf-8"?>
<!-- Generator: Adobe Illustrator 23.0.3, SVG Export Plug-In . SVG Version: 6.00 Build 0)  -->
<svg version="1.1" xmlns="http://www.w3.org/2000/svg" xmlns:xlink="http://www.w3.org/1999/xlink" x="0px" y="0px"
	 viewBox="0 0 1821.34 197.85" style="enable-background:new 0 0 1821.34 197.85;" xml:space="preserve">
<style type="text/css">
	.st0{display:none;}
	.st1{display:inline;}
	.st2{fill:#202020;}
	.st3{fill:#0F0F0F;}
</style>
<g id="Layer_1">
	<g class="st0">
		<g class="st1">
			<g>
				<g>
					<g>
						<path class="st2" d="M1815.18,155.16c0.94-0.15,0.39-0.31-2.22-0.1l-1.83,0.45L1815.18,155.16z"/>
						<path class="st2" d="M1797.58,155.68c-3.06,0.36-6.59,0.84-4.58,1.03c3.02-0.5,3.77-0.42,7.02-1c2.61-0.2,4.57-0.18,4.13-0.03
							c0.92-0.14,4.06-0.19,5.46-0.49c-3.42-0.03-7.72,0.24-12.21,0.72C1796.43,155.9,1797.36,155.75,1797.58,155.68z"/>
						<path class="st2" d="M1541.95,163.22l1.65,0.03C1543.15,163.23,1542.59,163.22,1541.95,163.22z"/>
						<path class="st2" d="M1383.51,161.27c1.21,0.01,1.71-0.01,1.77-0.04C1384.16,161.23,1383.24,161.24,1383.51,161.27z"/>
						<path class="st2" d="M1356.47,160.36c0.58,0.02,1.07,0.04,1.59,0.06C1357.46,160.38,1356.85,160.35,1356.47,160.36z"/>
						<path class="st2" d="M1541.95,163.22l-4.23-0.08C1537.42,163.24,1539.89,163.2,1541.95,163.22z"/>
						<path class="st2" d="M1762.4,158.42c0.89-0.06,1.62-0.13,2.29-0.2c-0.73,0.05-1.43,0.1-2.16,0.15
							C1762.5,158.38,1762.47,158.4,1762.4,158.42z"/>
						<path class="st2" d="M1611.78,161.71l1.29-0.04c0.38-0.05,0.73-0.1,1.06-0.16L1611.78,161.71z"/>
						<path class="st2" d="M1665.38,160.16c-1.21,0.01-1.63,0.3-2.09,0.44c0.68-0.13,1.58-0.2,2.64-0.25
							C1665.94,160.29,1665.78,160.23,1665.38,160.16z"/>
						<path class="st2" d="M1750.34,157.85l1.51-0.11C1751.46,157.77,1750.8,157.82,1750.34,157.85z"/>
						<path class="st2" d="M1573.43,162.53c-0.09-0.04-0.28-0.07-0.49-0.09C1572.94,162.47,1573.13,162.5,1573.43,162.53z"/>
						<path class="st2" d="M75.44,158.92c0.04-0.02-0.02-0.03-0.01-0.05C75.12,158.93,75.03,158.96,75.44,158.92z"/>
						<path class="st2" d="M13.88,166.59l0.81-0.3c0.07-0.08,0.14-0.16,0.13-0.21L13.88,166.59z"/>
						<path class="st2" d="M1307,158.44c0.1,0.01,0.13,0.01,0.22,0.01C1308.53,158.47,1307.79,158.45,1307,158.44z"/>
						<path class="st2" d="M852.78,140.7c5.14,0.44-8.39,0.01-0.65,0.58C851.42,141.14,859.19,141.1,852.78,140.7z"/>
						<path class="st2" d="M1761.01,158.45c-0.72,0.04-1.46,0.07-2.2,0.11C1759.82,158.52,1760.49,158.49,1761.01,158.45z"/>
						<path class="st2" d="M852.13,141.28L852.13,141.28l0.8,0.06C852.6,141.31,852.41,141.3,852.13,141.28z"/>
						<path class="st2" d="M1192.99,154.31c0.23,0.06,0.68,0.11,1.16,0.17C1194.11,154.45,1193.85,154.4,1192.99,154.31z"/>
						<path class="st2" d="M1277.91,157.96l-2.1-0.12C1276.64,157.89,1277.32,157.93,1277.91,157.96z"/>
						<path class="st2" d="M1148.88,152.94c-1.14-0.07-1.53-0.12-3.09-0.15c0.14,0.02,0.29,0.03,0.47,0.05
							C1146.83,152.83,1147.58,152.84,1148.88,152.94z"/>
						<path class="st2" d="M1102.99,151.07c0.24,0.03,0.56,0.06,0.84,0.09c0.45,0.01,0.99,0.03,1.45,0.04L1102.99,151.07z"/>
						<path class="st2" d="M214.36,146.01c-1.01-0.01-1.64-0.05-2.13-0.1C212.95,146.06,206.23,146.62,214.36,146.01z"/>
						<path class="st2" d="M1762.37,158.27c-0.27,0.08-0.66,0.14-1.36,0.19c0.53-0.03,1.03-0.06,1.53-0.09
							C1762.67,158.32,1762.7,158.28,1762.37,158.27z"/>
						<path class="st2" d="M1146.93,155.08l-7.29-0.34C1141.67,154.84,1144.32,154.96,1146.93,155.08z"/>
						<path class="st2" d="M543.55,135.27l-1.68,0.03C542.52,135.3,543.11,135.3,543.55,135.27z"/>
						<path class="st2" d="M1117.99,153.9c-1.3-0.15-2.68-0.27-4.1-0.36c-0.3,0.01-0.65,0.01-0.85,0.04L1117.99,153.9z"/>
						<path class="st2" d="M212.21,145.91c0.02,0,0.02,0,0.02,0S212.23,145.91,212.21,145.91z"/>
						<path class="st2" d="M164.36,150.4c6.93-0.58,3.22-0.64,4.67-0.97c8.26-0.8,3.85-0.05,6.68-0.1
							c5.15-0.53,9.09-1.21,12.94-1.52c0.29,0.04,1.04,0,0.17,0.15c5.44-0.75,16.21-1.22,22.55-2.07c0.48,0,0.72,0.01,0.84,0.03
							c-1.04-0.11-1.22-0.28-1.02-0.43c3.11-0.23,5.75-0.66,6.94-0.5c-1.91,0.13-2.06,0.24-2.94,0.38l3.25-0.34
							c2.96,0.13-4.44,0.45-4.42,0.7c6.34-0.58,13.72-1.42,18.6-1.66c1.04,0.25-11.37,0.95-4.86,0.77l-7.54,0.42
							c5.79,0.11-4.58,0.3,0.75,0.48c9.91-0.64,11.07-1,20.97-1.51c2.22-0.33-0.75-0.23,1.46-0.56c14.04-1.22,11.12,0.16,21.43-0.94
							c2.66-0.38,3.67-0.92,11.05-1.09l-2.49,0.51c9.61-0.46,5.45-0.84,15.53-1.1c-1.78,0.24-7.54,0.52-6.09,0.49
							c6.53-0.04,4.6-0.46,9.61-0.72l1.06,0.29c10.22-0.59,21.48-1.45,32.81-1.94c-0.62,0.13-2.56,0.32,0.1,0.31
							c7.14-0.39,14.77-0.7,22.34-0.96c7.57-0.29,15.08-0.36,21.97-0.5l5.26-0.46c1.23-0.04,2.28,0.06,0.95,0.16
							c5.38-0.06,0.27-0.2,2.85-0.39c3.06-0.12,4.05,0.04,2.11,0.19c9.48-0.62,27.01-1.28,37.01-1.2l-1.95,0.13
							c7.79-0.06,8.77-0.81,16-0.7l-1.38,0.08c8.45-0.12,17.34-0.25,25.73-0.37c8.39-0.1,16.28-0.23,22.73-0.02
							c2.45-0.44,16.73,0.09,17.81-0.51c9.65,0.24,6.89,0.34,20.48,0.49c3.63,0.03,5.41-0.36,9.9-0.41l0.11,0.31l6.09-0.31
							l3.24,0.37l4.21-0.07c-1.68-0.02-3.56-0.15-3.31-0.23c3.29-0.06,7.29,0,10.5,0.1c1.6,0.05,3,0.11,4.02,0.16
							c1.01,0.06,1.63,0.11,1.67,0.15l15.55-0.12c-0.35,0.12-2.95,0.14-5.01,0.2c8.3-0.24,1.51,0.34,9.12,0.12
							c-1.02-0.08,0.55-0.18,0.73-0.24c3.79,0.22,12.42,0.31,18.81,0.29l-1.23,0.2c11.54,0.15,24.32,0.32,37.27,0.49
							c-4.64-0.18-3.57-0.53,0.23-0.5l1.51,0.35c2.46-0.16-3.96-0.19,1.07-0.35c4.84,0.12,3.24,0.42,0.47,0.48l5.88,0
							c0.34,0.11-1.04,0.12-1.4,0.24c2.42-0.15,10.14,0.56,13.63,0.29l0.33,0.1c12.94,0.25,18.81,0.37,29.35,0.57
							c0.21-0.28,4.33-0.09,7.48-0.23c7.74,0.32,16.33,0.79,25.67,1.04c6.56,0.05,1.92-0.18,4.88-0.26c0.47,0.27,9.8,0.54,4.96,0.57
							c11.2,0.31,14.31,0.39,28.48,0.62c-1.53-0.15-3.26-0.25-2.36-0.31c2.57,0.04,5.85,0.29,5.47,0.4l-0.68,0.01
							c15.91,0.15,36.67,1.95,49.35,1.87l-0.71,0l13.14,0.18c6.04,0.26-3.63,0.06,0.83,0.38c14.18,0.06,22.37,0.86,34.05,1.01
							c9,1.08,32.03,1.14,44.2,2.1l-0.7-0.2c3.15-0.05,3.8,0.25,6.12,0.38c-0.32-0.15-3.41-0.29-1.45-0.31
							c26.68,0.82,55.05,2.42,82.39,3.69c10,0.46,5.71-0.69,18.31,0.25l-3.59,0.18c20.2,0.43,41.27,1.71,61.05,2.18
							c-1.18,0.03-1.22,0.13-3.15,0.04c2.08,0.21,5.94,0.37,9.29,0.45c1.67,0.04,3.22,0.07,4.35,0.07c1.13,0,1.85-0.02,1.87-0.07
							c3.08,0.15,0.71,0.21,2.6,0.38c4.18,0.31,10.52,0.13,12.74,0.46c0.38,0.05-1.18,0.03-1.95,0.02c2.73,0,12.71,0.55,10.11,0.17
							c7.41,0.44,14.19,0.46,20.1,0.86c3.87-0.15,12.69,0.67,13.93,0.28c-0.55,0.43,12.99,0.89,17.69,0.87
							c-1.58,0.07,4.07,0.31,2.23,0.42c5.35,0.21,10.26,0.32,9.34,0.05c9.84,0.94,19.83,0.36,25.36,1.28
							c15.91,0.39,30.63,0.81,44.93,1.25c-0.53,0.43-15.81-0.57-15.21-0.07c13.57,0.34,21.42,0.25,34.86,0.88
							c3.48,0.19-1.99,0.12-3.16,0.15c13.56,0.33,26.21,1.02,38.28,1.23c-0.03,0.04-1.34,0.04-2.57,0.03
							c2.38,0.07,5.53,0.27,5.27,0.06l-2.32-0.03c-3.78-0.43,9.46-0.28,9.89-0.42c-4.06,0.44,11.91,0.57,5.47,1.09
							c1.57,0.02,3.53-0.01,3.18-0.16c2.32,0.12,3.05,0.23,0.69,0.3c8.52,0.19,5.5-0.13,13.22,0.15c-0.03,0.1-1.59,0.08-2.39,0.17
							c3.91-0.05,7.84-0.1,14.36,0.2c-0.39,0.05,0.36,0.15-1.59,0.08c11.2,0.37,19.11,0.1,31.39,0.59
							c-3.64,0.35,4.18,0.24,4.82,0.63l6.61,0.03l-2.65-0.24c5.79,0.13,10.91-0.05,15.88,0.16l-4.3,0.08l10.85,0.11l-6.14-0.24
							c5.86-0.1-0.62-0.48,7.08-0.25c-1.57,0.01,5.79,0.1,8.8,0.36l-0.02,0c2.87-0.08,5.81-0.16,10.09-0.01
							c1.11,0.13-0.9,0.4-0.18,0.49c2.83-0.27,13.56,0.09,17.14-0.2c-1.19,0.06-1.26,0.26-0.87,0.3l2.37-0.22
							c2.68,0.11,3.07,0.16,2.63,0.31c8.07,0.15-2.56-0.51,7.01-0.18c-0.75,0.01-0.39,0.05-1.96,0.07
							c9.61,0.23,18.58,0.07,27.41,0.33c2.6,0.41-7.72-0.02-4.74,0.34c12.74,0.1,26.38-0.02,38.71,0.25l-2.3-0.07
							c1.72-0.51,9.18,0.39,15.42,0.18c-1.53,0.03-2,0.28-1.59,0.22c8.45,0.16,17.27-0.03,30.06-0.23l-1.58,0.14
							c4.98,0.11,13.11,0,18.48,0.01c1.59-0.15,4.67-0.17,2.8-0.34c16.58,0.59,31.6-0.91,46.32-0.64c-1.76,0.05-4.19,0.22-2.79,0.19
							l12.52-0.46c-1-0.2-1.65-0.09-4.28-0.2c1.58-0.18,5.11-0.38,8.21-0.48c-5.63,0.32,0.06,0.37,2.5,0.42
							c-0.41-0.06,0.42-0.16,0.21-0.23c6.55,0.2,1.08-0.49,10.02-0.51l-0.47,0.14c3.34-0.17,6.41-0.43,10.02-0.53
							c1.5,0.21-3.55,0.25-3.77,0.48c5.06-0.18,9.97-0.91,14.56-0.69c-2.15,0.1-5.24,0.18-7.39,0.35c4.99,0.12,5.57,0.09,9.28,0.05
							l-0.36,0l8.57-0.03l-2.18-0.04c6.32-0.83,12.9-0.4,21.42-1.07c-8.28,0.63-1.36,0.28-1.99,0.6c2.18,0.03,5.5,0.04,4.56,0.15
							c4.03-0.35,6.74,0.02,12.42-0.5c0.26,0.09,4.32-0.11,3.41,0.16c5.24-0.23-1.24-0.13-0.81-0.27
							c8.07-0.57,19.01-0.18,30.62-1.09c10.02-0.58,11.85-0.98,21.14-1.56c3.14,0.02-2.55,0.47-2.55,0.47
							c5.07-0.07,8.88-0.28,13.64-0.62c-0.96,0.13,0.04,0.16,1.5,0.2c3.83-0.21,2.54-0.48,7.6-0.59c-0.86,0.15-1.96,0.38-3.8,0.59
							c4.5-0.36,8.95-0.71,13.61-1.07c1.25,0.1-2.8,0.41-4.44,0.61c5.24-0.36,13.59-0.9,15.19-1.27l-3.37,0.1
							c1.91-0.12,1,0.17-0.41,0.3c-4.48,0.47-6.49,0.26-6.75,0.18l3.32-0.24c-3.45-0.38-13.35,0.82-20.04,1.11l2.77-0.56l-6.85,0.68
							c-1.47-0.04-2.48-0.22,0.83-0.44c-4.81,0.02-4.24,0.35-8.37,0.31c-0.46-0.02-0.25-0.04,0.17-0.08l-4.68,0.33
							c0.92-0.13-0.79-0.26,2.09-0.33c-8.43,0.14-13.56,0.88-16.74,0.7l0.7-0.05c-11.67,0.59-1.12,0.35-9.87,1.04l-5.92-0.54
							l-1.14,0.34c-1.21,0.03-3.59,0.09-3.15-0.05c-4.48,0.36,0.77,0.11-1.83,0.39c-5.81-0.09-15.99,0.63-17.32,0.17
							c-2.08,0.29,5.55,0.02-0.64,0.36c-1.78-0.47-7.16,0.29-12.47,0.18c1.62-0.31,6.65-0.3,1.34-0.4
							c-3.19,0.55-10.32,0.15-14.79,0.34c-0.2,0.37-9.72,0.36-17.22,0.62c0.47-0.21-14.13,0.26-21.11,0.35l0.2-0.07
							c-1.34,0.42-8.54,0.57-13.78,0.8c0.2-0.23,1.14-0.34,3.98-0.52l-4.93,0.15c-1.16,0.15-2.69,0.26-5.89,0.39l1.23-0.31
							c-6.56,0.2-13.2,0.67-21.64,0.67c-0.47,0.27,6.73,0.57-2.19,0.93c-0.33-0.13-0.67-0.36,1.67-0.47
							c-0.76,0.04-2.73,0.17-4.27,0.14l3.56-0.3c-3.85-0.03-2.01,0.23-5.08,0.27c0.06-0.2-2.28-0.1-1.84-0.26
							c0.78-0.03,2.68,0.03,3.86-0.07c-3.47,0.03-7.66,0-9.04-0.14c0.3,0.11,0,0.27-2.53,0.33c-6.56,0.12-2.25-0.2-6.08-0.24
							c-1.59,0.16-5.77,0.07-5.88,0.36c-1.92,0.02-2.28-0.11-3.02-0.18c-3.39,0.17-15.86,0.17-12.03,0.46l0.87,0.01
							c-0.16,0.01-0.35,0.01-0.56,0.02c0.03,0,0,0,0.03,0l-0.03,0c-11.13,0.37-23.12-0.1-34.16-0.05l0.02-0.1
							c-6.59,0.07-14.67-0.07-19.38,0.06c-1.95-0.03-4.6-0.25-3.76-0.36c-5.04-0.01-5.61,0.09-12.88-0.2
							c5.07-0.08-1.75-0.18,5.19-0.04c-6.55-0.2-8.03-0.38-15.06-0.22c2.4-0.22-4.93-0.39-8.04-0.36l4.59,0.25
							c-3.5-0.01-6.56-0.08-9.67-0.14l1.69-0.31c-13.4-0.58-24.17,0.38-34.37-0.42c-3.55,0.19,7.28,0.26,4.1,0.49
							c-6.16-0.12-12.58-0.68-14.51-0.71c-8.44-0.3-7.88,0.38-16.72,0.12c1.13,0.14,2.19,0.47-4.41,0.48
							c-6.17-0.14-7.57-0.63-3.68-0.65c1.48,0.01,2.19,0.06,2.13,0.1c1.99-0.01,4.61-0.02,2.17-0.19l-0.8,0.11
							c-3.06-0.16-11.54-0.31-9.55-0.47c-4.66,0.03-2,0.16,1.45,0.28c-7.91-0.31-12.36-0.24-20.49-0.54
							c1.29,0.1,2.48,0.26,1.19,0.23c-11.94-0.43-5.26,0.1-13.35-0.06c-4.59-0.31,1.66-0.38-6.49-0.46
							c-4.97-0.27-1.04-0.35,0.94-0.38c-7.42,0.01-13.85-0.59-18.08-0.79l3.91,0.04c-2.34-0.02-4.25-0.09-6.2-0.16l2.22,0.32
							c-2.29-0.12-4.23-0.19-4.19-0.29c-2.37,0.07,1.8,0.46-2.9,0.5c-3.05-0.23-9.32-0.2-10.36-0.56c9.62,0.45-1.05-0.35,7.09-0.11
							c-1.57-0.02-3.49-0.09-5.79-0.21c-0.34-0.05,0.33-0.05,0.96-0.05c-9.19-0.61-4.24,0.2-13.78-0.14
							c1.22-0.13-2.2-0.42-3.76-0.43c3.84,0.14,1.83,0.36-1.7,0.37c-6.11-0.35-6.65-0.14-9.85-0.27l3.65,0.2
							c-1.25,0.13-4.3-0.01-8.57-0.11c-0.36-0.15,3.88,0.05,2.36-0.07c-4.75,0.14-10.69-0.72-17.29-0.76
							c-3.05-0.23-0.28-0.34-2.97-0.53c-7.41-0.05-8-0.54-15.79-0.65c2.23,0.32,2.63,0.28-2.86,0.3l12.79,0.32l-8.22,0.03
							c3.86,0.15,8.15,0.16,10.46,0.29c-3.92,0.05-3.51,0-1.67,0.27c-5.27-0.55-10.47-0.19-16.57-0.67l0.21-0.58
							c-9.16-0.62-16.31-0.32-28.22-0.94l3.82,0.25c-1.61,0.17-7.36-0.26-11.22-0.32c0.37-0.18-2.04-0.35-3.68-0.54
							c0.19,0.15-8.72-0.36-9.82-0.01l-5.31-0.47c-9.61-0.49-11,0.12-20.24-0.32c2.79-0.1-1.4-0.41,4.8-0.31
							c-3.09-0.13-5.86-0.28-5.92-0.14c-1.8-0.2-8.57-0.08-11.4-0.38c-1.3,0.03-1.74,0.22-5.2,0.07c-0.38-0.06,0.02-0.1,0.02-0.1
							c-0.02,0.1-5.43-0.09-2.41,0.25c-9.48-1-26.58-1.04-34.84-1.91c-6.74-0.23-14.86-0.51-20.97-0.72
							c0.39-0.04,0.02-0.1,1.18-0.03c-8.43-0.53-5.21,0.35-14.8-0.25c-4.89-0.52,5.11,0.04,2.05-0.21
							c-1.3-0.7-11.59-0.39-18.03-1.03l1.57,0.03c-4.93-0.42-12.06-0.25-20.12-0.63c0,0,0.39-0.04,0.05-0.1
							c-5.53,0.1-15.98-0.22-23.75-0.44c2.43-0.16,3.53,0.01,2.07-0.31c-3.48-0.11,1,0.46-5.95,0.24c-2.25-0.23-7.26-0.56-7.91-0.86
							l6.55,0.25c-3.34-0.49-8.48-0.33-11.93-0.54l0.45-0.14c-10.04-0.36-10.2,0.03-20.99-0.44l1.11,0.16
							c-5.91,0.15-4.93-0.42-10.83-0.37l-1.76-0.47c-3.89-0.06-13.64-0.17-20.63-0.37c3.97-0.14,12.14,0.04,17.2,0.07
							c-3.86-0.16-13.11-0.5-15.13-0.38c1.56,0.02,3.52,0.01,5.05,0.13c-4.74,0.12-10.98,0.03-18.66-0.28
							c1.39-0.71-20.03-0.99-25.58-1.79c-13.61-0.23-26.97-1.16-42.81-1.7c5.6,0.8-4.63-0.15-3.68,0.49
							c-3.69-0.1-5.1-0.16-5.43-0.21l-11.17-0.78c-2.64-0.28,3.51-0.01,3.18-0.15c-8.08-0.34-3.38-0.38-8.72-0.74
							c1.09,0.26-2.82,0.2-7.42-0.04l6.48,0.51c-11.3-0.08-9.74-0.86-21.13-0.94l3.61-0.07c-5.84-0.09-21.55-0.77-27.29-0.46
							c-1.03-0.1-2.39-0.32,0.18-0.28c-13.96-0.53-31.09-0.53-41.93-1.16l1.06-0.12c-2.61-0.04-4.54,0.14-7.8-0.11
							c0.17-0.06,1.05-0.12-0.15-0.16c-1.38,0.01-6.93,0.05-10.37-0.15l2.95-0.08c-13.61-0.62-20.91-0.23-32.33-0.46
							c0.04-0.44-10.67-0.9-16.02-1.12l0.19-0.06c-15.86-0.51-26.95-0.29-41.64-0.47c-9.11-0.71-30.88-0.73-45.54-1.26
							c2.24,0.12-0.37,0.33-2.98,0.35c-3.44-0.12-9.51,0.22-8.96-0.18l1.23,0.02c-2.59-0.42-9.66-0.38-15.18-0.45l-0.91,0.52
							c-14.43-0.97-37.83,0.11-45.71-0.61c-3.48,0.13-7.8,0.11-11.25,0.25l0.19-0.28c-9.65-0.01-14.47-0.02-26.41,0.12l2.43-0.22
							c-6.73,0.02-8.49,0.87-14.7,0.92l-1.87-0.4c-11.74,0.18-23.63-0.02-35.23,0.53c0.19-0.06,0.53-0.19,2.43-0.24
							c-5.53,0.02-21.38,0.17-19.36,0.69c-0.15-0.37-12.11,0.24-18.45,0.56l0.98-0.3c-5.34,0.49-5.51,0.56-12.98,0.88
							c-1.77,0.02-1.56-0.17,0.8-0.18c-5.9,0.05-4.59,0.41-11.74,0.5l2.66-0.26c-6.07,0.18-5.58,0.26-8.92,0.57
							c-3.81,0.24-11.51,0.3-12.42,0.08c-0.81,0.18-4.13,0.49-7.71,0.54c-0.49-0.08,0.81-0.18,1.47-0.23
							c-10.15,0.2-15.07,0.95-22.06,0.96c-0.15-0.09-0.61-0.11-1.19-0.12c8.06-0.33,14.55-0.59,13.94-0.54
							c-0.01-0.26-6.52-0.03-1.36-0.6c-5.22,0.41-14.14,1.21-20.49,1.36c-0.31-0.01-0.61-0.02-0.84-0.05l0.66-0.06
							c-1.47,0.04-2.78,0.12-4.01,0.21c-2.03,0.04-3.31,0.07-5.26,0.14c-0.76-0.2-7.47,0.26-10.71,0.42
							c0.28,0.27-3.97,0.44,0.02,0.47c-0.52,0.01,0.61-0.07,2.77-0.19c0.49-0.04,1.06-0.08,1.38-0.1c-0.06,0.01-0.14,0.02-0.22,0.04
							c2.13-0.12,4.91-0.28,8.07-0.41c-2.56,0.24-5.23,0.5-8.83,0.54c-1.66,0.27-3.48,0.55-4.51,0.69
							c-4.46-0.16-13.03,0.07-14.23-0.1c-4.95,0.31-10.78,0.68-16.15,1.02c-5.37,0.41-10.27,0.83-13.37,1.29
							c-2.81,0.24-3.25,0.05-4.3,0.03c1.62-0.15,3.56-0.27,4.43-0.4c-5.62,0.49-16.67,1.1-17.99,1.55
							c-7.11,0.28,3.96-0.59-5.78,0.08l1.31-0.19c-9.61,0.3-17.38,1.19-25.41,1.97c-4.02,0.4-8.1,0.8-12.51,1.16
							c-4.41,0.34-9.15,0.65-14.47,0.93c1.47-0.08,2.21-0.12,2.52-0.08c-12.11,0.86-24.58,1.99-37,3.1
							c-12.41,1.25-24.78,2.47-36.73,3.35c-6.79,0.54-7.5,0.91-11.61,1.52l-1.5-0.14l-7.03,1.11c-5,0.67-9.36,0.95-14.05,1.3
							c-2.35,0.17-4.77,0.37-7.41,0.63c-1.32,0.14-2.68,0.25-4.11,0.48c-1.43,0.22-2.92,0.47-4.49,0.76l1.66-0.03
							c-4.54,0.62-14.36,2.11-13.63,1.76c-0.46,0.1-1.46,0.4-3.25,0.52l-0.16-0.14c-3.71,0.56-7.42,1.08-11.14,1.55
							c-4.34,0.37-4.02,0.16-4.19,0.04c-0.09-0.07-0.3-0.11-1.28-0.09c-0.49,0.01-1.17,0.05-2.13,0.11
							c-0.48,0.03-1.02,0.06-1.65,0.1c-0.16,0.01-0.32,0.02-0.48,0.03l-0.25,0.02c-0.14,0-0.28,0.02-0.42,0.06
							c-0.35,0.08-0.71,0.17-1.1,0.26c-2.28,0.58-5.56,1.43-8.02,2.23c-2.46,0.8-4.07,1.57-3.21,1.3c1.83-0.66,4.74-1.3,4.92-1.18
							c-1.39,0.38-2.78,0.8-4.15,1.27c-0.3,0.34-1.18,0.91-0.74,0.98c0.46,0.09,2.14-0.41,7.32-1.47l3.57-0.99l1.79-0.51
							c0.14-0.04,0.08-0.03,0.29-0.06l0.46-0.05l0.92-0.11l2.4,0.03l-3.12,0.26l-0.78,0.06c-0.08,0.01-0.02,0-0.19,0.04l-0.38,0.09
							l-1.52,0.37c0.44-0.08,0.85-0.16,1.25-0.24c0.2-0.04,0.4-0.08,0.59-0.12l0.21-0.04l0.15-0.01c0.75-0.05,1.44-0.11,2.1-0.17
							c1.31-0.15,2.5-0.32,3.74-0.5c0.6,0.06,1.65,0.06,3.12-0.05c2.41-0.38,4.8-0.8,7.2-1.22c0.9,0.08-3.2,0.74,1.66,0.27
							c3.36-0.62-3.3-0.01,2.29-0.83c3.55-0.23,2.54,0.07,6.65-0.65c0.6,0.04-0.27,0.24-1.9,0.5c3.66-0.62,9.71-1.38,11.57-1.9
							c1.86-0.1,4.91-0.65,7.52-0.88c2.6-0.28,4.7-0.47,4.55-0.24c1.14-0.23,6.43-1.04,9.81-1.43c-6.11,1.19,12.65-1.34,11.08-0.6
							c2.26-0.48,6.38-0.98,10.94-1.5c4.56-0.52,9.58-0.96,13.61-1.5c-0.45,0.08-1.33,0.24-2.05,0.29c4.56-0.4,5.9-0.38,8.84-0.58
							c0.55-0.45,7.64-1.22,11.45-1.83c5.62-0.16-3.35,0.78-1.56,0.98c-0.31-0.29,9.68-1.25,7.76-1.33c4.3-0.18,3.69-0.25,5.93-0.12
							c0.71-0.55,3.98-0.42,7.5-1.02c6.21-0.28,1.63,0.32,8.42-0.4C170.4,149.71,164.36,150.4,164.36,150.4z M326.32,139.06
							L326.32,139.06c-1.4,0.07-2.59,0.13-3.35,0.16C323.67,139.19,324.64,139.14,326.32,139.06z M339.96,138.48
							c-1.66,0.07-3.73,0.15-5.91,0.24c-0.48-0.08,0.03-0.2,1.4-0.25C334.71,138.56,337.92,138.48,339.96,138.48z M311.03,137.77
							c2.16-0.16,2.88-0.13,3.18-0.08c-1.02,0.04-2.21,0.12-3.77,0.22c-0.06,0.01-0.19,0.04-0.25,0.05
							C310.38,137.89,310.62,137.83,311.03,137.77z"/>
						<path class="st2" d="M307.17,138.34c-0.31,0.02-0.48,0.04-0.89,0.07c0.44,0,0.86,0,1.29,0c0.26-0.04,0.53-0.09,0.76-0.13
							C307.94,138.3,307.53,138.32,307.17,138.34z"/>
						<path class="st2" d="M1543.89,163.25l-0.29-0.01c0.24,0.01,0.46,0.02,0.6,0.04C1544.01,163.27,1544.01,163.27,1543.89,163.25z
							"/>
						<polygon class="st2" points="528.35,135.38 528.33,135.3 527.14,135.36 						"/>
						<path class="st2" d="M1619.07,162.78c0.14,0.02,0.43,0.04,0.99,0.04C1620.01,162.8,1619.58,162.79,1619.07,162.78z"/>
						<path class="st2" d="M1651.52,161.83l4.59,0.01C1654.12,161.84,1652.68,161.84,1651.52,161.83z"/>
						<path class="st2" d="M1676.49,161.44c0.31-0.06,0.4-0.1,0.49-0.13c-0.02,0-0.03,0-0.05,0L1676.49,161.44z"/>
						<path class="st2" d="M1279.56,159.91c-0.34-0.01-0.67-0.02-0.96-0.02C1276.33,159.85,1277.87,159.89,1279.56,159.91z"/>
						<path class="st2" d="M1397.67,162.56c-1.25,0.03-2.49,0.05-3.8,0.08C1395.98,162.69,1397.61,162.72,1397.67,162.56z"/>
						<path class="st2" d="M1147.72,155.12c0.01,0,0,0,0.01,0c-0.28-0.01-0.53-0.02-0.81-0.03L1147.72,155.12z"/>
						<path class="st2" d="M1388.38,162.55c2.1,0.09,3.86,0.11,5.49,0.09C1392.15,162.6,1390.12,162.53,1388.38,162.55z"/>
						<path class="st2" d="M1784.64,157.27l1.2-0.06c-0.02-0.02,0.05-0.04,0.14-0.05L1784.64,157.27z"/>
						<path class="st2" d="M1785.98,157.16l1.33-0.11C1786.7,157.08,1786.17,157.12,1785.98,157.16z"/>
						<path class="st2" d="M1790.12,156.81l-2.8,0.23C1788.28,156.99,1789.48,156.93,1790.12,156.81z"/>
						<path class="st2" d="M1751.61,158.83l-0.37,0.12C1751.45,158.92,1751.58,158.88,1751.61,158.83z"/>
						<path class="st2" d="M1741.58,159.3c2.39-0.08,6.02-0.05,9.35-0.26l0.31-0.09C1749.68,159.17,1743.85,159.03,1741.58,159.3z"
							/>
						<path class="st2" d="M1699.64,159.57l8.41-0.18c-1.47-0.06-3.41-0.15,0.41-0.29C1697.85,159.1,1710.66,159.26,1699.64,159.57z
							"/>
						<path class="st2" d="M1673.55,160.11c4.52-0.16-0.06-0.16,0.18-0.22C1670.87,160.06,1670.17,160.1,1673.55,160.11z"/>
						<path class="st2" d="M1485.02,162.72l0.46-0.25C1482,162.45,1485.45,162.57,1485.02,162.72z"/>
						<polygon class="st2" points="1448.96,163.48 1452.35,163.69 1453.96,163.47 						"/>
						<polygon class="st2" points="1427.69,161.39 1429.21,161.37 1423.39,161.39 						"/>
						<path class="st2" d="M1111.16,151.15l1.04,0.36C1114.56,151.55,1115.06,151.22,1111.16,151.15z"/>
						<path class="st2" d="M974.52,145.87c-1.48-0.22-5.32-0.47-7.7-0.41C969.9,145.6,972.96,145.85,974.52,145.87z"/>
						<polygon class="st2" points="564.62,132.98 567.38,132.9 562.19,132.94 						"/>
					</g>
				</g>
			</g>
		</g>
	</g>
	<g>
		<g>
			<g>
				<g>
					<g>
						<path class="st2" d="M1820.91,170.84c0.95-0.13,0.4-0.3-2.24-0.13l-1.86,0.42L1820.91,170.84z"/>
						<path class="st2" d="M1803.1,171.09c-3.1,0.31-6.67,0.77-4.64,0.97c3.06-0.47,3.81-0.37,7.11-0.91
							c2.64-0.17,4.62-0.12,4.18,0.02c0.93-0.13,4.11-0.13,5.52-0.4c-3.45-0.09-7.81,0.11-12.35,0.55
							C1801.94,171.3,1802.88,171.17,1803.1,171.09z"/>
						<path class="st2" d="M1544.81,183.17l1.67-0.04C1546.03,183.12,1545.45,183.14,1544.81,183.17z"/>
						<path class="st2" d="M1384.77,190.02c1.22-0.05,1.73-0.1,1.79-0.13C1385.42,189.95,1384.49,190,1384.77,190.02z"/>
						<path class="st2" d="M1357.42,190.36c0.59,0,1.08-0.01,1.61-0.01C1358.42,190.33,1357.8,190.33,1357.42,190.36z"/>
						<path class="st2" d="M1544.81,183.17l-4.28,0.1C1540.24,183.39,1542.73,183.24,1544.81,183.17z"/>
						<path class="st2" d="M1767.53,173.63c0.89-0.06,1.64-0.13,2.32-0.2c-0.73,0.05-1.44,0.09-2.18,0.14
							C1767.63,173.59,1767.6,173.61,1767.53,173.63z"/>
						<path class="st2" d="M1615.34,179.46l1.3-0.06c0.38-0.06,0.74-0.12,1.07-0.19L1615.34,179.46z"/>
						<path class="st2" d="M1669.47,176.77c-1.22,0.05-1.64,0.35-2.1,0.49c0.69-0.15,1.59-0.25,2.66-0.32
							C1670.05,176.89,1669.89,176.83,1669.47,176.77z"/>
						<path class="st2" d="M1755.34,173.08l1.52-0.11C1756.47,173,1755.8,173.05,1755.34,173.08z"/>
						<path class="st2" d="M1576.59,181.29c-0.09-0.04-0.29-0.06-0.5-0.08C1576.09,181.25,1576.29,181.27,1576.59,181.29z"/>
						<path class="st2" d="M62.56,180.57c0.04-0.03-0.02-0.03-0.01-0.05C62.24,180.59,62.14,180.62,62.56,180.57z"/>
						<path class="st2" d="M0.16,187.91l0.86-0.14c0.08-0.07,0.17-0.13,0.16-0.18L0.16,187.91z"/>
						<path class="st2" d="M1307.38,190.76c0.1,0,0.13,0,0.22,0C1308.92,190.73,1308.17,190.74,1307.38,190.76z"/>
						<path class="st2" d="M848.25,175.43c5.18,0.54-8.48-0.15-0.67,0.57C846.86,175.85,854.72,175.96,848.25,175.43z"/>
						<path class="st2" d="M1766.12,173.66c-0.73,0.04-1.47,0.07-2.22,0.11C1764.92,173.73,1765.6,173.7,1766.12,173.66z"/>
						<path class="st2" d="M847.58,176L847.58,176l0.81,0.07C848.06,176.04,847.87,176.03,847.58,176z"/>
						<path class="st2" d="M1192.08,190.27c0.23,0.05,0.69,0.1,1.17,0.15C1193.21,190.39,1192.95,190.35,1192.08,190.27z"/>
						<path class="st2" d="M1277.98,191.51l-2.13-0.05C1276.69,191.48,1277.38,191.5,1277.98,191.51z"/>
						<path class="st2" d="M1147.47,189.61c-1.15-0.06-1.55-0.11-3.12-0.12c0.15,0.02,0.29,0.03,0.48,0.05
							C1145.4,189.51,1146.16,189.52,1147.47,189.61z"/>
						<path class="st2" d="M1101.07,188.12c0.25,0.03,0.57,0.06,0.85,0.09c0.46,0.01,1,0.03,1.47,0.04L1101.07,188.12z"/>
						<path class="st2" d="M202.94,167.11c-1.02-0.01-1.66-0.05-2.15-0.1C201.51,167.16,194.71,167.71,202.94,167.11z"/>
						<path class="st2" d="M1767.5,173.47c-0.27,0.08-0.66,0.14-1.37,0.19c0.53-0.03,1.04-0.06,1.54-0.09
							C1767.8,173.52,1767.83,173.48,1767.5,173.47z"/>
						<path class="st2" d="M1145.53,191.76l-7.37-0.27C1140.21,191.57,1142.89,191.67,1145.53,191.76z"/>
						<path class="st2" d="M535.82,163.04l-1.69-0.01C534.78,163.05,535.38,163.06,535.82,163.04z"/>
						<path class="st2" d="M1116.26,190.86c-1.31-0.14-2.71-0.24-4.15-0.32c-0.31,0.01-0.66,0.02-0.86,0.05L1116.26,190.86z"/>
						<path class="st2" d="M200.77,167.01c0.02,0,0.02,0,0.02,0S200.78,167.01,200.77,167.01z"/>
						<path class="st2" d="M152.39,171.35c7-0.61,3.26-0.65,4.72-0.99c8.35-0.84,3.89-0.07,6.75-0.13
							c5.21-0.59,9.19-1.14,13.09-1.42c0.3,0.04,1.05,0.01,0.17,0.15c5.5-0.68,16.39-1.17,22.8-1.99c0.48,0,0.72,0.01,0.85,0.03
							c-1.05-0.11-1.23-0.29-1.02-0.44c3.14-0.23,5.82-0.64,7.02-0.49c-1.93,0.13-2.08,0.24-2.98,0.38l3.29-0.34
							c2.99,0.14-4.49,0.44-4.47,0.69c6.41-0.61,13.89-1.28,18.82-1.45c1.05,0.28-11.51,0.74-4.92,0.68
							c-2.54,0.11-5.09,0.16-7.63,0.31c5.85,0.14-4.63,0.28,0.75,0.48c10.03-0.47,11.21-0.79,21.21-1.23
							c2.24-0.31-0.76-0.24,1.48-0.55c14.2-1.1,11.23,0.23,21.67-0.75c2.7-0.33,3.73-0.8,11.19-0.86l-2.52,0.48
							c9.72-0.34,5.52-0.77,15.71-0.91c-1.8,0.22-7.63,0.42-6.16,0.41c6.6,0.05,4.65-0.4,9.72-0.6l1.06,0.3
							c5.17-0.2,10.6-0.57,16.18-0.75c5.58-0.2,11.29-0.4,17.02-0.61c-0.63,0.12-2.59,0.27,0.09,0.31
							c7.23-0.26,14.94-0.47,22.59-0.57c7.65,0,15.24-0.01,22.22-0.01l5.33-0.36c1.24-0.01,2.3,0.1,0.96,0.18
							c5.44,0.04,0.28-0.19,2.89-0.34c3.09-0.06,4.09,0.12,2.13,0.23c2.4-0.09,5.3-0.2,8.47-0.28c3.17-0.05,6.6-0.09,10.05-0.14
							c6.9-0.07,13.86-0.06,18.91,0.09l-1.97,0.09c7.87,0.12,8.88-0.62,16.18-0.32l-1.4,0.04c8.54,0.15,17.53,0.2,26.02,0.29
							c8.48,0.1,16.46,0.18,22.98,0.56c2.49-0.37,16.9,0.52,18.01-0.05c9.75,0.49,6.95,0.51,20.68,1.02
							c3.67,0.13,5.48-0.22,10.01-0.15l0.1,0.31l6.16-0.15l3.27,0.46l4.26,0.04c-1.69-0.07-3.6-0.24-3.34-0.32
							c3.32,0.02,7.37,0.19,10.61,0.37c1.62,0.09,3.03,0.18,4.05,0.27s1.65,0.15,1.69,0.19c5.24,0.05,10.48,0.18,15.72,0.27
							c-0.35,0.11-2.99,0.06-5.07,0.07c8.4-0.02,1.51,0.38,9.21,0.36c-1.03-0.11,0.56-0.16,0.74-0.22c3.83,0.32,12.55,0.63,19,0.78
							l-1.25,0.17c11.66,0.43,24.57,0.92,37.65,1.4c-4.69-0.29-3.59-0.62,0.24-0.49l1.52,0.39c2.49-0.1-4-0.29,1.09-0.32
							c4.88,0.24,3.27,0.51,0.46,0.5l5.94,0.13c0.34,0.11-1.05,0.11-1.42,0.21c2.45-0.11,10.24,0.77,13.77,0.59l0.33,0.11
							c13.07,0.55,19,0.8,29.65,1.25c0.22-0.27,4.38-0.02,7.57-0.08c7.82,0.48,16.49,1.14,25.92,1.59c6.63,0.19,1.95-0.14,4.93-0.16
							c0.47,0.28,9.89,0.73,5,0.67c11.32,0.54,14.45,0.71,28.77,1.26c-1.55-0.19-3.29-0.33-2.38-0.36c2.6,0.1,5.9,0.42,5.52,0.52
							l-0.69-0.01c16.08,0.45,37.03,2.76,49.84,2.92l-0.72-0.01l13.28,0.45c6.1,0.38-3.67-0.01,0.84,0.4
							c14.33,0.37,22.6,1.32,34.39,1.69c9.08,1.26,32.36,1.74,44.64,2.9l-0.7-0.22c3.19,0,3.84,0.31,6.18,0.48
							c-0.33-0.16-3.44-0.35-1.46-0.34c13.48,0.62,27.39,1.44,41.37,2.3c13.99,0.84,28.06,1.68,41.87,2.51
							c10.11,0.54,5.78-0.64,18.51,0.39l-3.63,0.16c10.21,0.29,20.64,0.81,31.02,1.3c10.38,0.46,20.7,0.93,30.7,1.19
							c-1.19,0.02-1.23,0.12-3.18,0.04c2.1,0.21,6.01,0.38,9.39,0.48c1.69,0.05,3.26,0.08,4.4,0.08c1.15,0,1.87-0.03,1.89-0.07
							c3.11,0.14,0.71,0.2,2.63,0.38c4.23,0.3,10.64,0.09,12.88,0.42c0.38,0.05-1.19,0.03-1.97,0.02
							c2.76-0.01,12.85,0.51,10.22,0.14c7.5,0.4,14.35,0.44,20.33,0.78c3.91-0.19,12.84,0.55,14.09,0.15
							c-0.55,0.44,13.14,0.77,17.89,0.71c-1.59,0.09,4.12,0.27,2.25,0.4c5.41,0.18,10.38,0.19,9.44-0.06
							c9.96,0.77,20.06,0.03,25.66,0.85c4.02,0.04,7.97,0.07,11.85,0.11c3.88,0.01,7.71,0.02,11.48,0.03
							c7.54,0.04,14.88,0.07,22.12,0.11c-0.53,0.44-15.99-0.18-15.38,0.3c6.87-0.04,12.28-0.06,17.68-0.09c2.7,0,5.39,0,8.27,0
							c2.87-0.01,5.92,0,9.32,0.04c3.52,0.08-2,0.19-3.19,0.26c13.72-0.14,26.52,0.18,38.73-0.06c-0.02,0.02-0.35,0.05-0.84,0.07
							c-0.49,0.02-1.13,0.04-1.75,0.06c2.41-0.02,5.59,0.03,5.32-0.17l-2.34,0.07c-3.84-0.27,9.55-0.69,9.98-0.85
							c-4.08,0.62,12.05,0.06,5.57,0.85c1.58-0.05,3.57-0.16,3.2-0.29c2.35,0.02,3.1,0.1,0.71,0.27c8.61-0.17,5.55-0.37,13.36-0.42
							c-0.03,0.1-1.6,0.15-2.41,0.27c3.95-0.24,7.92-0.39,14.51-0.46c-0.4,0.07,0.37,0.13-1.6,0.17c11.33-0.25,19.3-0.88,31.72-0.93
							c-3.66,0.5,4.23,0.06,4.9,0.42c2.23-0.07,4.45-0.16,6.68-0.27l-2.69-0.11c5.85-0.15,11.02-0.57,16.05-0.6l-4.34,0.28
							l10.96-0.41l-6.21,0.06c5.91-0.38-0.65-0.45,7.14-0.6c-1.58,0.09,5.85-0.18,8.91-0.08l-0.02,0c2.89-0.22,5.86-0.45,10.19-0.52
							c1.13,0.08-0.89,0.45-0.15,0.5c2.84-0.41,13.69-0.61,17.3-1.09c-1.2,0.13-1.26,0.33-0.86,0.35l2.39-0.35
							c2.71-0.03,3.11-0.01,2.68,0.17c8.15-0.3-2.61-0.36,7.07-0.57c-0.76,0.05-0.39,0.08-1.97,0.18c9.72-0.3,18.76-0.97,27.69-1.26
							c2.65,0.25-7.79,0.45-4.76,0.63c12.86-0.65,26.62-1.69,39.07-2.21l-2.32,0.07c1.7-0.61,9.28-0.19,15.57-0.74
							c-1.54,0.11-2.01,0.39-1.59,0.31c8.53-0.33,17.42-0.98,30.33-1.78l-1.59,0.21c5.03-0.12,13.23-0.57,18.66-0.78
							c1.6-0.21,4.71-0.34,2.81-0.45c16.77-0.04,31.9-1.97,46.78-2.05c-1.77,0.09-4.23,0.33-2.81,0.26l12.64-0.74
							c-1.01-0.18-1.66-0.06-4.33-0.11c1.59-0.21,5.16-0.49,8.29-0.65c-5.68,0.43,0.07,0.37,2.53,0.38
							c-0.42-0.05,0.42-0.17,0.21-0.23c6.63,0.09,1.08-0.52,10.12-0.68l-0.47,0.14c3.37-0.23,6.47-0.54,10.12-0.68
							c1.52,0.19-3.59,0.3-3.81,0.53c5.11-0.26,10.06-1,14.7-0.96c-2.17,0.15-5.29,0.36-7.46,0.51c5.05,0.07,5.64-0.04,9.38-0.17
							l-0.37,0.01l8.66-0.28l-2.21,0.02c6.36-1.01,13.02-0.76,21.62-1.64c-8.36,0.84-1.37,0.32-2,0.65c2.2-0.02,5.56-0.09,4.61,0.04
							c4.06-0.44,6.81-0.14,12.54-0.78c0.26,0.08,4.36-0.2,3.45,0.09c5.29-0.33-1.26-0.11-0.82-0.25
							c8.15-0.73,19.21-0.53,30.93-1.56c10.12-0.68,11.97-1.1,21.36-1.72c3.18,0-2.58,0.48-2.58,0.48
							c5.12-0.11,8.97-0.32,13.79-0.67c-0.97,0.13,0.04,0.16,1.51,0.19c3.87-0.21,2.57-0.48,7.68-0.59
							c-0.87,0.15-1.98,0.38-3.85,0.58c4.55-0.34,9.05-0.68,13.77-1.03c1.26,0.11-2.84,0.4-4.49,0.59
							c5.3-0.34,13.74-0.82,15.36-1.17l-3.41,0.07c1.93-0.11,1.01,0.18-0.42,0.3c-4.54,0.43-6.56,0.23-6.82,0.14l3.36-0.23
							c-3.48-0.4-13.5,0.75-20.27,1.05l2.8-0.55l-6.92,0.68c-1.48-0.04-2.5-0.22,0.84-0.44c-4.86,0.03-4.29,0.36-8.47,0.33
							c-0.46-0.01-0.25-0.04,0.17-0.08l-4.73,0.35c0.92-0.13-0.8-0.25,2.11-0.34c-8.52,0.17-13.7,0.98-16.92,0.82l0.71-0.06
							c-11.8,0.72-1.13,0.36-9.96,1.15l-6-0.46l-1.15,0.36c-1.22,0.05-3.63,0.14-3.19,0c-4.52,0.43,0.78,0.1-1.84,0.42
							c-5.87,0.01-16.16,0.92-17.5,0.5c-2.09,0.33,5.61-0.09-0.64,0.37c-1.81-0.44-7.23,0.44-12.6,0.46
							c1.63-0.35,6.71-0.45,1.34-0.43c-3.21,0.61-10.43,0.41-14.94,0.72c-0.19,0.37-9.81,0.63-17.39,1.12
							c0.47-0.15-14.27,0.5-21.33,0.71l0.2-0.07c-1.35,0.43-8.62,0.72-13.92,1.05c0.2-0.23,1.15-0.36,4.01-0.6l-4.98,0.24
							c-1.17,0.17-2.72,0.31-5.95,0.51l1.24-0.34c-6.63,0.34-13.33,0.97-21.86,1.21c-0.47,0.28,6.82,0.38-2.19,0.99
							c-0.34-0.12-0.69-0.34,1.67-0.51c-0.77,0.06-2.75,0.25-4.31,0.27l3.59-0.41c-3.89,0.09-2.02,0.29-5.13,0.42
							c0.05-0.2-2.3-0.03-1.87-0.21c0.79-0.06,2.71-0.05,3.9-0.19c-3.5,0.14-7.74,0.22-9.14,0.14c0.31,0.1,0.01,0.27-2.55,0.42
							c-6.63,0.34-2.28-0.13-6.15-0.04c-1.6,0.22-5.83,0.28-5.93,0.58c-1.94,0.09-2.3-0.03-3.06-0.07
							c-3.42,0.3-16.02,0.82-12.14,0.94l0.88-0.02c-0.16,0.01-0.36,0.03-0.56,0.04c0.03,0,0,0,0.03,0l-0.03,0
							c-11.23,0.84-23.36,0.97-34.5,1.64l0.01-0.1c-6.65,0.44-14.81,0.79-19.56,1.23c-1.97,0.09-4.66,0.04-3.82-0.11
							c-5.09,0.32-5.65,0.46-13.01,0.64c5.11-0.41-1.77-0.07,5.24-0.38c-6.62,0.23-8.12,0.14-15.21,0.74
							c2.41-0.36-4.99-0.09-8.13,0.13l4.64-0.03c-3.53,0.2-6.62,0.32-9.76,0.44l1.68-0.41c-13.55,0.2-24.38,1.75-34.71,1.48
							c-3.57,0.38,7.36-0.13,4.17,0.27c-6.23,0.21-12.73-0.02-14.68,0.04c-8.53,0.13-7.94,0.78-16.87,0.96
							c1.15,0.08,2.23,0.36-4.43,0.69c-6.24,0.16-7.68-0.26-3.74-0.47c1.49-0.06,2.22-0.04,2.15,0c2.01-0.11,4.65-0.24,2.18-0.29
							l-0.8,0.14c-3.1-0.01-11.67,0.24-9.66-0.01c-4.71,0.25-2.01,0.25,1.48,0.21c-8,0.06-12.49,0.37-20.72,0.4
							c1.31,0.04,2.52,0.16,1.22,0.18c-12.07,0.08-5.31,0.33-13.49,0.53c-4.65-0.09,1.66-0.46-6.57-0.15
							c-5.03-0.03-1.07-0.29,0.93-0.43c-7.5,0.37-14.02,0.12-18.3,0.15l3.95-0.17c-2.36,0.11-4.3,0.14-6.27,0.14l2.26,0.22
							c-2.32-0.03-4.28-0.01-4.24-0.11c-2.39,0.17,1.83,0.38-2.91,0.63c-3.09-0.1-9.42,0.19-10.49-0.11
							c9.73,0.04-1.08-0.31,7.16-0.42c-1.59,0.05-3.52,0.06-5.85,0.03c-0.35-0.03,0.33-0.07,0.96-0.09
							c-9.31-0.22-4.28,0.39-13.92,0.45c1.22-0.19-2.24-0.32-3.81-0.27c3.89-0.02,1.86,0.28-1.71,0.44
							c-6.19-0.1-6.72,0.17-9.96,0.13l3.7,0.06c-1.25,0.2-4.35,0.15-8.66,0.19c-0.37-0.14,3.92-0.08,2.38-0.15
							c-4.79,0.29-10.82-0.37-17.5-0.19c-3.09-0.13-0.3-0.33-3.01-0.43c-7.48,0.2-8.1-0.28-15.97-0.12c2.26,0.24,2.66,0.2-2.88,0.39
							l12.93-0.1l-8.3,0.31c3.9,0.02,8.24-0.12,10.57-0.06c-3.95,0.18-3.55,0.12-1.68,0.33c-5.34-0.4-10.59,0.21-16.76-0.15
							l0.19-0.59c-9.27-0.4-16.49,0.07-28.54-0.25l3.87,0.16c-1.62,0.21-7.44-0.07-11.34-0.03c0.37-0.2-2.07-0.29-3.73-0.46
							c0.2,0.15-8.82-0.22-9.92,0.15l-5.37-0.38c-9.72-0.33-11.11,0.31-20.46,0.02c2.82-0.15-1.42-0.39,4.84-0.4
							c-3.12-0.07-5.93-0.18-5.98-0.04c-1.82-0.15-8.66,0.05-11.53-0.24c-1.32,0.05-1.75,0.24-5.26,0.11
							c-0.38-0.05,0.02-0.1,0.02-0.1c-0.02,0.1-5.49-0.04-2.43,0.28c-9.6-0.93-26.88-0.74-35.23-1.62
							c-6.81-0.21-15.02-0.46-21.2-0.66c0.4-0.04,0.02-0.1,1.19-0.03c-8.52-0.51-5.27,0.37-14.96-0.2
							c-4.95-0.51,5.16,0.02,2.07-0.22c-1.32-0.68-11.72-0.4-18.23-1.06l1.58,0.03c-4.98-0.44-12.19-0.28-20.34-0.68
							c0,0,0.4-0.04,0.05-0.1c-5.59,0.1-16.15-0.28-24-0.58c2.45-0.14,3.57,0.04,2.09-0.29c-3.52-0.13,1.01,0.46-6.01,0.2
							c-2.28-0.25-7.33-0.61-7.99-0.92l6.62,0.3c-3.37-0.52-8.57-0.4-12.05-0.63l0.45-0.13c-10.15-0.44-10.31-0.04-21.21-0.64
							l1.12,0.18c-5.98,0.08-4.98-0.48-10.94-0.49l-1.78-0.49c-3.94-0.11-13.79-0.33-20.85-0.62c4.01-0.09,12.27,0.19,17.38,0.28
							c-3.9-0.2-13.24-0.65-15.29-0.56c1.57,0.04,3.56,0.05,5.1,0.19c-4.8,0.07-11.1-0.11-18.86-0.54
							c1.42-0.69-20.23-1.29-25.83-2.18c-13.75-0.46-27.24-1.63-43.24-2.46c5.64,0.91-4.67-0.24-3.72,0.42
							c-3.73-0.17-5.15-0.26-5.48-0.32l-11.27-0.99c-2.67-0.33,3.55,0.06,3.22-0.09c-8.16-0.5-3.41-0.45-8.8-0.91
							c1.09,0.28-2.85,0.15-7.5-0.19l6.53,0.65c-11.42-0.31-9.83-1.06-21.34-1.38l3.65,0.01c-5.91-0.22-21.76-1.2-27.57-1.03
							c-1.04-0.13-2.41-0.37,0.19-0.27c-14.09-0.86-31.41-1.19-42.35-2.07l1.08-0.09c-2.63-0.1-4.59,0.04-7.88-0.29
							c0.17-0.05,1.07-0.09-0.15-0.17c-1.4-0.02-7-0.11-10.48-0.38l2.99-0.01c-13.74-0.92-21.13-0.66-32.67-1.15
							c0.05-0.44-10.77-1.12-16.16-1.47l0.19-0.05c-16.02-0.8-27.23-0.89-42.08-1.41c-9.19-0.86-31.19-1.5-45.99-2.35
							c2.26,0.16-0.38,0.33-3.02,0.28c-3.47-0.21-9.62-0.03-9.05-0.42l1.24,0.05c-2.6-0.49-9.75-0.63-15.33-0.84l-0.94,0.5
							c-3.64-0.32-7.85-0.55-12.24-0.72c-4.39-0.16-8.96-0.24-13.33-0.32c-8.73-0.16-16.63-0.29-20.61-0.75
							c-3.52,0.04-7.88-0.1-11.38-0.04l0.2-0.28c-9.76-0.26-14.63-0.39-26.69-0.56l2.46-0.15c-6.8-0.15-8.6,0.65-14.88,0.54
							l-1.88-0.46c-11.87-0.12-23.88-0.61-35.61-0.34c0.19-0.06,0.54-0.18,2.47-0.18c-2.79-0.02-8.2-0.19-12.65-0.17
							c-4.45,0-7.95,0.08-6.94,0.37c-0.14-0.38-12.25-0.03-18.66,0.14l1-0.28c-5.41,0.36-5.58,0.46-13.14,0.56
							c-1.79-0.04-1.57-0.22,0.81-0.15c-5.97-0.14-4.65,0.3-11.88,0.22l2.69-0.21c-6.14,0.05-5.65,0.14-9.03,0.39
							c-3.86,0.16-11.65,0.07-12.56-0.17c-0.83,0.16-4.18,0.41-7.8,0.38c-0.49-0.09,0.83-0.16,1.49-0.2
							c-10.27-0.1-15.25,0.62-22.32,0.5c-0.15-0.09-0.61-0.12-1.2-0.14c8.15-0.2,14.72-0.35,14.1-0.31c0-0.26-6.59-0.14-1.36-0.62
							c-5.28,0.33-14.31,0.97-20.74,1.01c-0.31-0.02-0.62-0.03-0.85-0.07l0.66-0.05c-1.48,0.01-2.81,0.07-4.06,0.14
							c-2.05,0.01-3.35,0.01-5.32,0.06c-0.77-0.19-7.56,0.06-10.84,0.16c0.28,0.27-4.02,0.39,0.02,0.47c-0.52,0,0.62-0.07,2.8-0.13
							c0.49-0.02,1.07-0.05,1.4-0.06c-0.06,0.01-0.14,0.02-0.22,0.03c2.16-0.06,4.97-0.14,8.16-0.22c-2.59,0.21-5.3,0.4-8.93,0.33
							c-1.68,0.22-3.53,0.46-4.57,0.6c-4.5-0.22-13.17-0.09-14.38-0.29c-5.01,0.25-10.91,0.54-16.35,0.81
							c-5.43,0.28-10.4,0.58-13.54,1.05c-2.84,0.22-3.28,0.03-4.35,0c1.64-0.14,3.6-0.24,4.48-0.36
							c-5.69,0.44-16.87,0.96-18.21,1.41c-7.19,0.22,4.01-0.56-5.84,0.04l1.32-0.18c-4.86,0.11-9.26,0.34-13.46,0.61
							c-4.2,0.28-8.19,0.72-12.26,1.1c-8.13,0.79-16.51,1.57-27.28,1.95c1.49-0.06,2.24-0.09,2.55-0.05
							c-6.13,0.3-12.34,0.84-18.59,1.4c-6.25,0.57-12.54,1.14-18.82,1.72c-12.57,1.05-25.05,2.56-37.12,3.54
							c-6.86,0.62-7.58,0.94-11.74,1.56l-1.52-0.14l-3.55,0.55l-3.55,0.62c-10.08,1.53-17.6,1.47-30.34,3.57l1.68-0.01
							c-2.3,0.29-5.94,0.76-8.91,1.14c-2.97,0.4-5.26,0.75-4.89,0.57c-0.46,0.11-1.47,0.43-3.28,0.59l-0.16-0.14l-11.22,1.93
							c-8.75,1.17,1.28-0.82-11.47,1.02c-4.73,0.76-13.42,2.44-11.62,2.28c1.91-0.27,4.9-0.62,5.07-0.49l-4.32,0.72
							c-0.71,0.58-3.96,1.54,6.71,0.29l7.36-1.37l2.42-0.13l-6.23,0.93c3.57-0.31,5.78-0.83,8.27-1.32
							c0.61,0.03,1.66-0.04,3.14-0.21l7.2-1.51c0.91,0.05-3.21,0.84,1.68,0.22c3.38-0.71-3.32,0.08,2.29-0.89
							c3.57-0.31,2.56,0.01,6.69-0.78c0.6,0.03-0.27,0.24-1.91,0.53c3.67-0.74,9.8-1.35,11.68-1.86c3.74-0.21,12.52-1.65,12.21-1.16
							c1.15-0.25,6.49-1.17,9.9-1.62c-6.16,1.31,12.76-1.58,11.18-0.81c4.56-0.98,16.66-1.99,24.81-3.12
							c-0.45,0.09-1.34,0.26-2.07,0.31c4.61-0.45,5.96-0.45,8.93-0.68c0.55-0.45,7.71-1.32,11.56-1.94
							c5.69-0.13-3.39,0.77-1.58,0.98c-0.32-0.32,9.79-1.19,7.84-1.29c4.35-0.15,3.74-0.21,5.99-0.09c0.71-0.55,4.02-0.44,7.58-1.05
							c6.28-0.31,1.65,0.32,8.51-0.44C158.48,170.65,152.39,171.35,152.39,171.35z M316.2,161.69L316.2,161.69
							c-1.41,0.05-2.62,0.08-3.39,0.11C313.52,161.77,314.5,161.74,316.2,161.69z M329.99,161.34c-1.68,0.04-3.77,0.09-5.98,0.14
							c-0.49-0.08,0.04-0.2,1.42-0.23C324.68,161.33,327.93,161.3,329.99,161.34z M300.76,160.12c2.18-0.09,2.92-0.06,3.22-0.01
							c-1.03,0.03-2.24,0.08-3.82,0.13c-0.06,0.01-0.19,0.03-0.26,0.04C300.11,160.22,300.35,160.17,300.76,160.12z"/>
						<path class="st2" d="M296.85,160.59c-0.32,0.02-0.49,0.02-0.9,0.04c0.45,0.01,0.87,0.02,1.3,0.03
							c0.26-0.04,0.54-0.07,0.77-0.11C297.63,160.56,297.22,160.57,296.85,160.59z"/>
						<path class="st2" d="M1546.77,183.12l-0.29,0.01c0.24,0,0.46,0,0.61,0.01C1546.9,183.12,1546.9,183.12,1546.77,183.12z"/>
						<polygon class="st2" points="520.46,162.75 520.44,162.68 519.24,162.71 						"/>
						<path class="st2" d="M1622.73,180.38c0.15,0.02,0.43,0.03,1,0.02C1623.68,180.39,1623.25,180.38,1622.73,180.38z"/>
						<path class="st2" d="M1655.52,178.85l4.64-0.13C1658.15,178.77,1656.69,178.81,1655.52,178.85z"/>
						<path class="st2" d="M1680.74,177.76c0.32-0.06,0.41-0.11,0.49-0.14c-0.02,0-0.03,0-0.05,0L1680.74,177.76z"/>
						<path class="st2" d="M1279.72,193.4c-0.34,0-0.67,0.01-0.97,0.01C1276.46,193.45,1278.01,193.44,1279.72,193.4z"/>
						<path class="st2" d="M1399.13,190.62c-1.27,0.09-2.51,0.17-3.83,0.27C1397.43,190.83,1399.08,190.78,1399.13,190.62z"/>
						<path class="st2" d="M1146.33,191.79c0.01,0,0,0,0.01,0c-0.29-0.01-0.54-0.02-0.82-0.03L1146.33,191.79z"/>
						<path class="st2" d="M1389.75,191.06c2.13-0.01,3.9-0.08,5.55-0.18C1393.56,190.93,1391.51,190.96,1389.75,191.06z"/>
						<path class="st2" d="M1790.01,172.56l1.21-0.05c-0.02-0.02,0.05-0.04,0.14-0.05L1790.01,172.56z"/>
						<path class="st2" d="M1791.37,172.46l1.35-0.1C1792.09,172.39,1791.56,172.42,1791.37,172.46z"/>
						<path class="st2" d="M1795.55,172.15l-2.84,0.21C1793.7,172.31,1794.91,172.26,1795.55,172.15z"/>
						<path class="st2" d="M1756.63,174.05l-0.38,0.12C1756.46,174.14,1756.59,174.1,1756.63,174.05z"/>
						<path class="st2" d="M1746.49,174.58c2.42-0.09,6.08-0.08,9.45-0.31l0.31-0.1C1754.67,174.4,1748.78,174.29,1746.49,174.58z"
							/>
						<path class="st2" d="M1704.1,175.38l8.5-0.33c-1.49-0.04-3.45-0.09,0.41-0.3C1702.28,174.95,1715.23,174.88,1704.1,175.38z"/>
						<path class="st2" d="M1677.74,176.51c4.56-0.27-0.06-0.15,0.18-0.23C1675.02,176.52,1674.32,176.58,1677.74,176.51z"/>
						<path class="st2" d="M1487.3,185.78l0.45-0.28C1484.23,185.71,1487.72,185.61,1487.3,185.78z"/>
						<polygon class="st2" points="1450.96,188.8 1454.39,188.8 1456.01,188.49 						"/>
						<polygon class="st2" points="1429.37,187.9 1430.91,187.8 1425.04,188.13 						"/>
						<path class="st2" d="M1109.33,188.18l1.05,0.35C1112.77,188.54,1113.28,188.2,1109.33,188.18z"/>
						<path class="st2" d="M971.23,182.49c-1.5-0.23-5.37-0.54-7.77-0.5C966.56,182.16,969.65,182.45,971.23,182.49z"/>
						<polygon class="st2" points="557.18,161.29 559.96,161.28 554.72,161.19 						"/>
					</g>
				</g>
			</g>
		</g>
	</g>
	<g>
		<g>
			<g>
				<g>
					<g>
						<path class="st2" d="M1587.89,197.85c0.85,0.04,0.41-0.23-1.91-0.52l-1.69,0.09L1587.89,197.85z"/>
						<path class="st2" d="M1572.41,195.01c-2.74-0.23-5.92-0.4-4.2,0.15c2.74,0.07,3.37,0.3,6.32,0.34
							c2.32,0.29,4.03,0.68,3.62,0.75c0.83,0.03,3.59,0.59,4.86,0.56c-2.97-0.69-6.79-1.24-10.8-1.61
							C1571.37,195,1572.21,195.04,1572.41,195.01z"/>
						<path class="st2" d="M1344.7,177.24l1.47,0.06C1345.77,177.28,1345.27,177.26,1344.7,177.24z"/>
						<path class="st2" d="M1203.15,180.91c1.08-0.07,1.52-0.13,1.58-0.17C1203.73,180.83,1202.91,180.9,1203.15,180.91z"/>
						<path class="st2" d="M1179,182.23c0.52-0.03,0.95-0.05,1.42-0.08C1179.88,182.16,1179.33,182.18,1179,182.23z"/>
						<path class="st2" d="M1344.7,177.24l-3.78-0.16C1340.66,177.19,1342.86,177.19,1344.7,177.24z"/>
						<path class="st2" d="M1541.07,191.66c0.79,0.08,1.45,0.12,2.05,0.15c-0.65-0.06-1.27-0.13-1.92-0.19
							C1541.17,191.64,1541.14,191.65,1541.07,191.66z"/>
						<path class="st2" d="M1407.12,178.78l1.15,0.05c0.34-0.02,0.66-0.05,0.96-0.08L1407.12,178.78z"/>
						<path class="st2" d="M1454.96,181.6c-1.08-0.1-1.48,0.15-1.9,0.24c0.62-0.07,1.42-0.06,2.37-0.01
							C1455.45,181.79,1455.32,181.71,1454.96,181.6z"/>
						<path class="st2" d="M1530.55,189.28l1.34,0.12C1531.54,189.37,1530.95,189.32,1530.55,189.28z"/>
						<path class="st2" d="M1372.85,177.48c-0.08-0.04-0.25-0.09-0.43-0.11C1372.41,177.4,1372.58,177.44,1372.85,177.48z"/>
						<path class="st2" d="M40.3,176c0.03-0.03-0.02-0.03-0.01-0.05C40.02,176.04,39.94,176.07,40.3,176z"/>
						<path class="st2" d="M38.41,176.59l-0.76,0.14c-0.07,0.07-0.15,0.13-0.14,0.18L38.41,176.59z"/>
						<path class="st2" d="M1134.86,185.3c0.09,0,0.12-0.01,0.2-0.01C1136.21,185.16,1135.56,185.22,1134.86,185.3z"/>
						<path class="st2" d="M732.27,162.07c2.23,0.58,0.38,0.29-1.19,0.05c-1.57-0.21-2.85-0.38,0.52,0.42
							C731,162.31,737.87,163.37,732.27,162.07z"/>
						<path class="st2" d="M1539.85,191.48c-0.64-0.07-1.29-0.15-1.95-0.23C1538.78,191.37,1539.38,191.44,1539.85,191.48z"/>
						<path class="st2" d="M731.61,162.54L731.61,162.54l0.7,0.17C732.01,162.64,731.85,162.6,731.61,162.54z"/>
						<path class="st2" d="M1033.22,192.71c0.21,0.04,0.62,0.06,1.04,0.07C1034.23,192.76,1033.99,192.73,1033.22,192.71z"/>
						<path class="st2" d="M1108.99,187.93l-1.88,0.11C1107.86,188,1108.46,187.96,1108.99,187.93z"/>
						<path class="st2" d="M993.87,194.64c-1.02,0.01-1.37-0.02-2.76,0.06c0.13,0.01,0.26,0.01,0.42,0.02
							C992.03,194.67,992.7,194.63,993.87,194.64z"/>
						<path class="st2" d="M952.86,194.93c0.22,0.02,0.5,0.04,0.76,0.07c0.41,0,0.88,0,1.3,0L952.86,194.93z"/>
						<path class="st2" d="M164.29,168.01c-0.9-0.1-1.45-0.2-1.89-0.3C163.03,167.92,157.01,167.84,164.29,168.01z"/>
						<path class="st2" d="M1541.07,191.51c-0.25,0.04-0.6,0.04-1.23-0.02c0.47,0.05,0.92,0.1,1.36,0.14
							C1541.33,191.6,1541.36,191.56,1541.07,191.51z"/>
						<path class="st2" d="M992.25,196.91c-2.18,0.04-4.35,0.13-6.53,0.12C987.55,197.06,989.92,196.97,992.25,196.91z"/>
						<path class="st2" d="M458.37,179.54l-1.49,0.16C457.46,179.66,457.99,179.61,458.37,179.54z"/>
						<path class="st2" d="M966.35,197.26c-1.17-0.09-2.4-0.12-3.68-0.17c-0.27,0.02-0.58,0.03-0.76,0.06
							C963.4,197.23,964.87,197.23,966.35,197.26z"/>
						<path class="st2" d="M162.39,167.7c0.01,0,0.01,0,0.01,0S162.41,167.71,162.39,167.7z"/>
						<path class="st2" d="M119.52,168.44c6.2-0.17,2.9-0.45,4.21-0.7c3.7-0.17,4.56-0.1,4.81,0.01c0.25,0.1-0.11,0.25,1.15,0.33
							c4.62-0.14,8.16-0.51,11.61-0.52c0.26,0.06,0.93,0.08,0.14,0.16c2.44-0.14,6.07-0.1,9.8-0.08c1.86,0,3.76,0,5.54,0.01
							c1.78,0.01,3.45,0.01,4.88-0.05c0.42,0.04,0.64,0.08,0.74,0.11c-0.92-0.21-1.06-0.4-0.86-0.53c2.78,0.06,5.17-0.1,6.21,0.16
							c-1.71-0.05-1.85,0.04-2.65,0.1l2.92-0.03c2.61,0.41-3.98,0.02-3.99,0.28c2.84,0,5.92,0.01,8.84,0.01
							c2.91,0.04,5.66,0.1,7.84,0.23c0.9,0.37-10.19-0.28-4.39,0.25c-2.24-0.12-4.49-0.28-6.73-0.36c5.13,0.67-4.09-0.14,0.62,0.55
							c8.86,0.42,9.92,0.17,18.76,0.67c2-0.09-0.64-0.31,1.36-0.4c12.59,0.29,9.85,1.34,19.1,1.44c2.4-0.07,3.36-0.48,9.92,0.19
							l-2.27,0.23c8.57,0.62,4.93-0.22,13.89,0.64c-1.61,0.04-6.75-0.33-5.45-0.2c5.8,0.7,4.13,0.05,8.6,0.38l0.9,0.41
							c9.13,0.6,19.2,1.12,29.31,1.84c-0.57,0.06-2.31,0.03,0.05,0.32c12.76,0.82,27.21,2.17,39.5,3.28l4.72,0.05
							c1.09,0.08,2.02,0.28,0.83,0.25c4.79,0.45,0.26-0.17,2.58-0.12c2.73,0.17,3.59,0.42,1.86,0.39
							c8.48,0.38,24.15,1.08,33.06,1.86l-1.75-0.01c6.95,0.51,7.88-0.17,14.31,0.39l-1.24,0c7.54,0.44,15.5,0.64,23,0.89
							c3.75,0.09,7.39,0.18,10.82,0.26c3.42,0.11,6.63,0.22,9.51,0.31c1.1-0.21,4.84-0.16,8.43-0.13c3.59,0.04,7.03-0.07,7.51-0.36
							c8.64,0.11,6.17,0.38,18.33,0.09c3.25-0.12,4.83-0.5,8.83-0.83l0.11,0.3l5.42-0.66l2.92,0.19l3.76-0.31
							c-1.5,0.08-3.19,0.06-2.97-0.04c2.93-0.21,6.51-0.52,9.37-0.67c2.87-0.16,5.02-0.22,5.1-0.15l3.46-0.37l3.45-0.46l6.9-0.92
							c-0.29,0.16-2.6,0.47-4.43,0.76c7.35-1.16,1.38,0.17,8.12-0.89c-0.92,0.03,0.47-0.24,0.61-0.32
							c3.39-0.28,11.05-1.32,16.68-2.32l-1.05,0.38c10.22-1.55,21.45-3.72,32.83-5.85c-4.1,0.66-3.23,0.13,0.1-0.53l1.39,0.07
							c2.12-0.6-3.51,0.53,0.87-0.54c4.26-0.76,2.92-0.17,0.5,0.39l5.14-1.08c0.32,0.04-0.88,0.32-1.17,0.5
							c2.08-0.6,8.97-1.35,11.97-2.27l0.31,0.04c11.37-2.09,16.5-3.13,25.78-4.67c0.13-0.32,3.78-0.84,6.52-1.47
							c1.71-0.23,3.47-0.47,5.28-0.71c1.81-0.21,3.66-0.43,5.56-0.65c3.79-0.48,7.77-0.84,11.9-1.34c5.8-0.74,1.67-0.41,4.28-0.83
							c0.45,0.22,8.73-0.56,4.45,0.02c9.95-0.79,12.71-1.07,25.32-1.42c-1.37-0.11-2.91-0.16-2.12-0.25
							c2.29-0.03,5.22,0.13,4.89,0.25l-0.6,0.02c7.09-0.27,15.27,0.29,23.05,0.96c3.89,0.39,7.69,0.76,11.22,1.11
							c3.52,0.43,6.78,0.77,9.6,0.95l-0.63-0.05c3.89,0.3,7.76,0.85,11.64,1.28c5.33,0.8-3.23-0.27,0.7,0.45
							c1.57,0.18,3.06,0.33,4.48,0.53c1.41,0.22,2.76,0.42,4.06,0.62c2.59,0.44,4.98,0.84,7.31,1.23c4.63,0.87,8.98,1.76,14.12,2.58
							c3.87,1.2,10.89,2.54,18.23,4.11c7.35,1.51,15.04,3.18,20.3,4.6l-0.57-0.31c2.78,0.45,3.3,0.85,5.31,1.35
							c-0.26-0.2-2.94-0.83-1.22-0.54c11.65,2.53,23.65,5.31,35.75,8.01c12.1,2.7,24.33,5.21,36.41,7.33
							c8.87,1.36,5.18-0.18,16.29,1.85l-3.22-0.13c2.24,0.28,4.5,0.57,6.77,0.85c2.26,0.3,4.53,0.62,6.82,0.82
							c4.57,0.48,9.15,0.95,13.73,1.43c2.29,0.24,4.57,0.49,6.85,0.73c2.28,0.16,4.56,0.32,6.83,0.48
							c4.53,0.31,9.02,0.59,13.44,0.82c-1.06,0-1.09,0.1-2.82-0.03c0.93,0.13,2.25,0.25,3.72,0.37c1.47,0.12,3.08,0.22,4.58,0.24
							c1.5,0.04,2.88,0.05,3.9,0.05s1.66-0.03,1.68-0.08c2.75,0.13,0.63,0.2,2.32,0.37c3.74,0.29,9.42,0.08,11.4,0.4
							c0.34,0.05-1.05,0.03-1.74,0.03c2.44,0.06,11.38,0.29,9.05-0.01c6.64,0.22,12.7,0.05,18,0.29c3.45-0.31,11.37,0.05,12.46-0.39
							c-0.24,0.23,2.67,0.29,6.17,0.27c1.75-0.01,3.64-0.05,5.36-0.1c1.72-0.07,3.26-0.17,4.31-0.25c-1.4,0.18,3.65,0.03,2.01,0.27
							c4.79-0.15,9.17-0.36,8.33-0.57c8.84,0.34,17.7-1.1,22.7-0.63c3.55-0.22,7.03-0.44,10.46-0.65c3.43-0.25,6.8-0.5,10.12-0.74
							c6.65-0.49,13.13-0.9,19.5-1.42c-0.22,0.23-3.74,0.51-7.14,0.73c-3.4,0.22-6.68,0.43-6.39,0.65c3.03-0.24,5.73-0.46,8.27-0.66
							c2.54-0.24,4.92-0.46,7.3-0.68c4.75-0.44,9.49-0.84,15.5-1.2c3.11-0.16-1.75,0.32-2.79,0.47c12.08-1.07,23.38-1.7,34.11-2.8
							c-0.03,0.04-1.18,0.18-2.28,0.3c2.12-0.18,4.93-0.33,4.68-0.51l-2.06,0.22c-3.41-0.03,8.36-1.29,8.73-1.48
							c-3.55,0.87,10.63-0.7,4.98,0.5c1.39-0.15,3.13-0.39,2.8-0.5c2.07-0.13,2.74-0.1,0.65,0.23c7.58-0.72,4.87-0.72,11.74-1.26
							c-0.02,0.1-1.4,0.25-2.1,0.42c3.46-0.47,6.95-0.94,12.76-1.32c-0.34,0.09,0.34,0.11-1.4,0.25c9.98-0.81,16.97-1.83,27.93-2.47
							c-3.2,0.66,3.74-0.12,4.34,0.21l5.88-0.52l-2.38-0.01c5.16-0.36,9.7-0.95,14.14-1.14l-3.82,0.42c3.22-0.26,6.44-0.48,9.67-0.7
							l-5.48,0.19c5.21-0.51-0.59-0.44,6.29-0.75c-1.39,0.12,5.16-0.31,7.87-0.25l-0.02,0c2.55-0.27,5.17-0.56,8.99-0.7
							c1,0.06-0.78,0.46-0.13,0.5c2.5-0.45,12.09-0.67,15.27-1.16c-1.06,0.13-1.11,0.33-0.76,0.35l2.1-0.36
							c2.4-0.03,2.75-0.01,2.37,0.16c7.2-0.29-2.31-0.39,6.24-0.55c-0.67,0.04-0.35,0.07-1.74,0.16c8.59-0.19,16.58-0.77,24.47-0.88
							c1.17,0.16-0.55,0.22-2.23,0.28c-1.68,0.08-3.32,0.14-1.98,0.25c5.68-0.22,11.57-0.44,17.41-0.67c2.92-0.11,5.83-0.23,8.7-0.3
							c2.87-0.05,5.69-0.09,8.45-0.09l-2.05-0.02c1.52-0.55,8.2,0.18,13.77-0.13c-1.36,0.05-1.79,0.31-1.42,0.25
							c7.54,0.03,15.42-0.12,26.84-0.26l-1.42,0.12c4.44,0.18,11.7,0.24,16.5,0.38c1.43-0.11,4.17-0.05,2.51-0.27
							c14.78,1.09,28.24,0.28,41.34,1.51c-1.57-0.06-3.74-0.03-2.5,0.02l11.18,0.33c-0.87-0.27-1.46-0.2-3.8-0.48
							c1.42-0.09,4.58-0.06,7.35,0.1c-5.03-0.11,0.03,0.37,2.19,0.62c-0.36-0.09,0.39-0.13,0.21-0.21c5.81,0.72,1-0.41,8.96,0.29
							l-0.43,0.1c2.99,0.1,5.74,0.07,8.96,0.3c1.32,0.34-3.18-0.07-3.4,0.15c4.52,0.22,8.94,0.06,13.01,0.59
							c-1.92-0.08-4.68-0.2-6.6-0.28c4.43,0.61,4.95,0.56,8.25,0.83l-0.32-0.03l7.63,0.64l-1.94-0.21c5.7-0.36,11.5,0.73,19.14,0.85
							c-7.42-0.15-1.24,0.15-1.83,0.41c1.93,0.24,4.88,0.56,4.03,0.58c3.61,0.04,5.98,0.64,11.07,0.77
							c0.22,0.12,3.84,0.36,3.01,0.53c4.67,0.35-1.09-0.27-0.68-0.36c7.22,0.32,16.87,1.91,27.24,2.59
							c8.93,0.74,10.61,0.56,18.89,1.39c2.77,0.48-2.32,0.09-2.32,0.09c4.48,0.67,7.86,1.04,12.11,1.43
							c-0.87-0.02,0.01,0.16,1.29,0.42c3.4,0.38,2.32-0.1,6.78,0.63c-0.78,0.01-1.79,0.05-3.44-0.05c4.01,0.4,7.98,0.8,12.14,1.22
							c1.08,0.31-2.53-0.07-4.01-0.15c4.66,0.53,12.08,1.42,13.55,1.34l-2.97-0.48c1.7,0.21,0.84,0.34-0.42,0.23
							c-4.02-0.31-5.74-0.84-5.95-0.97l2.96,0.32c-2.96-0.95-11.85-1.49-17.79-2.23l2.53-0.12l-6.14-0.37
							c-1.28-0.26-2.14-0.59,0.8-0.31c-4.24-0.7-3.79-0.3-7.43-0.95c-0.4-0.08-0.21-0.08,0.16-0.05l-4.18-0.37
							c0.83,0.01-0.66-0.37,1.89-0.01c-7.45-1.14-12.1-1.04-14.89-1.65l0.63,0.04c-10.41-0.94-1.04,0.2-8.87-0.26l-5.17-1.3
							l-1.05,0.2c-1.07-0.13-3.19-0.33-2.79-0.42c-4.01-0.16,0.67,0.19-1.67,0.18c-5.14-0.75-14.25-1.17-15.38-1.76
							c-1.87,0.06,4.92,0.63-0.6,0.29c-1.53-0.69-6.39-0.45-11.09-1.06c1.47-0.16,5.94,0.34,1.23-0.27
							c-2.89,0.23-9.19-0.82-13.19-1.05c-0.21,0.31-8.68-0.45-15.38-0.77c0.43-0.1-12.58-1.05-18.81-1.46l0.19-0.05
							c-1.23,0.3-7.65-0.11-12.33-0.28c0.19-0.21,1.04-0.25,3.58-0.22l-4.4-0.23c-1.04,0.06-2.42,0.08-5.28,0l1.12-0.23
							c-5.86-0.22-11.81-0.16-19.35-0.64c-0.43,0.25,5.97,0.93-2.01,0.83c-0.29-0.15-0.58-0.39,1.51-0.39
							c-0.68,0-2.44,0.05-3.82-0.05l3.19-0.14c-3.43-0.2-1.8,0.14-4.55,0.05c0.06-0.2-2.03-0.2-1.63-0.34c0.7,0,2.39,0.15,3.45,0.1
							c-3.1-0.12-6.84-0.34-8.07-0.53c0.27,0.12-0.01,0.27-2.28,0.23c-5.86-0.15-2-0.29-5.42-0.49c-1.42,0.08-5.16-0.13-5.27,0.17
							c-1.72-0.03-2.03-0.17-2.69-0.26c-3.04,0.08-14.18-0.18-10.76,0.19l0.78,0.03c-0.15,0-0.32,0-0.5,0.01c0.02,0,0,0,0.02,0
							l-0.02,0c-2.49,0.04-5.02,0.02-7.58-0.01c-2.56-0.03-5.14-0.05-7.72-0.08c-5.16-0.07-10.3-0.18-15.24-0.12l0.02-0.1
							c-5.89,0.17-13.11,0.2-17.32,0.45c-1.74,0.02-4.12-0.14-3.37-0.26c-4.5,0.13-5,0.29-11.51,0.26c4.52-0.28-1.57-0.12,4.64-0.23
							c-5.85,0.05-7.18-0.08-13.46,0.33c2.13-0.29-4.42-0.25-7.19-0.04c1.37,0.02,2.74,0.01,4.1,0.05c-3.13,0.1-5.86,0.19-8.64,0.28
							l1.49-0.39c-5.99,0.01-11.39,0.37-16.42,0.69c-5.03,0.37-9.71,0.71-14.28,0.59c-3.15,0.38,6.51-0.15,3.69,0.26
							c-5.5,0.22-11.26,0.01-12.99,0.11c-7.54,0.27-7,0.91-14.89,1.26c1.02,0.06,1.99,0.32-3.9,0.78c-5.51,0.29-6.8-0.07-3.33-0.39
							c1.32-0.09,1.96-0.09,1.91-0.05c1.78-0.15,4.11-0.34,1.92-0.34l-0.71,0.16c-2.74,0.02-10.31,0.57-8.54,0.25
							c-4.15,0.4-1.76,0.32,1.32,0.16c-7.07,0.32-11.02,0.77-18.29,1.16c1.16-0.02,2.23,0.05,1.08,0.13
							c-10.66,0.62-4.67,0.57-11.88,1.16c-4.11,0.13,1.44-0.54-5.81,0.16c-4.44,0.22-0.96-0.24,0.79-0.47
							c-6.6,0.73-12.37,0.8-16.15,1.06l3.48-0.37c-2.08,0.22-3.78,0.36-5.52,0.49l2.01,0.08c-2.05,0.12-3.78,0.26-3.75,0.16
							c-2.1,0.32,1.64,0.27-2.52,0.81c-2.74,0.1-8.29,0.79-9.26,0.55c8.58-0.58-0.97-0.24,6.28-0.87c-1.4,0.15-3.1,0.28-5.16,0.41
							c-0.31-0.01,0.28-0.09,0.84-0.15c-8.23,0.37-3.74,0.66-12.24,1.32c1.07-0.26-2-0.18-3.38-0.03c3.43-0.27,1.66,0.16-1.47,0.55
							c-5.46,0.3-5.92,0.57-8.77,0.78l3.26-0.19c-1.09,0.26-3.82,0.46-7.61,0.81c-0.34-0.11,3.44-0.36,2.08-0.32
							c-4.2,0.64-9.56,0.41-15.43,1.06c-2.73,0.09-0.29-0.31-2.69-0.21c-6.58,0.74-7.16,0.3-14.08,0.97
							c2.01,0.1,2.36,0.02-2.51,0.59l11.39-0.97l-7.29,0.86c3.44-0.23,7.25-0.65,9.31-0.78c-3.47,0.46-3.12,0.37-1.46,0.45
							c-4.73-0.01-9.32,0.86-14.78,1l0.13-0.6c-4.1,0.15-7.73,0.49-11.66,0.84c-3.93,0.32-8.18,0.68-13.49,0.92l3.42-0.1
							c-1.41,0.32-6.56,0.42-10,0.72c0.31-0.22-1.85-0.16-3.32-0.2c0.19,0.14-7.78,0.35-8.73,0.78l-4.76-0.04
							c-4.3,0.15-6.74,0.4-9.14,0.66c-2.4,0.25-4.77,0.45-8.9,0.54c2.48-0.29-1.28-0.32,4.25-0.63c-2.76,0.08-5.24,0.12-5.28,0.25
							c-1.61-0.08-7.64,0.49-10.18,0.38c-1.16,0.12-1.54,0.34-4.63,0.41c-0.34-0.04,0.01-0.1,0.01-0.1
							c-0.01,0.1-4.85,0.18-2.14,0.37c-8.51-0.54-23.76,0.35-31.15-0.41c-3.01-0.01-6.33-0.03-9.58-0.04
							c-1.62-0.01-3.23-0.01-4.77-0.04c-1.54-0.06-3.02-0.11-4.38-0.16c0.35-0.04,0.02-0.1,1.05-0.04
							c-7.52-0.49-4.65,0.38-13.22-0.18c-4.36-0.5,4.56,0.01,1.84-0.22c-0.58-0.35-3.17-0.43-6.33-0.5c-1.58-0.02-3.3-0.1-4.99-0.22
							c-1.68-0.11-3.33-0.26-4.77-0.45l1.4,0.06c-4.38-0.55-10.75-0.49-17.94-1.1c0,0,0.35-0.02,0.05-0.09
							c-4.93-0.19-14.23-1.06-21.14-1.69c2.18-0.03,3.15,0.2,1.87-0.2c-1.55-0.14-1.33-0.02-1.51,0.07
							c-0.09,0.05-0.27,0.08-0.82,0.07c-0.55,0-1.46-0.07-3-0.28c-1.98-0.42-6.4-1.18-6.95-1.54l5.79,0.81
							c-2.92-0.78-7.5-1.06-10.54-1.56l0.41-0.1c-4.44-0.61-6.71-0.82-9.06-1.06c-2.35-0.25-4.76-0.62-9.51-1.45l0.96,0.29
							c-5.26-0.53-4.32-0.95-9.53-1.67l-1.49-0.69c-1.72-0.28-4.72-0.78-8.07-1.33c-3.34-0.6-7.01-1.27-10.07-1.87
							c3.52,0.42,10.69,1.82,15.16,2.47c-3.39-0.62-11.48-2.31-13.28-2.48c1.37,0.25,3.1,0.51,4.43,0.85
							c-4.2-0.55-9.68-1.54-16.39-3.03c1.35-0.46-17.44-4.08-22.17-5.77c-11.92-2.41-23.5-5.45-37.4-8.28
							c4.81,1.59-4.06-0.81-3.33-0.04c-3.24-0.62-4.47-0.88-4.75-0.98l-9.77-2.22c-2.3-0.61,3.11,0.45,2.84,0.26
							c-7.1-1.37-2.93-0.84-7.62-1.84c0.93,0.38-2.54-0.11-6.59-0.87l5.68,1.24c-10.03-1.33-8.53-2.03-18.68-3.13l3.22,0.26
							c-5.18-0.72-19.16-2.53-24.33-2.42c-0.92-0.14-2.12-0.41,0.18-0.27c-12.47-1.38-27.85-1.02-37.57-1.22
							c0.32-0.06,0.63-0.13,0.95-0.17c-2.34,0.1-4.06,0.41-6.99,0.36c0.15-0.07,0.94-0.18-0.15-0.15c-0.62,0.06-2.17,0.13-3.94,0.3
							c-1.78,0.16-3.79,0.32-5.33,0.38l2.63-0.34c-12.21,0.56-18.64,1.95-28.76,3.34c-0.02-0.22-2.41-0.04-5.39,0.26
							c-2.98,0.32-6.54,0.83-8.91,1.15l0.16-0.09c-14.04,2.17-23.7,4.43-36.57,7.01c-8.1,1.03-27.15,4.95-40.1,6.78
							c1.98-0.26-0.26,0.41-2.55,0.81c-3.04,0.38-8.34,1.6-7.91,1.13l1.08-0.16c-1.17-0.01-3.31,0.21-5.77,0.53
							c-2.46,0.31-5.23,0.76-7.68,1l-0.74,0.62c-3.22,0.18-6.92,0.52-10.77,0.94c-3.86,0.36-7.87,0.74-11.71,1.1
							c-3.83,0.41-7.49,0.63-10.63,0.83c-3.14,0.18-5.76,0.28-7.52,0.22c-3.1,0.28-6.94,0.4-10.02,0.66l0.16-0.29
							c-2.15,0.06-4.03,0.12-5.81,0.17c-1.78,0.02-3.46,0.04-5.2,0.07c-3.48,0.03-7.21,0.18-12.53,0.19l2.17-0.2
							c-6-0.03-7.58,0.81-13.12,0.82l-1.66-0.44c-5.24-0.1-10.51-0.25-15.76-0.44c-5.25-0.23-10.49-0.35-15.67-0.38
							c0.17-0.05,0.49-0.16,2.18-0.1c-4.93-0.23-19.05-1.14-17.29-0.51c-0.1-0.4-10.8-0.6-16.46-0.81l0.9-0.22
							c-4.79,0.05-4.95,0.14-11.62-0.19c-1.58-0.14-1.37-0.31,0.72-0.11c-5.25-0.5-4.12-0.02-10.48-0.61l2.39-0.01
							c-5.41-0.4-4.99-0.28-7.98-0.28c-3.41-0.14-10.26-0.84-11.04-1.15c-0.74,0.1-3.72,0.09-6.9-0.24
							c-0.42-0.13,0.74-0.1,1.33-0.08c-9.03-0.89-13.47-0.72-19.67-1.48c-0.12-0.1-0.52-0.18-1.04-0.25
							c7.18,0.57,12.97,1.03,12.42,1.01c0.02-0.26-5.78-0.75-1.14-0.75c-4.67-0.17-12.67-0.37-18.32-0.93
							c-0.27-0.05-0.54-0.09-0.74-0.15l0.59,0.02c-1.3-0.13-2.47-0.19-3.58-0.23c-1.8-0.18-2.95-0.3-4.68-0.44
							c-0.65-0.26-6.65-0.63-9.54-0.85c0.22,0.3-3.57-0.02-0.03,0.47c-0.46-0.05,0.55,0,2.48,0.14c0.44,0.02,0.95,0.05,1.24,0.07
							c-0.06,0-0.13,0.01-0.2,0.01c1.9,0.14,4.38,0.32,7.2,0.53c-2.3-0.03-4.7-0.1-7.88-0.5c-1.5,0.06-3.15,0.12-4.08,0.15
							c-3.93-0.68-11.56-1.45-12.6-1.77c-4.43-0.24-9.64-0.53-14.44-0.8c-4.81-0.22-9.21-0.36-12-0.27
							c-2.52-0.08-2.88-0.33-3.82-0.46c1.46,0.02,3.18,0.14,3.97,0.11c-5.04-0.18-14.92-0.72-16.14-0.42
							c-6.34-0.47,3.58-0.2-5.14-0.5l1.18-0.07c-4.28-0.31-8.18-0.48-11.89-0.58c-3.72-0.08-7.27-0.03-10.88-0.02
							c-3.61,0.02-7.27,0.03-11.23,0.05c-3.95,0.01-8.19-0.14-12.96-0.25c1.32,0.04,1.98,0.05,2.25,0.11
							c-21.72-0.3-44.72,1.36-66.08,3.15c-6.08,0.49-6.7,0.88-10.36,1.54l-1.35-0.13l-6.25,1.18c-8.85,1.64-15.56,1.66-26.65,4.47
							l1.49-0.09c-4.05,0.66-12.64,2.97-12.03,2.56c-0.4,0.13-1.26,0.52-2.84,0.78l-0.16-0.12l-3.91,1.04l0.2,0.97l5.91-1.13
							c7.71-1.15-1.1,0.82,10.13-1c4.16-0.75,11.81-2.4,10.23-2.25c-1.69,0.27-4.32,0.61-4.47,0.47l3.8-0.71
							c0.62-0.57,3.47-1.53-5.95-0.31l-6.48,1.35l-2.14,0.12l5.49-0.92c-3.15,0.3-5.1,0.81-7.29,1.3c-0.54-0.03-1.47,0.04-2.78,0.2
							l-6.34,1.49c-0.72-0.05,2.08-0.67-0.4-0.37l0.52,2.47c0.26-0.05,0.63-0.13,1.09-0.22c2.9-0.9-2.93,0.28,1.92-1.02
							c3.12-0.53,2.27-0.14,5.83-1.18c0.53,0-0.21,0.25-1.63,0.64c1.59-0.45,3.71-0.97,5.63-1.46c1.92-0.5,3.67-0.83,4.48-1.14
							c3.28-0.39,10.91-2.25,10.67-1.75c1-0.29,5.67-1.29,8.66-1.81c-2.69,0.71,0.11,0.26,3.41-0.28c0.83-0.13,1.68-0.27,2.49-0.39
							c0.82-0.09,1.58-0.18,2.22-0.25c1.28-0.13,2.07-0.16,1.73,0.03c2-0.5,5.66-1.04,9.71-1.61c4.07-0.48,8.54-0.92,12.13-1.43
							c-0.4,0.08-1.19,0.24-1.83,0.28c2.03-0.19,3.35-0.28,4.48-0.35c1.14-0.04,2.09-0.07,3.4-0.11c0.49-0.43,6.83-1,10.24-1.5
							c2.51,0.02,1.76,0.19,0.58,0.37c-1.18,0.2-2.79,0.44-1.99,0.56c-0.14-0.13,2.02-0.43,4.01-0.58c1.99-0.17,3.79-0.33,2.94-0.42
							c3.84,0.04,3.3-0.06,5.29,0.17c0.65-0.5,3.56-0.31,6.72-0.69c5.55,0.08,1.44,0.42,7.53,0.09
							C124.92,168.11,119.52,168.44,119.52,168.44z M264.34,173.48L264.34,173.48c-1.25-0.08-2.31-0.16-2.99-0.21
							C261.97,173.31,262.83,173.37,264.34,173.48z M276.5,174.42c-1.48-0.12-3.32-0.27-5.27-0.42c-0.42-0.13,0.05-0.19,1.27-0.09
							C271.83,173.92,274.69,174.2,276.5,174.42z M250.93,170.49c1.93,0.11,2.57,0.21,2.83,0.29c-0.91-0.06-1.97-0.13-3.37-0.22
							c-0.06,0-0.17,0.01-0.23,0.02C250.34,170.53,250.56,170.5,250.93,170.49z"/>
						<path class="st2" d="M247.44,170.59c-0.28-0.01-0.43-0.02-0.8-0.04c0.39,0.05,0.76,0.1,1.14,0.15
							c0.24-0.01,0.48-0.02,0.69-0.04C248.12,170.64,247.76,170.61,247.44,170.59z"/>
						<path class="st2" d="M1346.43,177.32l-0.26-0.01c0.21,0.01,0.41,0.03,0.54,0.05C1346.54,177.34,1346.54,177.33,1346.43,177.32
							z"/>
						<polygon class="st2" points="444.8,180.56 444.78,180.49 443.72,180.62 						"/>
						<path class="st2" d="M1413.53,180.39c0.13,0.03,0.38,0.07,0.88,0.12C1414.37,180.49,1413.99,180.45,1413.53,180.39z"/>
						<path class="st2" d="M1442.48,182.15l4.09,0.37C1444.8,182.36,1443.51,182.24,1442.48,182.15z"/>
						<path class="st2" d="M1464.71,183.9c0.29-0.03,0.37-0.06,0.44-0.09c-0.02,0-0.03,0-0.04-0.01L1464.71,183.9z"/>
						<path class="st2" d="M1110.67,189.68c-0.3,0.03-0.59,0.06-0.86,0.08C1107.8,189.98,1109.17,189.85,1110.67,189.68z"/>
						<path class="st2" d="M1215.87,181.21c-1.12,0.11-2.21,0.22-3.38,0.34C1214.37,181.46,1215.82,181.38,1215.87,181.21z"/>
						<path class="st2" d="M992.97,196.89c0.01,0,0,0,0.01-0.01c-0.25,0.01-0.48,0.01-0.73,0.02L992.97,196.89z"/>
						<path class="st2" d="M1207.59,181.84c1.88-0.06,3.44-0.16,4.9-0.29C1210.95,181.63,1209.14,181.71,1207.59,181.84z"/>
						<path class="st2" d="M1560.79,194.23l1.06,0.15c-0.01-0.02,0.05-0.03,0.13-0.03L1560.79,194.23z"/>
						<path class="st2" d="M1561.98,194.36l1.19,0.12C1562.63,194.41,1562.16,194.35,1561.98,194.36z"/>
						<path class="st2" d="M1565.67,194.73l-2.5-0.26C1564.03,194.59,1565.1,194.74,1565.67,194.73z"/>
						<path class="st2" d="M1531.52,190.44l-0.35,0.06C1531.35,190.5,1531.48,190.48,1531.52,190.44z"/>
						<path class="st2" d="M1522.6,189.42c2.12,0.27,5.31,0.84,8.28,1.13l0.29-0.05C1529.76,190.49,1524.64,189.49,1522.6,189.42z"
							/>
						<path class="st2" d="M1485.46,184.42l7.48,0.77c-1.3-0.23-3.01-0.53,0.4-0.25C1483.94,183.76,1495.27,185.36,1485.46,184.42z"
							/>
						<path class="st2" d="M1462.23,182.32c4.03,0.27-0.03-0.16,0.18-0.21C1459.85,182.01,1459.23,181.98,1462.23,182.32z"/>
						<path class="st2" d="M1293.81,177.15l0.4-0.26C1291.1,176.99,1294.18,176.99,1293.81,177.15z"/>
						<polygon class="st2" points="1261.64,179.32 1264.68,179.37 1266.11,179.09 						"/>
						<polygon class="st2" points="1242.55,178.24 1243.91,178.14 1238.72,178.48 						"/>
						<path class="st2" d="M960.15,194.78l0.94,0.33C963.2,195.08,963.64,194.73,960.15,194.78z"/>
						<path class="st2" d="M838.66,185.1c-1.28-0.39-4.65-1.05-6.75-1.31C834.6,184.34,837.28,184.89,838.66,185.1z"/>
						<polygon class="st2" points="476.88,175.38 479.31,175 474.73,175.61 						"/>
					</g>
				</g>
			</g>
		</g>
	</g>
</g>
<g id="Layer_2">
	<g id="XMLID_1_">
		<g>
			<rect x="1465.59" y="55.33" class="st3" width="58" height="11"/>
		</g>
		<g>
		</g>
	</g>
	
		<rect x="1471.42" y="66.3" transform="matrix(0.9982 0.06 -0.06 0.9982 10.1522 -88.1957)" class="st3" width="3" height="117.13"/>
	
		<rect x="1514.17" y="64.24" transform="matrix(0.9975 -0.0712 0.0712 0.9975 -5.1485 108.1395)" class="st3" width="2.06" height="124.18"/>
	<rect x="1476.59" y="85.33" class="st3" width="36" height="2"/>
	<ellipse class="st3" cx="1502.09" cy="55.33" rx="12.5" ry="9"/>
	<rect x="1501.59" y="34.33" class="st3" width="3" height="14"/>
	
		<rect x="1499.59" y="22.33" transform="matrix(0.9274 -0.3741 0.3741 0.9274 98.0299 563.7075)" class="st3" width="3" height="14"/>
	<g>
		<path class="st3" d="M1489.85,37.59l-0.04-0.01c0,0,8.24-20.27,10.99-27.03c0.55-1.36,2.22-5.45,2.22-5.45l0.04,0.01
			L1489.85,37.59z"/>
		<g>
			<path class="st3" d="M1491.18,32.77c-0.01,0-0.02-0.01-0.04-0.01c1.16,2.05,2.33,4.1,3.49,6.15c4.4-10.82,8.8-21.65,13.2-32.47
				c-2.05,1.16-4.1,2.33-6.15,3.49c0.01,0,0.02,0.01,0.04,0.01c-1.16-2.05-2.33-4.1-3.49-6.15c-4.4,10.82-8.8,21.65-13.2,32.47
				c-2.42,5.96,7.25,8.55,9.64,2.66c4.4-10.82,8.8-21.65,13.2-32.47c1.1-2.7-1.24-5.23-3.49-6.15c-0.01,0-0.02-0.01-0.04-0.01
				c-2.7-1.1-5.23,1.24-6.15,3.49c-4.4,10.82-8.8,21.65-13.2,32.47c-1.1,2.7,1.24,5.23,3.49,6.15c0.01,0,0.02,0.01,0.04,0.01
				C1494.48,44.83,1497.07,35.16,1491.18,32.77z"/>
		</g>
	</g>
</g>
</svg>
