<?xml version="1.0" encoding="utf-8"?>
<!-- Generator: Adobe Illustrator 23.0.3, SVG Export Plug-In . SVG Version: 6.00 Build 0)  -->
<svg version="1.1" id="Layer_1" xmlns="http://www.w3.org/2000/svg" xmlns:xlink="http://www.w3.org/1999/xlink" x="0px" y="0px"
	 viewBox="0 0 1821.4 188.3" style="enable-background:new 0 0 1821.4 188.3;" xml:space="preserve">
<style type="text/css">
	.st0{display:none;}
	.st1{display:inline;}
	.st2{fill:#202020;}
	.st3{fill:#0F0F0F;}
</style>
<g>
	<g class="st0">
		<g class="st1">
			<g>
				<g>
					<g>
						<path class="st2" d="M1815.2,138.2c0.9-0.1,0.4-0.3-2.2-0.1l-1.8,0.4L1815.2,138.2z"/>
						<path class="st2" d="M1797.6,138.7c-3.1,0.4-6.6,0.8-4.6,1c3-0.5,3.8-0.4,7-1c2.6-0.2,4.6-0.2,4.1,0c0.9-0.1,4.1-0.2,5.5-0.5
							c-3.4,0-7.7,0.2-12.2,0.7C1796.5,138.9,1797.4,138.7,1797.6,138.7z"/>
						<path class="st2" d="M1542,146.2l1.7,0C1543.2,146.2,1542.6,146.2,1542,146.2z"/>
						<path class="st2" d="M1383.5,144.3c1.2,0,1.7,0,1.8,0C1384.2,144.2,1383.3,144.2,1383.5,144.3z"/>
						<path class="st2" d="M1356.5,143.4c0.6,0,1.1,0,1.6,0.1C1357.5,143.4,1356.9,143.3,1356.5,143.4z"/>
						<path class="st2" d="M1542,146.2l-4.2-0.1C1537.4,146.2,1539.9,146.2,1542,146.2z"/>
						<path class="st2" d="M1762.4,141.4c0.9-0.1,1.6-0.1,2.3-0.2c-0.7,0.1-1.4,0.1-2.2,0.1C1762.5,141.4,1762.5,141.4,1762.4,141.4
							z"/>
						<path class="st2" d="M1611.8,144.7l1.3,0c0.4-0.1,0.7-0.1,1.1-0.2L1611.8,144.7z"/>
						<path class="st2" d="M1665.4,143.2c-1.2,0-1.6,0.3-2.1,0.4c0.7-0.1,1.6-0.2,2.6-0.2C1666,143.3,1665.8,143.2,1665.4,143.2z"/>
						<path class="st2" d="M1750.4,140.8l1.5-0.1C1751.5,140.8,1750.8,140.8,1750.4,140.8z"/>
						<path class="st2" d="M1573.5,145.5c-0.1,0-0.3-0.1-0.5-0.1C1573,145.5,1573.2,145.5,1573.5,145.5z"/>
						<path class="st2" d="M75.5,141.9C75.5,141.9,75.4,141.9,75.5,141.9C75.1,141.9,75.1,142,75.5,141.9z"/>
						<path class="st2" d="M13.9,149.6l0.8-0.3c0.1-0.1,0.1-0.2,0.1-0.2L13.9,149.6z"/>
						<path class="st2" d="M1307,141.4c0.1,0,0.1,0,0.2,0C1308.6,141.5,1307.8,141.4,1307,141.4z"/>
						<path class="st2" d="M852.8,123.7c5.1,0.4-8.4,0-0.7,0.6C851.4,124.1,859.2,124.1,852.8,123.7z"/>
						<path class="st2" d="M1761,141.4c-0.7,0-1.5,0.1-2.2,0.1C1759.8,141.5,1760.5,141.5,1761,141.4z"/>
						<path class="st2" d="M852.2,124.3L852.2,124.3l0.8,0.1C852.6,124.3,852.4,124.3,852.2,124.3z"/>
						<path class="st2" d="M1193,137.3c0.2,0.1,0.7,0.1,1.2,0.2C1194.1,137.4,1193.9,137.4,1193,137.3z"/>
						<path class="st2" d="M1277.9,141l-2.1-0.1C1276.7,140.9,1277.3,140.9,1277.9,141z"/>
						<path class="st2" d="M1148.9,135.9c-1.1-0.1-1.5-0.1-3.1-0.1c0.1,0,0.3,0,0.5,0.1C1146.9,135.8,1147.6,135.8,1148.9,135.9z"/>
						<path class="st2" d="M1103,134.1c0.2,0,0.6,0.1,0.8,0.1c0.4,0,1,0,1.4,0L1103,134.1z"/>
						<path class="st2" d="M214.4,129c-1,0-1.6-0.1-2.1-0.1C213,129.1,206.3,129.6,214.4,129z"/>
						<path class="st2" d="M1762.4,141.3c-0.3,0.1-0.7,0.1-1.4,0.2c0.5,0,1-0.1,1.5-0.1C1762.7,141.3,1762.7,141.3,1762.4,141.3z"/>
						<path class="st2" d="M1147,138.1l-7.3-0.3C1141.7,137.8,1144.3,138,1147,138.1z"/>
						<path class="st2" d="M543.6,118.3l-1.7,0C542.5,118.3,543.1,118.3,543.6,118.3z"/>
						<path class="st2" d="M1118,136.9c-1.3-0.1-2.7-0.3-4.1-0.4c-0.3,0-0.7,0-0.8,0L1118,136.9z"/>
						<path class="st2" d="M212.2,128.9C212.3,128.9,212.3,128.9,212.2,128.9C212.3,128.9,212.3,128.9,212.2,128.9z"/>
						<path class="st2" d="M164.4,133.4c6.9-0.6,3.2-0.6,4.7-1c8.3-0.8,3.9-0.1,6.7-0.1c5.1-0.5,9.1-1.2,12.9-1.5c0.3,0,1,0,0.2,0.1
							c5.4-0.8,16.2-1.2,22.6-2.1c0.5,0,0.7,0,0.8,0c-1-0.1-1.2-0.3-1-0.4c3.1-0.2,5.8-0.7,6.9-0.5c-1.9,0.1-2.1,0.2-2.9,0.4
							l3.2-0.3c3,0.1-4.4,0.4-4.4,0.7c6.3-0.6,13.7-1.4,18.6-1.7c1,0.2-11.4,0.9-4.9,0.8l-7.5,0.4c5.8,0.1-4.6,0.3,0.8,0.5
							c9.9-0.6,11.1-1,21-1.5c2.2-0.3-0.8-0.2,1.5-0.6c14-1.2,11.1,0.2,21.4-0.9c2.7-0.4,3.7-0.9,11-1.1l-2.5,0.5
							c9.6-0.5,5.5-0.8,15.5-1.1c-1.8,0.2-7.5,0.5-6.1,0.5c6.5,0,4.6-0.5,9.6-0.7l1.1,0.3c10.2-0.6,21.5-1.4,32.8-1.9
							c-0.6,0.1-2.6,0.3,0.1,0.3c7.1-0.4,14.8-0.7,22.3-1c7.6-0.3,15.1-0.4,22-0.5l5.3-0.5c1.2,0,2.3,0.1,1,0.2
							c5.4-0.1,0.3-0.2,2.9-0.4c3.1-0.1,4,0,2.1,0.2c9.5-0.6,27-1.3,37-1.2l-2,0.1c7.8-0.1,8.8-0.8,16-0.7l-1.4,0.1
							c8.5-0.1,17.3-0.2,25.7-0.4c8.4-0.1,16.3-0.2,22.7,0c2.5-0.4,16.7,0.1,17.8-0.5c9.6,0.2,6.9,0.3,20.5,0.5
							c3.6,0,5.4-0.4,9.9-0.4l0.1,0.3l6.1-0.3l3.2,0.4l4.2-0.1c-1.7,0-3.6-0.1-3.3-0.2c3.3-0.1,7.3,0,10.5,0.1c1.6,0.1,3,0.1,4,0.2
							c1,0.1,1.6,0.1,1.7,0.1l15.5-0.1c-0.3,0.1-3,0.1-5,0.2c8.3-0.2,1.5,0.3,9.1,0.1c-1-0.1,0.5-0.2,0.7-0.2
							c3.8,0.2,12.4,0.3,18.8,0.3l-1.2,0.2c11.5,0.1,24.3,0.3,37.3,0.5c-4.6-0.2-3.6-0.5,0.2-0.5l1.5,0.4c2.5-0.2-4-0.2,1.1-0.4
							c4.8,0.1,3.2,0.4,0.5,0.5h5.9c0.3,0.1-1,0.1-1.4,0.2c2.4-0.1,10.1,0.6,13.6,0.3l0.3,0.1c12.9,0.2,18.8,0.4,29.3,0.6
							c0.2-0.3,4.3-0.1,7.5-0.2c7.7,0.3,16.3,0.8,25.7,1c6.6,0.1,1.9-0.2,4.9-0.3c0.5,0.3,9.8,0.5,5,0.6c11.2,0.3,14.3,0.4,28.5,0.6
							c-1.5-0.1-3.3-0.2-2.4-0.3c2.6,0,5.8,0.3,5.5,0.4l-0.7,0c15.9,0.1,36.7,1.9,49.3,1.9h-0.7l13.1,0.2c6,0.3-3.6,0.1,0.8,0.4
							c14.2,0.1,22.4,0.9,34,1c9,1.1,32,1.1,44.2,2.1l-0.7-0.2c3.2-0.1,3.8,0.2,6.1,0.4c-0.3-0.1-3.4-0.3-1.5-0.3
							c26.7,0.8,55,2.4,82.4,3.7c10,0.5,5.7-0.7,18.3,0.2l-3.6,0.2c20.2,0.4,41.3,1.7,61.1,2.2c-1.2,0-1.2,0.1-3.2,0
							c2.1,0.2,5.9,0.4,9.3,0.4c1.7,0,3.2,0.1,4.3,0.1s1.8,0,1.9-0.1c3.1,0.1,0.7,0.2,2.6,0.4c4.2,0.3,10.5,0.1,12.7,0.5
							c0.4,0.1-1.2,0-1.9,0c2.7,0,12.7,0.6,10.1,0.2c7.4,0.4,14.2,0.5,20.1,0.9c3.9-0.1,12.7,0.7,13.9,0.3c-0.6,0.4,13,0.9,17.7,0.9
							c-1.6,0.1,4.1,0.3,2.2,0.4c5.3,0.2,10.3,0.3,9.3,0.1c9.8,0.9,19.8,0.4,25.4,1.3c15.9,0.4,30.6,0.8,44.9,1.2
							c-0.5,0.4-15.8-0.6-15.2-0.1c13.6,0.3,21.4,0.2,34.9,0.9c3.5,0.2-2,0.1-3.2,0.1c13.6,0.3,26.2,1,38.3,1.2c0,0-1.3,0-2.6,0
							c2.4,0.1,5.5,0.3,5.3,0.1l-2.3,0c-3.8-0.4,9.5-0.3,9.9-0.4c-4.1,0.4,11.9,0.6,5.5,1.1c1.6,0,3.5,0,3.2-0.2
							c2.3,0.1,3.1,0.2,0.7,0.3c8.5,0.2,5.5-0.1,13.2,0.1c0,0.1-1.6,0.1-2.4,0.2c3.9-0.1,7.8-0.1,14.4,0.2c-0.4,0.1,0.4,0.1-1.6,0.1
							c11.2,0.4,19.1,0.1,31.4,0.6c-3.6,0.4,4.2,0.2,4.8,0.6l6.6,0l-2.7-0.2c5.8,0.1,10.9-0.1,15.9,0.2l-4.3,0.1l10.8,0.1l-6.1-0.2
							c5.9-0.1-0.6-0.5,7.1-0.2c-1.6,0,5.8,0.1,8.8,0.4h0c2.9-0.1,5.8-0.2,10.1,0c1.1,0.1-0.9,0.4-0.2,0.5
							c2.8-0.3,13.6,0.1,17.1-0.2c-1.2,0.1-1.3,0.3-0.9,0.3l2.4-0.2c2.7,0.1,3.1,0.2,2.6,0.3c8.1,0.1-2.6-0.5,7-0.2
							c-0.8,0-0.4,0.1-2,0.1c9.6,0.2,18.6,0.1,27.4,0.3c2.6,0.4-7.7,0-4.7,0.3c12.7,0.1,26.4,0,38.7,0.2l-2.3-0.1
							c1.7-0.5,9.2,0.4,15.4,0.2c-1.5,0-2,0.3-1.6,0.2c8.4,0.2,17.3,0,30.1-0.2l-1.6,0.1c5,0.1,13.1,0,18.5,0
							c1.6-0.1,4.7-0.2,2.8-0.3c16.6,0.6,31.6-0.9,46.3-0.6c-1.8,0.1-4.2,0.2-2.8,0.2l12.5-0.5c-1-0.2-1.7-0.1-4.3-0.2
							c1.6-0.2,5.1-0.4,8.2-0.5c-5.6,0.3,0.1,0.4,2.5,0.4c-0.4-0.1,0.4-0.2,0.2-0.2c6.6,0.2,1.1-0.5,10-0.5l-0.5,0.1
							c3.3-0.2,6.4-0.4,10-0.5c1.5,0.2-3.6,0.2-3.8,0.5c5.1-0.2,10-0.9,14.6-0.7c-2.2,0.1-5.2,0.2-7.4,0.4c5,0.1,5.6,0.1,9.3,0.1
							h-0.4l8.6,0l-2.2,0c6.3-0.8,12.9-0.4,21.4-1.1c-8.3,0.6-1.4,0.3-2,0.6c2.2,0,5.5,0,4.6,0.1c4-0.4,6.7,0,12.4-0.5
							c0.3,0.1,4.3-0.1,3.4,0.2c5.2-0.2-1.2-0.1-0.8-0.3c8.1-0.6,19-0.2,30.6-1.1c10-0.6,11.8-1,21.1-1.6c3.1,0-2.6,0.5-2.6,0.5
							c5.1-0.1,8.9-0.3,13.6-0.6c-1,0.1,0,0.2,1.5,0.2c3.8-0.2,2.5-0.5,7.6-0.6c-0.9,0.1-2,0.4-3.8,0.6c4.5-0.4,8.9-0.7,13.6-1.1
							c1.2,0.1-2.8,0.4-4.4,0.6c5.2-0.4,13.6-0.9,15.2-1.3l-3.4,0.1c1.9-0.1,1,0.2-0.4,0.3c-4.5,0.5-6.5,0.3-6.8,0.2l3.3-0.2
							c-3.4-0.4-13.3,0.8-20,1.1l2.8-0.6l-6.8,0.7c-1.5,0-2.5-0.2,0.8-0.4c-4.8,0-4.2,0.4-8.4,0.3c-0.5,0-0.2,0,0.2-0.1l-4.7,0.3
							c0.9-0.1-0.8-0.3,2.1-0.3c-8.4,0.1-13.6,0.9-16.7,0.7l0.7-0.1c-11.7,0.6-1.1,0.4-9.9,1l-5.9-0.5l-1.1,0.3
							c-1.2,0-3.6,0.1-3.2-0.1c-4.5,0.4,0.8,0.1-1.8,0.4c-5.8-0.1-16,0.6-17.3,0.2c-2.1,0.3,5.6,0-0.6,0.4
							c-1.8-0.5-7.2,0.3-12.5,0.2c1.6-0.3,6.7-0.3,1.3-0.4c-3.2,0.6-10.3,0.1-14.8,0.3c-0.2,0.4-9.7,0.4-17.2,0.6
							c0.5-0.2-14.1,0.3-21.1,0.4l0.2-0.1c-1.3,0.4-8.5,0.6-13.8,0.8c0.2-0.2,1.1-0.3,4-0.5l-4.9,0.1c-1.2,0.1-2.7,0.3-5.9,0.4
							l1.2-0.3c-6.6,0.2-13.2,0.7-21.6,0.7c-0.5,0.3,6.7,0.6-2.2,0.9c-0.3-0.1-0.7-0.4,1.7-0.5c-0.8,0-2.7,0.2-4.3,0.1l3.6-0.3
							c-3.8,0-2,0.2-5.1,0.3c0.1-0.2-2.3-0.1-1.8-0.3c0.8,0,2.7,0,3.9-0.1c-3.5,0-7.7,0-9-0.1c0.3,0.1,0,0.3-2.5,0.3
							c-6.6,0.1-2.2-0.2-6.1-0.2c-1.6,0.2-5.8,0.1-5.9,0.4c-1.9,0-2.3-0.1-3-0.2c-3.4,0.2-15.9,0.2-12,0.5l0.9,0c-0.2,0-0.3,0-0.6,0
							c0,0,0,0,0,0h0c-11.1,0.4-23.1-0.1-34.2-0.1l0-0.1c-6.6,0.1-14.7-0.1-19.4,0.1c-1.9,0-4.6-0.2-3.8-0.4c-5,0-5.6,0.1-12.9-0.2
							c5.1-0.1-1.8-0.2,5.2,0c-6.6-0.2-8-0.4-15.1-0.2c2.4-0.2-4.9-0.4-8-0.4l4.6,0.2c-3.5,0-6.6-0.1-9.7-0.1l1.7-0.3
							c-13.4-0.6-24.2,0.4-34.4-0.4c-3.6,0.2,7.3,0.3,4.1,0.5c-6.2-0.1-12.6-0.7-14.5-0.7c-8.4-0.3-7.9,0.4-16.7,0.1
							c1.1,0.1,2.2,0.5-4.4,0.5c-6.2-0.1-7.6-0.6-3.7-0.6c1.5,0,2.2,0.1,2.1,0.1c2,0,4.6,0,2.2-0.2l-0.8,0.1
							c-3.1-0.2-11.5-0.3-9.6-0.5c-4.7,0-2,0.2,1.4,0.3c-7.9-0.3-12.4-0.2-20.5-0.5c1.3,0.1,2.5,0.3,1.2,0.2
							c-11.9-0.4-5.3,0.1-13.3-0.1c-4.6-0.3,1.7-0.4-6.5-0.5c-5-0.3-1-0.4,0.9-0.4c-7.4,0-13.8-0.6-18.1-0.8l3.9,0
							c-2.3,0-4.2-0.1-6.2-0.2l2.2,0.3c-2.3-0.1-4.2-0.2-4.2-0.3c-2.4,0.1,1.8,0.5-2.9,0.5c-3.1-0.2-9.3-0.2-10.4-0.6
							c9.6,0.4-1.1-0.4,7.1-0.1c-1.6,0-3.5-0.1-5.8-0.2c-0.3-0.1,0.3-0.1,1-0.1c-9.2-0.6-4.2,0.2-13.8-0.1c1.2-0.1-2.2-0.4-3.8-0.4
							c3.8,0.1,1.8,0.4-1.7,0.4c-6.1-0.4-6.7-0.1-9.8-0.3l3.7,0.2c-1.2,0.1-4.3,0-8.6-0.1c-0.4-0.1,3.9,0.1,2.4-0.1
							c-4.8,0.1-10.7-0.7-17.3-0.8c-3.1-0.2-0.3-0.3-3-0.5c-7.4-0.1-8-0.5-15.8-0.6c2.2,0.3,2.6,0.3-2.9,0.3l12.8,0.3l-8.2,0
							c3.9,0.1,8.2,0.2,10.5,0.3c-3.9,0.1-3.5,0-1.7,0.3c-5.3-0.6-10.5-0.2-16.6-0.7l0.2-0.6c-9.2-0.6-16.3-0.3-28.2-0.9l3.8,0.2
							c-1.6,0.2-7.4-0.3-11.2-0.3c0.4-0.2-2-0.4-3.7-0.5c0.2,0.1-8.7-0.4-9.8,0l-5.3-0.5c-9.6-0.5-11,0.1-20.2-0.3
							c2.8-0.1-1.4-0.4,4.8-0.3c-3.1-0.1-5.9-0.3-5.9-0.1c-1.8-0.2-8.6-0.1-11.4-0.4c-1.3,0-1.7,0.2-5.2,0.1c-0.4-0.1,0-0.1,0-0.1
							c0,0.1-5.4-0.1-2.4,0.2c-9.5-1-26.6-1-34.8-1.9c-6.7-0.2-14.9-0.5-21-0.7c0.4,0,0-0.1,1.2,0c-8.4-0.5-5.2,0.4-14.8-0.2
							c-4.9-0.5,5.1,0,2.1-0.2c-1.3-0.7-11.6-0.4-18-1l1.6,0c-4.9-0.4-12.1-0.2-20.1-0.6c0,0,0.4,0,0.1-0.1
							c-5.5,0.1-16-0.2-23.8-0.4c2.4-0.2,3.5,0,2.1-0.3c-3.5-0.1,1,0.5-6,0.2c-2.2-0.2-7.3-0.6-7.9-0.9l6.5,0.2
							c-3.3-0.5-8.5-0.3-11.9-0.5l0.5-0.1c-10-0.4-10.2,0-21-0.4l1.1,0.2c-5.9,0.1-4.9-0.4-10.8-0.4l-1.8-0.5
							c-3.9-0.1-13.6-0.2-20.6-0.4c4-0.1,12.1,0,17.2,0.1c-3.9-0.2-13.1-0.5-15.1-0.4c1.6,0,3.5,0,5,0.1c-4.7,0.1-11,0-18.7-0.3
							c1.4-0.7-20-1-25.6-1.8c-13.6-0.2-27-1.2-42.8-1.7c5.6,0.8-4.6-0.1-3.7,0.5c-3.7-0.1-5.1-0.2-5.4-0.2l-11.2-0.8
							c-2.6-0.3,3.5,0,3.2-0.1c-8.1-0.3-3.4-0.4-8.7-0.7c1.1,0.3-2.8,0.2-7.4,0l6.5,0.5c-11.3-0.1-9.7-0.9-21.1-0.9l3.6-0.1
							c-5.8-0.1-21.5-0.8-27.3-0.5c-1-0.1-2.4-0.3,0.2-0.3c-14-0.5-31.1-0.5-41.9-1.2l1.1-0.1c-2.6,0-4.5,0.1-7.8-0.1
							c0.2-0.1,1-0.1-0.2-0.2c-1.4,0-6.9,0.1-10.4-0.1l3-0.1c-13.6-0.6-20.9-0.2-32.3-0.5c0-0.4-10.7-0.9-16-1.1l0.2-0.1
							c-15.9-0.5-27-0.3-41.6-0.5c-9.1-0.7-30.9-0.7-45.5-1.3c2.2,0.1-0.4,0.3-3,0.4c-3.4-0.1-9.5,0.2-9-0.2l1.2,0
							c-2.6-0.4-9.7-0.4-15.2-0.4l-0.9,0.5c-14.4-1-37.8,0.1-45.7-0.6c-3.5,0.1-7.8,0.1-11.2,0.2l0.2-0.3c-9.6,0-14.5,0-26.4,0.1
							l2.4-0.2c-6.7,0-8.5,0.9-14.7,0.9l-1.9-0.4c-11.7,0.2-23.6,0-35.2,0.5c0.2-0.1,0.5-0.2,2.4-0.2c-5.5,0-21.4,0.2-19.4,0.7
							c-0.1-0.4-12.1,0.2-18.5,0.6l1-0.3c-5.3,0.5-5.5,0.6-13,0.9c-1.8,0-1.6-0.2,0.8-0.2c-5.9,0.1-4.6,0.4-11.7,0.5l2.7-0.3
							c-6.1,0.2-5.6,0.3-8.9,0.6c-3.8,0.2-11.5,0.3-12.4,0.1c-0.8,0.2-4.1,0.5-7.7,0.5c-0.5-0.1,0.8-0.2,1.5-0.2
							c-10.1,0.2-15.1,0.9-22.1,1c-0.1-0.1-0.6-0.1-1.2-0.1c8.1-0.3,14.5-0.6,13.9-0.5c0-0.3-6.5,0-1.4-0.6
							c-5.2,0.4-14.1,1.2-20.5,1.4c-0.3,0-0.6,0-0.8-0.1l0.7-0.1c-1.5,0-2.8,0.1-4,0.2c-2,0-3.3,0.1-5.3,0.1
							c-0.8-0.2-7.5,0.3-10.7,0.4c0.3,0.3-4,0.4,0,0.5c-0.5,0,0.6-0.1,2.8-0.2c0.5,0,1.1-0.1,1.4-0.1c-0.1,0-0.1,0-0.2,0
							c2.1-0.1,4.9-0.3,8.1-0.4c-2.6,0.2-5.2,0.5-8.8,0.5c-1.7,0.3-3.5,0.6-4.5,0.7c-4.5-0.2-13,0.1-14.2-0.1
							c-5,0.3-10.8,0.7-16.1,1c-5.4,0.4-10.3,0.8-13.4,1.3c-2.8,0.2-3.2,0.1-4.3,0c1.6-0.1,3.6-0.3,4.4-0.4
							c-5.6,0.5-16.7,1.1-18,1.6c-7.1,0.3,4-0.6-5.8,0.1l1.3-0.2c-9.6,0.3-17.4,1.2-25.4,2c-4,0.4-8.1,0.8-12.5,1.2
							c-4.4,0.3-9.1,0.6-14.5,0.9c1.5-0.1,2.2-0.1,2.5-0.1c-12.1,0.9-24.6,2-37,3.1c-12.4,1.2-24.8,2.5-36.7,3.4
							c-6.8,0.5-7.5,0.9-11.6,1.5l-1.5-0.1l-7,1.1c-5,0.7-9.4,0.9-14.1,1.3c-2.3,0.2-4.8,0.4-7.4,0.6c-1.3,0.1-2.7,0.2-4.1,0.5
							c-1.4,0.2-2.9,0.5-4.5,0.8l1.7,0c-4.5,0.6-14.4,2.1-13.6,1.8c-0.5,0.1-1.5,0.4-3.2,0.5l-0.2-0.1c-3.7,0.6-7.4,1.1-11.1,1.6
							c-4.3,0.4-4,0.2-4.2,0c-0.1-0.1-0.3-0.1-1.3-0.1c-0.5,0-1.2,0.1-2.1,0.1c-0.5,0-1,0.1-1.6,0.1c-0.2,0-0.3,0-0.5,0l-0.2,0
							c-0.1,0-0.3,0-0.4,0.1c-0.4,0.1-0.7,0.2-1.1,0.3c-2.3,0.6-5.6,1.4-8,2.2s-4.1,1.6-3.2,1.3c1.8-0.7,4.7-1.3,4.9-1.2
							c-1.4,0.4-2.8,0.8-4.1,1.3c-0.3,0.3-1.2,0.9-0.7,1c0.5,0.1,2.1-0.4,7.3-1.5l3.6-1l1.8-0.5c0.1,0,0.1,0,0.3-0.1l0.5-0.1
							l0.9-0.1l2.4,0l-3.1,0.3l-0.8,0.1c-0.1,0,0,0-0.2,0l-0.4,0.1l-1.5,0.4c0.4-0.1,0.9-0.2,1.2-0.2c0.2,0,0.4-0.1,0.6-0.1l0.2,0
							l0.1,0c0.8-0.1,1.4-0.1,2.1-0.2c1.3-0.1,2.5-0.3,3.7-0.5c0.6,0.1,1.7,0.1,3.1-0.1c2.4-0.4,4.8-0.8,7.2-1.2
							c0.9,0.1-3.2,0.7,1.7,0.3c3.4-0.6-3.3,0,2.3-0.8c3.5-0.2,2.5,0.1,6.7-0.6c0.6,0-0.3,0.2-1.9,0.5c3.7-0.6,9.7-1.4,11.6-1.9
							c1.9-0.1,4.9-0.6,7.5-0.9c2.6-0.3,4.7-0.5,4.6-0.2c1.1-0.2,6.4-1,9.8-1.4c-6.1,1.2,12.7-1.3,11.1-0.6c2.3-0.5,6.4-1,10.9-1.5
							c4.6-0.5,9.6-1,13.6-1.5c-0.4,0.1-1.3,0.2-2.1,0.3c4.6-0.4,5.9-0.4,8.8-0.6c0.6-0.4,7.6-1.2,11.5-1.8c5.6-0.2-3.4,0.8-1.6,1
							c-0.3-0.3,9.7-1.2,7.8-1.3c4.3-0.2,3.7-0.2,5.9-0.1c0.7-0.6,4-0.4,7.5-1c6.2-0.3,1.6,0.3,8.4-0.4
							C170.4,132.7,164.4,133.4,164.4,133.4z M326.3,122.1L326.3,122.1c-1.4,0.1-2.6,0.1-3.4,0.2
							C323.7,122.2,324.7,122.1,326.3,122.1z M340,121.5c-1.7,0.1-3.7,0.1-5.9,0.2c-0.5-0.1,0-0.2,1.4-0.2
							C334.7,121.6,337.9,121.5,340,121.5z M311.1,120.8c2.2-0.2,2.9-0.1,3.2-0.1c-1,0-2.2,0.1-3.8,0.2c-0.1,0-0.2,0-0.2,0.1
							C310.4,120.9,310.6,120.8,311.1,120.8z"/>
						<path class="st2" d="M307.2,121.3c-0.3,0-0.5,0-0.9,0.1c0.4,0,0.9,0,1.3,0c0.3,0,0.5-0.1,0.8-0.1
							C308,121.3,307.6,121.3,307.2,121.3z"/>
						<path class="st2" d="M1543.9,146.2l-0.3,0c0.2,0,0.5,0,0.6,0C1544,146.3,1544,146.3,1543.9,146.2z"/>
						<polygon class="st2" points="528.4,118.4 528.4,118.3 527.2,118.4 						"/>
						<path class="st2" d="M1619.1,145.8c0.1,0,0.4,0,1,0C1620,145.8,1619.6,145.8,1619.1,145.8z"/>
						<path class="st2" d="M1651.5,144.8l4.6,0C1654.1,144.8,1652.7,144.8,1651.5,144.8z"/>
						<path class="st2" d="M1676.5,144.4c0.3-0.1,0.4-0.1,0.5-0.1c0,0,0,0-0.1,0L1676.5,144.4z"/>
						<path class="st2" d="M1279.6,142.9c-0.3,0-0.7,0-1,0C1276.4,142.8,1277.9,142.9,1279.6,142.9z"/>
						<path class="st2" d="M1397.7,145.6c-1.2,0-2.5,0.1-3.8,0.1C1396,145.7,1397.6,145.7,1397.7,145.6z"/>
						<path class="st2" d="M1147.7,138.1C1147.8,138.1,1147.7,138.1,1147.7,138.1c-0.3,0-0.5,0-0.8,0L1147.7,138.1z"/>
						<path class="st2" d="M1388.4,145.5c2.1,0.1,3.9,0.1,5.5,0.1C1392.2,145.6,1390.1,145.5,1388.4,145.5z"/>
						<path class="st2" d="M1784.7,140.3l1.2-0.1c0,0,0.1,0,0.1-0.1L1784.7,140.3z"/>
						<path class="st2" d="M1786,140.2l1.3-0.1C1786.7,140.1,1786.2,140.1,1786,140.2z"/>
						<path class="st2" d="M1790.1,139.8l-2.8,0.2C1788.3,140,1789.5,139.9,1790.1,139.8z"/>
						<path class="st2" d="M1751.6,141.8l-0.4,0.1C1751.5,141.9,1751.6,141.9,1751.6,141.8z"/>
						<path class="st2" d="M1741.6,142.3c2.4-0.1,6-0.1,9.3-0.3l0.3-0.1C1749.7,142.2,1743.9,142,1741.6,142.3z"/>
						<path class="st2" d="M1699.7,142.6l8.4-0.2c-1.5-0.1-3.4-0.1,0.4-0.3C1697.9,142.1,1710.7,142.3,1699.7,142.6z"/>
						<path class="st2" d="M1673.6,143.1c4.5-0.2-0.1-0.2,0.2-0.2C1670.9,143.1,1670.2,143.1,1673.6,143.1z"/>
						<path class="st2" d="M1485,145.7l0.5-0.2C1482,145.4,1485.5,145.6,1485,145.7z"/>
						<polygon class="st2" points="1449,146.5 1452.4,146.7 1454,146.5 						"/>
						<polygon class="st2" points="1427.7,144.4 1429.2,144.4 1423.4,144.4 						"/>
						<path class="st2" d="M1111.2,134.1l1,0.4C1114.6,134.5,1115.1,134.2,1111.2,134.1z"/>
						<path class="st2" d="M974.5,128.9c-1.5-0.2-5.3-0.5-7.7-0.4C969.9,128.6,973,128.8,974.5,128.9z"/>
						<polygon class="st2" points="564.6,116 567.4,115.9 562.2,115.9 						"/>
					</g>
				</g>
			</g>
		</g>
	</g>
	<g>
		<g>
			<g>
				<g>
					<g>
						<path class="st2" d="M1820.9,153.8c0.9-0.1,0.4-0.3-2.2-0.1l-1.9,0.4L1820.9,153.8z"/>
						<path class="st2" d="M1803.1,154.1c-3.1,0.3-6.7,0.8-4.6,1c3.1-0.5,3.8-0.4,7.1-0.9c2.6-0.2,4.6-0.1,4.2,0
							c0.9-0.1,4.1-0.1,5.5-0.4c-3.4-0.1-7.8,0.1-12.3,0.6C1802,154.3,1802.9,154.2,1803.1,154.1z"/>
						<path class="st2" d="M1544.8,166.2l1.7,0C1546.1,166.1,1545.5,166.1,1544.8,166.2z"/>
						<path class="st2" d="M1384.8,173c1.2-0.1,1.7-0.1,1.8-0.1C1385.4,172.9,1384.5,173,1384.8,173z"/>
						<path class="st2" d="M1357.4,173.4c0.6,0,1.1,0,1.6,0C1358.4,173.3,1357.8,173.3,1357.4,173.4z"/>
						<path class="st2" d="M1544.8,166.2l-4.3,0.1C1540.3,166.4,1542.8,166.2,1544.8,166.2z"/>
						<path class="st2" d="M1767.6,156.6c0.9-0.1,1.6-0.1,2.3-0.2c-0.7,0.1-1.4,0.1-2.2,0.1C1767.7,156.6,1767.6,156.6,1767.6,156.6
							z"/>
						<path class="st2" d="M1615.4,162.5l1.3-0.1c0.4-0.1,0.7-0.1,1.1-0.2L1615.4,162.5z"/>
						<path class="st2" d="M1669.5,159.8c-1.2,0.1-1.6,0.4-2.1,0.5c0.7-0.1,1.6-0.2,2.7-0.3C1670.1,159.9,1669.9,159.8,1669.5,159.8
							z"/>
						<path class="st2" d="M1755.4,156.1l1.5-0.1C1756.5,156,1755.8,156,1755.4,156.1z"/>
						<path class="st2" d="M1576.6,164.3c-0.1,0-0.3-0.1-0.5-0.1C1576.1,164.2,1576.3,164.3,1576.6,164.3z"/>
						<path class="st2" d="M62.6,163.6C62.6,163.5,62.6,163.5,62.6,163.6C62.3,163.6,62.2,163.6,62.6,163.6z"/>
						<path class="st2" d="M0.2,170.9l0.9-0.1c0.1-0.1,0.2-0.1,0.2-0.2L0.2,170.9z"/>
						<path class="st2" d="M1307.4,173.8c0.1,0,0.1,0,0.2,0C1308.9,173.7,1308.2,173.7,1307.4,173.8z"/>
						<path class="st2" d="M848.3,158.4c5.2,0.5-8.5-0.1-0.7,0.6C846.9,158.8,854.7,159,848.3,158.4z"/>
						<path class="st2" d="M1766.1,156.7c-0.7,0-1.5,0.1-2.2,0.1C1764.9,156.7,1765.6,156.7,1766.1,156.7z"/>
						<path class="st2" d="M847.6,159L847.6,159l0.8,0.1C848.1,159,847.9,159,847.6,159z"/>
						<path class="st2" d="M1192.1,173.3c0.2,0.1,0.7,0.1,1.2,0.1C1193.2,173.4,1193,173.3,1192.1,173.3z"/>
						<path class="st2" d="M1278,174.5l-2.1-0.1C1276.7,174.5,1277.4,174.5,1278,174.5z"/>
						<path class="st2" d="M1147.5,172.6c-1.2-0.1-1.6-0.1-3.1-0.1c0.2,0,0.3,0,0.5,0.1C1145.4,172.5,1146.2,172.5,1147.5,172.6z"/>
						<path class="st2" d="M1101.1,171.1c0.2,0,0.6,0.1,0.8,0.1c0.5,0,1,0,1.5,0L1101.1,171.1z"/>
						<path class="st2" d="M203,150.1c-1,0-1.7-0.1-2.1-0.1C201.5,150.2,194.7,150.7,203,150.1z"/>
						<path class="st2" d="M1767.5,156.5c-0.3,0.1-0.7,0.1-1.4,0.2c0.5,0,1-0.1,1.5-0.1C1767.8,156.5,1767.9,156.5,1767.5,156.5z"/>
						<path class="st2" d="M1145.6,174.8l-7.4-0.3C1140.2,174.6,1142.9,174.7,1145.6,174.8z"/>
						<path class="st2" d="M535.8,146l-1.7,0C534.8,146,535.4,146.1,535.8,146z"/>
						<path class="st2" d="M1116.3,173.9c-1.3-0.1-2.7-0.2-4.2-0.3c-0.3,0-0.7,0-0.9,0.1L1116.3,173.9z"/>
						<path class="st2" d="M200.8,150C200.8,150,200.8,150,200.8,150C200.8,150,200.8,150,200.8,150z"/>
						<path class="st2" d="M152.4,154.3c7-0.6,3.3-0.6,4.7-1c8.4-0.8,3.9-0.1,6.8-0.1c5.2-0.6,9.2-1.1,13.1-1.4c0.3,0,1.1,0,0.2,0.1
							c5.5-0.7,16.4-1.2,22.8-2c0.5,0,0.7,0,0.9,0c-1.1-0.1-1.2-0.3-1-0.4c3.1-0.2,5.8-0.6,7-0.5c-1.9,0.1-2.1,0.2-3,0.4l3.3-0.3
							c3,0.1-4.5,0.4-4.5,0.7c6.4-0.6,13.9-1.3,18.8-1.4c1.1,0.3-11.5,0.7-4.9,0.7c-2.5,0.1-5.1,0.2-7.6,0.3
							c5.9,0.1-4.6,0.3,0.8,0.5c10-0.5,11.2-0.8,21.2-1.2c2.2-0.3-0.8-0.2,1.5-0.6c14.2-1.1,11.2,0.2,21.7-0.8
							c2.7-0.3,3.7-0.8,11.2-0.9l-2.5,0.5c9.7-0.3,5.5-0.8,15.7-0.9c-1.8,0.2-7.6,0.4-6.2,0.4c6.6,0.1,4.6-0.4,9.7-0.6l1.1,0.3
							c5.2-0.2,10.6-0.6,16.2-0.8c5.6-0.2,11.3-0.4,17-0.6c-0.6,0.1-2.6,0.3,0.1,0.3c7.2-0.3,14.9-0.5,22.6-0.6c7.6,0,15.2,0,22.2,0
							l5.3-0.4c1.2,0,2.3,0.1,1,0.2c5.4,0,0.3-0.2,2.9-0.3c3.1-0.1,4.1,0.1,2.1,0.2c2.4-0.1,5.3-0.2,8.5-0.3c3.2-0.1,6.6-0.1,10-0.1
							c6.9-0.1,13.9-0.1,18.9,0.1l-2,0.1c7.9,0.1,8.9-0.6,16.2-0.3l-1.4,0c8.5,0.1,17.5,0.2,26,0.3c8.5,0.1,16.5,0.2,23,0.6
							c2.5-0.4,16.9,0.5,18-0.1c9.8,0.5,7,0.5,20.7,1c3.7,0.1,5.5-0.2,10-0.1l0.1,0.3l6.2-0.1l3.3,0.5l4.3,0
							c-1.7-0.1-3.6-0.2-3.3-0.3c3.3,0,7.4,0.2,10.6,0.4c1.6,0.1,3,0.2,4,0.3s1.7,0.1,1.7,0.2c5.2,0.1,10.5,0.2,15.7,0.3
							c-0.3,0.1-3,0.1-5.1,0.1c8.4,0,1.5,0.4,9.2,0.4c-1-0.1,0.6-0.2,0.7-0.2c3.8,0.3,12.5,0.6,19,0.8l-1.2,0.2
							c11.7,0.4,24.6,0.9,37.7,1.4c-4.7-0.3-3.6-0.6,0.2-0.5l1.5,0.4c2.5-0.1-4-0.3,1.1-0.3c4.9,0.2,3.3,0.5,0.5,0.5l5.9,0.1
							c0.3,0.1-1,0.1-1.4,0.2c2.5-0.1,10.2,0.8,13.8,0.6l0.3,0.1c13.1,0.6,19,0.8,29.7,1.2c0.2-0.3,4.4,0,7.6-0.1
							c7.8,0.5,16.5,1.1,25.9,1.6c6.6,0.2,2-0.1,4.9-0.2c0.5,0.3,9.9,0.7,5,0.7c11.3,0.5,14.5,0.7,28.8,1.3
							c-1.5-0.2-3.3-0.3-2.4-0.4c2.6,0.1,5.9,0.4,5.5,0.5l-0.7,0c16.1,0.4,37,2.8,49.8,2.9l-0.7,0l13.3,0.4c6.1,0.4-3.7,0,0.8,0.4
							c14.3,0.4,22.6,1.3,34.4,1.7c9.1,1.3,32.4,1.7,44.6,2.9l-0.7-0.2c3.2,0,3.8,0.3,6.2,0.5c-0.3-0.2-3.4-0.4-1.5-0.3
							c13.5,0.6,27.4,1.4,41.4,2.3c14,0.8,28.1,1.7,41.9,2.5c10.1,0.5,5.8-0.6,18.5,0.4l-3.6,0.2c10.2,0.3,20.6,0.8,31,1.3
							c10.4,0.5,20.7,0.9,30.7,1.2c-1.2,0-1.2,0.1-3.2,0c2.1,0.2,6,0.4,9.4,0.5c1.7,0.1,3.3,0.1,4.4,0.1c1.2,0,1.9,0,1.9-0.1
							c3.1,0.1,0.7,0.2,2.6,0.4c4.2,0.3,10.6,0.1,12.9,0.4c0.4,0.1-1.2,0-2,0c2.8,0,12.8,0.5,10.2,0.1c7.5,0.4,14.3,0.4,20.3,0.8
							c3.9-0.2,12.8,0.6,14.1,0.1c-0.6,0.4,13.1,0.8,17.9,0.7c-1.6,0.1,4.1,0.3,2.2,0.4c5.4,0.2,10.4,0.2,9.4-0.1
							c10,0.8,20.1,0,25.7,0.9c4,0,8,0.1,11.8,0.1c3.9,0,7.7,0,11.5,0c7.5,0,14.9,0.1,22.1,0.1c-0.5,0.4-16-0.2-15.4,0.3
							c6.9,0,12.3-0.1,17.7-0.1c2.7,0,5.4,0,8.3,0c2.9,0,5.9,0,9.3,0c3.5,0.1-2,0.2-3.2,0.3c13.7-0.1,26.5,0.2,38.7-0.1
							c0,0-0.3,0.1-0.8,0.1s-1.1,0-1.8,0.1c2.4,0,5.6,0,5.3-0.2l-2.3,0.1c-3.8-0.3,9.6-0.7,10-0.9c-4.1,0.6,12.1,0.1,5.6,0.9
							c1.6-0.1,3.6-0.2,3.2-0.3c2.3,0,3.1,0.1,0.7,0.3c8.6-0.2,5.6-0.4,13.4-0.4c0,0.1-1.6,0.1-2.4,0.3c3.9-0.2,7.9-0.4,14.5-0.5
							c-0.4,0.1,0.4,0.1-1.6,0.2c11.3-0.2,19.3-0.9,31.7-0.9c-3.7,0.5,4.2,0.1,4.9,0.4c2.2-0.1,4.4-0.2,6.7-0.3l-2.7-0.1
							c5.8-0.1,11-0.6,16.1-0.6l-4.3,0.3l11-0.4l-6.2,0.1c5.9-0.4-0.7-0.4,7.1-0.6c-1.6,0.1,5.8-0.2,8.9-0.1h0
							c2.9-0.2,5.9-0.4,10.2-0.5c1.1,0.1-0.9,0.4-0.2,0.5c2.8-0.4,13.7-0.6,17.3-1.1c-1.2,0.1-1.3,0.3-0.9,0.4l2.4-0.4
							c2.7,0,3.1,0,2.7,0.2c8.2-0.3-2.6-0.4,7.1-0.6c-0.8,0.1-0.4,0.1-2,0.2c9.7-0.3,18.8-1,27.7-1.3c2.7,0.2-7.8,0.4-4.8,0.6
							c12.9-0.6,26.6-1.7,39.1-2.2l-2.3,0.1c1.7-0.6,9.3-0.2,15.6-0.7c-1.5,0.1-2,0.4-1.6,0.3c8.5-0.3,17.4-1,30.3-1.8l-1.6,0.2
							c5-0.1,13.2-0.6,18.7-0.8c1.6-0.2,4.7-0.3,2.8-0.4c16.8,0,31.9-2,46.8-2.1c-1.8,0.1-4.2,0.3-2.8,0.3l12.6-0.7
							c-1-0.2-1.7-0.1-4.3-0.1c1.6-0.2,5.2-0.5,8.3-0.6c-5.7,0.4,0.1,0.4,2.5,0.4c-0.4-0.1,0.4-0.2,0.2-0.2
							c6.6,0.1,1.1-0.5,10.1-0.7l-0.5,0.1c3.4-0.2,6.5-0.5,10.1-0.7c1.5,0.2-3.6,0.3-3.8,0.5c5.1-0.3,10.1-1,14.7-1
							c-2.2,0.1-5.3,0.4-7.5,0.5c5.1,0.1,5.6,0,9.4-0.2l-0.4,0l8.7-0.3l-2.2,0c6.4-1,13-0.8,21.6-1.6c-8.4,0.8-1.4,0.3-2,0.6
							c2.2,0,5.6-0.1,4.6,0c4.1-0.4,6.8-0.1,12.5-0.8c0.3,0.1,4.4-0.2,3.4,0.1c5.3-0.3-1.3-0.1-0.8-0.2c8.2-0.7,19.2-0.5,30.9-1.6
							c10.1-0.7,12-1.1,21.4-1.7c3.2,0-2.6,0.5-2.6,0.5c5.1-0.1,9-0.3,13.8-0.7c-1,0.1,0,0.2,1.5,0.2c3.9-0.2,2.6-0.5,7.7-0.6
							c-0.9,0.1-2,0.4-3.8,0.6c4.6-0.3,9.1-0.7,13.8-1c1.3,0.1-2.8,0.4-4.5,0.6c5.3-0.3,13.7-0.8,15.4-1.2l-3.4,0.1
							c1.9-0.1,1,0.2-0.4,0.3c-4.5,0.4-6.6,0.2-6.8,0.1l3.4-0.2c-3.5-0.4-13.5,0.8-20.3,1.1l2.8-0.6l-6.9,0.7
							c-1.5,0-2.5-0.2,0.8-0.4c-4.9,0-4.3,0.4-8.5,0.3c-0.5,0-0.2,0,0.2-0.1l-4.7,0.4c0.9-0.1-0.8-0.2,2.1-0.3
							c-8.5,0.2-13.7,1-16.9,0.8l0.7-0.1c-11.8,0.7-1.1,0.4-10,1.1l-6-0.5l-1.2,0.4c-1.2,0.1-3.6,0.1-3.2,0
							c-4.5,0.4,0.8,0.1-1.8,0.4c-5.9,0-16.2,0.9-17.5,0.5c-2.1,0.3,5.6-0.1-0.6,0.4c-1.8-0.4-7.2,0.4-12.6,0.5
							c1.6-0.4,6.7-0.4,1.3-0.4c-3.2,0.6-10.4,0.4-14.9,0.7c-0.2,0.4-9.8,0.6-17.4,1.1c0.5-0.1-14.3,0.5-21.3,0.7l0.2-0.1
							c-1.3,0.4-8.6,0.7-13.9,1.1c0.2-0.2,1.2-0.4,4-0.6l-5,0.2c-1.2,0.2-2.7,0.3-5.9,0.5l1.2-0.3c-6.6,0.3-13.3,1-21.9,1.2
							c-0.5,0.3,6.8,0.4-2.2,1c-0.3-0.1-0.7-0.3,1.7-0.5c-0.8,0.1-2.8,0.2-4.3,0.3l3.6-0.4c-3.9,0.1-2,0.3-5.1,0.4
							c0.1-0.2-2.3,0-1.9-0.2c0.8-0.1,2.7-0.1,3.9-0.2c-3.5,0.1-7.7,0.2-9.1,0.1c0.3,0.1,0,0.3-2.6,0.4c-6.6,0.3-2.3-0.1-6.2,0
							c-1.6,0.2-5.8,0.3-5.9,0.6c-1.9,0.1-2.3,0-3.1-0.1c-3.4,0.3-16,0.8-12.1,0.9l0.9,0c-0.2,0-0.4,0-0.6,0c0,0,0,0,0,0h0
							c-11.2,0.8-23.4,1-34.5,1.6l0-0.1c-6.7,0.4-14.8,0.8-19.6,1.2c-2,0.1-4.7,0-3.8-0.1c-5.1,0.3-5.7,0.5-13,0.6
							c5.1-0.4-1.8-0.1,5.2-0.4c-6.6,0.2-8.1,0.1-15.2,0.7c2.4-0.4-5-0.1-8.1,0.1l4.6,0c-3.5,0.2-6.6,0.3-9.8,0.4l1.7-0.4
							c-13.6,0.2-24.4,1.8-34.7,1.5c-3.6,0.4,7.4-0.1,4.2,0.3c-6.2,0.2-12.7,0-14.7,0c-8.5,0.1-7.9,0.8-16.9,1
							c1.2,0.1,2.2,0.4-4.4,0.7c-6.2,0.2-7.7-0.3-3.7-0.5c1.5-0.1,2.2,0,2.2,0c2-0.1,4.7-0.2,2.2-0.3l-0.8,0.1
							c-3.1,0-11.7,0.2-9.7,0c-4.7,0.2-2,0.2,1.5,0.2c-8,0.1-12.5,0.4-20.7,0.4c1.3,0,2.5,0.2,1.2,0.2c-12.1,0.1-5.3,0.3-13.5,0.5
							c-4.7-0.1,1.7-0.5-6.6-0.1c-5,0-1.1-0.3,0.9-0.4c-7.5,0.4-14,0.1-18.3,0.1l3.9-0.2c-2.4,0.1-4.3,0.1-6.3,0.1l2.3,0.2
							c-2.3,0-4.3,0-4.2-0.1c-2.4,0.2,1.8,0.4-2.9,0.6c-3.1-0.1-9.4,0.2-10.5-0.1c9.7,0-1.1-0.3,7.2-0.4c-1.6,0.1-3.5,0.1-5.8,0
							c-0.3,0,0.3-0.1,1-0.1c-9.3-0.2-4.3,0.4-13.9,0.4c1.2-0.2-2.2-0.3-3.8-0.3c3.9,0,1.9,0.3-1.7,0.4c-6.2-0.1-6.7,0.2-10,0.1
							l3.7,0.1c-1.2,0.2-4.3,0.1-8.7,0.2c-0.4-0.1,3.9-0.1,2.4-0.1c-4.8,0.3-10.8-0.4-17.5-0.2c-3.1-0.1-0.3-0.3-3-0.4
							c-7.5,0.2-8.1-0.3-16-0.1c2.3,0.2,2.7,0.2-2.9,0.4l12.9-0.1l-8.3,0.3c3.9,0,8.2-0.1,10.6-0.1c-3.9,0.2-3.6,0.1-1.7,0.3
							c-5.3-0.4-10.6,0.2-16.8-0.1l0.2-0.6c-9.3-0.4-16.5,0.1-28.5-0.2l3.9,0.2c-1.6,0.2-7.4-0.1-11.3,0c0.4-0.2-2.1-0.3-3.7-0.5
							c0.2,0.1-8.8-0.2-9.9,0.1l-5.4-0.4c-9.7-0.3-11.1,0.3-20.5,0c2.8-0.1-1.4-0.4,4.8-0.4c-3.1-0.1-5.9-0.2-6,0
							c-1.8-0.1-8.7,0.1-11.5-0.2c-1.3,0.1-1.8,0.2-5.3,0.1c-0.4-0.1,0-0.1,0-0.1c0,0.1-5.5,0-2.4,0.3c-9.6-0.9-26.9-0.7-35.2-1.6
							c-6.8-0.2-15-0.5-21.2-0.7c0.4,0,0-0.1,1.2,0c-8.5-0.5-5.3,0.4-15-0.2c-4.9-0.5,5.2,0,2.1-0.2c-1.3-0.7-11.7-0.4-18.2-1.1
							l1.6,0c-5-0.4-12.2-0.3-20.3-0.7c0,0,0.4,0,0.1-0.1c-5.6,0.1-16.2-0.3-24-0.6c2.5-0.1,3.6,0,2.1-0.3c-3.5-0.1,1,0.5-6,0.2
							c-2.3-0.2-7.3-0.6-8-0.9l6.6,0.3c-3.4-0.5-8.6-0.4-12-0.6l0.5-0.1c-10.2-0.4-10.3,0-21.2-0.6l1.1,0.2c-6,0.1-5-0.5-10.9-0.5
							l-1.8-0.5c-3.9-0.1-13.8-0.3-20.8-0.6c4-0.1,12.3,0.2,17.4,0.3c-3.9-0.2-13.2-0.6-15.3-0.6c1.6,0,3.6,0.1,5.1,0.2
							c-4.8,0.1-11.1-0.1-18.9-0.5c1.4-0.7-20.2-1.3-25.8-2.2c-13.8-0.5-27.2-1.6-43.2-2.5c5.6,0.9-4.7-0.2-3.7,0.4
							c-3.7-0.2-5.2-0.3-5.5-0.3l-11.3-1c-2.7-0.3,3.5,0.1,3.2-0.1c-8.2-0.5-3.4-0.4-8.8-0.9c1.1,0.3-2.8,0.1-7.5-0.2l6.5,0.6
							c-11.4-0.3-9.8-1.1-21.3-1.4l3.7,0c-5.9-0.2-21.8-1.2-27.6-1c-1-0.1-2.4-0.4,0.2-0.3c-14.1-0.9-31.4-1.2-42.3-2.1l1.1-0.1
							c-2.6-0.1-4.6,0-7.9-0.3c0.2-0.1,1.1-0.1-0.2-0.2c-1.4,0-7-0.1-10.5-0.4l3,0c-13.7-0.9-21.1-0.7-32.7-1.1
							c0-0.4-10.8-1.1-16.2-1.5l0.2-0.1c-16-0.8-27.2-0.9-42.1-1.4c-9.2-0.9-31.2-1.5-46-2.4c2.3,0.2-0.4,0.3-3,0.3
							c-3.5-0.2-9.6,0-9-0.4l1.2,0.1c-2.6-0.5-9.8-0.6-15.3-0.8l-0.9,0.5c-3.6-0.3-7.8-0.6-12.2-0.7c-4.4-0.2-9-0.2-13.3-0.3
							c-8.7-0.2-16.6-0.3-20.6-0.8c-3.5,0-7.9-0.1-11.4,0l0.2-0.3c-9.8-0.3-14.6-0.4-26.7-0.6l2.5-0.1c-6.8-0.1-8.6,0.6-14.9,0.5
							l-1.9-0.5c-11.9-0.1-23.9-0.6-35.6-0.3c0.2-0.1,0.5-0.2,2.5-0.2c-2.8,0-8.2-0.2-12.6-0.2c-4.5,0-8,0.1-6.9,0.4
							c-0.1-0.4-12.2,0-18.7,0.1l1-0.3c-5.4,0.4-5.6,0.5-13.1,0.6c-1.8,0-1.6-0.2,0.8-0.1c-6-0.1-4.6,0.3-11.9,0.2l2.7-0.2
							c-6.1,0.1-5.6,0.1-9,0.4c-3.9,0.2-11.6,0.1-12.6-0.2c-0.8,0.2-4.2,0.4-7.8,0.4c-0.5-0.1,0.8-0.2,1.5-0.2
							c-10.3-0.1-15.2,0.6-22.3,0.5c-0.1-0.1-0.6-0.1-1.2-0.1c8.1-0.2,14.7-0.4,14.1-0.3c0-0.3-6.6-0.1-1.4-0.6
							c-5.3,0.3-14.3,1-20.7,1c-0.3,0-0.6,0-0.9-0.1l0.7-0.1c-1.5,0-2.8,0.1-4.1,0.1c-2,0-3.4,0-5.3,0.1c-0.8-0.2-7.6,0.1-10.8,0.2
							c0.3,0.3-4,0.4,0,0.5c-0.5,0,0.6-0.1,2.8-0.1c0.5,0,1.1-0.1,1.4-0.1c-0.1,0-0.1,0-0.2,0c2.2-0.1,5-0.1,8.2-0.2
							c-2.6,0.2-5.3,0.4-8.9,0.3c-1.7,0.2-3.5,0.5-4.6,0.6c-4.5-0.2-13.2-0.1-14.4-0.3c-5,0.2-10.9,0.5-16.4,0.8
							c-5.4,0.3-10.4,0.6-13.5,1.1c-2.8,0.2-3.3,0-4.4,0c1.6-0.1,3.6-0.2,4.5-0.4c-5.7,0.4-16.9,1-18.2,1.4c-7.2,0.2,4-0.6-5.8,0
							l1.3-0.2c-4.9,0.1-9.3,0.3-13.5,0.6c-4.2,0.3-8.2,0.7-12.3,1.1c-8.1,0.8-16.5,1.6-27.3,1.9c1.5-0.1,2.2-0.1,2.6-0.1
							c-6.1,0.3-12.3,0.8-18.6,1.4c-6.2,0.6-12.5,1.1-18.8,1.7c-12.6,1.1-25.1,2.6-37.1,3.5c-6.9,0.6-7.6,0.9-11.7,1.6l-1.5-0.1
							l-3.6,0.6l-3.6,0.6c-10.1,1.5-17.6,1.5-30.3,3.6l1.7,0c-2.3,0.3-5.9,0.8-8.9,1.1c-3,0.4-5.3,0.8-4.9,0.6
							c-0.5,0.1-1.5,0.4-3.3,0.6l-0.2-0.1l-11.2,1.9c-8.8,1.2,1.3-0.8-11.5,1c-4.7,0.8-13.4,2.4-11.6,2.3c1.9-0.3,4.9-0.6,5.1-0.5
							L1,170.7c-0.7,0.6-4,1.5,6.7,0.3l7.4-1.4l2.4-0.1l-6.2,0.9c3.6-0.3,5.8-0.8,8.3-1.3c0.6,0,1.7,0,3.1-0.2l7.2-1.5
							c0.9,0.1-3.2,0.8,1.7,0.2c3.4-0.7-3.3,0.1,2.3-0.9c3.6-0.3,2.6,0,6.7-0.8c0.6,0-0.3,0.2-1.9,0.5c3.7-0.7,9.8-1.4,11.7-1.9
							c3.7-0.2,12.5-1.6,12.2-1.2c1.2-0.2,6.5-1.2,9.9-1.6c-6.2,1.3,12.8-1.6,11.2-0.8c4.6-1,16.7-2,24.8-3.1
							c-0.4,0.1-1.3,0.3-2.1,0.3c4.6-0.4,6-0.4,8.9-0.7c0.6-0.4,7.7-1.3,11.6-1.9c5.7-0.1-3.4,0.8-1.6,1c-0.3-0.3,9.8-1.2,7.8-1.3
							c4.4-0.1,3.7-0.2,6-0.1c0.7-0.6,4-0.4,7.6-1.1c6.3-0.3,1.6,0.3,8.5-0.4C158.5,153.6,152.4,154.3,152.4,154.3z M316.2,144.7
							L316.2,144.7c-1.4,0.1-2.6,0.1-3.4,0.1C313.5,144.8,314.5,144.7,316.2,144.7z M330,144.3c-1.7,0-3.8,0.1-6,0.1
							c-0.5-0.1,0-0.2,1.4-0.2C324.7,144.3,328,144.3,330,144.3z M300.8,143.1c2.2-0.1,2.9-0.1,3.2,0c-1,0-2.2,0.1-3.8,0.1
							c-0.1,0-0.2,0-0.3,0C300.1,143.2,300.4,143.2,300.8,143.1z"/>
						<path class="st2" d="M296.9,143.6c-0.3,0-0.5,0-0.9,0c0.5,0,0.9,0,1.3,0c0.3,0,0.5-0.1,0.8-0.1
							C297.7,143.6,297.2,143.6,296.9,143.6z"/>
						<path class="st2" d="M1546.8,166.1l-0.3,0c0.2,0,0.5,0,0.6,0C1546.9,166.1,1546.9,166.1,1546.8,166.1z"/>
						<polygon class="st2" points="520.5,145.7 520.5,145.7 519.3,145.7 						"/>
						<path class="st2" d="M1622.8,163.4c0.2,0,0.4,0,1,0C1623.7,163.4,1623.3,163.4,1622.8,163.4z"/>
						<path class="st2" d="M1655.5,161.8l4.6-0.1C1658.2,161.8,1656.7,161.8,1655.5,161.8z"/>
						<path class="st2" d="M1680.8,160.8c0.3-0.1,0.4-0.1,0.5-0.1c0,0,0,0-0.1,0L1680.8,160.8z"/>
						<path class="st2" d="M1279.7,176.4c-0.3,0-0.7,0-1,0C1276.5,176.4,1278,176.4,1279.7,176.4z"/>
						<path class="st2" d="M1399.2,173.6c-1.3,0.1-2.5,0.2-3.8,0.3C1397.5,173.8,1399.1,173.8,1399.2,173.6z"/>
						<path class="st2" d="M1146.4,174.8C1146.4,174.8,1146.4,174.8,1146.4,174.8c-0.3,0-0.5,0-0.8,0L1146.4,174.8z"/>
						<path class="st2" d="M1389.8,174.1c2.1,0,3.9-0.1,5.6-0.2C1393.6,173.9,1391.5,174,1389.8,174.1z"/>
						<path class="st2" d="M1790,155.6l1.2-0.1c0,0,0.1,0,0.1-0.1L1790,155.6z"/>
						<path class="st2" d="M1791.4,155.5l1.3-0.1C1792.1,155.4,1791.6,155.4,1791.4,155.5z"/>
						<path class="st2" d="M1795.6,155.1l-2.8,0.2C1793.7,155.3,1794.9,155.3,1795.6,155.1z"/>
						<path class="st2" d="M1756.7,157l-0.4,0.1C1756.5,157.1,1756.6,157.1,1756.7,157z"/>
						<path class="st2" d="M1746.5,157.6c2.4-0.1,6.1-0.1,9.4-0.3l0.3-0.1C1754.7,157.4,1748.8,157.3,1746.5,157.6z"/>
						<path class="st2" d="M1704.1,158.4l8.5-0.3c-1.5,0-3.4-0.1,0.4-0.3C1702.3,157.9,1715.3,157.9,1704.1,158.4z"/>
						<path class="st2" d="M1677.8,159.5c4.6-0.3-0.1-0.1,0.2-0.2C1675,159.5,1674.3,159.6,1677.8,159.5z"/>
						<path class="st2" d="M1487.3,168.8l0.4-0.3C1484.3,168.7,1487.7,168.6,1487.3,168.8z"/>
						<polygon class="st2" points="1451,171.8 1454.4,171.8 1456,171.5 						"/>
						<polygon class="st2" points="1429.4,170.9 1430.9,170.8 1425.1,171.1 						"/>
						<path class="st2" d="M1109.4,171.2l1.1,0.4C1112.8,171.5,1113.3,171.2,1109.4,171.2z"/>
						<path class="st2" d="M971.3,165.5c-1.5-0.2-5.4-0.5-7.8-0.5C966.6,165.2,969.7,165.4,971.3,165.5z"/>
						<polygon class="st2" points="557.2,144.3 560,144.3 554.7,144.2 						"/>
					</g>
				</g>
			</g>
		</g>
	</g>
	<g>
		<g>
			<g>
				<g>
					<g>
						<path class="st2" d="M1587.9,180.8c0.8,0,0.4-0.2-1.9-0.5l-1.7,0.1L1587.9,180.8z"/>
						<path class="st2" d="M1572.4,178c-2.7-0.2-5.9-0.4-4.2,0.1c2.7,0.1,3.4,0.3,6.3,0.3c2.3,0.3,4,0.7,3.6,0.8
							c0.8,0,3.6,0.6,4.9,0.6c-3-0.7-6.8-1.2-10.8-1.6C1571.4,178,1572.2,178,1572.4,178z"/>
						<path class="st2" d="M1344.7,160.2l1.5,0.1C1345.8,160.3,1345.3,160.3,1344.7,160.2z"/>
						<path class="st2" d="M1203.2,163.9c1.1-0.1,1.5-0.1,1.6-0.2C1203.8,163.8,1202.9,163.9,1203.2,163.9z"/>
						<path class="st2" d="M1179,165.2c0.5,0,0.9-0.1,1.4-0.1C1179.9,165.2,1179.4,165.2,1179,165.2z"/>
						<path class="st2" d="M1344.7,160.2l-3.8-0.2C1340.7,160.2,1342.9,160.2,1344.7,160.2z"/>
						<path class="st2" d="M1541.1,174.7c0.8,0.1,1.4,0.1,2.1,0.1c-0.7-0.1-1.3-0.1-1.9-0.2C1541.2,174.6,1541.2,174.6,1541.1,174.7
							z"/>
						<path class="st2" d="M1407.1,161.8l1.2,0.1c0.3,0,0.7-0.1,1-0.1L1407.1,161.8z"/>
						<path class="st2" d="M1455,164.6c-1.1-0.1-1.5,0.1-1.9,0.2c0.6-0.1,1.4-0.1,2.4,0C1455.5,164.8,1455.3,164.7,1455,164.6z"/>
						<path class="st2" d="M1530.6,172.3l1.3,0.1C1531.6,172.4,1531,172.3,1530.6,172.3z"/>
						<path class="st2" d="M1372.9,160.5c-0.1,0-0.2-0.1-0.4-0.1C1372.4,160.4,1372.6,160.4,1372.9,160.5z"/>
						<path class="st2" d="M40.3,159C40.4,159,40.3,159,40.3,159C40,159,40,159.1,40.3,159z"/>
						<path class="st2" d="M38.4,159.6l-0.8,0.1c-0.1,0.1-0.2,0.1-0.1,0.2L38.4,159.6z"/>
						<path class="st2" d="M1134.9,168.3c0.1,0,0.1,0,0.2,0C1136.2,168.2,1135.6,168.2,1134.9,168.3z"/>
						<path class="st2" d="M732.3,145.1c2.2,0.6,0.4,0.3-1.2,0.1c-1.6-0.2-2.8-0.4,0.5,0.4C731,145.3,737.9,146.4,732.3,145.1z"/>
						<path class="st2" d="M1539.9,174.5c-0.6-0.1-1.3-0.1-1.9-0.2C1538.8,174.4,1539.4,174.4,1539.9,174.5z"/>
						<path class="st2" d="M731.6,145.5L731.6,145.5l0.7,0.2C732,145.6,731.9,145.6,731.6,145.5z"/>
						<path class="st2" d="M1033.2,175.7c0.2,0,0.6,0.1,1,0.1C1034.3,175.8,1034,175.7,1033.2,175.7z"/>
						<path class="st2" d="M1109,170.9l-1.9,0.1C1107.9,171,1108.5,171,1109,170.9z"/>
						<path class="st2" d="M993.9,177.6c-1,0-1.4,0-2.8,0.1c0.1,0,0.3,0,0.4,0C992.1,177.7,992.7,177.6,993.9,177.6z"/>
						<path class="st2" d="M952.9,177.9c0.2,0,0.5,0,0.8,0.1c0.4,0,0.9,0,1.3,0L952.9,177.9z"/>
						<path class="st2" d="M164.3,151c-0.9-0.1-1.4-0.2-1.9-0.3C163.1,150.9,157,150.8,164.3,151z"/>
						<path class="st2" d="M1541.1,174.5c-0.2,0-0.6,0-1.2,0c0.5,0.1,0.9,0.1,1.4,0.1C1541.4,174.6,1541.4,174.6,1541.1,174.5z"/>
						<path class="st2" d="M992.3,179.9c-2.2,0-4.3,0.1-6.5,0.1C987.6,180.1,989.9,180,992.3,179.9z"/>
						<path class="st2" d="M458.4,162.5l-1.5,0.2C457.5,162.7,458,162.6,458.4,162.5z"/>
						<path class="st2" d="M966.4,180.3c-1.2-0.1-2.4-0.1-3.7-0.2c-0.3,0-0.6,0-0.8,0.1C963.4,180.2,964.9,180.2,966.4,180.3z"/>
						<path class="st2" d="M162.4,150.7C162.4,150.7,162.4,150.7,162.4,150.7C162.4,150.7,162.4,150.7,162.4,150.7z"/>
						<path class="st2" d="M119.5,151.4c6.2-0.2,2.9-0.4,4.2-0.7c3.7-0.2,4.6-0.1,4.8,0c0.2,0.1-0.1,0.2,1.1,0.3
							c4.6-0.1,8.2-0.5,11.6-0.5c0.3,0.1,0.9,0.1,0.1,0.2c2.4-0.1,6.1-0.1,9.8-0.1c1.9,0,3.8,0,5.5,0s3.4,0,4.9-0.1
							c0.4,0,0.6,0.1,0.7,0.1c-0.9-0.2-1.1-0.4-0.9-0.5c2.8,0.1,5.2-0.1,6.2,0.2c-1.7-0.1-1.9,0-2.6,0.1l2.9,0c2.6,0.4-4,0-4,0.3
							c2.8,0,5.9,0,8.8,0c2.9,0,5.7,0.1,7.8,0.2c0.9,0.4-10.2-0.3-4.4,0.2c-2.2-0.1-4.5-0.3-6.7-0.4c5.1,0.7-4.1-0.1,0.6,0.6
							c8.9,0.4,9.9,0.2,18.8,0.7c2-0.1-0.6-0.3,1.4-0.4c12.6,0.3,9.9,1.3,19.1,1.4c2.4-0.1,3.4-0.5,9.9,0.2l-2.3,0.2
							c8.6,0.6,4.9-0.2,13.9,0.6c-1.6,0-6.8-0.3-5.4-0.2c5.8,0.7,4.1,0.1,8.6,0.4l0.9,0.4c9.1,0.6,19.2,1.1,29.3,1.8
							c-0.6,0.1-2.3,0,0,0.3c12.8,0.8,27.2,2.2,39.5,3.3l4.7,0.1c1.1,0.1,2,0.3,0.8,0.2c4.8,0.4,0.3-0.2,2.6-0.1
							c2.7,0.2,3.6,0.4,1.9,0.4c8.5,0.4,24.1,1.1,33.1,1.9l-1.8,0c7,0.5,7.9-0.2,14.3,0.4h-1.2c7.5,0.4,15.5,0.6,23,0.9
							c3.8,0.1,7.4,0.2,10.8,0.3c3.4,0.1,6.6,0.2,9.5,0.3c1.1-0.2,4.8-0.2,8.4-0.1c3.6,0,7-0.1,7.5-0.4c8.6,0.1,6.2,0.4,18.3,0.1
							c3.2-0.1,4.8-0.5,8.8-0.8l0.1,0.3l5.4-0.7l2.9,0.2l3.8-0.3c-1.5,0.1-3.2,0.1-3,0c2.9-0.2,6.5-0.5,9.4-0.7
							c2.9-0.2,5-0.2,5.1-0.1l3.5-0.4l3.5-0.5l6.9-0.9c-0.3,0.2-2.6,0.5-4.4,0.8c7.4-1.2,1.4,0.2,8.1-0.9c-0.9,0,0.5-0.2,0.6-0.3
							c3.4-0.3,11-1.3,16.7-2.3l-1,0.4c10.2-1.6,21.5-3.7,32.8-5.9c-4.1,0.7-3.2,0.1,0.1-0.5l1.4,0.1c2.1-0.6-3.5,0.5,0.9-0.5
							c4.3-0.8,2.9-0.2,0.5,0.4l5.1-1.1c0.3,0-0.9,0.3-1.2,0.5c2.1-0.6,9-1.4,12-2.3l0.3,0c11.4-2.1,16.5-3.1,25.8-4.7
							c0.1-0.3,3.8-0.8,6.5-1.5c1.7-0.2,3.5-0.5,5.3-0.7c1.8-0.2,3.7-0.4,5.6-0.6c3.8-0.5,7.8-0.8,11.9-1.3c5.8-0.7,1.7-0.4,4.3-0.8
							c0.5,0.2,8.7-0.6,4.5,0c10-0.8,12.7-1.1,25.3-1.4c-1.4-0.1-2.9-0.2-2.1-0.2c2.3,0,5.2,0.1,4.9,0.2l-0.6,0
							c7.1-0.3,15.3,0.3,23,1c3.9,0.4,7.7,0.8,11.2,1.1c3.5,0.4,6.8,0.8,9.6,0.9l-0.6-0.1c3.9,0.3,7.8,0.9,11.6,1.3
							c5.3,0.8-3.2-0.3,0.7,0.4c1.6,0.2,3.1,0.3,4.5,0.5c1.4,0.2,2.8,0.4,4.1,0.6c2.6,0.4,5,0.8,7.3,1.2c4.6,0.9,9,1.8,14.1,2.6
							c3.9,1.2,10.9,2.5,18.2,4.1c7.3,1.5,15,3.2,20.3,4.6l-0.6-0.3c2.8,0.4,3.3,0.9,5.3,1.4c-0.3-0.2-2.9-0.8-1.2-0.5
							c11.7,2.5,23.7,5.3,35.8,8s24.3,5.2,36.4,7.3c8.9,1.4,5.2-0.2,16.3,1.9l-3.2-0.1c2.2,0.3,4.5,0.6,6.8,0.9
							c2.3,0.3,4.5,0.6,6.8,0.8c4.6,0.5,9.2,0.9,13.7,1.4c2.3,0.2,4.6,0.5,6.8,0.7c2.3,0.2,4.6,0.3,6.8,0.5c4.5,0.3,9,0.6,13.4,0.8
							c-1.1,0-1.1,0.1-2.8,0c0.9,0.1,2.2,0.2,3.7,0.4s3.1,0.2,4.6,0.2c1.5,0,2.9,0.1,3.9,0.1s1.7,0,1.7-0.1c2.8,0.1,0.6,0.2,2.3,0.4
							c3.7,0.3,9.4,0.1,11.4,0.4c0.3,0.1-1,0-1.7,0c2.4,0.1,11.4,0.3,9,0c6.6,0.2,12.7,0.1,18,0.3c3.5-0.3,11.4,0.1,12.5-0.4
							c-0.2,0.2,2.7,0.3,6.2,0.3c1.8,0,3.6-0.1,5.4-0.1c1.7-0.1,3.3-0.2,4.3-0.2c-1.4,0.2,3.7,0,2,0.3c4.8-0.1,9.2-0.4,8.3-0.6
							c8.8,0.3,17.7-1.1,22.7-0.6c3.6-0.2,7-0.4,10.5-0.6c3.4-0.2,6.8-0.5,10.1-0.7c6.7-0.5,13.1-0.9,19.5-1.4
							c-0.2,0.2-3.7,0.5-7.1,0.7s-6.7,0.4-6.4,0.6c3-0.2,5.7-0.5,8.3-0.7c2.5-0.2,4.9-0.5,7.3-0.7c4.8-0.4,9.5-0.8,15.5-1.2
							c3.1-0.2-1.8,0.3-2.8,0.5c12.1-1.1,23.4-1.7,34.1-2.8c0,0-1.2,0.2-2.3,0.3c2.1-0.2,4.9-0.3,4.7-0.5l-2.1,0.2
							c-3.4,0,8.4-1.3,8.7-1.5c-3.6,0.9,10.6-0.7,5,0.5c1.4-0.1,3.1-0.4,2.8-0.5c2.1-0.1,2.7-0.1,0.7,0.2c7.6-0.7,4.9-0.7,11.7-1.3
							c0,0.1-1.4,0.2-2.1,0.4c3.5-0.5,6.9-0.9,12.8-1.3c-0.3,0.1,0.3,0.1-1.4,0.2c10-0.8,17-1.8,27.9-2.5c-3.2,0.7,3.7-0.1,4.3,0.2
							l5.9-0.5l-2.4,0c5.2-0.4,9.7-0.9,14.1-1.1l-3.8,0.4c3.2-0.3,6.4-0.5,9.7-0.7l-5.5,0.2c5.2-0.5-0.6-0.4,6.3-0.8
							c-1.4,0.1,5.2-0.3,7.9-0.2h0c2.6-0.3,5.2-0.6,9-0.7c1,0.1-0.8,0.5-0.1,0.5c2.5-0.4,12.1-0.7,15.3-1.2
							c-1.1,0.1-1.1,0.3-0.8,0.4l2.1-0.4c2.4,0,2.8,0,2.4,0.2c7.2-0.3-2.3-0.4,6.2-0.6c-0.7,0-0.3,0.1-1.7,0.2
							c8.6-0.2,16.6-0.8,24.5-0.9c1.2,0.2-0.6,0.2-2.2,0.3c-1.7,0.1-3.3,0.1-2,0.2c5.7-0.2,11.6-0.4,17.4-0.7
							c2.9-0.1,5.8-0.2,8.7-0.3c2.9-0.1,5.7-0.1,8.4-0.1l-2.1,0c1.5-0.6,8.2,0.2,13.8-0.1c-1.4,0.1-1.8,0.3-1.4,0.2
							c7.5,0,15.4-0.1,26.8-0.3l-1.4,0.1c4.4,0.2,11.7,0.2,16.5,0.4c1.4-0.1,4.2-0.1,2.5-0.3c14.8,1.1,28.2,0.3,41.3,1.5
							c-1.6-0.1-3.7,0-2.5,0l11.2,0.3c-0.9-0.3-1.5-0.2-3.8-0.5c1.4-0.1,4.6-0.1,7.3,0.1c-5-0.1,0,0.4,2.2,0.6
							c-0.4-0.1,0.4-0.1,0.2-0.2c5.8,0.7,1-0.4,9,0.3l-0.4,0.1c3,0.1,5.7,0.1,9,0.3c1.3,0.3-3.2-0.1-3.4,0.1c4.5,0.2,8.9,0.1,13,0.6
							c-1.9-0.1-4.7-0.2-6.6-0.3c4.4,0.6,4.9,0.6,8.2,0.8l-0.3,0l7.6,0.6l-1.9-0.2c5.7-0.4,11.5,0.7,19.1,0.9
							c-7.4-0.1-1.2,0.1-1.8,0.4c1.9,0.2,4.9,0.6,4,0.6c3.6,0,6,0.6,11.1,0.8c0.2,0.1,3.8,0.4,3,0.5c4.7,0.4-1.1-0.3-0.7-0.4
							c7.2,0.3,16.9,1.9,27.2,2.6c8.9,0.7,10.6,0.6,18.9,1.4c2.8,0.5-2.3,0.1-2.3,0.1c4.5,0.7,7.9,1,12.1,1.4c-0.9,0,0,0.2,1.3,0.4
							c3.4,0.4,2.3-0.1,6.8,0.6c-0.8,0-1.8,0.1-3.4-0.1c4,0.4,8,0.8,12.1,1.2c1.1,0.3-2.5-0.1-4-0.1c4.7,0.5,12.1,1.4,13.6,1.3
							l-3-0.5c1.7,0.2,0.8,0.3-0.4,0.2c-4-0.3-5.7-0.8-5.9-1l3,0.3c-3-0.9-11.8-1.5-17.8-2.2l2.5-0.1l-6.1-0.4
							c-1.3-0.3-2.1-0.6,0.8-0.3c-4.2-0.7-3.8-0.3-7.4-0.9c-0.4-0.1-0.2-0.1,0.2-0.1l-4.2-0.4c0.8,0-0.7-0.4,1.9,0
							c-7.4-1.1-12.1-1-14.9-1.6l0.6,0c-10.4-0.9-1,0.2-8.9-0.3l-5.2-1.3l-1.1,0.2c-1.1-0.1-3.2-0.3-2.8-0.4c-4-0.2,0.7,0.2-1.7,0.2
							c-5.1-0.8-14.2-1.2-15.4-1.8c-1.9,0.1,4.9,0.6-0.6,0.3c-1.5-0.7-6.4-0.4-11.1-1.1c1.5-0.2,5.9,0.3,1.2-0.3
							c-2.9,0.2-9.2-0.8-13.2-1.1c-0.2,0.3-8.7-0.4-15.4-0.8c0.4-0.1-12.6-1.1-18.8-1.5l0.2-0.1c-1.2,0.3-7.7-0.1-12.3-0.3
							c0.2-0.2,1-0.2,3.6-0.2l-4.4-0.2c-1,0.1-2.4,0.1-5.3,0l1.1-0.2c-5.9-0.2-11.8-0.2-19.3-0.6c-0.4,0.2,6,0.9-2,0.8
							c-0.3-0.1-0.6-0.4,1.5-0.4c-0.7,0-2.4,0.1-3.8-0.1l3.2-0.1c-3.4-0.2-1.8,0.1-4.6,0.1c0.1-0.2-2-0.2-1.6-0.3
							c0.7,0,2.4,0.1,3.4,0.1c-3.1-0.1-6.8-0.3-8.1-0.5c0.3,0.1,0,0.3-2.3,0.2c-5.9-0.1-2-0.3-5.4-0.5c-1.4,0.1-5.2-0.1-5.3,0.2
							c-1.7,0-2-0.2-2.7-0.3c-3,0.1-14.2-0.2-10.8,0.2l0.8,0c-0.2,0-0.3,0-0.5,0c0,0,0,0,0,0h0c-2.5,0-5,0-7.6,0
							c-2.6,0-5.1-0.1-7.7-0.1c-5.2-0.1-10.3-0.2-15.2-0.1l0-0.1c-5.9,0.2-13.1,0.2-17.3,0.4c-1.7,0-4.1-0.1-3.4-0.3
							c-4.5,0.1-5,0.3-11.5,0.3c4.5-0.3-1.6-0.1,4.6-0.2c-5.8,0.1-7.2-0.1-13.5,0.3c2.1-0.3-4.4-0.2-7.2,0c1.4,0,2.7,0,4.1,0.1
							c-3.1,0.1-5.9,0.2-8.6,0.3l1.5-0.4c-6,0-11.4,0.4-16.4,0.7c-5,0.4-9.7,0.7-14.3,0.6c-3.2,0.4,6.5-0.1,3.7,0.3
							c-5.5,0.2-11.3,0-13,0.1c-7.5,0.3-7,0.9-14.9,1.3c1,0.1,2,0.3-3.9,0.8c-5.5,0.3-6.8-0.1-3.3-0.4c1.3-0.1,2-0.1,1.9-0.1
							c1.8-0.1,4.1-0.3,1.9-0.3l-0.7,0.2c-2.7,0-10.3,0.6-8.5,0.2c-4.2,0.4-1.8,0.3,1.3,0.2c-7.1,0.3-11,0.8-18.3,1.2
							c1.2,0,2.2,0.1,1.1,0.1c-10.7,0.6-4.7,0.6-11.9,1.2c-4.1,0.1,1.4-0.5-5.8,0.2c-4.4,0.2-1-0.2,0.8-0.5
							c-6.6,0.7-12.4,0.8-16.2,1.1l3.5-0.4c-2.1,0.2-3.8,0.4-5.5,0.5l2,0.1c-2.1,0.1-3.8,0.3-3.8,0.2c-2.1,0.3,1.6,0.3-2.5,0.8
							c-2.7,0.1-8.3,0.8-9.3,0.6c8.6-0.6-1-0.2,6.3-0.9c-1.4,0.1-3.1,0.3-5.2,0.4c-0.3,0,0.3-0.1,0.8-0.1c-8.2,0.4-3.7,0.7-12.2,1.3
							c1.1-0.3-2-0.2-3.4,0c3.4-0.3,1.7,0.2-1.5,0.6c-5.5,0.3-5.9,0.6-8.8,0.8l3.3-0.2c-1.1,0.3-3.8,0.5-7.6,0.8
							c-0.3-0.1,3.4-0.4,2.1-0.3c-4.2,0.6-9.6,0.4-15.4,1.1c-2.7,0.1-0.3-0.3-2.7-0.2c-6.6,0.7-7.2,0.3-14.1,1c2,0.1,2.4,0-2.5,0.6
							l11.4-1l-7.3,0.9c3.4-0.2,7.2-0.6,9.3-0.8c-3.5,0.5-3.1,0.4-1.5,0.4c-4.7,0-9.3,0.9-14.8,1l0.1-0.6c-4.1,0.1-7.7,0.5-11.7,0.8
							c-3.9,0.3-8.2,0.7-13.5,0.9l3.4-0.1c-1.4,0.3-6.6,0.4-10,0.7c0.3-0.2-1.8-0.2-3.3-0.2c0.2,0.1-7.8,0.4-8.7,0.8l-4.8,0
							c-4.3,0.1-6.7,0.4-9.1,0.7c-2.4,0.2-4.8,0.4-8.9,0.5c2.5-0.3-1.3-0.3,4.2-0.6c-2.8,0.1-5.2,0.1-5.3,0.2
							c-1.6-0.1-7.6,0.5-10.2,0.4c-1.2,0.1-1.5,0.3-4.6,0.4c-0.3,0,0-0.1,0-0.1c0,0.1-4.8,0.2-2.1,0.4c-8.5-0.5-23.8,0.4-31.2-0.4
							c-3,0-6.3,0-9.6,0c-1.6,0-3.2,0-4.8,0c-1.5-0.1-3-0.1-4.4-0.2c0.3,0,0-0.1,1,0c-7.5-0.5-4.7,0.4-13.2-0.2
							c-4.4-0.5,4.6,0,1.8-0.2c-0.6-0.4-3.2-0.4-6.3-0.5c-1.6,0-3.3-0.1-5-0.2c-1.7-0.1-3.3-0.3-4.8-0.4l1.4,0.1
							c-4.4-0.6-10.8-0.5-17.9-1.1c0,0,0.3,0,0-0.1c-4.9-0.2-14.2-1.1-21.1-1.7c2.2,0,3.2,0.2,1.9-0.2c-1.5-0.1-1.3,0-1.5,0.1
							c-0.1,0.1-0.3,0.1-0.8,0.1c-0.5,0-1.5-0.1-3-0.3c-2-0.4-6.4-1.2-7-1.5l5.8,0.8c-2.9-0.8-7.5-1.1-10.5-1.6l0.4-0.1
							c-4.4-0.6-6.7-0.8-9.1-1.1c-2.3-0.2-4.8-0.6-9.5-1.4l1,0.3c-5.3-0.5-4.3-0.9-9.5-1.7l-1.5-0.7c-1.7-0.3-4.7-0.8-8.1-1.3
							c-3.3-0.6-7-1.3-10.1-1.9c3.5,0.4,10.7,1.8,15.2,2.5c-3.4-0.6-11.5-2.3-13.3-2.5c1.4,0.2,3.1,0.5,4.4,0.9
							c-4.2-0.6-9.7-1.5-16.4-3c1.3-0.5-17.4-4.1-22.2-5.8c-11.9-2.4-23.5-5.4-37.4-8.3c4.8,1.6-4.1-0.8-3.3,0
							c-3.2-0.6-4.5-0.9-4.8-1l-9.8-2.2c-2.3-0.6,3.1,0.4,2.8,0.3c-7.1-1.4-2.9-0.8-7.6-1.8c0.9,0.4-2.5-0.1-6.6-0.9l5.7,1.2
							c-10-1.3-8.5-2-18.7-3.1l3.2,0.3c-5.2-0.7-19.2-2.5-24.3-2.4c-0.9-0.1-2.1-0.4,0.2-0.3c-12.5-1.4-27.8-1-37.6-1.2
							c0.3-0.1,0.6-0.1,1-0.2c-2.3,0.1-4.1,0.4-7,0.4c0.2-0.1,0.9-0.2-0.2-0.1c-0.6,0.1-2.2,0.1-3.9,0.3c-1.8,0.2-3.8,0.3-5.3,0.4
							l2.6-0.3c-12.2,0.6-18.6,1.9-28.8,3.3c0-0.2-2.4,0-5.4,0.3c-3,0.3-6.5,0.8-8.9,1.1l0.2-0.1c-14,2.2-23.7,4.4-36.6,7
							c-8.1,1-27.2,4.9-40.1,6.8c2-0.3-0.3,0.4-2.5,0.8c-3,0.4-8.3,1.6-7.9,1.1l1.1-0.2c-1.2,0-3.3,0.2-5.8,0.5
							c-2.5,0.3-5.2,0.8-7.7,1l-0.7,0.6c-3.2,0.2-6.9,0.5-10.8,0.9c-3.9,0.4-7.9,0.7-11.7,1.1c-3.8,0.4-7.5,0.6-10.6,0.8
							c-3.1,0.2-5.8,0.3-7.5,0.2c-3.1,0.3-6.9,0.4-10,0.7l0.2-0.3c-2.1,0.1-4,0.1-5.8,0.2c-1.8,0-3.5,0-5.2,0.1
							c-3.5,0-7.2,0.2-12.5,0.2l2.2-0.2c-6,0-7.6,0.8-13.1,0.8l-1.7-0.4c-5.2-0.1-10.5-0.2-15.8-0.4c-5.2-0.2-10.5-0.4-15.7-0.4
							c0.2-0.1,0.5-0.2,2.2-0.1c-4.9-0.2-19-1.1-17.3-0.5c-0.1-0.4-10.8-0.6-16.5-0.8l0.9-0.2c-4.8,0.1-5,0.1-11.6-0.2
							c-1.6-0.1-1.4-0.3,0.7-0.1c-5.2-0.5-4.1,0-10.5-0.6l2.4,0c-5.4-0.4-5-0.3-8-0.3c-3.4-0.1-10.3-0.8-11-1.1
							c-0.7,0.1-3.7,0.1-6.9-0.2c-0.4-0.1,0.7-0.1,1.3-0.1c-9-0.9-13.5-0.7-19.7-1.5c-0.1-0.1-0.5-0.2-1-0.2c7.2,0.6,13,1,12.4,1
							c0-0.3-5.8-0.8-1.1-0.8c-4.7-0.2-12.7-0.4-18.3-0.9c-0.3-0.1-0.5-0.1-0.7-0.1l0.6,0c-1.3-0.1-2.5-0.2-3.6-0.2
							c-1.8-0.2-3-0.3-4.7-0.4c-0.6-0.3-6.6-0.6-9.5-0.9c0.2,0.3-3.6,0,0,0.5c-0.5-0.1,0.6,0,2.5,0.1c0.4,0,0.9,0.1,1.2,0.1
							c-0.1,0-0.1,0-0.2,0c1.9,0.1,4.4,0.3,7.2,0.5c-2.3,0-4.7-0.1-7.9-0.5c-1.5,0.1-3.1,0.1-4.1,0.1c-3.9-0.7-11.6-1.4-12.6-1.8
							c-4.4-0.2-9.6-0.5-14.4-0.8c-4.8-0.2-9.2-0.4-12-0.3c-2.5-0.1-2.9-0.3-3.8-0.5c1.5,0,3.2,0.1,4,0.1c-5-0.2-14.9-0.7-16.1-0.4
							c-6.3-0.5,3.6-0.2-5.1-0.5l1.2-0.1c-4.3-0.3-8.2-0.5-11.9-0.6c-3.7-0.1-7.3,0-10.9,0c-3.6,0-7.3,0-11.2,0.1
							c-3.9,0-8.2-0.1-13-0.2c1.3,0,2,0.1,2.2,0.1c-21.7-0.3-44.7,1.4-66.1,3.1c-6.1,0.5-6.7,0.9-10.4,1.5l-1.3-0.1l-6.2,1.2
							c-8.8,1.6-15.6,1.7-26.6,4.5l1.5-0.1c-4,0.7-12.6,3-12,2.6c-0.4,0.1-1.3,0.5-2.8,0.8l-0.2-0.1l-3.9,1l0.2,1l5.9-1.1
							c7.7-1.1-1.1,0.8,10.1-1c4.2-0.8,11.8-2.4,10.2-2.2c-1.7,0.3-4.3,0.6-4.5,0.5l3.8-0.7c0.6-0.6,3.5-1.5-6-0.3l-6.5,1.4
							l-2.1,0.1l5.5-0.9c-3.1,0.3-5.1,0.8-7.3,1.3c-0.5,0-1.5,0-2.8,0.2l-6.3,1.5c-0.7-0.1,2.1-0.7-0.4-0.4l0.5,2.5
							c0.3-0.1,0.6-0.1,1.1-0.2c2.9-0.9-2.9,0.3,1.9-1c3.1-0.5,2.3-0.1,5.8-1.2c0.5,0-0.2,0.2-1.6,0.6c1.6-0.4,3.7-1,5.6-1.5
							c1.9-0.5,3.7-0.8,4.5-1.1c3.3-0.4,10.9-2.2,10.7-1.8c1-0.3,5.7-1.3,8.7-1.8c-2.7,0.7,0.1,0.3,3.4-0.3c0.8-0.1,1.7-0.3,2.5-0.4
							c0.8-0.1,1.6-0.2,2.2-0.2c1.3-0.1,2.1-0.2,1.7,0c2-0.5,5.7-1,9.7-1.6c4.1-0.5,8.5-0.9,12.1-1.4c-0.4,0.1-1.2,0.2-1.8,0.3
							c2-0.2,3.3-0.3,4.5-0.4c1.1,0,2.1-0.1,3.4-0.1c0.5-0.4,6.8-1,10.2-1.5c2.5,0,1.8,0.2,0.6,0.4c-1.2,0.2-2.8,0.4-2,0.6
							c-0.1-0.1,2-0.4,4-0.6c2-0.2,3.8-0.3,2.9-0.4c3.8,0,3.3-0.1,5.3,0.2c0.7-0.5,3.6-0.3,6.7-0.7c5.6,0.1,1.4,0.4,7.5,0.1
							C124.9,151.1,119.5,151.4,119.5,151.4z M264.4,156.5L264.4,156.5c-1.2-0.1-2.3-0.2-3-0.2C262,156.3,262.9,156.4,264.4,156.5z
							 M276.5,157.4c-1.5-0.1-3.3-0.3-5.3-0.4c-0.4-0.1,0-0.2,1.3-0.1C271.9,156.9,274.7,157.2,276.5,157.4z M251,153.5
							c1.9,0.1,2.6,0.2,2.8,0.3c-0.9-0.1-2-0.1-3.4-0.2c-0.1,0-0.2,0-0.2,0C250.4,153.5,250.6,153.5,251,153.5z"/>
						<path class="st2" d="M247.5,153.6c-0.3,0-0.4,0-0.8,0c0.4,0.1,0.8,0.1,1.1,0.1c0.2,0,0.5,0,0.7,0
							C248.1,153.6,247.8,153.6,247.5,153.6z"/>
						<path class="st2" d="M1346.5,160.3l-0.3,0c0.2,0,0.4,0,0.5,0.1C1346.6,160.3,1346.6,160.3,1346.5,160.3z"/>
						<polygon class="st2" points="444.8,163.6 444.8,163.5 443.7,163.6 						"/>
						<path class="st2" d="M1413.6,163.4c0.1,0,0.4,0.1,0.9,0.1C1414.4,163.5,1414,163.4,1413.6,163.4z"/>
						<path class="st2" d="M1442.5,165.1l4.1,0.4C1444.8,165.4,1443.5,165.2,1442.5,165.1z"/>
						<path class="st2" d="M1464.7,166.9c0.3,0,0.4-0.1,0.4-0.1c0,0,0,0,0,0L1464.7,166.9z"/>
						<path class="st2" d="M1110.7,172.7c-0.3,0-0.6,0.1-0.9,0.1C1107.8,173,1109.2,172.8,1110.7,172.7z"/>
						<path class="st2" d="M1215.9,164.2c-1.1,0.1-2.2,0.2-3.4,0.3C1214.4,164.5,1215.8,164.4,1215.9,164.2z"/>
						<path class="st2" d="M993,179.9C993,179.9,993,179.9,993,179.9c-0.2,0-0.5,0-0.7,0L993,179.9z"/>
						<path class="st2" d="M1207.6,164.8c1.9-0.1,3.4-0.2,4.9-0.3C1211,164.6,1209.2,164.7,1207.6,164.8z"/>
						<path class="st2" d="M1560.8,177.2l1.1,0.1c0,0,0.1,0,0.1,0L1560.8,177.2z"/>
						<path class="st2" d="M1562,177.4l1.2,0.1C1562.7,177.4,1562.2,177.3,1562,177.4z"/>
						<path class="st2" d="M1565.7,177.7l-2.5-0.3C1564.1,177.6,1565.1,177.7,1565.7,177.7z"/>
						<path class="st2" d="M1531.5,173.4l-0.3,0.1C1531.4,173.5,1531.5,173.5,1531.5,173.4z"/>
						<path class="st2" d="M1522.6,172.4c2.1,0.3,5.3,0.8,8.3,1.1l0.3-0.1C1529.8,173.5,1524.7,172.5,1522.6,172.4z"/>
						<path class="st2" d="M1485.5,167.4l7.5,0.8c-1.3-0.2-3-0.5,0.4-0.2C1484,166.8,1495.3,168.4,1485.5,167.4z"/>
						<path class="st2" d="M1462.3,165.3c4,0.3,0-0.2,0.2-0.2C1459.9,165,1459.3,165,1462.3,165.3z"/>
						<path class="st2" d="M1293.8,160.1l0.4-0.3C1291.1,160,1294.2,160,1293.8,160.1z"/>
						<polygon class="st2" points="1261.7,162.3 1264.7,162.4 1266.1,162.1 						"/>
						<polygon class="st2" points="1242.6,161.2 1243.9,161.1 1238.7,161.5 						"/>
						<path class="st2" d="M960.2,177.8l0.9,0.3C963.2,178.1,963.7,177.7,960.2,177.8z"/>
						<path class="st2" d="M838.7,168.1c-1.3-0.4-4.7-1.1-6.8-1.3C834.6,167.3,837.3,167.9,838.7,168.1z"/>
						<polygon class="st2" points="476.9,158.4 479.3,158 474.8,158.6 						"/>
					</g>
				</g>
			</g>
		</g>
	</g>
</g>
<g>
	<g id="XMLID_1_">
		<g>
			<rect x="1464.4" y="55.3" class="st3" width="58" height="11"/>
		</g>
	</g>
	
		<rect x="1413.1" y="123.3" transform="matrix(5.999990e-02 -0.9982 0.9982 5.999990e-02 1258.8213 1586.3789)" class="st3" width="117.1" height="3"/>
	
		<rect x="1513" y="64.2" transform="matrix(0.9975 -7.119730e-02 7.119730e-02 0.9975 -5.1473 108.1158)" class="st3" width="2.1" height="124.2"/>
	<rect x="1475.4" y="85.3" class="st3" width="36" height="2"/>
	<ellipse class="st3" cx="1500.9" cy="55.3" rx="12.5" ry="9"/>
	<rect x="1500.4" y="34.3" class="st3" width="3" height="14"/>
	<rect x="1498.4" y="22.3" transform="matrix(0.9274 -0.3741 0.3741 0.9274 97.931 563.2343)" class="st3" width="3" height="14"/>
	<g>
		<path class="st3" d="M1488.6,37.6L1488.6,37.6c0,0,8.2-20.3,10.9-27c0.6-1.4,2.2-5.5,2.2-5.5l0,0L1488.6,37.6z"/>
		<g>
			<path class="st3" d="M1490,32.8C1489.9,32.8,1489.9,32.8,1490,32.8c1.1,2,2.3,4.1,3.4,6.1c4.4-10.8,8.8-21.6,13.2-32.5
				c-2.1,1.2-4.1,2.3-6.2,3.5c0,0,0,0,0,0c-1.2-2.1-2.3-4.1-3.5-6.2c-4.4,10.8-8.8,21.6-13.2,32.5c-2.4,6,7.2,8.5,9.6,2.7
				c4.4-10.8,8.8-21.6,13.2-32.5c1.1-2.7-1.2-5.2-3.5-6.1c0,0,0,0,0,0c-2.7-1.1-5.2,1.2-6.2,3.5c-4.4,10.8-8.8,21.6-13.2,32.5
				c-1.1,2.7,1.2,5.2,3.5,6.2c0,0,0,0,0,0C1493.3,44.8,1495.8,35.2,1490,32.8z"/>
		</g>
	</g>
</g>
</svg>
