<?xml version="1.0" encoding="utf-8"?>
<!-- Generator: Adobe Illustrator 23.0.3, SVG Export Plug-In . SVG Version: 6.00 Build 0)  -->
<svg version="1.1" id="Layer_1" xmlns="http://www.w3.org/2000/svg" xmlns:xlink="http://www.w3.org/1999/xlink" x="0px" y="0px"
	 viewBox="0 0 177.3 214.2" style="enable-background:new 0 0 177.3 214.2;" xml:space="preserve">
<g>
	<g>
		<path d="M34.5,30.8C34,36,33.6,41.2,33.2,46.4c-0.3,3.1-1.8,8.5-0.7,11.4c0.7,1.8,1.7,2,3.4,2.3c4.8,0.8,10.3,0.3,15.1,0.4
			c1.9,0,1.9-3,0-3c-3.5-0.1-6.9-0.2-10.4-0.3c-0.7,0-4.2,0.4-4.7-0.1c-1-1-0.3-3.7-0.2-4.9c0.6-7.1,1.2-14.3,1.8-21.4
			C37.6,28.9,34.6,28.9,34.5,30.8L34.5,30.8z"/>
	</g>
</g>
<g>
	<g>
		<path d="M55,47.6c-0.3,3.7-0.6,7.5-0.9,11.2c-0.2,1.9,2.8,1.9,3,0c0.3-3.7,0.6-7.5,0.9-11.2C58.1,45.6,55.1,45.6,55,47.6L55,47.6z
			"/>
	</g>
</g>
<g>
	<g>
		<path d="M57.2,40.1c1.9,0,1.9-3,0-3C55.3,37.1,55.3,40.1,57.2,40.1L57.2,40.1z"/>
	</g>
</g>
<g>
	<g>
		<path d="M60.2,48c-0.3,3.7-0.6,7.4-1,11c1,0,2,0,3,0c-0.2-2.2-0.3-4.4-0.2-6.6c0.1-2.1-0.5-8.8,3.6-5c1.3,1.2,2,4,2.4,5.6
			c0.6,2.7,0.7,5.3,0.3,8c-0.3,1.9,2.6,2.7,2.9,0.8c0.6-4,0.5-7.9-0.9-11.8c-0.9-2.7-2.4-6.1-5.4-7c-7.8-2.4-5.9,12.2-5.6,16
			c0.2,1.9,2.8,1.9,3,0c0.3-3.7,0.6-7.4,1-11C63.4,46.1,60.4,46.1,60.2,48L60.2,48z"/>
	</g>
</g>
<g>
	<g>
		<path d="M73.9,37.8c-0.6,7.2-1.2,14.5-1.8,21.7c-0.2,1.9,2.8,1.9,3,0c0.6-7.2,1.2-14.5,1.8-21.7C77,35.9,74,35.9,73.9,37.8
			L73.9,37.8z"/>
	</g>
</g>
<g>
	<g>
		<path d="M76.9,52.1c1-2.1,2.6-3.8,4.6-5c1.7-1,0.2-3.6-1.5-2.6c-2.5,1.4-4.4,3.5-5.7,6.1C73.5,52.3,76.1,53.8,76.9,52.1L76.9,52.1
			z"/>
	</g>
</g>
<g>
	<g>
		<path d="M73.9,53.8c3,3.3,6,6.5,9,9.8c1.3,1.4,3.4-0.7,2.1-2.1c-3-3.3-6-6.5-9-9.8C74.7,50.3,72.6,52.4,73.9,53.8L73.9,53.8z"/>
	</g>
</g>
<g>
	<g>
		<path d="M85.3,55.5c1.9,0.8,4.2,1.5,6.1,0.5c1.3-0.7,2.4-2.2,2.3-3.8c-0.1-1.9-1.6-2.6-3-3.4c-1.7-0.9-3.3-1.8-5.3-1.2
			c-3.7,1.1-4.8,5.7-3.1,8.8c2.3,4.1,7.2,4.9,11.5,5.4c1.9,0.2,1.9-2.8,0-3c-3.2-0.4-9.9-1.3-9.3-6c0.1-1.1,1-2.3,2.2-2.5
			c0.9-0.1,1.7,0.6,2.4,1c0.8,0.4,2.2,1.3,0.6,2C88.7,53.9,87,53,86,52.6C84.3,51.9,83.5,54.8,85.3,55.5L85.3,55.5z"/>
	</g>
</g>
<g>
	<g>
		<path d="M108.6,28.5c-0.9,10.3-1.8,20.6-2.7,30.8c0.9-0.3,1.9-0.5,2.8-0.8c-3.3-5-12.1-8.4-14.8-0.8c-3,8.6,11.2,7.6,16,6.8
			c1.9-0.3,1.1-3.2-0.8-2.9c-2.5,0.4-8.4,1.2-10.6-0.4c-2.2-1.7-1.8-2.9,0.9-3.9c3.1-1.2,4.8-0.1,6.7,2.8c0.8,1.3,2.7,0.7,2.8-0.8
			c0.9-10.3,1.8-20.6,2.7-30.8C111.8,26.6,108.8,26.6,108.6,28.5L108.6,28.5z"/>
	</g>
</g>
<g>
	<g>
		<path d="M115.3,38.9c-0.9,8-1,16-0.3,24.1c0.2,1.9,3.2,1.9,3,0c-0.7-8.1-0.5-16.1,0.3-24.1C118.5,37,115.5,37,115.3,38.9
			L115.3,38.9z"/>
	</g>
</g>
<g>
	<g>
		<path d="M114,65c3.5,0.3,7,0.6,10.5,0.9c1.9,0.2,1.9-2.8,0-3c-3.5-0.3-7-0.6-10.5-0.9C112.1,61.9,112.1,64.9,114,65L114,65z"/>
	</g>
</g>
<g>
	<g>
		<path d="M112.4,38.5c3.2,0.3,6.5,0.5,9.7,0.8c1.9,0.2,1.9-2.8,0-3c-3.2-0.3-6.5-0.5-9.7-0.8C110.5,35.4,110.5,38.4,112.4,38.5
			L112.4,38.5z"/>
	</g>
</g>
<g>
	<g>
		<path d="M130,63.5c-0.7-3.4-1.1-6.8-0.9-10.2c0.1-2.1,0.4-3.6,3.1-3.7c1.3,0,2.8,0.6,3.9,1.2c4.5,2.6,6.9,8.1,5.4,13.1
			c-0.5,1.9,2.3,2.6,2.9,0.8c2.1-7.1-2.2-15.4-9.4-17.6c-2.9-0.9-6.9-1-8.3,2.3c-1.8,4.3-0.4,10.6,0.5,14.9
			C127.5,66.2,130.4,65.4,130,63.5L130,63.5z"/>
	</g>
</g>
<g>
	<g>
		<path d="M155,33.7c0.7,54-2.2,108-8.6,161.6c-0.2,1.9,2.8,1.9,3,0c6.4-53.6,9.3-107.6,8.6-161.6C158,31.8,155,31.8,155,33.7
			L155,33.7z"/>
	</g>
</g>
<g>
	<g>
		<path d="M147.9,195.9c-15.6-1.9-31.3-3.8-47-4.8c-15-0.9-29.9-0.6-44.9-0.1c-7.1,0.3-14.2,0.5-21.3,0.4c-3.9-0.1-7.7-0.2-11.6-0.5
			c-4-0.3-10.1,0.1-13.1-2.9c-4.3-4.2-4.2-14.1-4.5-19.7c-0.3-6.8,0.1-13.6,0.9-20.4c3.4-27.1,13.7-53.1,15-80.6
			c0.6-14.2-2.2-28.4-0.9-42.7c0.2-2.2-0.3-4.9,1.9-6.2c1.3-0.8,5.5-0.7,7.3-0.9c3.2-0.3,6.4-0.4,9.6-0.5c7.7-0.2,15.5,0.2,23.2,0.7
			c16.8,1.1,33.6,2.6,50.3,4c8.7,0.7,17.3,1.3,26,2.1c6.9,0.6,22.1,4.4,16.5,14.7c-0.9,1.7,1.7,3.2,2.6,1.5
			c4.4-8.1-2.6-15.8-10.3-17.9c-5.8-1.6-12.3-1.6-18.3-2.1c-7.4-0.6-14.9-1.2-22.3-1.8c-28.8-2.3-58.6-7-87.3-2.4
			c-0.5,0.1-1,0.6-1,1C16.6,27.5,17.3,38.2,18,49c0.7,10.7,0.7,21.2-0.9,31.8c-2.9,20.2-9.3,39.8-12.6,59.9C3,150.3,2,160.2,2.7,170
			c0.4,6.4,0.5,16.8,6.3,21c2.9,2.1,7,2.2,10.4,2.6c5.8,0.6,11.6,0.9,17.4,0.9c11,0.1,22-0.6,32.9-0.9c26.3-0.7,52.3,2.2,78.3,5.3
			C149.9,199.1,149.8,196.1,147.9,195.9L147.9,195.9z"/>
	</g>
</g>
<g>
	<g>
		<path d="M1.9,40.7c9.4-2.8,16.8-8.8,24.5-14.6c9-6.8,18.4-12.9,28-18.6c1.7-1,0.2-3.6-1.5-2.6c-9.1,5.4-18,11.2-26.5,17.5
			c-8,5.9-15.6,12.6-25.3,15.5C-0.8,38.4,0,41.3,1.9,40.7L1.9,40.7z"/>
	</g>
</g>
<g>
	<g>
		<path d="M2.3,42.6c1.8,2.4,1.9,4.6,0.2,6.3c-0.6,0.9-1.2,1.8-1.7,2.7C0.2,53.1,0.1,54,0,55.5c-0.1,0.8,0.7,1.4,1.5,1.5
			c6,0.4,10.7-2.9,15.5-6.1c6.2-4.3,12.4-8.5,18.5-12.8C48.7,29,61.8,20,74.9,10.9c1.2-0.8,0.8-2.8-0.8-2.8c-2.4,0-5.5,0.6-7.9,0.1
			c-2.2,0.5-3.7-0.5-4.5-3c0.2-1,0.6-2,1.1-3C63.5,1,62.5-0.2,61.2,0c-4.3,0.9-7.8,2.7-11.1,5.6c-1.5,1.3,0.7,3.4,2.1,2.1
			c2.9-2.5,6-4,9.8-4.8c-0.6-0.7-1.1-1.5-1.7-2.2c-1.3,2.6-2.7,6.5-0.5,9c2.9,3.3,10.6,1.4,14.3,1.4c-0.3-0.9-0.5-1.9-0.8-2.8
			c-12,8.3-24,16.6-36.1,24.8c-5.7,3.9-11.5,7.9-17.2,11.8C14.7,48.8,8.6,54.5,1.5,54c0.5,0.5,1,1,1.5,1.5c0.4-4.5,6.5-8.4,4.1-13.3
			C5.8,39.7,3.2,39,0.8,40C-0.9,40.8,0.6,43.4,2.3,42.6L2.3,42.6z"/>
	</g>
</g>
<g>
	<g>
		<path d="M171.8,150.9c-9.2,1.5-16.7,6.7-24.3,11.9c-8,5.5-16.4,9.7-25.4,13.3c-15.5,6.2-32,11.7-42.8,25.1
			c-0.7,0.9-0.4,2.7,1.1,2.6c3.5-0.3,7-0.7,10.5-1c1.2-0.1,3.7-0.8,4.8-0.5c1.7,1.3,3.3,2.7,5,4c-0.2,2-0.8,3.9-1.8,5.6
			c-0.5,1.1,0.4,2.7,1.7,2.2c6.5-2.2,12.7-5.1,18.5-8.8c6.8-4.4,12.2-10.1,20.3-12.3c6.7-1.8,13.3-3,19.7-5.7
			c6.5-2.8,12.5-6.6,17.9-11.2c1.1-0.9,0.1-2.5-1.1-2.6c-4.2-0.2-10.7-0.8-11.3-6.4c-0.2-2.4,2.6-4.7,4.1-6.3
			c2.2-2.3,3.8-4.4,4.2-7.6c0.2-1.9-2.8-1.9-3,0c-0.8,6.1-9.3,8.3-8.1,15.2c1.1,6.6,8.7,7.7,14.1,8c-0.4-0.9-0.7-1.7-1.1-2.6
			c-5.8,4.9-12.2,8.8-19.3,11.6c-6.6,2.6-13.7,3.2-20.3,5.6c-6.1,2.2-10.5,6.6-15.7,10.2c-6.1,4.3-12.8,7.5-19.9,9.9
			c0.6,0.7,1.1,1.5,1.7,2.2c1.9-4,4-9.9-0.4-13.1c-2.2-1.6-4.7-1.1-7.2-0.9c-4.5,0.4-8.9,0.8-13.4,1.3c0.4,0.9,0.7,1.7,1.1,2.6
			c11.2-13.8,28.4-18.9,44.3-25.4c7.5-3.1,14.7-6.6,21.4-11.1c8-5.4,15.7-11.4,25.5-13C174.5,153.5,173.7,150.6,171.8,150.9
			L171.8,150.9z"/>
	</g>
</g>
<path d="M69.8,118.1l-7.5-0.7l1.1-11.8c0.3-2.8,0.5-6.4-3.3-6.8c-3.9-0.4-4.8,2.6-5.1,5.8l-1.1,12l-7.5-0.7l2.2-24.2l7.2,0.7
	l-0.3,3.3l0.1,0c1.2-1.8,3.8-3.6,7.5-3.3c7.6,0.7,8.6,5.8,7.9,12.4L69.8,118.1L69.8,118.1z M40.4,87.6c-2.4-0.2-4.2-2.4-4-4.8
	c0.2-2.4,2.3-4.2,4.8-4c2.4,0.2,4.2,2.4,4,4.8C44.9,86.1,42.8,87.8,40.4,87.6z M41.6,115.5l-7.5-0.7l2.2-24.2l7.5,0.7L41.6,115.5z
	 M77.5,75.2l-43.2-4c-2.1-0.2-3.9,1.3-4.1,3.3l-4,43.4c-0.2,2,1.3,3.8,3.4,4l43.2,4c2.1,0.2,3.9-1.3,4.1-3.3l4-43.4
	C81.1,77.2,79.6,75.4,77.5,75.2L77.5,75.2z"/>
<g>
	<g>
		<path d="M90.6,85.9c16.5-2.3,33.1-0.4,48.7,5.4c1.8,0.7,2.6-2.2,0.8-2.9c-16.2-6-33.2-7.8-50.3-5.4C87.9,83.3,88.7,86.2,90.6,85.9
			L90.6,85.9z"/>
	</g>
</g>
<g>
	<g>
		<path d="M90,93.3c18.9,2.2,38.1,1.4,56.7,6.1c1.9,0.5,2.7-2.4,0.8-2.9c-18.8-4.8-38.3-4-57.5-6.2C88.1,90.1,88.1,93.1,90,93.3
			L90,93.3z"/>
	</g>
</g>
<g>
	<g>
		<path d="M92.9,110.1c8.7-2.6,16.4-1.3,25,0.5c7,1.5,14.1,2.2,21.3,2.3c1.9,0,1.9-3,0-3c-8.7-0.1-17-1.5-25.5-3.3
			c-7.3-1.5-14.3-1.5-21.5,0.6C90.3,107.8,91,110.7,92.9,110.1L92.9,110.1z"/>
	</g>
</g>
<g>
	<g>
		<path d="M86.5,120.8c18.3-0.4,36.5,1.2,54.4,4.8c1.9,0.4,2.7-2.5,0.8-2.9c-18.2-3.7-36.7-5.3-55.2-4.9
			C84.6,117.9,84.5,120.9,86.5,120.8L86.5,120.8z"/>
	</g>
</g>
<g>
	<g>
		<path d="M24.9,136.4c8.8-0.8,17.8-1.6,26.6-1c8.1,0.6,16,3.1,24.2,3.2c8.4,0.1,16.7-1,25.1-0.3c9.2,0.7,18.2,2.7,27.2,4.7
			c1.9,0.4,2.7-2.5,0.8-2.9c-8-1.8-16.1-3.5-24.3-4.4c-9.1-1-17.9-0.1-27,0c-8.5,0.1-16.6-2.4-25.1-3.1c-9.2-0.8-18.4,0.1-27.6,0.9
			C23,133.6,23,136.6,24.9,136.4L24.9,136.4z"/>
	</g>
</g>
<g>
	<g>
		<path d="M27.1,142.1c9.1-0.7,18.3-0.4,27.3,1c8,1.2,15.8,3.7,23.9,4.5c16.2,1.6,33.5-2,48.5,6c1.7,0.9,3.2-1.7,1.5-2.6
			c-14.5-7.7-30.8-5.2-46.6-6.1c-9.6-0.6-18.8-3.6-28.3-4.9c-8.7-1.2-17.5-1.5-26.3-0.8C25.2,139.3,25.2,142.3,27.1,142.1
			L27.1,142.1z"/>
	</g>
</g>
<g>
	<g>
		<path d="M26.3,151.7c8.6-0.5,17.2,0.5,25.3,3.5c3.6,1.3,7.1,3.3,10.8,4.2c3.6,0.9,7.3,0.7,11,0.7c8.8-0.1,17.7-0.1,26.5-0.2
			c8.7-0.1,17.5,0,25.6,3.6c1.7,0.8,3.3-1.8,1.5-2.6c-7-3.1-14.4-3.9-22-4c-9.3-0.1-18.6,0.1-27.8,0.2c-4.6,0-9.5,0.5-13.9-0.6
			c-4.3-1-8.3-3.4-12.5-4.8c-7.9-2.6-16.2-3.5-24.5-3C24.4,148.9,24.4,151.9,26.3,151.7L26.3,151.7z"/>
	</g>
</g>
<g>
	<g>
		<path d="M28.3,166.4c15.8-3.1,31.1,3.5,46.7,4.9c15.2,1.3,30.7-2.3,45.5,2.7c1.8,0.6,2.6-2.3,0.8-2.9c-15.1-5.1-30.8-1.5-46.3-2.8
			c-16-1.4-31.3-7.9-47.5-4.8C25.6,163.9,26.4,166.8,28.3,166.4L28.3,166.4z"/>
	</g>
</g>
<g>
	<g>
		<path d="M24.1,181.6c15.8-0.7,32.1-2.6,47.9-1.1c15.8,1.5,30.9,5.2,46.9,4.7c1.9-0.1,1.9-3.1,0-3c-15.9,0.5-31.1-3.2-46.9-4.7
			c-15.8-1.5-32.1,0.4-47.9,1.1C22.2,178.6,22.2,181.6,24.1,181.6L24.1,181.6z"/>
	</g>
</g>
</svg>
