<?xml version="1.0" encoding="utf-8"?>
<!-- Generator: Adobe Illustrator 23.0.3, SVG Export Plug-In . SVG Version: 6.00 Build 0)  -->
<svg version="1.1" id="Layer_1" xmlns="http://www.w3.org/2000/svg" xmlns:xlink="http://www.w3.org/1999/xlink" x="0px" y="0px"
	 viewBox="0 0 98.7 101.7" style="enable-background:new 0 0 98.7 101.7;" xml:space="preserve">
<path d="M47.8,46.8l-3.5,0.4l-0.6-5.5c-0.1-1.3-0.4-3-2.2-2.8c-1.8,0.2-2,1.7-1.8,3.2l0.6,5.6l-3.5,0.4l-1.3-11.4l3.4-0.4l0.2,1.6
	l0,0c0.4-0.9,1.4-2,3.1-2.2c3.6-0.4,4.5,1.9,4.9,4.9L47.8,46.8L47.8,46.8z M31.3,35.6c-1.1,0.1-2.2-0.7-2.3-1.8
	c-0.1-1.1,0.7-2.2,1.8-2.3c1.1-0.1,2.2,0.7,2.3,1.8C33.3,34.4,32.5,35.5,31.3,35.6z M34.6,48.3L31,48.7l-1.3-11.4l3.5-0.4L34.6,48.3
	z M47.3,26.3L27,28.6c-1,0.1-1.7,1-1.6,1.9l2.3,20.4c0.1,1,1,1.6,2,1.5L50,50.2c1-0.1,1.7-1,1.6-1.9l-2.3-20.4
	C49.1,26.9,48.3,26.2,47.3,26.3L47.3,26.3z"/>
<path d="M62,60.1c-4.2-1.3-7.6-0.6-11.6,0.7c-5.3,1.7-10.5,2.5-16.1,2.3c-1.9-0.1-1.9,2.9,0,3c4.1,0.2,8.1-0.1,12.1-1
	c5.1-1.2,9.4-3.8,14.7-2C63,63.6,63.8,60.7,62,60.1z"/>
<path d="M62,67.6c-4.4,0.1-8.8-0.2-13.2-0.2c-3.4,0-7.4,3-10.5,2.5c-1.9-0.3-2.7,2.6-0.8,2.9c3.4,0.6,5.6-1.3,8.9-2
	c4.8-1.1,10.6,0,15.6-0.2C63.9,70.5,63.9,67.5,62,67.6z"/>
<path d="M64.7,76.9c-3.8,1.3-9.2,0.4-13.2,0.3c-4.3,0-8.6-0.1-12.9-0.1c-1.9,0-1.9,3,0,3l14.8,0.1c3.9,0,8.4,0.8,12.1-0.5
	C67.3,79.2,66.5,76.3,64.7,76.9z"/>
<path d="M72.8,26.4c-1.1,1.1-6.2-0.1-7.5-0.2c-2.5-0.1-5-0.1-7.5,0.1c-1.9,0.2-1.9,3.2,0,3c3.8-0.3,7.5-0.3,11.3,0.2
	c2.1,0.3,4.2,0.7,5.8-1.1C76.2,27.1,74.1,25,72.8,26.4z"/>
<path d="M73.7,32.2c-1.7,1.6-4.3,1.3-6.5,1.3c-2.4,0-4.8,0.1-7.1,0.1c-1.9,0-1.9,3,0,3c3.3,0,6.7,0.1,10-0.1
	c2.2-0.1,4.1-0.6,5.7-2.1C77.2,33,75.1,30.9,73.7,32.2z"/>
<path d="M75.4,40.3H60.7c-1.9,0-1.9,3,0,3h14.7C77.3,43.3,77.3,40.3,75.4,40.3z"/>
<path d="M75.7,47.1c-4,0.3-8,0.6-12,0.9c-1.9,0.1-1.9,3.1,0,3c4-0.3,8-0.6,12-0.9C77.6,49.9,77.6,46.9,75.7,47.1z"/>
<path d="M97.9,85.4c0.1-0.3,0-0.6-0.1-0.9c0.1-2.5,2.2-4.1-0.4-6.4c-0.3-0.3-1.1-0.4-1.3-0.8c-0.4-0.6,0.1-0.8-0.1-1.4
	c-0.3-1.1,0-1.4-0.9-2.4c-0.6-0.7-1.5-0.5-2.1,0c-1.1,0.9-2.2,1.8-3.2,2.8c-0.1-1.6-0.1-3.3,0-4.9c0.2-6.7-0.3-12.7-1.8-19.3
	c-3.5-14.8-4.8-29.8-5.7-44.9c0-0.6-0.4-1.3-1.1-1.4c-8.2-1.5-16.6-3.1-25-2.3c-2.7,0.3-5.1,0.7-7.5,2.1c-1.1,0.7-2.2,1.2-3.3,1.8
	c0-0.7-0.5-1.4-1.1-1.5c-0.5-0.5-1-0.9-1.6-1.4c-0.1-1-0.9-1.7-1.9-1.4c-1.6,0.7-3.1,0.3-4.5-1.2c0.1-1.1-1-2.3-2.1-1.5
	C30.6,3,27.1,5.7,23.6,8.4c-2.4-0.5-4.8-1.1-7.2-1.7c-0.2-0.2-0.5-0.3-0.9-0.3c-0.1,0-0.2,0-0.3,0c-0.2-0.1-0.4-0.1-0.6-0.2
	c-0.5-0.1-0.9,0-1.2,0.2c-0.6,0-1.2,0-1.8,0c-1.1,0-1.6,0.9-1.4,1.9c0.5,3.5,0.4,7,0.3,10.5c-2.1,1.7-4.3,3.4-6.4,5.2
	c-0.6-0.2-1.2,0-1.5,0.7c-0.7,1.5-1.3,2.8-2.2,4.2c-0.5,0.8,0,2,0.9,2.2c1.6,0,2.7,0.9,3.2,2.8c-0.9,1.5,1.1,2.9,2.4,1.8
	c1.5-1.3,2.9-2.7,4.4-4c0.2,0.7,0.3,1.4,0.6,2.1c0.1,0.4,0.4,0.7,0.7,0.8c0.3,8,1.1,15.9,3.8,23.5c2.1,5.8,3.5,10.9,3.9,17.1
	c0.4,6.8,0.9,13.6,1.3,20.5c0.1,1.1,1.2,1.9,2.3,1.3c12-6.6,25.7-8.3,39.2-6.7c2.1,0.2,4.1,0.7,6.2,1.2c-1,0.6-2.1,1.2-3.3,1.7
	c-1.5,0.6-1.4,3,0.4,2.9c0.2,0,0.5,0,0.7,0c0.5,1.3,1.6,1.1,2.6,1.1c-0.6,0.7-1.2,1.4-1.8,2c-0.8,0.9-0.3,2.7,1.1,2.6
	c4.9-0.6,8.8-3,12.6-6c1.1-0.9,2.2-1.8,3.4-2.7c1.8-0.5,3.5-1.5,4.6-3.1c2-1.1,4.1-1.8,6.2-2.7c0.9,1.2,3.2,0.4,2.7-1.2
	C98,85.7,97.9,85.5,97.9,85.4z M7.1,31.2c-0.7-1.1-1.9-1.9-3.3-2.5c0.4-0.7,0.7-1.4,1.1-2.1c0.3,0,0.7-0.1,1-0.4
	c1.5-1.2,2.9-2.4,4.4-3.6c0,1.8,0,3.6,0.2,5.4C9.3,29.2,8.2,30.2,7.1,31.2z M92.7,77.8c0.2,1,0.9,1.2,1.4,1.9c1.1,1.4,1,1.1,0.9,2.8
	c0,0.6-0.1,1.2-0.2,1.7c-1.5,0.8-2.9,1.5-4.4,2.1c0.1-1.3,0-2.6-0.2-4c-0.1-0.7-0.1-1.4-0.2-2.1C91,79.3,91.8,78.5,92.7,77.8z
	 M83.7,90c-1.9,0.6-4.4,0.3-6.9-0.1c1.5-1,3-2,4.7-2.9c2.2-1.2,4.1-2.7,5.9-4.3c0.3,2.7-0.2,4.5-1.1,5.7
	C85.4,88.8,84.5,89.3,83.7,90z M77.6,75.4h-2c-0.6,0-1.3,0.5-1.4,1.1c-1.6-5.2-2.6-10.5-3.1-16c2.3,0,5.6-0.6,7.4,1.3
	c1.7,1.9,2.1,6.9,2.2,9.2c0.1,3-0.2,5.9,0.4,8.8c-0.3,0.2-0.5,0.4-0.6,0.7c-1.7-0.2-3.3-0.3-5-0.3c-0.3-0.7-0.5-1.5-0.8-2.2
	c0.3,0.2,0.6,0.4,0.9,0.4h2c0.8,0,1.5-0.7,1.5-1.5C79.1,76.1,78.5,75.4,77.6,75.4z M33.9,4.2c1.3,2,3.6,2.3,6.1,1.9
	c0.2,0.7,0.6,1.2,1.1,1.6C40,8.6,38.5,9.2,37,9.8c-0.3,0.1-0.7,0.1-1,0.2c-2.9-0.1-5.7-0.4-8.5-0.9C29.6,7.5,31.8,5.8,33.9,4.2z
	 M14.8,9.4c1.9,0.5,3.8,1,5.7,1.4c-2.4,1.9-4.8,3.8-7.2,5.7c0.1-2.4,0.1-4.7-0.1-7.1C13.7,9.4,14.2,9.4,14.8,9.4z M13.2,20.4
	c3.7-3,7.4-5.9,11.1-8.8c2.2,0.4,4.5,0.8,6.7,1c-3.1,1.8-6.1,3.8-9,6c-3,2.3-5.9,4.7-8.8,7.1C13.1,24,13.1,22.2,13.2,20.4z
	 M69.7,88.3c-5.3-1-10.7-1.6-16.1-1.7c-10.2-0.1-20.3,2-29.4,6.6c-0.5-10.9-0.2-22.6-4-32.8c-4-10.6-4.8-21.3-4.9-32.4
	c3.8-3.3,7.6-6.4,11.7-9.2c3.1-2.1,6.3-4.1,9.6-5.7c0,0,0,0,0,0c0.2,0,0.5,0,0.7,0c0.4,0,0.7-0.1,0.9-0.3c1.2-0.2,2.5-0.5,3.7-0.8
	c2.3-0.5,4.4-1.3,6.5-2.6c3.2-2.1,5.8-2.8,9.6-3.1c7.1-0.4,14.3,0.8,21.3,2.1c0.8,12.5,1.7,25.1,4.2,37.4c1.3,6.5,3.4,12.8,3.5,19.4
	c0.1,4.6-0.2,9.1,0.1,13.7c-0.8,0.8-1.6,1.5-2.5,2.2c-2.1-6,0-12.8-2.5-19c-2.3-5.8-5-4.7-10.9-4.6c-0.9,0-1.4,0.7-1.4,1.4
	c-0.8-0.1-1.6,0.4-1.5,1.4c0.5,7.5,2.1,14.7,4.8,21.8c0.2,0.6,0.7,1.1,1.4,1.1c2.2,0.1,4.4,0.2,6.6,0.4c-0.4,0.2-0.8,0.5-1.2,0.7
	c-2,1.1-4.2,1.8-6,3.3c-0.5,0.4-1,0.8-1.5,1.2C71.5,88.6,70.5,88.4,69.7,88.3z M79.2,93.4c-2,1.6-4,3-6.3,4c0.5-0.6,0.5-1.5-0.1-2
	c-0.5-0.5-0.8-0.9-1.5-1c-1-0.3-1.3-0.2-1.4,0c0-0.1,0-0.2,0-0.3c1-0.6,2-1.2,2.9-1.8C75,92.9,77.1,93.3,79.2,93.4z"/>
<path d="M77.3,65h-3.3c-1.9,0-1.9,3,0,3h3.3C79.2,68,79.2,65,77.3,65z"/>
<path d="M78.3,70.2h-3.6c-1.9,0-1.9,3,0,3h3.6C80.2,73.2,80.2,70.2,78.3,70.2z"/>
</svg>
