<?xml version="1.0" encoding="utf-8"?>
<!-- Generator: Adobe Illustrator 23.0.3, SVG Export Plug-In . SVG Version: 6.00 Build 0)  -->
<svg version="1.1" id="Layer_1" xmlns="http://www.w3.org/2000/svg" xmlns:xlink="http://www.w3.org/1999/xlink" x="0px" y="0px"
	 viewBox="0 0 83.9 90.4" style="enable-background:new 0 0 83.9 90.4;" xml:space="preserve">
<path d="M52.9,35.6c-5.2-5.4-15.2-6.8-21.1-1.9c-0.3,0.3-0.5,0.6-0.5,0.9c-1.5,1.9-1.9,4.5-2.6,6.9c-1,3.8-0.5,6.6,2,9.7
	c2.3,2.9,5.6,5.1,9.3,5.8c4.9,0.9,8.2-1.2,12.1-3.8C57.2,49.8,57,39.9,52.9,35.6z M36.4,48.3l1.8,0.2l1-9.5l-1.7-0.2l0.2-2.4L44,37
	l-0.2,2.4l-1.7-0.2l-1,9.5l3.9,0.4l0.3-2.6l2.8,0.3l-0.5,5l-11.4-1.1L36.4,48.3z"/>
<path d="M26.3,61.6c0-0.5-0.6-1-1.1-0.6c-0.5,0.3-1.8,1.7-2.4,1.8c-1,0-1.4-1.3-1.8-2c-0.3-0.4-0.7-0.4-1.1-0.2
	c-0.4-0.3-1.2-0.2-1.2,0.6v8.5c0,1,1.5,1,1.5,0v-7.1c0.5,0.9,1.1,1.9,2,2.1c0.9,0.1,1.8-0.6,2.6-1.3c0.1,2.5,0,5-0.1,7.5
	c-0.1,1,1.4,1,1.5,0C26.3,67.6,26.4,64.6,26.3,61.6z"/>
<path d="M35.4,66.4c-0.1-1-0.3-2-0.9-2.8c-0.7-1-1.7-1.2-2.8-1.7c-0.6-0.3-1.1,0.2-1.1,0.7c-0.3-0.1-0.7,0.1-0.8,0.5
	c-0.4,1.4-0.6,2.8-0.8,4.3c-0.1,0.9-0.5,2.2,0,3.1c0.7,1.4,3.5,1.9,4.9,1.3C35.7,70.9,35.6,68.1,35.4,66.4z M33.2,70.1
	c-0.7,0.4-1.6,0.5-2.3,0c-0.8-0.5-0.6-1.4-0.5-2.2c0.2-1.5,0.5-3,0.9-4.5c0-0.1,0-0.1,0-0.2c1.5,0.7,2.5,1.2,2.7,3.1
	C34.1,67.6,34.3,69.3,33.2,70.1z"/>
<path d="M42.5,64.6c-0.4,1.3-0.9,2.6-1.5,3.8c-0.4,0.7-1,2.2-1.8,2.9c-0.6-0.9-0.8-3.1-0.8-3.8c-0.1-1.2-0.1-2.5,0.1-3.7
	c0.1-1-1.4-0.9-1.5,0c-0.2,2-0.2,4.1,0.3,6.1c0.2,0.9,0.5,3.2,1.9,3.2c1.1,0,1.9-1.9,2.4-2.6c1-1.7,1.8-3.5,2.4-5.5
	C44.2,64,42.8,63.6,42.5,64.6z"/>
<path d="M49.2,63.7c-1.2-0.6-2.5-0.8-3.8-0.6c-0.3,0-0.5,0.2-0.5,0.5h-0.1c-1,0.1-1,1.6,0,1.5c0.2,0,0.5,0,0.7,0c0,0.1,0,0.1,0,0.2
	c0.2,2.3-0.1,4.6-0.7,6.8v0.1h-1.1c-1,0-1,1.5,0,1.5h4.1c1,0,1-1.5,0-1.5h-1.5c0.6-2.3,0.9-4.6,0.7-6.9c0-0.1,0-0.2-0.1-0.2
	c0.4,0,0.9,0,1.3,0.1c0.2,0,0.3,0,0.4-0.1C49.4,65.2,50,64.1,49.2,63.7z"/>
<path d="M57.2,74c-1.6-0.1-3.2-0.2-4.8-0.4c0.1-1.2,0.2-2.4,0.3-3.6h2.9c1,0,1-1.5,0-1.5h-2.8c0-1.2,0-2.3,0-3.5
	c0-0.1,0-0.1-0.1-0.2c1.3-0.1,2.6,0,3.9,0.1c1,0.1,1-1.4,0-1.5c-1.4-0.1-2.7-0.1-4.1-0.1c-0.6,0-0.8,0.6-0.7,1
	c-0.3,0-0.6,0.3-0.6,0.7c0.1,3,0,6.1-0.4,9.1C50.7,74.6,51,75,51.5,75c1.9,0.1,3.8,0.3,5.7,0.4C58.1,75.6,58.1,74.1,57.2,74z"/>
<path d="M65,70.7c-0.8-1.2-2.3-1.2-3.6-1.4c-1.3-0.3-2.7-1.1-2-2.7c0.7-1.5,2.5-1.6,3.9-1.3c0.9,0.2,1.3-1.2,0.4-1.4
	c-2.7-0.6-6.6,0.7-5.9,4.2c0.3,1.4,1.4,2.2,2.8,2.5c0.6,0.2,2.5,0.1,2.9,0.6c1,1.3-3.3,1.9-3.7,2c-0.9,0.1-1,1.6,0,1.5
	C61.4,74.6,66.9,73.6,65,70.7z"/>
<g>
	<g>
		<path d="M9.2,22.5c1.4,17-2.8,33.9-1.3,50.8c0.1,1.6,0.3,3.2,0.6,4.8c0.2,1.1,0.1,2.4,1.1,3c1.2,0.7,3.4,0.8,4.7,1
			c1.9,0.3,3.9,0.5,5.8,0.6c8.7,0.4,17.4-0.4,26-0.6c9.9-0.2,19.9,0.1,29.8,0.4c0.3,0,0.5-0.2,0.5-0.5C76.3,62,76,42.1,75.8,22.2
			c0-0.3-0.3-0.5-0.6-0.5c-10.6,1.9-21.3,1.3-32,0.7c-5.2-0.3-10.3-0.6-15.5-0.5C22,22,16.4,23,10.8,22.2c-0.6-0.1-0.9,0.9-0.3,1
			c5.2,0.8,10.4-0.2,15.6-0.3c5.7-0.1,11.3,0.2,17,0.5c10.8,0.6,21.6,1.2,32.2-0.8c-0.2-0.2-0.4-0.3-0.6-0.5
			c0.2,12.1,0.3,24.2,0.5,36.4c0.1,6.1,0.2,12.3,0.2,18.4c0,0.9,0.5,3.3,0.1,4c-0.7,0.9-2.8,0.4-3.9,0.4c-3.1-0.1-6.2-0.2-9.3-0.2
			c-11.8-0.2-23.6,0.4-35.4,0.6c-2.7,0-5.4,0-8.1-0.2c-1.7-0.1-3.4-0.3-5.1-0.6c-1.5-0.2-3.4-0.2-4-1.7c-1-2.5-0.9-6-1-8.7
			c-0.2-3.1-0.2-6.3,0-9.4c0.5-12.9,2.6-25.7,1.6-38.7C10.2,21.9,9.2,21.9,9.2,22.5L9.2,22.5z"/>
	</g>
</g>
<g>
	<g>
		<path d="M64.8,24.1c2,1.4,3.4,3.2,4.9,5.1c1.5,2,3.5,3.9,4.5,6.3c0.3,0.6,1.1,0.1,0.9-0.5c-1-2.4-3.1-4.4-4.7-6.5
			c-1.5-1.9-3.1-3.8-5.1-5.2C64.7,22.9,64.2,23.8,64.8,24.1L64.8,24.1z"/>
	</g>
</g>
<g>
	<g>
		<path d="M74.7,35.1c0.6,0,0.6-1,0-1C74.1,34.1,74.1,35.1,74.7,35.1L74.7,35.1z"/>
	</g>
</g>
<g>
	<g>
		<path d="M65.8,24.2c1.2,1.9,2.5,3.7,4,5.3c1.7,1.9,3.7,3.5,4.9,5.8c0.2-0.2,0.5-0.5,0.7-0.7c-2.9-1.4-2.9-4.9-4.7-7.2
			c-0.9-1.1-1.6-2.2-2.4-3.4c-0.5-0.7-0.8-1.1-1.5-1.5c-0.1,0.3-0.3,0.6-0.4,0.9c1.5,0.4,3.6,4.2,4.5,5.4c1.1,1.6,2.4,3.1,3.1,4.9
			c0.3-0.2,0.6-0.3,0.8-0.5c-2.7-2.9-4.4-6.9-6.4-10.3c-0.3,0.2-0.5,0.4-0.8,0.6c2.6,2.8,4.8,5.8,6.7,9.1c0.3-0.2,0.6-0.3,0.9-0.5
			c-1.8-3-3.5-6-5-9.1c-0.3,0.2-0.5,0.4-0.8,0.6c2.2,2.3,5.2,5.1,5.8,8.4c0.2-0.2,0.4-0.4,0.6-0.6c-3.2-1.2-2.1-6.2-3.8-8.7
			c-0.3,0.2-0.5,0.4-0.8,0.6c1.5,1.5,2.6,3.2,3.5,5.1c0.2,0.4,1,0.2,0.9-0.3c-0.2-1.7-1.6-3-1.6-4.7c-0.3,0.1-0.5,0.3-0.8,0.4
			c0.4,0.2,0.8,0.5,1.2,0.7c0.5,0.4,1.2-0.2,0.7-0.7c-0.4-0.4-0.8-0.9-1-1.5c-0.3-0.6-1.2-0.1-0.9,0.5c0.3,0.7,0.7,1.2,1.2,1.7
			c0.2-0.2,0.5-0.5,0.7-0.7c-0.7-0.5-0.6-0.5-1.4-0.9c-0.3-0.2-0.8,0-0.8,0.4c0,1.8,1.5,2.9,1.6,4.7c0.3-0.1,0.6-0.2,0.9-0.3
			c-1-2-2.2-3.7-3.7-5.3c-0.4-0.4-1.1,0.1-0.8,0.6c1.9,2.9,0.5,7.7,4.4,9.1c0.4,0.1,0.7-0.3,0.6-0.6c-0.6-3.4-3.8-6.3-6.1-8.8
			c-0.4-0.4-1,0.1-0.8,0.6c1.5,3.1,3.2,6.2,5,9.1c0.3,0.6,1.2,0.1,0.9-0.5c-1.9-3.4-4.2-6.5-6.8-9.3c-0.4-0.4-1.1,0.1-0.8,0.6
			c2,3.5,3.8,7.5,6.6,10.5c0.3,0.4,1,0,0.8-0.5c-0.9-2.3-2.5-4.3-4-6.3c-1.1-1.5-2.3-4.3-4.2-4.7c-0.5-0.1-0.9,0.6-0.4,0.9
			c1.2,0.7,1.5,2.5,2.5,3.5c1.2,1.3,1.9,2.4,2.6,4.1c0.8,1.9,1.6,3.6,3.5,4.6c0.4,0.2,0.9-0.2,0.7-0.7c-1-1.8-2.4-3.2-3.9-4.7
			c-1.9-2-3.5-4.1-5-6.4C66.3,23.1,65.4,23.6,65.8,24.2L65.8,24.2z"/>
	</g>
</g>
<g>
	<g>
		<path d="M2.2,16.7c0.7,10.6,0.7,21.1,0,31.7C1.5,58.7,0.6,69,0.3,79.3c-0.1,2-0.6,4.8-0.1,6.8c0.2,0.8,0.6,1.1,1.4,1.3
			c0.8,0.2,1.9-0.2,2.7-0.3C5.5,87,6.7,87,8,87c2.8,0.1,5.6,0.8,8.3,1.4c4.7,1.1,8.9,1.5,13.7,0.9c5-0.6,9.8-0.7,14.9-0.3
			c11.8,0.9,23.7,0.7,35.6,0.5c0.6,0,0.6-1,0-1c-9.9,0.2-19.9,0.4-29.8-0.1c-4.7-0.2-9.4-0.8-14.1-0.7c-5.1,0.2-10.1,1.6-15.3,0.8
			c-4.2-0.6-8.2-2.1-12.4-2.4C7,86,5.1,86,3.2,86.2c-2.2,0.3-2.1-0.7-2-2.6c0-1.3,0-2.6,0.1-3.8c0.2-9.7,1-19.4,1.7-29.1
			C3.9,39.4,3.9,28,3.2,16.7C3.1,16,2.1,16,2.2,16.7L2.2,16.7z"/>
	</g>
</g>
<g>
	<g>
		<path d="M81.9,89.4c-0.3-6-0.5-12-0.2-18c0.3-5.9,0.9-11.7,0.9-17.6c0-12.1-0.6-24.1-1-36.2c0-0.6-1-0.6-1,0
			c0.3,12.1,0.9,24.1,1,36.2c0,5.7-0.5,11.4-0.9,17.2c-0.4,6.2-0.1,12.3,0.1,18.5C80.9,90.1,81.9,90.1,81.9,89.4L81.9,89.4z"/>
	</g>
</g>
<g>
	<g>
		<path d="M2.4,16.2c27-0.3,54,0,81,0.7c0.6,0,0.6-1,0-1c-27-0.7-54-1-81-0.7C1.8,15.2,1.8,16.2,2.4,16.2L2.4,16.2z"/>
	</g>
</g>
<g>
	<g>
		<path d="M9.1,22c-1.4,0.1-2.4-1.2-3.2-2.2c-1-1.3-1.9-2.7-1.7-4.4c0.1-0.6-0.9-0.9-1-0.3c-0.3,1.9,0.4,3.5,1.6,4.9
			c1.1,1.3,2.3,3,4.2,2.9C9.7,22.9,9.7,21.9,9.1,22L9.1,22z"/>
	</g>
</g>
<g>
	<g>
		<path d="M75.3,22.3c1.3,0.4,2.3-0.9,3.1-1.6c1.2-1.2,2.4-2.4,3.5-3.7c0.4-0.5-0.3-1.2-0.7-0.7c-0.8,0.9-1.5,1.8-2.4,2.7
			c-0.6,0.6-2.3,2.7-3.2,2.4C74.9,21.1,74.7,22.1,75.3,22.3L75.3,22.3z"/>
	</g>
</g>
<g>
	<g>
		<path d="M75.7,82.5c2.3-0.4,3.2,1.5,4,3.4c0.6,1.4,1,2.8,1.3,4.2c0.1,0.6,1.1,0.4,1-0.3c-0.5-2.3-1.3-4.6-2.5-6.7
			c-1-1.7-2.1-1.9-4-1.6C74.8,81.6,75.1,82.6,75.7,82.5L75.7,82.5z"/>
	</g>
</g>
<g>
	<g>
		<path d="M9.5,80.1c-3.2,1.4-5.9,3.4-8.1,6.1c-0.4,0.5,0.3,1.2,0.7,0.7c2.2-2.6,4.8-4.6,7.9-5.9C10.6,80.7,10.1,79.8,9.5,80.1
			L9.5,80.1z"/>
	</g>
</g>
<g>
	<g>
		<path d="M33.6,15c-0.5-4.7,3.2-7.8,7.7-7.6c4,0.2,7.6,4.1,7.7,7.9c0,0.6,1,0.6,1,0c-0.2-4.4-4.2-8.8-8.7-8.9
			c-5-0.2-9.3,3.4-8.7,8.6C32.6,15.6,33.6,15.6,33.6,15L33.6,15z"/>
	</g>
</g>
<g>
	<g>
		<path d="M47.8,15.4c-0.1-1-0.5-1.8-1.3-2.4c-1.1-0.8-2.8-0.6-3.7-1.6c-1-1.1-0.9-3.6-3.1-2.6c-0.9,0.4-1,1.1-1.5,1.7
			c-0.9,1.2,0.3,0.1-0.8,0.6c-0.1,0-0.4,0-0.5,0c-1.6,0.4-2.3,3-2.4,4.4c-0.1,0.6,0.9,0.6,1,0c0.1-1.4,0.9-3.5,2.6-3.1
			c0.2,0,0.4,0,0.5-0.1c0.7-0.8,0.2-0.8,1.5-1.4c1.5-0.8,1.1-0.7,1.6,0.4c0.2,0.4,0.3,0.8,0.5,1.1c1.2,1.5,4.3,1,4.6,3.3
			C46.9,16.3,47.9,16,47.8,15.4L47.8,15.4z"/>
	</g>
</g>
<g>
	<g>
		<path d="M41.2,12.9c2.6-2.7,5.3-5.4,8.1-7.8c0.5-0.4-0.2-1.1-0.7-0.7c-2.8,2.5-5.5,5.1-8.1,7.8C40,12.7,40.8,13.4,41.2,12.9
			L41.2,12.9z"/>
	</g>
</g>
<g>
	<g>
		<path d="M41.5,13.7c1.9-0.6,3.1-2.1,4.7-3.1c1.8-1,3.6-1.7,5.1-3.1c0.5-0.4-0.2-1.1-0.7-0.7c-1.4,1.3-3.2,2-4.9,2.9
			c-1.5,0.9-2.8,2.5-4.5,3C40.6,12.9,40.9,13.9,41.5,13.7L41.5,13.7z"/>
	</g>
</g>
<g>
	<g>
		<path d="M41.8,12.9c0.6,0,0.6-1,0-1C41.2,11.9,41.2,12.9,41.8,12.9L41.8,12.9z"/>
	</g>
</g>
<g>
	<g>
		<path d="M43.8,10.3c0.5,0,0.9,0,1.4,0.3c0.6,0.3,1.1-0.5,0.5-0.9c-0.6-0.3-1.2-0.5-1.9-0.4C43.2,9.4,43.2,10.4,43.8,10.3
			L43.8,10.3z"/>
	</g>
</g>
<g>
	<g>
		<path d="M46.7,8c0.6-0.1,1.2,0.1,1.6,0.5C48.8,9,49.5,8.3,49,7.8c-0.7-0.7-1.6-0.9-2.6-0.8C45.8,7.2,46.1,8.1,46.7,8L46.7,8z"/>
	</g>
</g>
<g>
	<g>
		<path d="M48.8,5.7c0.2,0.9,0.7,1.8,1.4,2.4c0.5,0.5,1.2-0.3,0.7-0.7c-0.6-0.6-0.9-1.2-1.1-2C49.6,4.8,48.6,5.1,48.8,5.7L48.8,5.7z
			"/>
	</g>
</g>
<g>
	<g>
		<path d="M48.9,1.5c-0.4,2.6,0.8,5.4,2.9,7c1.9,1.4,4.2,1,5.1-1.2c1-2.3,0.2-4.6-1.8-5.9c-2-1.3-4.9-2.1-7.1-0.7
			c-0.5,0.3,0,1.2,0.5,0.9c2.5-1.6,7.9,0.3,7.9,3.6c0,1.3-0.6,3.1-2.3,3.2c-0.9,0-1.8-0.7-2.3-1.3c-1.4-1.4-2.2-3.4-1.9-5.3
			C50,1.2,49,0.9,48.9,1.5L48.9,1.5z"/>
	</g>
</g>
<g>
	<g>
		<path d="M50.8,2.3c2.5-0.1,3.4,4.1,4.2,5.9c0.2,0.6,1.2,0.3,1-0.3c-1-2.3-1.9-6.8-5.1-6.6C50.2,1.4,50.2,2.4,50.8,2.3L50.8,2.3z"
			/>
	</g>
</g>
<g>
	<g>
		<path d="M51.2,6.3c1-1.5,2.6-2.4,4.5-2.5c0.6,0,0.6-1,0-1c-2.2,0.1-4.1,1.2-5.3,3C50,6.3,50.9,6.8,51.2,6.3L51.2,6.3z"/>
	</g>
</g>
<g>
	<g>
		<path d="M50.1,1.7c0.6,0,1.1,0.2,1.4,0.7c0.3,0.6,1.2,0.1,0.9-0.5c-0.4-0.8-1.3-1.3-2.2-1.2C49.5,0.7,49.5,1.7,50.1,1.7L50.1,1.7z
			"/>
	</g>
</g>
<g>
	<g>
		<path d="M69,24.5c1.3,0,2.6,0,4,0c0.6,0,0.6-1,0-1c-1.2-0.1-2.4,0-3.6,0.2c0.1,0.3,0.2,0.6,0.3,1c0.6-0.1,1.5-0.6,2.1-0.5
			c1,0.1,0.7-0.4,0.7,1c-0.1,1.9-0.3,3.7-0.6,5.6c0.3,0,0.7,0.1,1,0.1c0.2-1.7,0.1-3.2-0.4-4.8c-0.1-0.4-0.9-0.5-1,0
			c-0.2,0.9-0.3,1.8,0,2.7c0.4,0.9,1.3,1.2,1.7,2.1c0.2,0.4,0.8,0.3,0.9-0.1c0.4-1.2,0.5-2.2,0.2-3.5c-0.1-0.6-1-0.4-1,0.1
			c-0.1,2,0.1,4,0.5,6c0.1,0.6,1,0.4,1-0.1c0.2-3.4,0.3-6.9,0.5-10.3c0-0.6-0.9-0.7-1-0.1c-0.2,0.8-0.3,1.6-0.5,2.4
			c-0.1,0.3-0.1,0.7-0.2,1c-0.3,1.2-0.2,0.9,0.3-0.8c-0.3-0.1-0.6-0.2-0.9-0.4c-0.2,2.1,0.1,4.1,0.8,6.1c0.2,0.6,1.1,0.4,1-0.3
			c-0.1-0.7-0.2-1.3-0.4-2c-0.1-0.6-1.1-0.4-1,0.3c0.1,0.7,0.2,1.3,0.4,2c0.3-0.1,0.6-0.2,1-0.3C74.1,28.9,73.8,27,74,25
			c0-0.4-0.6-0.7-0.9-0.4c-0.7,0.7-1.7,3.2-0.1,3.7c1.8,0.5,2-4.4,2.2-5.3c-0.3,0-0.7-0.1-1-0.1c-0.2,3.4-0.3,6.9-0.5,10.3
			c0.3,0,0.7-0.1,1-0.1c-0.4-1.9-0.5-3.8-0.4-5.8c-0.3,0-0.7,0.1-1,0.1c0.2,1.1,0.2,1.9-0.2,2.9c0.3,0,0.6-0.1,0.9-0.1
			c-0.3-0.7-0.2-0.2-0.6-0.9c-0.7-1.1-1.2-1.7-1-3.1c-0.3,0-0.6,0-1,0c0.5,1.5,0.6,3,0.4,4.6c-0.1,0.6,0.9,0.7,1,0.1
			c0.2-1.3,0.4-2.6,0.5-3.9c0.1-0.8,0.5-2.8,0.1-3.5c-0.7-1.3-3-0.1-4.1,0.2c-0.6,0.2-0.4,1.1,0.3,1c1.1-0.2,2.2-0.2,3.4-0.2
			c0-0.3,0-0.7,0-1c-1.3,0-2.6,0-4,0C68.4,23.5,68.4,24.5,69,24.5L69,24.5z"/>
	</g>
</g>
</svg>
