<?xml version="1.0" encoding="utf-8"?>
<!-- Generator: Adobe Illustrator 23.0.3, SVG Export Plug-In . SVG Version: 6.00 Build 0)  -->
<svg version="1.1" id="Layer_1" xmlns="http://www.w3.org/2000/svg" xmlns:xlink="http://www.w3.org/1999/xlink" x="0px" y="0px"
	 viewBox="0 0 175.72 109.18" style="enable-background:new 0 0 175.72 109.18;" xml:space="preserve">
<style type="text/css">
	.st0{fill:#FFFFFF;}
	.st1{fill:none;stroke:#000000;stroke-miterlimit:10;}
</style>
<g>
	<g>
		<path d="M1.88,62.02c11.98-2.35,20.65,7.42,27.99,15.32c3.78,4.07,7.55,8.14,11.33,12.2c0.95,1.02,2.75,2.3,3.33,3.59
			c0.44,0.48,0.89,0.96,1.33,1.44c-0.98,0.72-1.96,1.43-2.93,2.15c-1.45-0.04-4.63-2.55-6.01-3.14c-4.01-1.69-8.31-1.91-12.32-3.38
			c-4.75-1.74-6.07-7.81-8.81-11.64C13,74.69,9,71.83,7.63,67.13c-0.97-3.34-1.4-6.19-4.86-7.73c-1.75-0.78-3.28,1.81-1.51,2.59
			C5,63.65,4.24,68,5.71,70.98c1.24,2.52,3.47,4.29,5.29,6.36c2.34,2.66,4.16,5.58,5.73,8.73c1.05,2.12,1.92,4.12,3.9,5.54
			c4.55,3.24,11.38,2.9,16.47,5.32c3.22,1.53,7.61,5.48,11.26,2.69c3.56-2.73,0.44-6.23-1.72-8.61C41.37,85.22,36,79.51,30.65,73.78
			c-7.86-8.44-17.09-17.1-29.57-14.65C-0.81,59.5-0.01,62.39,1.88,62.02L1.88,62.02z"/>
	</g>
</g>
<g>
	<g>
		<path d="M56.52,96.03c10.63-0.3,21.27-0.25,31.9,0.23c10.01,0.45,24.72-0.04,29.06,11.25c0.35-0.62,0.7-1.23,1.05-1.85
			c-8.43,2.39-17.02-3.94-25.38-4.88c-3.08-0.35-30.35-2.43-29.27-6.02c0.56-1.85-2.34-2.64-2.89-0.8c-0.85,2.85,1.18,4.64,3.7,5.67
			c5.77,2.35,13.32,2.63,19.49,3.31c6.89,0.76,13.19,1.35,19.75,3.75c5.12,1.87,10,3.39,15.4,1.86c0.72-0.2,1.34-1.08,1.05-1.85
			c-3.64-9.45-13.27-12.16-22.54-12.91c-13.72-1.11-27.57-1.16-41.32-0.77C54.59,93.09,54.58,96.09,56.52,96.03L56.52,96.03z"/>
	</g>
</g>
<g>
	<g>
		<path d="M49.93,30.68c0.01,9.83,0.02,19.66,0.03,29.49c0,0.69,0.47,1.24,1.1,1.45c7.99,2.63,13.53-6.65,7.64-12.54
			c-0.22,0.84-0.44,1.67-0.66,2.51c5.18-1.24,8.7,0.47,12.71,3.41c1.94,1.42,3.35,2.2,5.76,1.62c1.07-0.26,1.49-1.76,0.66-2.51
			c-2.44-2.2-8.32-6.87-9.06-10.23c-1.06-4.84,2.75-5.07,4.51-8.15c0.78-1.37-0.74-2.69-2.05-2.05c-2.36,1.15-4.75,2.2-7.22,3.1
			c-1.13,0.41-3.65,1.8-4.71,1.52c-3.38-0.87-5.42-10.68-6.42-13.33c-0.68-1.79-3.58-1.01-2.89,0.8c1.47,3.88,2.86,7.8,4.41,11.65
			c0.6,1.48,1.11,3.18,2.72,3.84c1.92,0.79,4.37-0.45,6.13-1.05c3.26-1.09,6.41-2.45,9.5-3.95c-0.68-0.68-1.37-1.37-2.05-2.05
			c-2.01,3.53-6.3,3.65-5.5,8.57c0.83,5.11,6.94,10.22,10.51,13.45c0.22-0.84,0.44-1.67,0.66-2.51c-2.51,0.6-6.88-4.06-9.46-4.89
			c-3-0.95-5.97-0.87-9-0.15c-1.11,0.27-1.44,1.73-0.66,2.51c3.83,3.84,0.23,9.16-4.72,7.53c0.37,0.48,0.73,0.96,1.1,1.45
			c-0.01-9.83-0.02-19.66-0.03-29.49C52.93,28.75,49.93,28.74,49.93,30.68L49.93,30.68z"/>
	</g>
</g>
<g>
	<g>
		<path d="M81.93,45.51c1.32,6.18,5.94,9.8,10.78,13.39c5.46,4.05,8.77,10,15.47,12.07c5.21,1.61,11.55,2.37,16.27-0.93
			c5.04-3.52,7.87-10.9,10.3-16.28c2.85-6.32,12.03-25.1,0.13-28.06c-4.25-1.06-10.87-0.59-14.28,2.44
			c-0.92,0.82-1.51,2.28-2.44,3.02c-2.49,1.99-5.5,2.38-8.51,2.45c-4.67,0.1-9.38-0.06-14-0.8c-5.01-0.8-12.26-3.74-16.33,0.86
			c-4.34,4.9-0.18,11.15,3.13,15.15c1.23,1.49,3.34-0.64,2.12-2.12c-2.87-3.47-7.97-11.33,1.1-12.51c2.84-0.37,6.38,1.06,9.18,1.51
			c6.02,0.98,12.33,1.26,18.41,0.77c1.72-0.14,3.53-0.26,5.03-1.22c2.2-1.4,3.03-3.99,5.25-5.38c2.18-1.36,6.65-2.24,9.26-1.46
			c5.45,1.63,5.35,6.14,4.22,10.59c-1.57,6.18-4.21,12.26-7.12,17.91c-3.41,6.66-6.78,13.1-15.35,12.33
			c-2.99-0.27-6.82-1.09-9.38-2.74c-2.91-1.88-4.8-5.36-7.5-7.6c-5.06-4.18-11.36-7.21-12.85-14.2
			C84.42,42.82,81.52,43.62,81.93,45.51L81.93,45.51z"/>
	</g>
</g>
<g>
	<g>
		<path d="M144.42,60.76c1.44,5.71,4.93,10.18,8.11,15.02c1.94,2.96,3.51,5.96,4.34,9.43c0.56,2.36,0.79,4.79,1.69,7.06
			c1.12,2.81,4.07,6.71,7.44,4.66c3.76-2.28,4.49-9.75,4.95-13.51c0.44-3.64,0.62-7.32,1.53-10.88c0.84-3.29,2.47-6.38,3.03-9.74
			c0.62-3.7,0.01-7.88-3.09-10.33c-1.9-1.5-4.39-2.01-6.67-2.64c-2.47-0.69-5.6-2.08-8.17-2.15c-1.87-0.05-3.17,0.43-4.51,1.73
			c-3.31,3.23-3.93,6.72-9.6,6.64c-1.93-0.03-1.93,2.97,0,3c2.98,0.04,5.79-0.73,8.05-2.75c1.23-1.09,1.89-3.08,3.11-4.03
			c2.74-2.14,5.85-0.79,8.71,0.01c2.95,0.82,5.76,1.17,7.74,3.61c2.12,2.62,1.82,5.27,0.96,8.4c-1.17,4.3-2.81,8.17-3.39,12.64
			c-0.54,4.17,0,12.46-3.14,15.66c-4.37,4.46-5.54-7.77-6.3-10.19c-2.57-8.23-9.78-14.01-11.91-22.43
			C146.84,58.09,143.95,58.88,144.42,60.76L144.42,60.76z"/>
	</g>
</g>
<g>
	<g>
		<path d="M96.71,21.28c0.82,8.83,2.38,17.49,4.75,26.04c0.47,1.7,2.81,1.24,2.95-0.4c0.44-5.3,0.88-10.6,1.33-15.9
			c0.32-3.78,1.03-7.82,0.12-11.57c-1.15-4.72-5.54-8.55-10.51-6.62c-0.66,0.25-1.06,0.73-1.1,1.45
			c-0.59,9.84,1.38,19.27,5.76,28.09c0.71,1.42,2.71,0.62,2.8-0.76c0.4-6.83,2.13-14.95,0.9-21.7c-0.71-3.9-3.57-6.56-7.6-5.68
			c-0.66,0.14-1.08,0.81-1.1,1.45c-0.05,1.62-0.11,3.24-0.16,4.86c-0.06,1.93,2.94,1.93,3,0c0.05-1.62,0.11-3.24,0.16-4.86
			c-0.37,0.48-0.73,0.96-1.1,1.45c5.72-1.24,3.73,10.41,3.58,12.91c-0.23,3.86-0.45,7.72-0.68,11.58c0.93-0.25,1.86-0.5,2.8-0.76
			c-4.16-8.37-5.91-17.26-5.35-26.58c-0.37,0.48-0.73,0.96-1.1,1.45c4.18-1.62,6.83,2.87,7.1,6.49c0.2,2.58-0.21,5.26-0.42,7.82
			c-0.47,5.63-0.94,11.27-1.41,16.9c0.98-0.13,1.96-0.27,2.95-0.4c-2.29-8.29-3.85-16.68-4.64-25.25
			C99.53,19.38,96.53,19.36,96.71,21.28L96.71,21.28z"/>
	</g>
</g>
<g>
	<g>
		<path d="M94.83,18.78c0.68,1.63,1.23,3.31,1.59,5.04c0.3,1.44,0.09,3.27,0.81,4.57c0.94,1.69,3.53,0.18,2.59-1.51
			c-0.22-0.39-0.11-1.41-0.18-1.89c-0.11-0.77-0.23-1.53-0.4-2.28c-0.36-1.62-0.88-3.19-1.52-4.72C96.99,16.23,94.09,17,94.83,18.78
			L94.83,18.78z"/>
	</g>
</g>
<g>
	<g>
		<path d="M97.15,16.92c-0.74,5.86-0.04,11.56,2.1,17.06c0.69,1.78,3.59,1.01,2.89-0.8c-2.04-5.27-2.7-10.66-1.99-16.26
			C100.39,15.01,97.39,15.03,97.15,16.92L97.15,16.92z"/>
	</g>
</g>
<g>
	<g>
		<path d="M97.77,21.98c0,0.72,0,1.45,0,2.17c0,0.78,0.69,1.54,1.5,1.5c0.81-0.04,1.5-0.66,1.5-1.5c0-0.72,0-1.45,0-2.17
			c0-0.78-0.69-1.54-1.5-1.5C98.46,20.52,97.77,21.14,97.77,21.98L97.77,21.98z"/>
	</g>
</g>
<g>
	<g>
		<path d="M101.97,33.77c-5.81-5.43-16.79-18.6-5.78-24.98c2.22-1.28,5.17-1.78,7.75-1.51c4.53,0.49,6.95,3.34,6.29,7.82
			c-0.69,4.66-4.44,8.4-6.98,12.18c0.86,0.5,1.73,1.01,2.59,1.51c3.39-5.25,8.27-11.34,6.62-18.05c-1.5-6.12-7.54-9.41-13.34-10.31
			c-5.63-0.87-9.61-1-11.29,5c-1.76,6.3-0.25,12.93,3.68,18.08c1.14,1.5,3.51,0.25,2.59-1.51c-2.15-4.11-4.64-8.68-3.19-13.42
			c1.85-6.08,7.58-6.08,12.75-4.83c1.24,0.3,3.66,0.77,4.66,1.51c2.52,1.84,2.2,6.06,1.75,8.72c-0.75,4.38-2.92,8.17-6.01,11.32
			c-1.35,1.38,0.77,3.5,2.12,2.12c4.61-4.7,7.44-10.96,7.15-17.62c-0.28-6.49-4.51-8.13-10.34-9.27c-5.3-1.04-11.38-0.5-14.21,4.81
			c-3.22,6.03-0.13,12.7,2.73,18.18c0.86-0.5,1.73-1.01,2.59-1.51c-2.79-3.66-4.35-7.98-3.95-12.64c0.18-2.18,0.68-5.34,3.12-6.31
			c1.82-0.72,5.6,0.24,7.35,0.71c4.85,1.3,9.48,4.84,9.15,10.37c-0.29,4.85-3.99,9.23-6.52,13.15c-1.05,1.63,1.52,3.11,2.59,1.51
			c3.69-5.5,9.34-11.34,7.06-18.55c-2.07-6.5-9.74-6.77-15.36-5.32c-5.84,1.51-8.94,7.02-8.75,12.88
			c0.26,7.52,5.9,13.26,11.06,18.08C101.26,37.21,103.38,35.1,101.97,33.77L101.97,33.77z"/>
	</g>
</g>
<g>
	<g>
		<path d="M94.18,5.31c-0.04,4.04-0.08,8.09-0.13,12.13c0.98-0.13,1.96-0.27,2.95-0.4c-1.22-2.89-2.65-5.48-4.54-8
			c-0.74-0.99-2.36-0.98-2.74,0.36c-1.12,3.96-0.51,7.59,2.01,10.87c1.02,1.33,3.07,0.6,2.74-1.16c-0.37-1.94-0.91-3.98-0.5-5.95
			c0.48-2.31,3.71-9.28,6.68-2.49c0.99,2.25,0.2,6.7,0.27,9.17c0.04,1.31,1.61,1.97,2.56,1.06c3.59-3.41,4.74-8.03,3.1-12.71
			c-0.52-1.49-3.1-1.39-2.95,0.4c0.72,8.32,0.92,16.63,0.59,24.98c-0.08,1.93,2.92,1.93,3,0c0.33-8.34,0.13-16.66-0.59-24.98
			c-0.98,0.13-1.96,0.27-2.95,0.4c1.3,3.7,0.52,7.09-2.32,9.79c0.85,0.35,1.71,0.71,2.56,1.06c-0.14-4.9,1.54-16.53-6.88-14.91
			c-6.92,1.33-6.44,9.78-5.46,14.98c0.91-0.39,1.83-0.77,2.74-1.16c-2.06-2.68-2.64-5.28-1.71-8.56c-0.91,0.12-1.83,0.24-2.74,0.36
			c1.73,2.31,3.11,4.61,4.24,7.29c0.62,1.46,2.93,1.43,2.95-0.4c0.04-4.04,0.08-8.09,0.13-12.13C97.2,3.38,94.2,3.38,94.18,5.31
			L94.18,5.31z"/>
	</g>
</g>
<g>
	<g>
		<path d="M109.04,15.12c-1.35,7.29-3.46,14.33-6.4,21.14c-0.76,1.75,1.83,3.28,2.59,1.51c3.05-7.06,5.3-14.29,6.7-21.86
			C112.28,14.03,109.39,13.22,109.04,15.12L109.04,15.12z"/>
	</g>
</g>
<g>
	<g>
		<path d="M104.33,13.24c1.73,0.03,2.8,1.04,3.16,2.66c0.84-0.49,1.67-0.97,2.51-1.46c-2.12-1.96-2.1-5.09-3.57-7.46
			c-1.24-1.99-3.24-3.01-5.53-3.31c-4.84-0.62-10.14,1-9.39,6.82c0.56,4.31,5.37,7.38,9.28,4.71c3.56-2.44,2.34-7.96-1.76-8.89
			c-1.02-0.23-1.8,0.45-1.9,1.45c-0.15,1.57,0.02,2.85,0.55,4.33c0.91-0.39,1.83-0.77,2.74-1.16c-0.69-1.15-1.37-2.31-2.06-3.46
			c-0.99-1.66-3.58-0.15-2.59,1.51c0.69,1.15,1.37,2.31,2.06,3.46c0.84,1.41,3.33,0.49,2.74-1.16c-0.43-1.21-0.56-2.25-0.44-3.53
			c-0.63,0.48-1.27,0.96-1.9,1.45c3.04,0.69,1.53,4.09-1.07,3.77c-1.62-0.2-2.62-1.43-2.67-3.09c-0.1-3.68,5.78-4.09,8.13-2.62
			c2.99,1.87,2.6,6.84,5.25,9.29c1.12,1.03,2.83,0.01,2.51-1.46c-0.66-2.98-3.03-4.81-6.05-4.86
			C102.4,10.21,102.4,13.21,104.33,13.24L104.33,13.24z"/>
	</g>
</g>
<g id="XMLID_1_">
	<g>
		<circle class="st0" cx="99.68" cy="14.47" r="6.47"/>
	</g>
	<g>
		<circle class="st1" cx="99.68" cy="14.47" r="6.47"/>
	</g>
</g>
</svg>
