<?xml version="1.0" encoding="utf-8"?>
<!-- Generator: Adobe Illustrator 23.0.3, SVG Export Plug-In . SVG Version: 6.00 Build 0)  -->
<svg version="1.1" id="Layer_1" xmlns="http://www.w3.org/2000/svg" xmlns:xlink="http://www.w3.org/1999/xlink" x="0px" y="0px"
	 viewBox="0 0 194.48 177.91" style="enable-background:new 0 0 194.48 177.91;" xml:space="preserve">
<path d="M103.12,104.57c-1.34-2.4-2.93-4.64-4.82-6.79c-1.4-1.59-4.29-1.92-6.06-0.78c-9.94,6.38-20.53,11.56-31.78,15.19
	c-3.98,1.28-9.61,1.99-14.61,3.56c-1.83-7.32-3.89-14.59-6.18-21.78c7.09-0.73,13.72-3.72,20.5-5.72c4.7-0.4,9.63-0.18,13.98-1.95
	c9.09-3.67,12.91-15.49,17-23.57c0.65-0.89,0.95-1.98,0.68-3.14c-0.17-1.48-1.04-2.77-2.21-3.61c-1.56-2.09-3.11-4.19-4.67-6.28
	c-1.49-2-2.9-4.63-5.02-6.05c-4.47-2.99-10,1.63-14.16,3.16c-6.17,2.27-12.65,3.71-19.01,5.34c-6.71,1.72-13.34,3.82-20.34,3.42
	c-0.44-0.03-0.86,0.03-1.26,0.12c-0.71-1.92-1.38-3.86-2.01-5.8c8.49-1.35,16.97-2.69,25.46-4.04c3-0.48,5.61-0.96,8.19-1.91
	c5.17,0.58,11.57,1.37,14.63-2.37c2.14-2.62,3.48-6.28,5.02-9.3c1.7-3.31,3.39-6.63,5.09-9.94c2.86-5.58-5.29-10.54-8.41-5.43
	c-0.95-0.31-1.97-0.38-2.93-0.19c-0.03,0-0.05,0-0.07,0c-18.91,0.9-37.58,4.12-55.67,9.71c-2.72,0.84-3.71,3.21-3.44,5.42
	c-2.75-0.38-5.76,1.2-5.67,4.77c0.16,5.86-0.1,11.71-1.06,17.5c-0.93,5.65-3.19,11-4.14,16.59C-0.74,76.14,2.1,80.96,4,85.9
	c2.12,5.49,4.08,11.04,5.9,16.64c7.44,22.87,12.36,46.5,14.68,70.43c0.33,3.41,2.92,5.46,6.33,4.82
	c14.94-2.81,27.05-12.03,39.8-19.67c4.74-2.84,10.17-4.77,15.08-7.36c1.85,0.49,3.82-0.11,4.83-2.46c0.11-0.26,0.23-0.51,0.34-0.76
	c5.28-4.17,7.57-10.5,9.46-16.82c0.35-1.18,0.28-2.23-0.07-3.11c2.02-3.97,4.09-7.91,6.26-11.81c0.72-1.29,0.81-2.55,0.5-3.65
	C109.05,109.34,106.66,105.02,103.12,104.57z M67.04,56.91c-0.01,0.13-0.03,0.27-0.03,0.4c-1.09,0.24-2.18,0.46-3.28,0.67
	C64.83,57.64,65.94,57.28,67.04,56.91z"/>
<path d="M165,70.22c-6.01-1.86-10.35,1.17-14.99,4.17c3.27,4.68,5.17,10.68,7.13,15.69c1.02,2.61,4.96,15.72,8.95,15.06
	c1.74-0.29,3.16,0.14,4.21,0.94c6.23-4.13,9.17-13.29,8.34-20.87C177.86,78.01,171.71,72.29,165,70.22z"/>
<path d="M193.93,86.08c-1.62-10-6.77-20.43-14.19-27.41c-7.04-6.63-14.96-7.97-23.41-6.78c1.78-6.89,2.48-14.05,1.94-21.15
	c-0.68-9-2.51-18.72-10.67-23.92c-7.73-4.93-18.38-6.37-27.36-6.74c-7.77-0.32-15.66,0.38-21.09,6.04c-2.45-0.57-5.4,0.93-6.26,3.51
	c-2.36,7.08-4.72,14.16-7.08,21.25c-0.37,1.1-0.35,2.09-0.07,2.94c-0.85,1.36-1.12,3.12-0.25,4.94c7.8,16.32,16.8,31.86,23.71,48.63
	c7.15,17.36,13.8,34.93,20.64,52.41c1.74,4.45,9.19,4.74,9.8-0.14c2.33-1.59,5.85-2.53,8.11-3.59c3.57-1.68,7.15-3.36,10.72-5.04
	c1.01-0.48,1.67-1.31,2.04-2.27c8.67-4.18,18.23-7.03,25.25-13.9C193.52,107.27,195.62,96.49,193.93,86.08z M135.15,55.59
	c-2.38,1.31-5.44,0.57-6.84-1.79c-7.27-12.28-14.86-24.43-20.65-37.5c0,0,0-0.01,0-0.01c-3.56-2.14-4.18-8.26,0.82-8.96
	c13.27-1.87,30.66-1.05,37.71,12.55C152.43,31.9,146.89,49.13,135.15,55.59z M161.44,118.23c-3.39-0.33-5.95-4.26-4.73-7.13
	c-8.13-8.31-9.41-27.44-17.82-34.01c-2.6-2.03-1.99-4.87-0.1-6.62c0.36-0.9,1.07-1.72,2.2-2.31c4.52-2.37,8.52-5.87,13.36-7.59
	c4.79-1.7,10-1.2,14.72,0.49c9.49,3.4,17.76,11.56,19.28,21.76C190.77,99.12,180.2,120.04,161.44,118.23z"/>
</svg>
